<svg width="298" height="272" viewBox="0 0 298 272" fill="none" xmlns="http://www.w3.org/2000/svg">
<g clip-path="url(#clip0)">
<path d="M294.041 190.517C294.051 190.293 293.906 190.066 293.607 189.895L271.884 177.43C271.307 177.099 270.375 177.099 269.802 177.43L255.399 185.748C255.113 185.913 254.97 186.13 254.971 186.346C254.971 186.345 254.971 186.344 254.971 186.344L254.969 187.094C254.968 187.312 255.113 187.531 255.403 187.697L277.127 200.162C277.704 200.493 278.636 200.493 279.209 200.162L293.612 191.843C293.897 191.679 294.04 191.464 294.04 191.248L294.042 190.498C294.042 190.505 294.042 190.511 294.041 190.517Z" fill="#1D1D1F"/>
<path d="M293.607 189.891L271.883 177.427C271.306 177.095 270.374 177.095 269.801 177.427L255.398 185.745C254.824 186.076 254.827 186.613 255.404 186.944L277.128 199.409C277.705 199.74 278.637 199.74 279.21 199.409L293.613 191.09C294.187 190.759 294.184 190.222 293.607 189.891Z" fill="#2E2E30"/>
<path d="M279.849 188.83L279.845 188.832C279.591 188.978 279.592 189.214 279.848 189.36L279.852 189.362C279.594 189.215 279.593 188.977 279.849 188.83Z" fill="#FECE00"/>
<path d="M283.636 187.176L283.632 187.174C283.378 187.028 282.968 187.028 282.716 187.174L282.712 187.176C282.966 187.029 283.38 187.029 283.636 187.176Z" fill="#FECE00"/>
<path d="M285.694 192.184C285.44 192.331 285.026 192.332 284.77 192.185L284.774 192.187C285.028 192.333 285.438 192.332 285.69 192.187L285.694 192.184Z" fill="#FECE00"/>
<path d="M288.559 190.001L288.555 189.998C288.812 190.145 288.814 190.384 288.558 190.531L288.562 190.528C288.816 190.383 288.814 190.146 288.559 190.001Z" fill="#FECE00"/>
<path d="M283.657 188.641L281.911 187.639L280.649 188.367L282.396 189.369C282.547 189.229 282.733 189.092 282.955 188.964C283.176 188.836 283.414 188.728 283.657 188.641Z" fill="#FEDA44"/>
<path d="M287.757 190.993L286.011 189.991C285.859 190.132 285.672 190.269 285.451 190.397C285.23 190.524 284.992 190.632 284.749 190.72L286.495 191.722L287.757 190.993Z" fill="#FEDA44"/>
<path d="M282.396 189.369L280.649 188.367L279.848 188.83C279.594 188.977 279.595 189.215 279.851 189.362L282.311 190.774C281.767 190.462 281.832 189.892 282.396 189.369Z" fill="#FED322"/>
<path d="M286.495 191.722L284.749 190.72C283.843 191.046 282.854 191.085 282.311 190.773L284.77 192.185C285.026 192.332 285.44 192.331 285.695 192.184L286.495 191.722Z" fill="#FED322"/>
<path d="M286.096 188.587L283.637 187.176C283.38 187.029 282.967 187.029 282.712 187.176L281.911 187.639L283.658 188.641C284.564 188.314 285.552 188.275 286.096 188.587Z" fill="#FED322"/>
<path d="M288.555 189.998L286.096 188.587C286.639 188.899 286.574 189.468 286.011 189.991L287.757 190.993L288.558 190.531C288.812 190.384 288.811 190.145 288.555 189.998Z" fill="#FED322"/>
<path d="M286.011 189.991L283.657 188.641C283.414 188.728 283.176 188.836 282.955 188.964C282.733 189.092 282.547 189.229 282.396 189.369L284.749 190.72C284.992 190.632 285.23 190.524 285.451 190.397C285.672 190.269 285.859 190.132 286.011 189.991Z" fill="#FED322"/>
<path d="M284.749 190.72L282.396 189.37C281.832 189.892 281.767 190.462 282.31 190.774C282.854 191.085 283.843 191.046 284.749 190.72Z" fill="#EEBF00"/>
<path d="M286.096 188.587C285.552 188.275 284.563 188.314 283.657 188.641L286.011 189.991C286.574 189.468 286.639 188.899 286.096 188.587Z" fill="#EEBF00"/>
<path d="M264.837 187.406L261.478 185.478L260.596 185.987L263.956 187.915L264.837 187.406Z" fill="#77767E"/>
<path d="M269.553 190.112L266.193 188.185L265.312 188.693L268.672 190.621L269.553 190.112Z" fill="#77767E"/>
<path d="M274.27 192.819L270.91 190.891L270.029 191.4L273.389 193.328L274.27 192.819Z" fill="#77767E"/>
<path d="M278.986 195.525L275.626 193.597L274.745 194.106L278.105 196.034L278.986 195.525Z" fill="#77767E"/>
</g>
<path d="M297.195 136.299L258.331 156.638L164.531 102.037L199.3 86.1141L297.195 136.299Z" fill="url(#paint0_linear)"/>
<path d="M230.596 227.234L176.972 259.041L123.6 227.234L176.972 192.323L230.596 227.234Z" fill="url(#paint1_linear)" style="mix-blend-mode:multiply"/>
<path d="M276.866 187.03L223.242 218.837L169.869 187.03L223.242 152.12L276.866 187.03Z" fill="url(#paint2_linear)" style="mix-blend-mode:multiply"/>
<g clip-path="url(#clip1)">
<g clip-path="url(#clip2)">
<path d="M171.595 28.0469L164.641 32.0617L164.583 99.8811L105.464 134.013L105.487 142.004L195.04 194.047L261.113 155.9L261.149 80.0895L171.595 28.0469Z" fill="#4D4D4D"/>
<path d="M261.149 80.0895L261.113 155.9L195.04 194.047L195.018 186.056L254.194 151.924V84.1046L261.149 80.0895Z" fill="#666666"/>
<path d="M195.04 194.047L105.487 142.004L105.464 134.013L195.018 186.056L195.04 194.047Z" fill="#4D4D4D"/>
<path d="M195.018 186.056L105.464 134.013L164.583 99.8811L254.194 151.924L195.018 186.056Z" fill="#474747"/>
<path d="M160.898 163.71L136.122 149.312L152.478 139.869L177.27 154.267L160.898 163.71Z" fill="#77767E"/>
<path d="M254.194 151.924L164.583 99.8811L164.642 32.0617L254.194 84.1047V151.924Z" fill="#4D4D4D"/>
<path d="M247.499 140.158L171.279 95.8861L171.328 45.6847L247.499 89.9513V140.158Z" fill="#67D4D5"/>
<path d="M247.513 140.166V138.026L173.25 94.4218V49.1598L171.277 47.7861V95.8867L247.513 140.166Z" fill="#00A6A8"/>
<path d="M254.194 84.1046L164.641 32.0617L171.595 28.0469L261.149 80.0895L254.194 84.1046Z" fill="#808080"/>
<path d="M235.061 143.048L233.827 143.764L233.832 142.338L227.68 138.786L226.447 139.503L226.451 138.076L220.299 134.525L219.066 135.241L219.07 133.815L212.919 130.263L211.686 130.98L211.69 129.553L205.538 126.001L204.305 126.718L204.309 125.291L198.158 121.74L196.924 122.456L196.929 121.03L190.777 117.478L189.543 118.196L189.547 116.768L183.395 113.216L182.162 113.933L182.166 112.506L176.015 108.954L174.781 109.671L174.786 108.245L168.634 104.693L162.846 108.057L162.842 109.469L161.624 108.766L155.835 112.131L155.83 113.543L154.613 112.84L148.824 116.205L148.82 117.617L147.603 116.914L141.814 120.278L141.81 121.691L140.593 120.988L134.804 124.352L134.796 127.177L140.948 130.729L142.181 130.012L142.177 131.439L148.328 134.991L149.562 134.274L149.557 135.701L155.709 139.252L156.944 138.535L156.94 139.963L163.091 143.514L164.324 142.798L164.32 144.224L170.471 147.776L171.705 147.059L171.701 148.486L177.852 152.038L179.085 151.321L179.081 152.748L185.233 156.299L186.466 155.583L186.462 157.009L192.613 160.561L193.846 159.844L193.842 161.271L199.994 164.822L201.227 164.106L201.223 165.532L207.374 169.084L213.163 165.72L213.167 164.307L214.384 165.01L220.173 161.646L220.177 160.234L221.394 160.937L227.183 157.573L227.187 156.16L228.405 156.863L234.194 153.498L234.198 152.086L235.415 152.789L241.204 149.425L241.212 146.599L235.061 143.048ZM229.257 147.818L229.269 147.811V147.824L229.257 147.818ZM222.246 151.892L222.258 151.885V151.899L222.246 151.892ZM215.236 155.965L215.248 155.959V155.972L215.236 155.965ZM208.226 160.039L208.238 160.032V160.046L208.226 160.039ZM214.865 147.63L214.877 147.623V147.637L214.865 147.63ZM207.855 151.704L207.867 151.697V151.711L207.855 151.704ZM200.474 147.442L200.486 147.436V147.449L200.474 147.442ZM193.093 143.181L193.105 143.174V143.188L193.093 143.181ZM185.712 138.92L185.724 138.913V138.926L185.712 138.92ZM178.331 134.658L178.343 134.652V134.665L178.331 134.658ZM170.949 130.396L170.962 130.389V130.404L170.949 130.396ZM163.568 126.135L163.58 126.128V126.142L163.568 126.135ZM161.14 126.149L161.128 126.156V126.142L161.14 126.149ZM212.425 147.637L212.437 147.644L212.425 147.651V147.637ZM207.484 143.369L207.496 143.362V143.376L207.484 143.369ZM205.045 143.389V143.376L205.057 143.383L205.045 143.389ZM200.103 139.107L200.115 139.101V139.115L200.103 139.107ZM197.664 139.128V139.115L197.676 139.121L197.664 139.128ZM192.722 134.846L192.734 134.839V134.853L192.722 134.846ZM190.283 134.867V134.853L190.295 134.86L190.283 134.867ZM185.341 130.585L185.353 130.578V130.591L185.341 130.585ZM182.902 130.605V130.592L182.914 130.599L182.902 130.605ZM177.959 126.322L177.972 126.315V126.33L177.959 126.322ZM175.52 126.345V126.33L175.533 126.337L175.52 126.345ZM170.577 122.061L170.589 122.054V122.068L170.577 122.061ZM168.138 122.082V122.068L168.15 122.075L168.138 122.082ZM168.523 130.411L168.51 130.418V130.403L168.523 130.411ZM175.903 134.672L175.891 134.679V134.666L175.903 134.672ZM183.285 138.934L183.273 138.94V138.927L183.285 138.934ZM190.665 143.195L190.653 143.202V143.188L190.665 143.195ZM198.046 147.456L198.034 147.463V147.45L198.046 147.456ZM205.427 151.718L205.415 151.725V151.711L205.427 151.718ZM163.208 117.807L163.196 117.8L163.208 117.793V117.807ZM156.198 121.88L156.186 121.874L156.198 121.867V121.88ZM212.797 155.973L212.809 155.979L212.797 155.986V155.973ZM219.807 151.899L219.819 151.906L219.807 151.912V151.899ZM226.817 147.825L226.829 147.831L226.817 147.838V147.825ZM221.887 143.563L221.875 143.556L221.887 143.549V143.563ZM219.436 143.577V143.563L219.448 143.57L219.436 143.577ZM214.506 139.302L214.494 139.295L214.506 139.288V139.302ZM212.055 139.316V139.302L212.067 139.309L212.055 139.316ZM207.125 135.04L207.113 135.033L207.125 135.026V135.04ZM204.675 135.054V135.04L204.687 135.047L204.675 135.054ZM199.744 130.779L199.732 130.772L199.744 130.765V130.779ZM197.293 130.792V130.779L197.305 130.786L197.293 130.792ZM192.363 126.517L192.351 126.51L192.363 126.503V126.517ZM189.913 126.531V126.517L189.925 126.524L189.913 126.531ZM184.983 122.256L184.97 122.248L184.983 122.241V122.256ZM182.53 122.27V122.255L182.543 122.263L182.53 122.27ZM177.6 117.994L177.588 117.987L177.6 117.98V117.994ZM175.149 118.008V117.994L175.161 118.001L175.149 118.008ZM170.219 113.732L170.207 113.725L170.219 113.718V113.732ZM167.768 113.746V113.732L167.78 113.739L167.768 113.746ZM160.757 117.82V117.807L160.769 117.814L160.757 117.82ZM153.747 121.894V121.881L153.759 121.887L153.747 121.894ZM146.738 125.968V125.954L146.75 125.961L146.738 125.968ZM149.188 125.94V125.954L149.176 125.947L149.188 125.94ZM154.131 130.222L154.119 130.229V130.215L154.131 130.222ZM156.57 130.201V130.215L156.558 130.209L156.57 130.201ZM161.513 134.484L161.499 134.492V134.477L161.513 134.484ZM163.952 134.462V134.477L163.939 134.47L163.952 134.462ZM168.894 138.746L168.882 138.753V138.739L168.894 138.746ZM171.333 138.725V138.739L171.321 138.732L171.333 138.725ZM176.275 143.007L176.263 143.014V143L176.275 143.007ZM178.714 142.986V143L178.702 142.993L178.714 142.986ZM183.656 147.269L183.644 147.276V147.262L183.656 147.269ZM186.095 147.248V147.262L186.083 147.255L186.095 147.248ZM191.037 151.53L191.025 151.537V151.523L191.037 151.53ZM193.476 151.509V151.523L193.464 151.517L193.476 151.509ZM198.418 155.792L198.406 155.798V155.785L198.418 155.792ZM200.857 155.771V155.785L200.845 155.778L200.857 155.771ZM205.799 160.053L205.787 160.06V160.046L205.799 160.053Z" fill="#57565C"/>
<path d="M174.782 108.246L174.774 111.071L168.986 114.435L168.994 111.61L174.782 108.246Z" fill="#57565C"/>
<path d="M168.994 111.61L168.986 114.435L162.834 110.884L162.842 108.058L168.994 111.61Z" fill="#77767E"/>
<path d="M162.842 108.058L168.631 104.694L174.782 108.246L168.994 111.61L162.842 108.058Z" fill="#898890"/>
<path d="M182.163 112.507L182.155 115.333L176.367 118.697L176.375 115.871L182.163 112.507Z" fill="#57565C"/>
<path d="M176.375 115.871L176.367 118.697L170.215 115.145L170.223 112.319L176.375 115.871Z" fill="#77767E"/>
<path d="M170.223 112.319L176.012 108.956L182.163 112.507L176.375 115.871L170.223 112.319Z" fill="#898890"/>
<path d="M189.544 116.769L189.536 119.595L183.748 122.958L183.756 120.133L189.544 116.769Z" fill="#57565C"/>
<path d="M183.756 120.132L183.748 122.958L177.596 119.406L177.604 116.581L183.756 120.132Z" fill="#77767E"/>
<path d="M177.604 116.581L183.393 113.217L189.544 116.769L183.756 120.132L177.604 116.581Z" fill="#898890"/>
<path d="M196.926 121.031L196.918 123.857L191.13 127.22L191.138 124.395L196.926 121.031Z" fill="#57565C"/>
<path d="M191.138 124.395L191.13 127.22L184.979 123.669L184.987 120.843L191.138 124.395Z" fill="#77767E"/>
<path d="M184.987 120.843L190.775 117.479L196.926 121.031L191.138 124.395L184.987 120.843Z" fill="#898890"/>
<path d="M204.307 125.292L204.299 128.118L198.511 131.482L198.519 128.656L204.307 125.292Z" fill="#57565C"/>
<path d="M198.519 128.656L198.511 131.482L192.359 127.93L192.367 125.104L198.519 128.656Z" fill="#77767E"/>
<path d="M192.367 125.104L198.156 121.741L204.307 125.292L198.519 128.656L192.367 125.104Z" fill="#898890"/>
<path d="M211.688 129.554L211.68 132.379L205.892 135.743L205.9 132.917L211.688 129.554Z" fill="#57565C"/>
<path d="M205.9 132.917L205.892 135.743L199.74 132.191L199.749 129.366L205.9 132.917Z" fill="#77767E"/>
<path d="M199.749 129.366L205.537 126.002L211.688 129.554L205.9 132.917L199.749 129.366Z" fill="#898890"/>
<path d="M219.069 133.815L219.062 136.641L213.273 140.004L213.281 137.179L219.069 133.815Z" fill="#57565C"/>
<path d="M213.281 137.179L213.273 140.005L207.122 136.453L207.13 133.627L213.281 137.179Z" fill="#77767E"/>
<path d="M207.13 133.627L212.918 130.263L219.069 133.815L213.281 137.179L207.13 133.627Z" fill="#898890"/>
<path d="M226.451 138.077L226.442 140.902L220.654 144.266L220.662 141.44L226.451 138.077Z" fill="#57565C"/>
<path d="M220.662 141.44L220.654 144.266L214.502 140.714L214.511 137.889L220.662 141.44Z" fill="#77767E"/>
<path d="M214.51 137.889L220.298 134.525L226.451 138.077L220.662 141.44L214.51 137.889Z" fill="#898890"/>
<path d="M233.832 142.338L233.823 145.164L228.035 148.528L228.043 145.702L233.832 142.338Z" fill="#57565C"/>
<path d="M228.043 145.702L228.035 148.528L221.883 144.976L221.892 142.15L228.043 145.702Z" fill="#77767E"/>
<path d="M221.892 142.15L227.68 138.786L233.832 142.338L228.043 145.702L221.892 142.15Z" fill="#898890"/>
<path d="M241.212 146.599L241.204 149.425L235.416 152.789L235.424 149.963L241.212 146.599Z" fill="#57565C"/>
<path d="M235.424 149.963L235.416 152.789L229.264 149.237L229.272 146.412L235.424 149.963Z" fill="#77767E"/>
<path d="M235.061 143.048L241.212 146.599L235.424 149.963L229.272 146.412L235.061 143.048Z" fill="#898890"/>
<path d="M167.772 112.319L167.764 115.145L161.975 118.509L161.983 115.684L167.772 112.319Z" fill="#57565C"/>
<path d="M161.983 115.684L161.975 118.509L155.823 114.958L155.831 112.132L161.983 115.684Z" fill="#77767E"/>
<path d="M155.831 112.132L161.621 108.768L167.772 112.319L161.983 115.684L155.831 112.132Z" fill="#898890"/>
<path d="M175.153 116.581L175.145 119.406L169.356 122.771L169.364 119.945L175.153 116.581Z" fill="#57565C"/>
<path d="M169.364 119.945L169.356 122.771L163.204 119.219L163.212 116.394L169.364 119.945Z" fill="#77767E"/>
<path d="M163.212 116.394L169.002 113.029L175.153 116.581L169.364 119.945L163.212 116.394Z" fill="#898890"/>
<path d="M182.535 120.842L182.526 123.668L176.737 127.032L176.745 124.207L182.535 120.842Z" fill="#57565C"/>
<path d="M176.745 124.207L176.737 127.032L170.585 123.481L170.593 120.655L176.745 124.207Z" fill="#77767E"/>
<path d="M170.593 120.655L176.383 117.291L182.535 120.842L176.745 124.207L170.593 120.655Z" fill="#898890"/>
<path d="M189.917 125.104L189.908 127.93L184.119 131.295L184.127 128.469L189.917 125.104Z" fill="#57565C"/>
<path d="M184.127 128.469L184.119 131.295L177.968 127.743L177.976 124.917L184.127 128.469Z" fill="#77767E"/>
<path d="M177.976 124.917L183.765 121.553L189.917 125.104L184.127 128.469L177.976 124.917Z" fill="#898890"/>
<path d="M197.298 129.366L197.289 132.191L191.5 135.556L191.508 132.73L197.298 129.366Z" fill="#57565C"/>
<path d="M191.508 132.73L191.5 135.556L185.348 132.004L185.356 129.179L191.508 132.73Z" fill="#77767E"/>
<path d="M185.356 129.179L191.146 125.814L197.297 129.366L191.508 132.73L185.356 129.179Z" fill="#898890"/>
<path d="M204.679 133.627L204.67 136.453L198.881 139.817L198.889 136.992L204.679 133.627Z" fill="#57565C"/>
<path d="M198.889 136.992L198.881 139.817L192.729 136.266L192.738 133.44L198.889 136.992Z" fill="#77767E"/>
<path d="M192.738 133.44L198.527 130.076L204.679 133.627L198.889 136.992L192.738 133.44Z" fill="#898890"/>
<path d="M212.06 137.889L212.052 140.714L206.262 144.079L206.27 141.253L212.06 137.889Z" fill="#57565C"/>
<path d="M206.27 141.253L206.262 144.079L200.111 140.527L200.119 137.702L206.27 141.253Z" fill="#77767E"/>
<path d="M200.118 137.702L205.908 134.337L212.059 137.889L206.27 141.253L200.118 137.702Z" fill="#898890"/>
<path d="M219.441 142.15L219.433 144.976L213.643 148.34L213.651 145.515L219.441 142.15Z" fill="#57565C"/>
<path d="M213.651 145.515L213.643 148.34L207.492 144.789L207.5 141.963L213.651 145.515Z" fill="#77767E"/>
<path d="M207.5 141.963L213.289 138.599L219.441 142.15L213.651 145.515L207.5 141.963Z" fill="#898890"/>
<path d="M226.822 146.412L226.814 149.237L221.024 152.602L221.032 149.776L226.822 146.412Z" fill="#57565C"/>
<path d="M221.032 149.776L221.025 152.602L214.873 149.05L214.881 146.224L221.032 149.776Z" fill="#77767E"/>
<path d="M214.881 146.224L220.67 142.86L226.822 146.412L221.032 149.776L214.881 146.224Z" fill="#898890"/>
<path d="M234.203 150.673L234.195 153.499L228.405 156.863L228.413 154.037L234.203 150.673Z" fill="#57565C"/>
<path d="M228.413 154.037L228.405 156.863L222.254 153.312L222.262 150.486L228.413 154.037Z" fill="#77767E"/>
<path d="M222.262 150.486L228.051 147.121L234.203 150.673L228.413 154.037L222.262 150.486Z" fill="#898890"/>
<path d="M160.762 116.394L160.754 119.219L154.965 122.583L154.973 119.758L160.762 116.394Z" fill="#57565C"/>
<path d="M154.973 119.758L154.965 122.583L148.814 119.032L148.821 116.206L154.973 119.758Z" fill="#77767E"/>
<path d="M148.822 116.206L154.61 112.842L160.762 116.394L154.973 119.758L148.822 116.206Z" fill="#898890"/>
<path d="M168.142 120.655L168.134 123.481L162.346 126.844L162.354 124.019L168.142 120.655Z" fill="#57565C"/>
<path d="M162.354 124.019L162.346 126.844L156.194 123.293L156.203 120.468L162.354 124.019Z" fill="#77767E"/>
<path d="M156.203 120.468L161.991 117.104L168.143 120.655L162.354 124.019L156.203 120.468Z" fill="#898890"/>
<path d="M175.524 124.917L175.515 127.742L169.727 131.106L169.735 128.281L175.524 124.917Z" fill="#57565C"/>
<path d="M169.735 128.281L169.727 131.106L163.575 127.555L163.583 124.729L169.735 128.281Z" fill="#77767E"/>
<path d="M163.583 124.729L169.372 121.365L175.524 124.917L169.735 128.281L163.583 124.729Z" fill="#898890"/>
<path d="M182.906 129.179L182.898 132.004L177.109 135.368L177.117 132.543L182.906 129.179Z" fill="#57565C"/>
<path d="M177.117 132.543L177.109 135.368L170.958 131.817L170.965 128.991L177.117 132.543Z" fill="#77767E"/>
<path d="M170.965 128.991L176.754 125.627L182.905 129.179L177.117 132.543L170.965 128.991Z" fill="#898890"/>
<path d="M190.287 133.44L190.279 136.266L184.49 139.63L184.498 136.804L190.287 133.44Z" fill="#57565C"/>
<path d="M184.498 136.804L184.49 139.63L178.338 136.078L178.346 133.252L184.498 136.804Z" fill="#77767E"/>
<path d="M178.347 133.252L184.135 129.889L190.287 133.44L184.498 136.804L178.347 133.252Z" fill="#898890"/>
<path d="M197.668 137.702L197.66 140.527L191.871 143.891L191.879 141.066L197.668 137.702Z" fill="#57565C"/>
<path d="M191.879 141.066L191.871 143.891L185.72 140.339L185.728 137.514L191.879 141.066Z" fill="#77767E"/>
<path d="M185.728 137.514L191.516 134.15L197.668 137.702L191.879 141.066L185.728 137.514Z" fill="#898890"/>
<path d="M205.049 141.963L205.041 144.789L199.252 148.153L199.26 145.327L205.049 141.963Z" fill="#57565C"/>
<path d="M199.26 145.327L199.252 148.153L193.101 144.601L193.109 141.775L199.26 145.327Z" fill="#77767E"/>
<path d="M193.109 141.775L198.897 138.411L205.049 141.963L199.26 145.327L193.109 141.775Z" fill="#898890"/>
<path d="M212.43 146.224L212.422 149.05L206.633 152.414L206.641 149.588L212.43 146.224Z" fill="#57565C"/>
<path d="M206.641 149.588L206.633 152.414L200.482 148.862L200.49 146.037L206.641 149.588Z" fill="#77767E"/>
<path d="M200.49 146.037L206.278 142.673L212.43 146.224L206.641 149.588L200.49 146.037Z" fill="#898890"/>
<path d="M219.811 150.486L219.803 153.312L214.015 156.675L214.022 153.85L219.811 150.486Z" fill="#57565C"/>
<path d="M214.022 153.85L214.015 156.675L207.863 153.124L207.871 150.298L214.022 153.85Z" fill="#77767E"/>
<path d="M207.871 150.298L213.659 146.934L219.811 150.486L214.022 153.85L207.871 150.298Z" fill="#898890"/>
<path d="M227.192 154.747L227.184 157.573L221.396 160.937L221.404 158.111L227.192 154.747Z" fill="#57565C"/>
<path d="M221.403 158.111L221.395 160.937L215.244 157.385L215.252 154.559L221.403 158.111Z" fill="#77767E"/>
<path d="M215.252 154.559L221.04 151.196L227.192 154.747L221.403 158.111L215.252 154.559Z" fill="#898890"/>
<path d="M153.752 120.468L153.744 123.293L147.955 126.657L147.963 123.831L153.752 120.468Z" fill="#57565C"/>
<path d="M147.963 123.831L147.955 126.657L141.804 123.105L141.812 120.28L147.963 123.831Z" fill="#77767E"/>
<path d="M141.812 120.28L147.6 116.916L153.752 120.468L147.963 123.831L141.812 120.28Z" fill="#898890"/>
<path d="M161.133 124.729L161.125 127.555L155.336 130.918L155.344 128.093L161.133 124.729Z" fill="#57565C"/>
<path d="M155.344 128.093L155.337 130.918L149.185 127.367L149.193 124.541L155.344 128.093Z" fill="#77767E"/>
<path d="M149.193 124.541L154.981 121.177L161.133 124.729L155.344 128.093L149.193 124.541Z" fill="#898890"/>
<path d="M168.514 128.99L168.506 131.816L162.718 135.18L162.725 132.354L168.514 128.99Z" fill="#57565C"/>
<path d="M162.725 132.354L162.718 135.18L156.566 131.628L156.574 128.802L162.725 132.354Z" fill="#77767E"/>
<path d="M156.574 128.802L162.362 125.439L168.514 128.99L162.725 132.354L156.574 128.802Z" fill="#898890"/>
<path d="M175.896 133.252L175.888 136.078L170.1 139.442L170.108 136.616L175.896 133.252Z" fill="#57565C"/>
<path d="M170.108 136.616L170.1 139.442L163.948 135.89L163.956 133.065L170.108 136.616Z" fill="#77767E"/>
<path d="M163.956 133.065L169.744 129.701L175.896 133.252L170.107 136.616L163.956 133.065Z" fill="#898890"/>
<path d="M183.277 137.514L183.269 140.339L177.481 143.703L177.489 140.878L183.277 137.514Z" fill="#57565C"/>
<path d="M177.489 140.878L177.481 143.703L171.329 140.152L171.337 137.326L177.489 140.878Z" fill="#77767E"/>
<path d="M171.337 137.326L177.125 133.962L183.277 137.514L177.489 140.878L171.337 137.326Z" fill="#898890"/>
<path d="M190.658 141.775L190.65 144.601L184.862 147.965L184.87 145.139L190.658 141.775Z" fill="#57565C"/>
<path d="M184.87 145.139L184.862 147.965L178.71 144.413L178.718 141.588L184.87 145.139Z" fill="#77767E"/>
<path d="M178.718 141.588L184.506 138.224L190.657 141.775L184.869 145.139L178.718 141.588Z" fill="#898890"/>
<path d="M198.039 146.037L198.031 148.862L192.242 152.226L192.25 149.401L198.039 146.037Z" fill="#57565C"/>
<path d="M192.25 149.401L192.242 152.226L186.091 148.675L186.099 145.849L192.25 149.401Z" fill="#77767E"/>
<path d="M186.099 145.849L191.887 142.485L198.039 146.037L192.25 149.401L186.099 145.849Z" fill="#898890"/>
<path d="M205.42 150.298L205.412 153.124L199.624 156.488L199.632 153.662L205.42 150.298Z" fill="#57565C"/>
<path d="M199.631 153.662L199.623 156.488L193.472 152.936L193.48 150.11L199.631 153.662Z" fill="#77767E"/>
<path d="M193.48 150.11L199.268 146.746L205.42 150.298L199.631 153.662L193.48 150.11Z" fill="#898890"/>
<path d="M212.801 154.559L212.793 157.385L207.005 160.749L207.013 157.923L212.801 154.559Z" fill="#57565C"/>
<path d="M207.013 157.923L207.005 160.749L200.853 157.197L200.861 154.372L207.013 157.923Z" fill="#77767E"/>
<path d="M200.861 154.372L206.649 151.008L212.801 154.559L207.013 157.923L200.861 154.372Z" fill="#898890"/>
<path d="M220.182 158.821L220.174 161.647L214.385 165.011L214.394 162.185L220.182 158.821Z" fill="#57565C"/>
<path d="M214.394 162.185L214.386 165.01L208.234 161.459L208.242 158.633L214.394 162.185Z" fill="#77767E"/>
<path d="M208.242 158.633L214.03 155.269L220.182 158.821L214.394 162.185L208.242 158.633Z" fill="#898890"/>
<path d="M146.742 124.541L146.734 127.367L140.945 130.731L140.953 127.905L146.742 124.541Z" fill="#57565C"/>
<path d="M140.953 127.905L140.945 130.731L134.794 127.179L134.802 124.353L140.953 127.905Z" fill="#77767E"/>
<path d="M134.802 124.353L140.59 120.99L146.742 124.541L140.953 127.905L134.802 124.353Z" fill="#898890"/>
<path d="M154.123 128.803L154.115 131.628L148.326 134.992L148.334 132.167L154.123 128.803Z" fill="#57565C"/>
<path d="M148.334 132.167L148.327 134.992L142.175 131.44L142.183 128.615L148.334 132.167Z" fill="#77767E"/>
<path d="M142.183 128.615L147.971 125.251L154.123 128.803L148.334 132.167L142.183 128.615Z" fill="#898890"/>
<path d="M161.504 133.064L161.496 135.89L155.708 139.254L155.716 136.428L161.504 133.064Z" fill="#57565C"/>
<path d="M155.715 136.428L155.708 139.254L149.556 135.702L149.564 132.876L155.715 136.428Z" fill="#77767E"/>
<path d="M149.564 132.876L155.352 129.512L161.504 133.064L155.715 136.428L149.564 132.876Z" fill="#898890"/>
<path d="M168.886 137.326L168.878 140.152L163.09 143.515L163.098 140.69L168.886 137.326Z" fill="#57565C"/>
<path d="M163.097 140.69L163.089 143.515L156.938 139.964L156.946 137.138L163.097 140.69Z" fill="#77767E"/>
<path d="M156.946 137.138L162.735 133.775L168.886 137.326L163.098 140.69L156.946 137.138Z" fill="#898890"/>
<path d="M176.267 141.588L176.259 144.413L170.471 147.777L170.479 144.951L176.267 141.588Z" fill="#57565C"/>
<path d="M170.479 144.951L170.471 147.777L164.319 144.225L164.327 141.4L170.479 144.951Z" fill="#77767E"/>
<path d="M164.327 141.4L170.115 138.036L176.267 141.588L170.479 144.951L164.327 141.4Z" fill="#898890"/>
<path d="M183.648 145.849L183.64 148.675L177.852 152.038L177.86 149.213L183.648 145.849Z" fill="#57565C"/>
<path d="M177.86 149.213L177.852 152.038L171.7 148.487L171.708 145.661L177.86 149.213Z" fill="#77767E"/>
<path d="M171.708 145.661L177.497 142.297L183.648 145.849L177.86 149.213L171.708 145.661Z" fill="#898890"/>
<path d="M191.029 150.11L191.021 152.936L185.233 156.3L185.241 153.474L191.029 150.11Z" fill="#57565C"/>
<path d="M185.241 153.474L185.233 156.3L179.081 152.748L179.089 149.923L185.241 153.474Z" fill="#77767E"/>
<path d="M179.089 149.923L184.878 146.559L191.029 150.11L185.241 153.474L179.089 149.923Z" fill="#898890"/>
<path d="M198.41 154.372L198.402 157.197L192.614 160.562L192.622 157.736L198.41 154.372Z" fill="#57565C"/>
<path d="M192.622 157.736L192.614 160.562L186.462 157.01L186.47 154.184L192.622 157.736Z" fill="#77767E"/>
<path d="M186.47 154.184L192.258 150.82L198.41 154.372L192.622 157.736L186.47 154.184Z" fill="#898890"/>
<path d="M205.791 158.633L205.783 161.459L199.995 164.823L200.003 161.997L205.791 158.633Z" fill="#57565C"/>
<path d="M200.003 161.997L199.995 164.823L193.843 161.271L193.851 158.445L200.003 161.997Z" fill="#77767E"/>
<path d="M193.851 158.445L199.639 155.082L205.791 158.633L200.003 161.997L193.851 158.445Z" fill="#898890"/>
<path d="M213.172 162.895L213.164 165.72L207.375 169.084L207.384 166.258L213.172 162.895Z" fill="#57565C"/>
<path d="M207.384 166.258L207.376 169.084L201.224 165.532L201.232 162.707L207.384 166.258Z" fill="#77767E"/>
<path d="M201.232 162.707L207.02 159.343L213.172 162.895L207.384 166.258L201.232 162.707Z" fill="#898890"/>
</g>
<g clip-path="url(#clip3)">
<path d="M183.306 16.1594L157.853 1.46353C156.245 0.535267 154.788 0.449012 153.736 1.06031L146.552 5.23541C146.555 5.23344 146.559 5.23197 146.562 5.22988C145.518 5.83084 144.87 7.11606 144.864 8.94602L144.781 38.1945C144.771 41.8656 147.353 46.3375 150.548 48.182L176.001 62.8777C177.655 63.8324 179.148 63.8943 180.206 63.2245C180.176 63.243 180.148 63.2631 180.118 63.2808L187.302 59.1058C188.34 58.5023 188.984 57.2192 188.989 55.3954L189.072 26.1469C189.083 22.4749 186.501 18.0039 183.306 16.1594Z" fill="#3897F2"/>
<path d="M164.454 26.6075L160.183 24.1414C159.613 23.8125 159.327 23.9017 159.022 24.1355C158.845 24.2707 158.792 24.3939 159.152 24.682C159.86 25.2448 160.258 26.0034 160.362 26.8792C160.529 28.2848 160.513 29.5857 160.411 30.8406C160.381 31.2043 160.322 31.5549 160.19 31.8349C160.06 32.11 159.882 32.1836 159.661 32.0557C159.526 31.9781 159.376 31.8265 159.211 31.6009C158.816 31.0603 158.538 30.4574 158.267 29.8571C157.247 27.6031 156.436 25.3382 155.773 23.0677C155.581 22.4115 155.251 21.8908 154.75 21.5926C154.132 21.2241 153.515 20.8613 152.899 20.5052C152.282 20.1493 151.666 19.7999 151.049 19.458C150.306 19.0435 150.084 19.3315 150.384 20.2792C151.717 24.4868 153.203 28.6896 155.146 32.8553C156.144 34.9941 157.292 37.0386 158.775 38.8722C160.264 40.7154 161.858 42.0085 163.531 42.975C163.746 43.0989 163.962 43.2176 164.179 43.3313C165.074 43.8007 165.343 43.6864 165.387 42.6878C165.418 42.0033 165.489 41.3468 165.791 40.8904C165.974 40.6139 166.214 40.5615 166.493 40.7222C166.666 40.822 166.853 41.0041 167.051 41.266C167.308 41.608 167.523 41.9758 167.729 42.3539C168.231 43.2772 168.713 44.2091 169.234 45.1242C169.83 46.1684 170.529 47.0089 171.388 47.5052C171.47 47.5523 171.553 47.5966 171.638 47.6373L175.418 49.8221C176.026 50.1261 176.346 49.4517 175.998 48.4705C175.752 47.7793 175.431 47.1051 175.091 46.4361C174.323 44.9278 173.417 43.4946 172.559 42.0325C171.785 40.7147 171.737 40.1811 172.365 39.5403C173.048 38.8364 173.785 38.2075 174.473 37.5123C175.117 36.8612 175.776 36.2242 176.116 35.1991C176.333 34.5453 176.144 34.0931 175.451 33.5576C175.334 33.4657 175.21 33.3922 175.088 33.3216L170.977 30.9447C170.965 30.9379 170.954 30.9311 170.943 30.9246C170.457 30.6443 170.185 30.7418 170.009 31.1463C169.766 31.7042 169.514 32.2572 169.224 32.7615C168.567 33.9111 167.833 34.9635 166.806 35.6204C166.616 35.7418 166.408 35.9044 166.124 35.74C166.069 35.7088 166.012 35.6657 165.952 35.6084C165.481 35.1375 165.345 34.1639 165.353 33.8672L165.365 28.4125C165.275 27.5819 165.127 27.1489 164.454 26.6075Z" fill="white"/>
<path d="M187.302 59.1057L180.118 63.2807C181.156 62.6772 181.8 61.394 181.806 59.5702L188.99 55.3953C188.985 57.2189 188.341 58.5022 187.302 59.1057Z" fill="#3897F2"/>
<path d="M146.552 5.23541L153.736 1.06043C154.788 0.449134 156.245 0.53539 157.852 1.46366L150.668 5.63864C149.06 4.71037 147.604 4.62399 146.552 5.23541Z" fill="#248BE6"/>
<path d="M181.888 30.3218L189.073 26.1467L188.99 55.3952L181.805 59.5702L181.888 30.3218Z" fill="#248BE6"/>
<path d="M150.668 5.63867L157.853 1.46356L183.306 16.1594L176.122 20.3344L150.668 5.63867Z" fill="#409DF8"/>
<path d="M176.122 20.3344L183.306 16.1594C186.501 18.0039 189.083 22.475 189.073 26.1469L181.888 30.3219C181.899 26.65 179.317 22.179 176.122 20.3344Z" fill="#46A0FB"/>
</g>
<g clip-path="url(#clip4)">
<path d="M261.469 52.3875L221.067 29.294C218.515 27.8353 216.202 27.6998 214.533 28.6604L203.129 35.2213C203.134 35.2182 203.14 35.2159 203.145 35.2126C201.488 36.1569 200.459 38.1766 200.45 41.0522L200.319 87.0142C200.302 92.783 204.4 99.8103 209.471 102.709L249.874 125.802C252.5 127.302 254.869 127.4 256.548 126.347C256.501 126.376 256.456 126.408 256.408 126.436L267.811 119.875C269.46 118.926 270.482 116.91 270.49 114.044L270.622 68.0821C270.639 62.3119 266.541 55.286 261.469 52.3875Z" fill="#FB6172"/>
<path d="M267.812 119.875L256.408 126.435C258.057 125.487 259.079 123.47 259.087 120.604L270.491 114.044C270.482 116.91 269.46 118.926 267.812 119.875Z" fill="#973E4E"/>
<path d="M203.129 35.2213L214.532 28.6606C216.202 27.7 218.514 27.8355 221.066 29.2942L209.663 35.8549C207.111 34.3962 204.799 34.2605 203.129 35.2213Z" fill="#B74D62"/>
<path d="M259.219 74.6428L270.622 68.0819L270.491 114.044L259.087 120.605L259.219 74.6428Z" fill="#B74D62"/>
<path d="M209.663 35.8549L221.067 29.294L261.47 52.3875L250.066 58.9482L209.663 35.8549Z" fill="#F87D95"/>
<path d="M250.066 58.9483L261.469 52.3876C266.541 55.286 270.639 62.3121 270.622 68.0822L259.219 74.6429C259.235 68.8728 255.137 61.8469 250.066 58.9483Z" fill="#FFB0C0"/>
</g>
<path d="M182.861 71.2378L181.663 72.2768L180.672 61.2638L182.861 61.5606V71.2378Z" fill="#3897F2"/>
<path d="M176.178 27.7035C176.838 28.0807 177.371 28.9945 177.369 29.745L177.293 56.0781C177.291 56.8283 176.755 57.1309 176.095 56.7537L149.235 41.1574C148.575 40.7803 148.042 39.8667 148.044 39.1164L148.12 12.7834C148.122 12.0329 148.658 11.7301 149.318 12.107L176.178 27.7035Z" fill="#77767E"/>
<mask id="mask0" mask-type="alpha" maskUnits="userSpaceOnUse" x="149" y="12" width="31" height="46">
<path d="M177.92 28.2988C178.58 28.6759 179.113 29.5897 179.111 30.3402L179.036 56.6733C179.034 57.4235 178.497 57.7261 177.837 57.3489L150.977 41.7526C150.318 41.3755 149.785 40.4619 149.787 39.7116L149.862 13.3786C149.864 12.6281 150.401 12.3254 151.06 12.7023L177.92 28.2988Z" fill="white"/>
</mask>
<g mask="url(#mask0)">
<path d="M176.185 27.7207C176.845 28.0979 177.378 29.0117 177.376 29.7622L177.301 54.4487C177.299 55.199 176.762 55.5016 176.102 55.1244L151.052 40.576C150.393 40.199 149.86 39.2853 149.862 38.5351L149.938 13.8485C149.94 13.098 150.476 12.7953 151.136 13.1722L176.185 27.7207Z" fill="white"/>
</g>
<path d="M181.022 57.4008L181.661 72.3146L174.258 61.5553L181.022 57.4008Z" fill="#409DF8"/>
<path d="M250.557 77.368C250.891 77.559 251.161 78.0218 251.16 78.4019L251.122 79.5619C251.121 79.9419 250.849 80.0952 250.515 79.9041L236.911 72.0052C236.577 71.8142 236.307 71.3515 236.308 70.9715L236.347 69.8115C236.348 69.4314 236.619 69.2781 236.953 69.4689L250.557 77.368Z" fill="#77767E"/>
<path d="M235.806 69.7316L236.481 69.4577L251.163 78.2706L250.929 79.9531L250.164 80.281L235.806 69.7316Z" fill="#77767E"/>
<path d="M249.815 77.6849C250.149 77.8759 250.419 78.3387 250.418 78.7188L250.38 79.8795C250.379 80.2595 250.107 80.4127 249.773 80.2217L236.169 72.3227C235.835 72.1318 235.565 71.669 235.566 71.2891L235.604 70.1284C235.605 69.7483 235.877 69.5949 236.211 69.7858L249.815 77.6849Z" fill="#E0E0E2"/>
<path d="M250.557 72.9194C250.891 73.1104 251.161 73.5732 251.16 73.9533L251.122 75.1133C251.121 75.4933 250.849 75.6466 250.515 75.4555L236.911 67.5566C236.577 67.3656 236.307 66.9029 236.308 66.5229L236.347 65.3629C236.348 64.9828 236.619 64.8294 236.953 65.0203L250.557 72.9194Z" fill="#77767E"/>
<path d="M235.806 65.283L236.481 65.0091L251.163 73.8219L250.929 75.5044L250.164 75.8324L235.806 65.283Z" fill="#77767E"/>
<path d="M249.815 73.2363C250.149 73.4273 250.419 73.8901 250.418 74.2702L250.38 75.4309C250.379 75.8109 250.107 75.9641 249.773 75.7731L236.169 67.8741C235.835 67.6831 235.565 67.2204 235.566 66.8404L235.604 65.6797C235.605 65.2996 235.877 65.1463 236.211 65.3372L249.815 73.2363Z" fill="#E0E0E2"/>
<path d="M250.557 68.663C250.891 68.854 251.161 69.3168 251.16 69.6969L251.122 70.8569C251.121 71.2369 250.849 71.3901 250.515 71.1991L236.911 63.3001C236.577 63.1092 236.307 62.6465 236.308 62.2665L236.347 61.1064C236.348 60.7263 236.619 60.573 236.953 60.7639L250.557 68.663Z" fill="#77767E"/>
<path d="M235.806 61.0266L236.481 60.7527L251.163 69.5655L250.929 71.248L250.164 71.576L235.806 61.0266Z" fill="#77767E"/>
<path d="M249.815 68.9799C250.149 69.1709 250.419 69.6337 250.418 70.0138L250.38 71.1745C250.379 71.5544 250.107 71.7077 249.773 71.5167L236.169 63.6177C235.835 63.4267 235.565 62.964 235.566 62.584L235.604 61.4233C235.605 61.0432 235.877 60.8899 236.211 61.0808L249.815 68.9799Z" fill="#E0E0E2"/>
<path d="M201.27 78.7579C201.537 80.5773 202.614 85.4174 204.66 85.9487C206.273 86.3673 205.338 90.4688 205.215 91.6508C208.07 94.0582 208.266 86.9471 208.735 87.5391C209.321 88.2792 209.228 92.5451 209.722 91.6508C210.116 90.9354 211.059 84.5044 212.004 84.5866C212.21 84.9669 211.02 96.2396 211.422 94.6897C215.89 77.4293 216.036 96.2268 217.445 84.5866" stroke="#E0E0E2"/>
<path d="M201.229 72.9255C201.259 73.1063 201.272 86.8146 201.259 92.4168L221.136 104.338" stroke="#E0E0E2"/>
<path d="M151.835 31.8463L175.706 45.6666V50.2733L151.835 36.2437V31.8463Z" fill="black"/>
<path d="M151.835 24.7416L175.706 38.5618V43.1686L151.835 29.1389V24.7416Z" fill="black"/>
<path d="M151.835 17.6038L175.706 31.4241V36.0309L151.835 22.0012V17.6038Z" fill="black"/>
</g>
<g clip-path="url(#clip5)">
<path d="M244.696 89.876L236.504 82.4493L227.209 78.208L218.43 69.8858L210.51 69.5563L202.786 61.9807L199.876 63.6718L199.791 93.7747L251.109 123.403L254.018 121.712L254.11 89.4065L244.696 89.876Z" fill="#9857B8"/>
<path d="M199.876 63.6718L202.786 61.9807L210.51 69.5563L207.6 71.2471L199.876 63.6718Z" fill="#B177CE"/>
<path d="M207.6 71.2471L210.51 69.5563L218.43 69.8858L215.521 71.5768L207.6 71.2471Z" fill="#A861CC"/>
<path d="M215.521 71.5769L218.43 69.8858L227.208 78.208L224.299 79.8989L215.521 71.5769Z" fill="#B177CE"/>
<path d="M224.299 79.8989L227.209 78.208L236.505 82.4493L233.595 84.1404L224.299 79.8989Z" fill="#A861CC"/>
<path d="M233.595 84.1404L236.505 82.4493L244.696 89.876L241.786 91.5668L233.595 84.1404Z" fill="#B177CE"/>
<path d="M251.2 91.0976L254.11 89.4065L254.018 121.712L251.109 123.403L251.2 91.0976Z" fill="#794494"/>
<path d="M241.786 91.5668L244.696 89.876L254.11 89.4065L251.2 91.0976L241.786 91.5668Z" fill="#A861CC"/>
<path d="M237.288 102.102L229.101 93.0008L219.796 91.6884L211.018 83.4038L203.105 80.6833L195.382 72.5322L192.472 74.2232L192.405 98.0691L243.722 127.697L246.632 126.006L246.689 105.982L237.288 102.102Z" fill="#FFD46B"/>
<path d="M192.472 74.2232L195.382 72.5322L203.105 80.6833L200.195 82.3741L192.472 74.2232Z" fill="#FFE08E"/>
<path d="M200.195 82.374L203.105 80.6832L211.018 83.4038L208.109 85.0949L200.195 82.374Z" fill="#E6AF42"/>
<path d="M208.109 85.0949L211.018 83.4038L219.797 91.6884L216.887 93.3792L208.109 85.0949Z" fill="#FFE08E"/>
<path d="M216.887 93.3792L219.797 91.6884L229.101 93.0008L226.191 94.6919L216.887 93.3792Z" fill="#E6AF42"/>
<path d="M226.191 94.6919L229.101 93.0008L237.288 102.102L234.378 103.793L226.191 94.6919Z" fill="#FFE08E"/>
<path d="M234.378 103.793L237.288 102.102L246.689 105.982L243.779 107.673L234.378 103.793Z" fill="#E6AF42"/>
<path d="M243.779 107.673L246.689 105.982L246.632 126.007L243.723 127.697L243.779 107.673Z" fill="#E5AF43"/>
<path d="M229.86 113.53L221.669 106.076L212.364 104.799L203.594 93.6965L195.667 95.6378L187.955 83.9601L185.045 85.6512L184.998 102.352L236.315 131.981L239.225 130.29L239.27 114.457L229.86 113.53Z" fill="#3897F2"/>
<path d="M185.045 85.6512L187.954 83.9601L195.667 95.6378L192.758 97.3288L185.045 85.6512Z" fill="#46A0FB"/>
<path d="M192.758 97.3288L195.667 95.6377L203.594 93.6965L200.684 95.3875L192.758 97.3288Z" fill="#248BE6"/>
<path d="M200.684 95.3875L203.594 93.6965L212.364 104.799L209.454 106.49L200.684 95.3875Z" fill="#46A0FB"/>
<path d="M209.454 106.49L212.364 104.799L221.668 106.076L218.759 107.767L209.454 106.49Z" fill="#248BE6"/>
<path d="M218.759 107.767L221.668 106.076L229.86 113.53L226.95 115.221L218.759 107.767Z" fill="#46A0FB"/>
<path d="M226.95 115.221L229.86 113.53L239.27 114.457L236.36 116.148L226.95 115.221Z" fill="#248BE6"/>
<path d="M236.36 116.148L239.27 114.457L239.225 130.29L236.315 131.981L236.36 116.148Z" fill="#3897F2"/>
</g>
<g clip-path="url(#clip6)">
<path d="M189.07 155.645L160.235 172.527L160.181 191.573L215.249 223.603L244.084 206.721L244.137 187.676L189.07 155.645Z" fill="#7BCC92"/>
<path d="M244.137 187.676L244.084 206.721L215.249 223.603L215.302 204.558L244.137 187.676Z" fill="#36C7CC"/>
<path d="M215.302 204.558L215.249 223.603L160.181 191.573L160.235 172.527L215.302 204.558Z" fill="#7BCC92"/>
<path d="M244.14 187.676L215.305 204.558L160.237 172.527L189.072 155.645L244.14 187.676Z" fill="#7BCC92"/>
<path d="M191.894 159.46C191.754 159.605 191.58 159.741 191.37 159.864C191.37 159.788 191.371 159.712 191.371 159.636C191.581 159.512 191.754 159.377 191.894 159.232C191.894 159.3 191.894 159.392 191.894 159.46Z" fill="#67D4D5"/>
<path d="M191.115 159.999C191.115 159.923 191.115 159.847 191.116 159.77C191.204 159.729 191.289 159.684 191.37 159.636C191.371 159.636 191.371 159.636 191.371 159.636C191.371 159.712 191.371 159.788 191.371 159.865C191.37 159.865 191.37 159.865 191.37 159.865C191.288 159.913 191.203 159.958 191.115 159.999Z" fill="#67D4D5"/>
<path d="M191.116 159.999C191.035 160.038 190.951 160.074 190.864 160.107C190.864 160.031 190.865 159.954 190.865 159.878C190.951 159.845 191.035 159.809 191.117 159.77C191.116 159.847 191.116 159.923 191.116 159.999Z" fill="#67D4D5"/>
<path d="M186.799 159.865C186.569 159.732 186.382 159.583 186.235 159.425L186.235 159.196C186.382 159.354 186.569 159.503 186.799 159.637C187.907 160.281 189.613 160.362 190.865 159.878C190.864 159.921 190.864 159.964 190.864 160.007C190.864 160.012 190.864 160.018 190.864 160.022C190.864 160.031 190.864 160.043 190.864 160.052C190.864 160.06 190.864 160.072 190.864 160.08C190.864 160.088 190.867 160.099 190.864 160.107C189.612 160.59 187.906 160.51 186.799 159.865Z" fill="#67D4D5"/>
<path d="M168.027 172.528L168.026 172.757C168.028 172.271 167.71 171.785 167.073 171.415C166.843 171.281 166.587 171.172 166.316 171.087L166.317 170.858C166.588 170.944 166.844 171.052 167.073 171.186C167.71 171.556 168.028 172.043 168.027 172.528Z" fill="#00A6A8"/>
<path d="M214.927 172.629L214.926 172.857L191.894 159.46L191.894 159.232L214.927 172.629Z" fill="#67D4D5"/>
<path d="M189.428 187.558L189.428 187.786L166.395 174.389L166.396 174.16L189.428 187.558Z" fill="#00A6A8"/>
<path d="M168.027 172.529L168.026 172.757C168.025 173.236 167.712 173.715 167.088 174.081C166.876 174.204 166.643 174.307 166.395 174.389L166.395 174.16C166.644 174.078 166.877 173.976 167.088 173.852C167.713 173.487 168.026 173.008 168.027 172.529Z" fill="#67D4D5"/>
<path d="M184.088 180.27L184.089 180.042C184.097 177.358 185.848 174.677 189.346 172.629L189.345 172.858C185.847 174.906 184.096 177.586 184.088 180.27Z" fill="#00A6A8"/>
<path d="M189.428 187.786C185.876 185.72 184.095 183.011 184.088 180.304L184.089 180.075C184.096 182.783 185.876 185.492 189.428 187.558C189.428 187.626 189.428 187.718 189.428 187.786Z" fill="#67D4D5"/>
<path d="M214.927 172.629L214.926 172.857C207.839 168.735 196.386 168.736 189.345 172.858L189.346 172.629C196.387 168.507 207.84 168.507 214.927 172.629Z" fill="#00A6A8"/>
<path d="M237.96 186.026L237.959 186.255L214.926 172.857L214.927 172.629L237.96 186.026Z" fill="#67D4D5"/>
<path d="M220.267 180.145L220.266 180.374C220.274 177.655 218.493 174.932 214.926 172.857L214.927 172.629C218.493 174.703 220.275 177.426 220.267 180.145Z" fill="#00A6A8"/>
<path d="M220.266 180.341C220.273 183.036 218.522 185.73 215.01 187.786C215.01 187.71 215.01 187.634 215.01 187.558C218.523 185.501 220.274 182.807 220.267 180.112C220.267 180.181 220.266 180.272 220.266 180.341Z" fill="#67D4D5"/>
<path d="M236.328 187.887L236.329 187.659C236.33 187.179 236.643 186.7 237.268 186.334C237.479 186.211 237.712 186.109 237.96 186.027L237.959 186.255C237.711 186.338 237.478 186.44 237.267 186.563C236.643 186.929 236.33 187.408 236.328 187.887Z" fill="#00A6A8"/>
<path d="M212.462 200.955L212.461 201.184L189.428 187.787L189.429 187.558L212.462 200.955Z" fill="#00A6A8"/>
<path d="M212.367 189.066C205.344 191.852 195.685 191.426 189.428 187.786L189.428 187.558C195.686 191.197 205.345 191.623 212.367 188.837C212.367 188.913 212.367 188.989 212.367 189.066Z" fill="#67D4D5"/>
<path d="M189.517 187.838C189.487 187.821 189.458 187.804 189.428 187.787L189.429 187.558C189.458 187.575 189.488 187.592 189.518 187.609C189.517 187.686 189.517 187.762 189.517 187.838Z" fill="#67D4D5"/>
<path d="M215.01 187.786C214.184 188.269 213.299 188.696 212.366 189.066C212.367 188.99 212.367 188.913 212.367 188.837C213.299 188.467 214.185 188.041 215.01 187.558C215.01 187.634 215.01 187.71 215.01 187.786Z" fill="#67D4D5"/>
<path d="M236.328 187.887L236.329 187.659C236.327 188.144 236.646 188.631 237.282 189.001C237.512 189.135 237.768 189.244 238.039 189.329L238.039 189.557C237.767 189.472 237.512 189.363 237.282 189.23C236.645 188.859 236.327 188.373 236.328 187.887Z" fill="#67D4D5"/>
<path d="M193.559 189.59C192.112 189.129 190.749 188.545 189.516 187.838C189.517 187.761 189.517 187.685 189.517 187.609C190.75 188.317 192.113 188.901 193.56 189.362C193.56 189.438 193.559 189.514 193.559 189.59Z" fill="#67D4D5"/>
<path d="M193.559 189.591C193.559 189.514 193.56 189.438 193.56 189.362C193.602 189.375 193.644 189.388 193.686 189.401C193.686 189.477 193.685 189.554 193.685 189.63C193.643 189.617 193.601 189.604 193.559 189.591Z" fill="#67D4D5"/>
<path d="M193.726 189.643C193.712 189.639 193.698 189.635 193.684 189.63C193.684 189.554 193.684 189.477 193.685 189.401C193.699 189.405 193.713 189.41 193.727 189.414C193.727 189.49 193.726 189.567 193.726 189.643Z" fill="#67D4D5"/>
<path d="M193.726 189.569C193.726 189.517 193.726 189.466 193.726 189.414C195.159 189.859 196.671 190.183 198.221 190.388C198.22 190.464 198.22 190.54 198.22 190.616C196.671 190.412 195.158 190.087 193.726 189.643C193.726 189.631 193.726 189.619 193.726 189.607C193.726 189.601 193.726 189.595 193.726 189.589C193.726 189.582 193.726 189.575 193.726 189.569Z" fill="#67D4D5"/>
<path d="M198.22 190.617C198.22 190.541 198.221 190.464 198.221 190.388C198.236 190.39 198.251 190.392 198.266 190.394C198.266 190.47 198.266 190.547 198.266 190.623C198.251 190.621 198.235 190.619 198.22 190.617Z" fill="#67D4D5"/>
<path d="M198.333 190.632C198.311 190.629 198.288 190.626 198.265 190.623C198.265 190.547 198.266 190.47 198.266 190.394C198.289 190.397 198.311 190.4 198.334 190.403C198.334 190.471 198.334 190.563 198.333 190.632Z" fill="#67D4D5"/>
<path d="M198.59 190.663C198.504 190.653 198.418 190.643 198.333 190.632L198.334 190.403C198.419 190.414 198.505 190.424 198.59 190.434C198.59 190.511 198.59 190.587 198.59 190.663Z" fill="#67D4D5"/>
<path d="M198.589 190.587C198.589 190.536 198.589 190.485 198.59 190.434C198.604 190.436 198.618 190.437 198.632 190.439C198.632 190.515 198.631 190.592 198.631 190.668C198.617 190.666 198.603 190.665 198.589 190.663C198.589 190.638 198.589 190.613 198.589 190.587Z" fill="#67D4D5"/>
<path d="M205.195 190.737C204.987 190.757 204.779 190.775 204.57 190.79C204.57 190.714 204.571 190.638 204.571 190.562C204.78 190.546 204.987 190.528 205.195 190.508C205.195 190.577 205.195 190.668 205.195 190.737Z" fill="#67D4D5"/>
<path d="M204.571 190.791C204.56 190.792 204.55 190.792 204.539 190.793C204.539 190.717 204.54 190.64 204.54 190.564C204.55 190.563 204.561 190.563 204.572 190.562C204.572 190.638 204.571 190.715 204.571 190.791Z" fill="#67D4D5"/>
<path d="M203.94 190.832C203.941 190.755 203.941 190.679 203.941 190.603C204.141 190.592 204.341 190.579 204.54 190.564C204.539 190.64 204.539 190.717 204.539 190.793C204.34 190.808 204.14 190.82 203.94 190.832Z" fill="#67D4D5"/>
<path d="M200.61 190.836C199.947 190.801 199.286 190.745 198.631 190.668C198.631 190.591 198.631 190.515 198.631 190.439C199.287 190.516 199.947 190.572 200.611 190.607C200.611 190.676 200.61 190.767 200.61 190.836Z" fill="#67D4D5"/>
<path d="M203.942 190.832C203.852 190.837 203.762 190.842 203.672 190.846L203.673 190.617C203.763 190.613 203.853 190.608 203.942 190.603C203.942 190.679 203.942 190.756 203.942 190.832Z" fill="#67D4D5"/>
<path d="M214.927 172.629C222.015 176.752 222.051 183.435 215.01 187.558C214.185 188.041 213.3 188.467 212.367 188.837C205.345 191.624 195.686 191.197 189.428 187.558C182.341 183.436 182.305 176.752 189.346 172.629C196.387 168.507 207.84 168.507 214.927 172.629Z" fill="#67D4D5"/>
<path d="M218.121 200.991L218.12 201.219C217.973 201.061 217.786 200.912 217.556 200.778C216.29 200.042 214.244 200.042 212.987 200.778C212.776 200.902 212.602 201.039 212.461 201.183L212.462 200.955C212.602 200.81 212.776 200.674 212.987 200.55C214.245 199.814 216.291 199.814 217.557 200.55C217.786 200.684 217.974 200.833 218.121 200.991Z" fill="#00A6A8"/>
<path d="M189.062 155.637L244.129 187.668L215.294 204.55L160.227 172.519L189.062 155.637ZM218.12 200.991L238.04 189.328C237.768 189.243 237.513 189.135 237.283 189.001C236.017 188.265 236.011 187.071 237.268 186.334C237.479 186.211 237.712 186.109 237.96 186.026L214.927 172.629L191.894 159.232C191.754 159.377 191.58 159.513 191.369 159.637C190.111 160.373 188.065 160.373 186.799 159.637C186.57 159.503 186.382 159.355 186.235 159.196L166.317 170.858C166.588 170.943 166.844 171.052 167.073 171.186C168.339 171.922 168.346 173.116 167.088 173.852C166.877 173.976 166.644 174.078 166.396 174.16L189.428 187.558C191.97 189.036 195.074 189.984 198.334 190.402C195.074 189.984 191.971 189.036 189.429 187.558L212.462 200.956C212.602 200.81 212.776 200.674 212.988 200.55C214.245 199.814 216.291 199.814 217.557 200.55C217.786 200.684 217.974 200.833 218.12 200.991Z" fill="#67D4D5"/>
<path d="M214.927 172.629C207.84 168.507 196.387 168.507 189.346 172.629C182.305 176.752 182.341 183.436 189.429 187.558L166.396 174.16C166.644 174.078 166.877 173.976 167.088 173.852C168.346 173.116 168.339 171.922 167.073 171.186C166.843 171.052 166.588 170.943 166.316 170.858L186.236 159.196C186.382 159.354 186.57 159.503 186.799 159.637C188.065 160.373 190.111 160.373 191.369 159.637C191.58 159.513 191.754 159.377 191.894 159.232L214.927 172.629Z" fill="#00A6A8"/>
<path d="M186.235 159.196L166.316 170.859C166.399 170.884 166.476 170.917 166.555 170.947L186.235 159.425L186.235 159.196Z" fill="#67D4D5"/>
<path d="M205.196 190.508C204.691 190.557 204.183 190.593 203.673 190.616C204.183 190.593 204.69 190.557 205.196 190.508Z" fill="#67D4D5"/>
<path d="M238.039 189.329L238.039 189.557L218.12 201.219L218.12 200.991L238.039 189.329Z" fill="#00A6A8"/>
<path d="M237.96 186.026C237.712 186.109 237.479 186.211 237.268 186.334C236.01 187.071 236.017 188.265 237.283 189.001C237.512 189.134 237.768 189.243 238.039 189.328L218.12 200.991C217.974 200.833 217.786 200.684 217.556 200.55C216.29 199.814 214.244 199.814 212.987 200.55C212.776 200.673 212.602 200.81 212.461 200.955L189.429 187.558C195.685 191.197 205.345 191.623 212.367 188.837C213.299 188.467 214.185 188.04 215.01 187.557C222.051 183.435 222.015 176.751 214.927 172.628L237.96 186.026Z" fill="#00A6A8"/>
<path d="M160.208 182.234L215.275 214.287L215.276 213.964L160.209 181.911L160.208 182.234Z" fill="#36C7CC"/>
<path d="M160.201 184.75L215.268 216.803L215.269 216.479L160.202 184.427L160.201 184.75Z" fill="#36C7CC"/>
<path d="M160.204 183.492L215.272 215.545L215.272 215.222L160.205 183.169L160.204 183.492Z" fill="#36C7CC"/>
<path d="M160.197 186.008L215.264 218.06L215.265 217.737L160.198 185.684L160.197 186.008Z" fill="#36C7CC"/>
<path d="M215.251 222.768L160.184 190.716L160.183 191.039L215.25 223.092L215.251 222.768Z" fill="#36C7CC"/>
<path d="M160.187 189.781L215.254 221.834L215.255 221.511L160.188 189.458L160.187 189.781Z" fill="#36C7CC"/>
<path d="M160.19 188.523L215.257 220.576L215.258 220.253L160.191 188.2L160.19 188.523Z" fill="#36C7CC"/>
<path d="M160.194 187.266L215.261 219.318L215.262 218.995L160.194 186.942L160.194 187.266Z" fill="#36C7CC"/>
<path d="M160.229 174.687L215.296 206.74L215.297 206.417L160.23 174.364L160.229 174.687Z" fill="#36C7CC"/>
<path d="M160.226 175.945L215.293 207.998L215.294 207.675L160.227 175.622L160.226 175.945Z" fill="#36C7CC"/>
<path d="M160.211 180.976L215.279 213.029L215.28 212.706L160.212 180.653L160.211 180.976Z" fill="#36C7CC"/>
<path d="M160.235 173.106L160.234 173.43L215.302 205.482L215.303 205.159L160.235 173.106Z" fill="#36C7CC"/>
<path d="M160.215 179.719L215.282 211.771L215.283 211.448L160.216 179.395L160.215 179.719Z" fill="#36C7CC"/>
<path d="M160.222 177.203L215.289 209.256L215.29 208.932L160.223 176.88L160.222 177.203Z" fill="#36C7CC"/>
<path d="M160.219 178.461L215.286 210.513L215.287 210.19L160.219 178.138L160.219 178.461Z" fill="#36C7CC"/>
<path d="M215.265 217.713L215.265 218.037L244.099 201.202L244.1 200.878L215.265 217.713Z" fill="#00A6A8"/>
<path d="M215.269 216.451L215.268 216.776L244.103 199.94L244.104 199.616L215.269 216.451Z" fill="#00A6A8"/>
<path d="M215.262 218.975L215.261 219.299L244.096 202.464L244.097 202.139L215.262 218.975Z" fill="#00A6A8"/>
<path d="M215.273 215.189L215.272 215.514L244.106 198.678L244.107 198.354L215.273 215.189Z" fill="#00A6A8"/>
<path d="M215.25 223.085L244.085 206.25L244.086 205.925L215.251 222.761L215.25 223.085Z" fill="#00A6A8"/>
<path d="M215.255 221.499L215.254 221.823L244.089 204.988L244.089 204.663L215.255 221.499Z" fill="#00A6A8"/>
<path d="M215.258 220.237L215.257 220.561L244.092 203.726L244.093 203.401L215.258 220.237Z" fill="#00A6A8"/>
<path d="M215.28 212.665L215.279 212.99L244.114 196.154L244.115 195.83L215.28 212.665Z" fill="#00A6A8"/>
<path d="M215.294 207.617L215.293 207.942L244.128 191.107L244.129 190.782L215.294 207.617Z" fill="#00A6A8"/>
<path d="M215.298 206.355L215.297 206.68L244.131 189.844L244.133 189.52L215.298 206.355Z" fill="#00A6A8"/>
<path d="M215.303 205.093L215.302 205.418L244.137 188.583L244.138 188.258L215.303 205.093Z" fill="#00A6A8"/>
<path d="M215.283 211.403L215.282 211.728L244.117 194.892L244.118 194.568L215.283 211.403Z" fill="#00A6A8"/>
<path d="M215.276 213.927L215.275 214.252L244.11 197.416L244.111 197.092L215.276 213.927Z" fill="#00A6A8"/>
<path d="M215.291 208.879L215.29 209.204L244.125 192.369L244.125 192.044L215.291 208.879Z" fill="#00A6A8"/>
<path d="M215.287 210.141L215.286 210.466L244.121 193.63L244.122 193.306L215.287 210.141Z" fill="#00A6A8"/>
<path d="M205.875 165.371L176.859 182.37L176.798 201.445L189.001 208.543L189.062 189.469L218.079 172.469L205.875 165.371Z" fill="#E0E0E2"/>
<path d="M189.062 189.469L176.859 182.37L176.798 201.445L189.001 208.543L189.062 189.469Z" fill="#D8D8DA"/>
</g>
<g clip-path="url(#clip7)">
<path d="M137.417 184.395C124.373 194.644 115.898 196.763 113.291 196.541C109.853 194.378 102.743 189.486 101.811 187.223C100.646 184.395 110.13 173.746 113.291 171.75C115.82 170.152 126.769 164.872 131.926 162.432L150.062 173.746C151.282 173.025 150.462 174.146 137.417 184.395Z" fill="url(#paint3_linear)" style="mix-blend-mode:multiply"/>
<path d="M128.211 154.142C128.211 154.158 128.21 154.173 128.21 154.189C128.21 154.203 128.209 154.217 128.209 154.231C128.235 152.904 127.766 151.574 126.803 150.341C126.715 148.263 125.297 146.198 122.551 144.613C116.901 141.351 107.771 141.351 102.158 144.613C99.4547 146.184 98.0607 148.225 97.9727 150.284C97.0318 151.484 96.5617 152.779 96.5634 154.074C96.5634 154.067 96.563 154.059 96.563 154.052L96.5557 156.653C96.5553 156.8 96.561 156.948 96.5728 157.095C96.6437 157.98 96.9345 158.86 97.4452 159.706C97.4584 159.728 97.4728 159.749 97.4863 159.771L100.754 189.852C100.764 191.576 101.909 193.3 104.187 194.615C108.743 197.246 116.106 197.246 120.633 194.615C122.896 193.3 124.022 191.576 124.012 189.852L127.275 159.825C127.375 159.663 127.468 159.499 127.553 159.335C127.589 159.264 127.623 159.194 127.656 159.123C128.019 158.345 128.201 157.544 128.204 156.743L128.211 154.142V154.142Z" fill="#51A7FF"/>
<mask id="mask1" mask-type="alpha" maskUnits="userSpaceOnUse" x="96" y="142" width="33" height="55">
<path d="M128.211 154.142C128.211 154.158 128.21 154.173 128.21 154.189C128.21 154.203 128.209 154.217 128.209 154.231C128.235 152.904 127.766 151.574 126.803 150.341C126.715 148.263 125.297 146.198 122.551 144.613C116.901 141.351 107.771 141.351 102.158 144.613C99.4547 146.184 98.0607 148.225 97.9727 150.284C97.0318 151.484 96.5617 152.779 96.5634 154.074C96.5634 154.067 96.563 154.059 96.563 154.052L96.5557 156.653C96.5553 156.8 96.561 156.948 96.5728 157.095C96.6437 157.98 96.9345 158.86 97.4452 159.706C97.4584 159.728 97.4728 159.749 97.4863 159.771L100.754 189.852C100.764 191.576 101.909 193.3 104.187 194.615C108.743 197.246 116.106 197.246 120.633 194.615C122.896 193.3 124.022 191.576 124.012 189.852L127.275 159.825C127.375 159.663 127.468 159.499 127.553 159.335C127.589 159.264 127.623 159.194 127.656 159.123C128.019 158.345 128.201 157.544 128.204 156.743L128.211 154.142Z" fill="#51A7FF"/>
</mask>
<g mask="url(#mask1)">
<path d="M115.062 192.089C117.097 184.483 118.811 165.842 118.811 149.023C119.311 147.523 121.254 144.481 125.025 144.309C129.738 144.095 131.774 156.843 130.167 171.949C128.56 187.054 126.524 191.446 126.31 195.089C126.096 198.731 123.525 202.052 118.811 205.373C114.097 208.694 100.492 197.66 97.5995 193.375C94.707 189.089 97.0638 187.482 100.492 190.482C103.92 193.482 113.308 198.642 115.062 192.089Z" fill="#1E87E3"/>
<path d="M128.209 154.231C128.255 151.841 126.699 149.44 123.54 147.616C117.34 144.037 107.321 144.037 101.161 147.616C98.0915 149.4 96.5603 151.736 96.5634 154.075C96.5634 154.067 96.563 154.06 96.563 154.052L96.5557 156.653C96.549 159.013 98.1071 161.378 101.227 163.179C107.427 166.758 117.446 166.758 123.605 163.179C126.665 161.401 128.197 159.074 128.204 156.743L128.211 154.142C128.211 154.172 128.209 154.201 128.209 154.231Z" fill="#57565C"/>
<path d="M128.211 154.142L128.204 156.743C128.197 159.074 126.665 161.401 123.605 163.179C117.446 166.758 107.427 166.758 101.227 163.179C98.1075 161.378 96.5492 159.013 96.5559 156.653L96.5633 154.052C96.5566 156.413 98.1147 158.777 101.235 160.579C107.434 164.158 117.453 164.158 123.613 160.578C126.673 158.8 128.204 156.473 128.211 154.142Z" fill="#3E3D43"/>
<path d="M121.267 148.937C126.204 151.787 126.23 156.408 121.325 159.258C116.421 162.108 108.443 162.108 103.507 159.258C98.57 156.408 98.5441 151.787 103.448 148.937C108.353 146.086 116.331 146.086 121.267 148.937Z" fill="#2E2E30"/>
<path d="M123.571 150.551L123.562 153.672C123.567 152.004 122.466 150.333 120.261 149.06C115.879 146.53 108.798 146.53 104.445 149.06C102.283 150.316 101.2 151.961 101.196 153.608L101.205 150.487C101.209 148.84 102.292 147.196 104.454 145.939C108.807 143.409 115.888 143.409 120.27 145.939C122.474 147.212 123.576 148.883 123.571 150.551Z" fill="#2E2E30"/>
<path d="M103.915 154.242L103.923 151.121C103.927 149.875 104.746 148.63 106.383 147.678L106.374 150.799C104.737 151.751 103.918 152.995 103.915 154.242Z" fill="#010101"/>
<path d="M118.392 154.612L118.384 157.733L106.374 150.799L106.383 147.679L118.392 154.612Z" fill="#1D1D1F"/>
<path d="M120.08 146.675C124.356 149.144 124.379 153.147 120.131 155.616C115.882 158.085 108.971 158.084 104.695 155.616C100.419 153.147 100.396 149.144 104.645 146.675C108.893 144.206 115.804 144.206 120.08 146.675ZM106.422 154.612C109.738 156.527 115.097 156.527 118.393 154.612L106.383 147.679C103.088 149.593 103.106 152.698 106.422 154.612Z" fill="#3E3D43"/>
<path d="M126.808 150.561L126.799 153.681C126.793 155.805 125.397 157.926 122.609 159.546C116.996 162.808 107.865 162.808 102.215 159.546C99.3724 157.905 97.9526 155.75 97.9585 153.599L97.9674 150.478C97.9614 152.63 99.3812 154.784 102.224 156.426C107.874 159.687 117.005 159.687 122.617 156.426C125.406 154.805 126.802 152.684 126.808 150.561Z" fill="#3E3D43"/>
<path d="M122.553 144.613C128.202 147.875 128.232 153.164 122.619 156.426C117.006 159.688 107.876 159.688 102.226 156.426C96.5761 153.164 96.5468 147.875 102.16 144.613C107.772 141.351 116.903 141.351 122.553 144.613ZM104.507 155.1C108.889 157.629 115.97 157.629 120.323 155.1C124.676 152.57 124.652 148.469 120.271 145.939C115.89 143.409 108.809 143.409 104.456 145.939C100.103 148.469 100.126 152.57 104.507 155.1Z" fill="#57565C"/>
<path d="M105.764 156.265C105.726 156.244 105.684 156.224 105.637 156.206C105.041 155.983 104.475 155.72 103.952 155.418C103.429 155.116 102.974 154.789 102.586 154.444C102.556 154.417 102.521 154.393 102.483 154.371C102.194 154.204 101.716 154.195 101.415 154.37C101.163 154.516 101.125 154.744 101.32 154.918C101.765 155.314 102.287 155.689 102.889 156.036C103.49 156.383 104.139 156.685 104.824 156.941C105.124 157.054 105.519 157.03 105.77 156.884C106.071 156.709 106.053 156.432 105.764 156.265Z" fill="#2E2E30"/>
<path d="M103.976 146.547C103.975 146.55 103.973 146.554 103.973 146.556C103.977 146.541 103.976 146.526 103.972 146.512C103.971 146.508 103.971 146.506 103.969 146.505C103.965 146.492 103.957 146.478 103.946 146.466C103.933 146.451 103.917 146.438 103.897 146.427L103.166 146.006C103.061 145.945 102.889 145.945 102.783 146.006C102.756 146.021 102.737 146.038 102.724 146.057C102.712 146.076 102.705 146.096 102.705 146.116V146.131C102.705 146.131 102.705 146.131 102.705 146.132L102.676 155.911C102.703 155.926 102.73 155.943 102.756 155.959C102.8 155.985 102.844 156.011 102.888 156.036C103.083 156.148 103.283 156.256 103.487 156.358C103.638 156.435 103.792 156.508 103.948 156.578L103.977 146.539C103.977 146.541 103.977 146.545 103.976 146.547Z" fill="#ACABB1"/>
<path d="M102.785 146.229L102.757 155.959C102.73 155.944 102.703 155.927 102.676 155.912L102.705 146.132C102.705 146.131 102.705 146.131 102.705 146.131V146.119C102.705 146.127 102.706 146.136 102.709 146.143C102.711 146.151 102.714 146.159 102.718 146.166C102.722 146.173 102.729 146.182 102.736 146.19C102.736 146.191 102.737 146.191 102.737 146.191C102.744 146.2 102.754 146.209 102.766 146.217C102.771 146.221 102.778 146.225 102.785 146.229Z" fill="#E0E0E2"/>
<path d="M103.515 146.65L103.488 156.359C103.283 156.257 103.083 156.149 102.889 156.037C102.845 156.012 102.8 155.986 102.757 155.96L102.785 146.229L103.515 146.65Z" fill="#D8D8DA"/>
<path d="M103.977 146.539L103.948 156.578C103.792 156.508 103.638 156.435 103.487 156.358L103.515 146.649C103.62 146.71 103.792 146.71 103.898 146.649C103.925 146.634 103.943 146.617 103.957 146.598C103.967 146.584 103.972 146.569 103.976 146.554V146.547C103.977 146.545 103.977 146.542 103.977 146.539Z" fill="#C6C5CB"/>
<path d="M103.897 146.427C104.003 146.489 104.003 146.588 103.898 146.649C103.792 146.711 103.621 146.711 103.515 146.649L102.785 146.228C102.679 146.167 102.678 146.067 102.784 146.006C102.889 145.945 103.061 145.945 103.167 146.006L103.897 146.427Z" fill="#ACABB1"/>
</g>
</g>
<g clip-path="url(#clip8)">
<path d="M199.051 237.195C200.044 236.618 200.542 235.862 200.544 235.105L200.547 234.225C200.547 234.247 200.545 234.269 200.544 234.291C200.576 233.503 200.072 232.707 199.03 232.105L153.332 205.722C151.319 204.559 148.066 204.56 146.066 205.722L111.304 225.924L111.295 236.102L164.291 266.694V265.814V266.694L199.043 246.493C200.037 245.916 200.535 245.16 200.537 244.403L200.539 243.523C200.539 243.545 200.537 243.568 200.536 243.59C200.569 242.801 200.065 242.006 199.022 241.404L197.296 240.407L197.299 238.213L199.051 237.195Z" fill="#820018"/>
<path d="M164.291 265.814V266.694L111.295 236.102L111.297 235.222L164.291 265.814Z" fill="#D07400"/>
<path d="M199.023 241.404C201.036 242.566 201.047 244.45 199.047 245.613L164.292 265.814L111.298 235.222L146.059 215.021C148.06 213.858 151.312 213.858 153.326 215.021L199.023 241.404Z" fill="#FB6172"/>
<path d="M195.81 237.572L163.664 256.25V264.668L195.799 245.989C196.792 245.412 197.29 244.656 197.292 243.899L197.303 235.482C197.301 236.239 196.803 236.994 195.81 237.572Z" fill="#E0E0E2"/>
<path d="M199.03 232.105C201.043 233.268 201.053 235.152 199.053 236.314L164.291 256.516L111.304 225.924L146.066 205.722C148.066 204.56 151.319 204.559 153.332 205.722L199.03 232.105Z" fill="#F87D95"/>
<path d="M111.304 225.924L111.295 236.102L164.291 266.694V256.516L111.304 225.924Z" fill="#FB6172"/>
<path d="M199.051 237.195C200.044 236.618 200.542 235.862 200.544 235.105L200.546 234.224C200.544 234.981 200.047 235.737 199.053 236.314L164.291 256.516V266.694L199.043 246.493C200.037 245.916 200.535 245.16 200.537 244.403L200.539 243.523C200.537 244.28 200.04 245.035 199.046 245.613L164.973 265.418V257L199.051 237.195Z" fill="#AF495C"/>
<path d="M181.451 251.01L177.689 253.182L177.712 261.307L179.589 258.589L181.474 259.135L181.451 251.01Z" fill="#67D4D5"/>
<path d="M171.945 255.738L168.183 257.91L168.206 266.035L170.082 263.316L171.968 263.863L171.945 255.738Z" fill="#51A7FF"/>
</g>
<g clip-path="url(#clip9)">
<path d="M39.48 271.673C38.1535 271.404 34.97 270.417 34.97 269.52L92.5395 229.162L85.1111 227.278C68.1321 235.619 31.8925 251.978 27.011 256.067C20.9092 261.179 14.2768 258.758 12.685 256.067C11.4115 253.915 64.2411 228.175 88.0294 213.825L120.396 225.664C109.607 231.224 93.6006 241.969 85.1111 246.919C74.4992 253.108 42.133 272.211 39.48 271.673Z" fill="url(#paint4_linear)" style="mix-blend-mode:multiply"/>
<path d="M35.3479 259.925V269.506C35.3479 269.506 37.5089 272.582 41.5607 271.422C45.6124 270.263 59.8184 262.778 58.7685 260.431C56.2151 254.723 50.0361 258.594 42.1848 259.215C37.8628 259.558 35.3479 259.925 35.3479 259.925Z" fill="#E5E5E5"/>
<mask id="mask2" mask-type="alpha" maskUnits="userSpaceOnUse" x="35" y="257" width="24" height="15">
<path d="M35.3479 259.925V269.506C35.3479 269.506 37.5089 272.582 41.5607 271.422C45.6124 270.263 59.8184 262.778 58.7685 260.431C56.2151 254.723 50.0361 258.594 42.1848 259.215C37.8628 259.558 35.3479 259.925 35.3479 259.925Z" fill="#E5E5E5"/>
</mask>
<g mask="url(#mask2)">
<path d="M40.4725 270.281C39.8065 270.281 35.9404 268.317 34.0906 266.914C32.7032 272.806 39.9175 273.087 41.3049 273.087C42.6922 273.087 59.8956 262.144 60.4505 261.583C61.0055 261.022 59.8956 259.058 59.8956 259.619C59.8956 260.18 56.2884 262.706 55.456 263.267C54.6236 263.828 41.3049 270.281 40.4725 270.281Z" fill="#2E2E30"/>
</g>
<path d="M13.4678 247.606V257.187C13.4678 257.187 15.6288 260.263 19.6805 259.103C23.7323 257.944 38.2987 250.255 36.8884 248.112C33.3184 242.687 28.1564 246.275 20.3047 246.896C15.9827 247.239 13.4678 247.606 13.4678 247.606Z" fill="#E5E5E5"/>
<mask id="mask3" mask-type="alpha" maskUnits="userSpaceOnUse" x="13" y="245" width="24" height="15">
<path d="M13.4678 247.606V257.187C13.4678 257.187 15.6288 260.263 19.6805 259.103C23.7323 257.944 38.2987 250.255 36.8884 248.112C33.3184 242.687 28.1564 246.275 20.3047 246.896C15.9827 247.239 13.4678 247.606 13.4678 247.606Z" fill="#E5E5E5"/>
</mask>
<g mask="url(#mask3)">
<path d="M18.552 257.936C17.2202 258.16 14.1125 255.972 12.7251 254.85C12.7251 259.9 16.8872 260.18 19.107 260.461C21.3267 260.742 32.9806 254.008 36.0328 253.447C39.085 252.886 40.7498 242.785 38.8075 245.872C36.8652 248.958 20.2169 257.655 18.552 257.936Z" fill="#2E2E30"/>
</g>
<path d="M10.8054 154.173L11.239 162.501C11.239 162.501 13.9742 164.35 14.2782 164.657C14.5821 164.965 21.3529 162.467 21.3529 161.68C21.3529 160.893 19.8493 156.034 19.8493 155.315C19.8493 154.597 19.343 150.901 19.343 150.901L10.8054 154.173Z" fill="#FFB657"/>
<path d="M22.1535 84.2495C19.6273 83.9059 11.0367 83.3032 9.68639 100.461C9.10081 107.897 8.58136 119.859 8.9427 128.801C9.50638 142.75 10.823 154.499 10.823 154.499C10.823 154.499 12.9296 157.563 19.5313 152.324C19.5313 152.324 19.7127 125.439 20.6263 114.97C21.9766 99.5021 27.3795 84.9601 22.1535 84.2495Z" fill="#FFB657"/>
<path d="M12.0945 99.5021C12.0945 99.5021 8.85783 123.649 11.5681 150.901C11.7608 152.838 11.9434 154.637 12.1168 156.316C12.0949 166.346 16.9184 163.826 19.6817 162.617L12.0945 99.5021Z" fill="#FFA834"/>
<path d="M21.9484 84.2597C19.1909 83.8851 9.81329 83.2268 8.33861 101.956C8.30795 102.347 8.24707 103.167 8.24707 103.167C8.82258 106.724 10.9591 108.231 15.6568 109.479C17.7434 96.0262 26.6992 84.9055 21.9484 84.2597Z" fill="#51A7FF"/>
<path d="M13.1692 148.13L13.4679 247.606C13.4679 247.606 13.4679 250.82 19.1222 250.82C24.5107 250.82 24.3955 247.31 24.3955 247.31L29.0535 173.539L32.4452 175.43L35.3617 260.924C35.3617 260.924 36.9849 263.348 40.971 263.348C45.0919 263.348 45.7818 259.838 45.7818 259.838L49.6334 154.664L13.1692 148.13Z" fill="#FFB657"/>
<mask id="mask4" mask-type="alpha" maskUnits="userSpaceOnUse" x="13" y="148" width="37" height="116">
<path d="M13.1692 148.13L13.4679 247.606C13.4679 247.606 13.4679 250.82 19.1222 250.82C24.5107 250.82 24.3955 247.31 24.3955 247.31L29.0535 173.539L32.4452 175.43L35.3617 260.924C35.3617 260.924 36.9849 263.348 40.971 263.348C45.0919 263.348 45.7818 259.838 45.7818 259.838L49.6334 154.664L13.1692 148.13Z" fill="#FFB657"/>
</mask>
<g mask="url(#mask4)">
<path d="M45.4671 266.634C44.5421 268.597 42.8588 268.654 43.5247 253.166C43.7399 248.162 47.6213 218.322 46.4115 208.837C41.417 207.153 34.8026 209.567 35.2006 201.822C36.1803 182.757 37.3195 177.342 36.5879 176.01C35.2006 173.485 34.6456 168.435 33.8132 171.521C32.9808 174.607 30.761 184.147 30.4835 188.355C30.2061 192.564 28.8187 253.166 25.7665 253.166C22.7143 253.166 21.6044 249.799 22.9918 241.663C24.3791 233.527 28.2638 205.189 24.1017 204.628C19.9396 204.067 13.8352 201.261 13.5577 199.297C13.2802 197.333 10.783 167.313 13.5577 164.787C16.3324 162.262 49.9066 160.018 51.294 163.665C52.6813 167.313 50.4616 264.95 45.4671 266.634Z" fill="#E9A54E"/>
</g>
<path d="M13.4534 242.846L13.4678 247.606C13.4678 247.606 13.4678 250.82 19.1222 250.82C24.5107 250.82 24.3955 247.31 24.3955 247.31L24.6512 243.259C21.1645 244.883 16.5245 244.847 13.4534 242.846Z" fill="#67D4D5"/>
<path d="M35.2031 255.369C35.1934 255.359 35.1812 255.351 35.1707 255.342L35.3612 260.925C35.3612 260.925 36.9843 263.348 40.9704 263.348C45.0914 263.348 45.7812 259.838 45.7812 259.838L45.949 255.259C42.7929 256.963 38.7279 256.441 35.2031 255.369Z" fill="#67D4D5"/>
<path d="M47.0358 252.184L50.6246 155.021L12.1772 148.131V239.184C15.8602 242.545 20.8111 240.349 26.0358 240.684L28.9257 174.922L32.5022 176.915L34.0358 250.684C38.7765 253.063 41.6981 252.93 47.0358 252.184Z" fill="#FB6172"/>
<mask id="mask5" mask-type="alpha" maskUnits="userSpaceOnUse" x="12" y="148" width="39" height="105">
<path d="M47.0358 252.184L50.6246 155.021L12.1772 148.131V239.184C15.8602 242.545 20.8111 240.349 26.0358 240.684L28.9257 174.922L32.5022 176.915L34.0358 250.684C38.7765 253.063 41.6981 252.93 47.0358 252.184Z" fill="#FB6172"/>
</mask>
<g mask="url(#mask5)">
<path d="M39.0359 249.684C37.0381 249.459 37.0158 248.839 35.5359 248.184C35.7209 240.889 34.3683 180.331 34.3683 179.658C34.3683 178.816 37.4205 179.097 37.4205 178.535C37.4205 178.255 32.426 176.852 30.4837 176.01C28.5414 175.169 23.5469 171.521 23.5469 172.363C23.5469 173.036 25.9517 174.701 27.1541 175.449C26.8766 175.543 26.5991 176.571 26.5991 176.571L27.1541 177.694L27.4315 179.658V182.744C26.9691 189.197 24.9799 239.184 24.5359 239.184C23.981 239.184 18.4783 240.526 16.5359 239.684C14.9821 239.01 13.3857 237.493 11.5359 236.184C10.9809 235.997 10.314 235.817 10.5359 239.184C10.8134 243.392 25.4892 242.184 27.4315 242.184C28.9854 242.184 30.0213 187.794 29.9288 178.535C30.7612 178.161 32.426 178.255 32.426 181.622C32.426 184.988 33.3509 243.637 32.426 250.184C32.0728 252.684 35.4782 253.337 47.687 254.684C62.948 256.367 57.676 162.543 57.676 157.773C57.676 153.004 14.9453 148.795 12.1705 148.795C9.39581 148.795 7.21854 150.019 16.9213 156.465C27.2742 163.344 44.5797 160.712 47.0769 159.87C48.0967 159.526 48.5126 163.034 48.3276 163.97C48.3276 177.38 46.2019 248.51 45.5359 249.184C44.7035 250.026 41.5332 249.964 39.0359 249.684Z" fill="#AF495C"/>
</g>
<path d="M11.9499 151.333C11.9499 151.333 11.3679 136.79 11.5943 122.926C11.7844 111.292 12.0945 106.963 12.0945 100.946C12.0945 87.4098 17.8237 84.1643 22.1536 84.2495C22.1536 84.2495 39.4907 89.4942 52.8715 101.491L50.4906 156.507C45.6272 162.994 21.2084 160.977 11.9499 151.333Z" fill="#51A7FF"/>
<mask id="mask6" mask-type="alpha" maskUnits="userSpaceOnUse" x="11" y="84" width="42" height="77">
<path d="M11.9499 151.333C11.9499 151.333 11.3679 136.79 11.5943 122.926C11.7844 111.292 12.0945 106.963 12.0945 100.946C12.0945 87.4098 17.8237 84.1643 22.1536 84.2495C22.1536 84.2495 39.4907 89.4942 52.8715 101.491L50.4906 156.507C45.6272 162.994 21.2084 160.977 11.9499 151.333Z" fill="#51A7FF"/>
</mask>
<g mask="url(#mask6)">
<path d="M43.5249 96.8901L49.0744 100.818C49.0744 103.96 46.2996 107.365 44.9123 108.674C43.8949 110.17 41.5826 113.893 40.4727 116.81C39.3628 119.728 39.4553 148.889 39.6403 163.104C40.4727 163.478 43.5249 164.002 49.0744 163.104C56.0112 161.982 60.1733 107.552 61.0057 98.8541C61.8381 90.1565 21.882 83.7035 21.3271 83.984C20.7722 84.2646 25.7667 86.5091 26.5991 87.3508C27.265 88.0242 38.1604 93.9909 43.5249 96.8901Z" fill="#1E87E3"/>
</g>
<path d="M46.652 63.758C46.652 63.758 47.44 78.1685 43.9646 80.751C40.4892 83.3329 23.9943 81.6387 19.1073 72.9291C14.2203 64.2191 16.9008 47.765 27.7662 45.978C40.4572 43.8909 47.4093 50.8148 46.652 63.758Z" fill="#FFB657"/>
<path d="M28.1162 77.0203L25.2312 91.9142C25.2312 91.9142 30.0565 97.1878 39.0351 93.4114C39.0351 93.4114 39.8673 81.9476 40.6775 80.2028C41.4878 78.458 28.1162 77.0203 28.1162 77.0203Z" fill="#FFB657"/>
<mask id="mask7" mask-type="alpha" maskUnits="userSpaceOnUse" x="16" y="45" width="31" height="50">
<path d="M46.652 63.758C46.652 63.758 47.44 78.1685 43.9646 80.751C40.4892 83.3329 23.9943 81.6387 19.1073 72.9291C14.2203 64.2191 16.9008 47.765 27.7662 45.978C40.4572 43.8909 47.4093 50.8148 46.652 63.758Z" fill="#FFB657"/>
<path d="M28.1162 77.0203L25.2312 91.9142C25.2312 91.9142 30.0565 97.1878 39.0351 93.4114C39.0351 93.4114 39.8673 81.9476 40.6775 80.2028C41.4878 78.458 28.1162 77.0203 28.1162 77.0203Z" fill="#FFB657"/>
</mask>
<g mask="url(#mask7)">
<path d="M25.7666 92.6816C26.599 95.2068 36.9765 98.0685 38.5303 98.293L53.2364 71.3585C51.9415 65.6536 48.9633 54.0755 47.4095 53.4022C45.4671 52.5605 44.3573 58.1718 44.3573 59.5746C44.3573 60.9775 45.1897 63.7832 44.9122 65.4666C44.6347 67.15 45.4671 69.3945 44.9122 70.7974C44.3573 72.2002 43.5248 72.7613 42.415 73.0419C41.527 73.2664 40.4726 81.4589 35.7556 82.0201C36.6805 82.2071 38.2529 82.5251 38.2529 83.4229C38.2529 84.5452 38.5303 92.4011 37.4204 93.5233C36.5325 94.4212 34.3682 96.329 25.7666 92.6816Z" fill="#FFA834"/>
</g>
<path d="M17.9129 52.4323C15.2197 56.8692 13.918 62.1006 18.0955 71.5559C20.6489 77.335 25.465 81.7848 25.465 81.7848C25.465 81.7848 27.9146 84.0951 32.2388 82.6148C32.6466 82.475 36.2109 75.5063 36.5153 74.1232C36.5153 74.1232 32.8064 67.6285 36.5153 65.102C40.7545 62.2138 41.7395 72.5546 41.7395 72.5546L42.6374 61.7286C42.6374 61.7286 47.732 58.472 47.3641 54.6387C46.651 47.2115 27.2309 37.0816 17.9129 52.4323Z" fill="#3E3D43"/>
<mask id="mask8" mask-type="alpha" maskUnits="userSpaceOnUse" x="15" y="44" width="33" height="40">
<path d="M17.9129 52.4323C15.2197 56.8692 13.918 62.1006 18.0955 71.5558C20.6489 77.335 25.465 81.7848 25.465 81.7848C25.465 81.7848 27.9146 84.0951 32.2388 82.6148C32.6466 82.475 36.2109 75.5063 36.5153 74.1232C36.5153 74.1232 32.8064 67.6285 36.5153 65.102C40.7545 62.2138 41.7395 72.5545 41.7395 72.5545L42.6374 61.7286C42.6374 61.7286 47.732 58.472 47.3641 54.6387C46.651 47.2115 27.2309 37.0816 17.9129 52.4323Z" fill="#3E3D43"/>
</mask>
<g mask="url(#mask8)">
<path d="M26.0357 60.6839C21.0357 62.6839 13.0357 60.6839 12.5357 60.6839C6.36906 59.3505 -2.76427 54.0839 10.0357 43.6839C26.0357 30.6839 43.5357 49.6839 41.0357 52.1839C38.5357 54.6839 31.0357 58.6839 26.0357 60.6839Z" fill="#1D1D1F"/>
</g>
<path d="M53.6917 102.129C52.2441 99.9043 46.4229 98.376 43.7214 107.684C42.3677 112.348 42.9675 135.184 42.8663 137.684C42.7449 140.684 43.0357 150.184 47.5357 152.684C54.3631 154.732 60.0357 153.684 63.5357 150.184C70.0358 143.684 71.0357 137.684 71.0357 137.684C71.0357 137.684 67.5357 135.684 63.5357 133.184C63.5357 133.184 53.6917 150.211 53.6917 136.184C53.6925 122.158 56.4172 106.319 53.6917 102.129Z" fill="#FFB657"/>
<path d="M65.9402 121.669C63.9826 122.853 62.1882 132.034 61.5356 136.476L69.3659 142.399C71.3234 136.805 75.3364 125.025 75.728 122.656C76.2173 119.694 68.3871 120.188 65.9402 121.669Z" fill="#FFB657"/>
<mask id="mask9" mask-type="alpha" maskUnits="userSpaceOnUse" x="42" y="100" width="34" height="54">
<path d="M53.6917 102.129C52.2441 99.9043 46.4229 98.376 43.7214 107.684C42.3677 112.348 42.9675 135.184 42.8663 137.684C42.7449 140.684 43.0357 150.184 47.5357 152.684C54.3631 154.732 60.0357 153.684 63.5357 150.184C70.0358 143.684 71.0357 137.684 71.0357 137.684C71.0357 137.684 67.5357 135.684 63.5357 133.184C63.5357 133.184 53.6917 150.211 53.6917 136.184C53.6925 122.158 56.4172 106.319 53.6917 102.129Z" fill="#FFB657"/>
<path d="M65.9402 121.669C63.9826 122.853 62.1882 132.034 61.5356 136.476L69.3659 142.399C71.3234 136.805 75.3364 125.025 75.728 122.656C76.2173 119.694 68.3871 120.188 65.9402 121.669Z" fill="#FFB657"/>
</mask>
<g mask="url(#mask9)">
<path d="M77.0523 118.564C74.2318 116.147 70.9524 125.056 69.6653 129.813C69.6653 134.681 66.4754 141.565 63.4535 144.083C60.4315 146.601 58.249 151.638 58.0811 153.149C57.9132 154.66 64.2929 153.821 67.3149 151.638C70.3369 149.455 80.578 121.586 77.0523 118.564Z" fill="#FFA834"/>
<path d="M54.7129 142.541C55.7368 142.661 56.1935 141.436 56.2939 140.809V121.687C56.2939 120.934 50.2711 118.826 49.4429 118.751C48.6148 118.675 41.9897 122.364 41.9897 123.945C41.9897 125.526 42.4414 124.999 43.646 125.752C44.6096 126.354 49.0665 126.706 51.1745 126.806C51.3753 129.014 51.7316 134.003 51.5509 136.292C51.3251 139.153 53.4331 142.39 54.7129 142.541Z" fill="#FFA834"/>
</g>
<path d="M55.5076 123.924C55.7736 113.962 55.8291 105.484 54.0624 102.377C52.5165 99.6582 45.9472 95.2271 42.863 106.305C42.1148 108.992 41.8843 115.723 42.048 123.61C46.6231 125.479 50.0985 125.731 55.5076 123.924Z" fill="#51A7FF"/>
<mask id="mask10" mask-type="alpha" maskUnits="userSpaceOnUse" x="41" y="99" width="15" height="27">
<path d="M55.5076 123.924C55.7736 113.962 55.8291 105.484 54.0624 102.377C52.5165 99.6582 45.9472 95.2271 42.863 106.305C42.1148 108.992 41.8843 115.723 42.048 123.61C46.6231 125.479 50.0985 125.731 55.5076 123.924Z" fill="#51A7FF"/>
</mask>
<g mask="url(#mask10)">
<path d="M39.5414 122.422C38.8863 122.646 39.2684 125.882 39.5414 127.472C39.8144 127.846 42.0528 128.819 48.8225 129.717C57.2847 130.839 62.493 122.085 63.0171 114.005C64.109 97.1707 47.1847 97.4513 45.0009 97.7319C42.8171 98.0124 49.6414 101.379 52.6441 104.465C54.4651 106.337 54.009 112.602 54.009 115.127C54.009 117.147 50.0964 118.307 48.8225 118.494C51.0063 119.055 53.3266 117.372 52.6441 120.177C52.1145 122.355 51.5522 123.825 48.8225 124.666C46.0928 125.508 40.3603 122.141 39.5414 122.422Z" fill="#1E87E3"/>
</g>
<path d="M33.5357 62.9415C27.9555 64.2882 18.7484 62.9415 14.8423 62.0998V55.6468C17.4463 56.0209 24.1611 56.7129 30.1876 56.4885C36.2141 56.264 43.6729 51.1577 46.6489 48.6326L47.4859 54.5245C45.1609 56.769 39.1158 61.5948 33.5357 62.9415Z" fill="#010101"/>
<path d="M2.00806 78.0921V54.5244H4.2401V78.0921H2.00806Z" fill="#FB6172"/>
<mask id="mask11" mask-type="alpha" maskUnits="userSpaceOnUse" x="2" y="54" width="3" height="25">
<path d="M2.0083 78.0921V54.5244H4.24035V78.0921H2.0083Z" fill="#FB6172"/>
</mask>
<g mask="url(#mask11)">
<path d="M3.74023 77.4816V54.805H4.74023V77.4816H3.74023Z" fill="#AF495C"/>
</g>
<path d="M34.6517 59.2941C22.9334 57.9848 -0.335643 55.2539 0.333971 54.805L26.2815 39.9349L58.3671 43.5823L34.6517 59.2941Z" fill="#3E3D43"/>
<path d="M58.3671 42.46V43.5823L0.333984 54.805V53.6827L58.3671 42.46Z" fill="#3E3D43"/>
<path d="M34.6517 58.1718C22.9334 56.8625 -0.335643 54.1316 0.333971 53.6827L26.2815 38.8126L58.3671 42.46L34.6517 58.1718Z" fill="#57565C"/>
<ellipse cx="3.12404" cy="79.7755" rx="2.79005" ry="2.80568" fill="#AF495C"/>
<mask id="mask12" mask-type="alpha" maskUnits="userSpaceOnUse" x="0" y="76" width="6" height="7">
<ellipse cx="3.12404" cy="79.7755" rx="2.79005" ry="2.80568" fill="#FB6172"/>
</mask>
<g mask="url(#mask12)">
<ellipse cx="3.01373" cy="78.9338" rx="2.21978" ry="2.21552" fill="#FB6172"/>
</g>
<path d="M59.0356 125.684L60.0356 127.684L72.0356 129.684L79.0356 109.684L78.0356 107.684L71.0356 127.684L59.0356 125.684Z" fill="#1D1D1F"/>
<path d="M71.0356 127.684L59.0356 125.684L66.0356 106.684L78.0356 107.684L71.0356 127.684Z" fill="#2E2E30"/>
<path d="M60.5356 124.684L66.5356 108.184L76.0356 109.184L70.0356 126.184L60.5356 124.684Z" fill="#67D4D5"/>
<path d="M67.658 110.269L65.7563 116.088L69.6907 116.434L71.5298 110.694L67.658 110.269Z" fill="#AF495C"/>
<path d="M64.5597 119.253L61.9426 124.543L69.9658 125.952L72.0592 119.956L64.5597 119.253Z" fill="#1E87E3"/>
<path d="M67.2954 109.7L65.3938 115.519L69.3281 115.865L71.1672 110.125L67.2954 109.7Z" fill="#FB6172"/>
<path d="M63.7759 118.639L61.5688 123.853L69.3907 125.291L71.5763 119.367L63.7759 118.639Z" fill="#51A7FF"/>
<path d="M67.0356 108.684L61.0356 124.684H60.5356L66.5356 108.184L76.0356 109.184V109.684L67.0356 108.684Z" fill="#00A6A8"/>
</g>
<defs>
<linearGradient id="paint0_linear" x1="230.863" y1="147.456" x2="246.226" y2="117.728" gradientUnits="userSpaceOnUse">
<stop stop-opacity="0.47"/>
<stop offset="1" stop-opacity="0"/>
</linearGradient>
<linearGradient id="paint1_linear" x1="164.508" y1="244.568" x2="177.803" y2="219.654" gradientUnits="userSpaceOnUse">
<stop/>
<stop offset="1" stop-opacity="0"/>
</linearGradient>
<linearGradient id="paint2_linear" x1="212.337" y1="194.135" x2="223.846" y2="177.233" gradientUnits="userSpaceOnUse">
<stop/>
<stop offset="1" stop-opacity="0"/>
</linearGradient>
<linearGradient id="paint3_linear" x1="104.317" y1="196.556" x2="115.957" y2="175.976" gradientUnits="userSpaceOnUse">
<stop/>
<stop offset="1" stop-opacity="0"/>
</linearGradient>
<linearGradient id="paint4_linear" x1="12.685" y1="257.682" x2="83.8514" y2="226.144" gradientUnits="userSpaceOnUse">
<stop/>
<stop offset="1" stop-opacity="0"/>
</linearGradient>
<clipPath id="clip0">
<rect x="255.295" y="169.378" width="38.1449" height="38.8337" fill="white"/>
</clipPath>
<clipPath id="clip1">
<rect x="104.411" y="0.669861" width="177.448" height="187.211" fill="white"/>
</clipPath>
<clipPath id="clip2">
<rect x="100.306" y="28.0469" width="166" height="166" fill="white"/>
</clipPath>
<clipPath id="clip3">
<rect x="135.427" y="0.669861" width="63" height="63" fill="white"/>
</clipPath>
<clipPath id="clip4">
<rect x="185.47" y="28.0469" width="100" height="99" fill="white"/>
</clipPath>
<clipPath id="clip5">
<rect x="184.554" y="61.9807" width="70" height="70" fill="white"/>
</clipPath>
<clipPath id="clip6">
<rect x="162.761" y="147.329" width="81.96" height="84.583" fill="white"/>
</clipPath>
<clipPath id="clip7">
<rect x="89.5352" y="142.167" width="53.1281" height="54.4218" fill="white"/>
</clipPath>
<clipPath id="clip8">
<rect x="115" y="203" width="87" height="64" fill="white"/>
</clipPath>
<clipPath id="clip9">
<rect y="37" width="90" height="235" fill="white"/>
</clipPath>
</defs>
</svg>
