<svg width="313" height="345" viewBox="0 0 313 345" fill="none" xmlns="http://www.w3.org/2000/svg">
<g clip-path="url(#clip0)">
<path d="M34.9023 84.7125C34.894 83.8468 35.4613 82.9778 36.6082 82.3156C38.9142 80.9842 42.6545 81.0117 44.8862 82.3765L62.4197 93.101C63.6098 93.8291 65.6057 93.8439 66.8357 93.1337L70.3398 91.1106C72.1051 90.0915 74.9571 90.0914 76.7106 91.1105L81.7829 94.0582L56.7331 108.521L56.7399 110.92L51.6676 107.972C50.7965 107.466 50.3604 106.803 50.3586 106.14L50.3519 103.741C50.3519 103.76 50.3536 103.779 50.3544 103.798C50.3263 103.107 50.7682 102.41 51.6816 101.883L55.1858 99.8597C55.2248 99.8372 55.2589 99.8129 55.2956 99.7895C55.2483 99.7594 55.2022 99.7291 55.1507 99.7007L36.6934 89.5096C35.507 88.8545 34.9109 87.9777 34.9083 87.0987L34.9016 84.6994C34.9017 84.704 34.9023 84.7083 34.9023 84.7125ZM39.2908 86.0488C40.2646 86.5026 41.6642 86.4999 42.6374 86.0398C41.6634 85.5863 40.2638 85.5892 39.2908 86.0488Z" fill="#AD2201"/>
<path d="M81.7831 94.0583L89.2959 98.4243L89.124 98.5234L64.2529 115.286L56.7401 110.92L56.7334 108.521L81.7831 94.0583Z" fill="#898890"/>
<path d="M89.124 98.5232L103.895 107.107L103.901 109.506L79.1952 123.77L64.4247 115.187L64.418 112.787L89.124 98.5232Z" fill="#FFB657"/>
<path d="M64.418 112.787L79.1885 121.371L103.895 107.107L89.1241 98.5232L64.418 112.787Z" fill="#FEC377"/>
<path d="M38.2978 84.8522L38.3045 87.2515C38.3035 86.8542 38.5656 86.4565 39.0906 86.1533C40.1338 85.551 41.82 85.5507 42.8569 86.1533C43.3717 86.4524 43.6294 86.8439 43.6306 87.2361L43.6238 84.8369C43.6228 84.4447 43.365 84.0532 42.8502 83.754C41.8133 83.1515 40.1272 83.1518 39.0839 83.754C38.5588 84.0573 38.2964 84.455 38.2978 84.8522Z" fill="#891D00"/>
<path d="M34.9017 84.6997L34.9085 87.0989C34.911 87.978 35.5071 88.8549 36.6935 89.5099L36.6868 87.1107C35.5003 86.4556 34.9043 85.5788 34.9017 84.6997Z" fill="#791900"/>
<path d="M36.6868 87.1106L36.6935 89.5098L55.151 99.7009L55.1441 97.3017L36.6868 87.1106Z" fill="#891D00"/>
<path d="M56.1032 100.987L56.0965 98.588C56.0953 98.1189 55.777 97.651 55.1441 97.3015L55.1508 99.7007C55.7837 100.05 56.102 100.518 56.1032 100.987Z" fill="#791900"/>
<path d="M50.3521 103.741L50.3589 106.14C50.3608 106.804 50.7969 107.466 51.6678 107.972L51.6611 105.573C50.79 105.067 50.3539 104.404 50.3521 103.741Z" fill="#791900"/>
<path d="M51.6611 105.573L51.6678 107.972L56.7401 110.92L56.7334 108.521L51.6611 105.573Z" fill="#891D00"/>
<path d="M51.6817 101.883C49.9168 102.902 49.9074 104.554 51.661 105.573L56.7333 108.521L81.7831 94.0581L76.7108 91.1104C74.9574 90.0913 72.1052 90.0914 70.3401 91.1105L66.8359 93.1338C65.6059 93.8438 63.6102 93.8291 62.4199 93.101L44.8865 82.3765C42.6548 81.0118 38.9145 80.9841 36.6085 82.3156C34.3028 83.6468 34.3377 85.8136 36.6871 87.1106L55.1444 97.3016C56.3972 97.9937 56.4167 99.1495 55.1862 99.8599L51.6817 101.883ZM42.8374 85.9353C41.794 86.5377 40.1084 86.5377 39.0719 85.9353C38.035 85.3327 38.0405 84.3564 39.0839 83.754C40.1271 83.1517 41.8133 83.1514 42.8502 83.754C43.8865 84.3565 43.8805 85.333 42.8374 85.9353Z" fill="#AD2201"/>
<path d="M64.2461 112.886L64.2529 115.286L64.4247 115.187L64.418 112.787L64.2461 112.886Z" fill="#ACABB1"/>
<path d="M56.7334 108.521L56.7401 110.92L64.2529 115.286L64.2461 112.886L56.7334 108.521Z" fill="#898890"/>
<path d="M56.7334 108.521L64.2461 112.887L64.418 112.788L89.124 98.5234L89.2959 98.4243L81.7831 94.0583L56.7334 108.521Z" fill="#C6C5CB"/>
<path d="M100.366 109.145L90.1014 102.553L99.7228 109.516L100.366 109.145Z" fill="#FFA834"/>
<path d="M96.9191 111.183L87.9019 105.364L96.1746 111.613L96.9191 111.183Z" fill="#FFA834"/>
<path d="M64.418 112.788L64.4247 115.187L79.1952 123.77L79.1885 121.371L64.418 112.788Z" fill="#FFA834"/>
<path d="M79.1885 121.371L79.1952 123.77L103.901 109.506L103.895 107.107L79.1885 121.371Z" fill="#FFB657"/>
</g>
<path d="M69.8459 123.119L75.6413 125.648C80.8941 123.038 93.4052 116.459 101.428 111.016C109.45 105.573 116.231 107.183 118.618 108.668C120.333 109.772 124.023 112.148 125.065 112.823C126.367 113.666 130.795 118.964 132.488 121.252C134.181 123.54 137.307 123.36 137.958 122.878C138.479 122.493 128.972 109.431 124.153 102.948C121.31 101.804 114.399 100.07 109.502 102.286C104.605 104.502 81.0243 117.098 69.8459 123.119Z" fill="#0D0D0D"/>
<path d="M89.0782 115.275C87.0957 116.262 76.6243 121.738 71.6365 124.352L79.4999 127.378C88.4638 122.02 106.741 111.085 108.137 110.205C109.883 109.106 113.413 107.47 120.421 109.834C127.638 112.268 129.772 115.122 131.179 116.591C132.006 117.455 135.437 123.497 137.592 123.016C139.746 122.535 138.669 118.482 138.112 117.006C137.555 115.529 134.063 108.797 126.894 104.229C121.16 100.575 114.427 102.02 111.777 103.199C105.037 106.813 91.0606 114.288 89.0782 115.275Z" fill="#373737"/>
<path d="M285.022 245.907L210.585 290.109L116.69 237.43L184.673 199.879L285.022 245.907Z" fill="url(#paint0_linear)"/>
<path d="M216.513 83.1737C215.739 79.6748 210.778 73.0465 208.394 70.1698L130.177 28.0292C127.759 26.7514 121.754 25.1077 117.086 28.7559C112.418 32.4041 111.116 38.8475 111.048 41.6132L110.72 120.627C110.698 153.502 110.71 221.565 110.934 230.823C111.157 240.081 118.39 247.77 121.978 250.457L189.005 286.609C191.237 287.772 196.989 290.439 202.144 291.798C208.587 293.496 211.167 290.674 213.861 288.593C216.017 286.929 217.547 281.609 218.043 279.157L217.945 90.8565C217.79 89.7534 217.288 86.6726 216.513 83.1737Z" fill="#DE5E78"/>
<mask id="mask0" mask-type="alpha" maskUnits="userSpaceOnUse" x="110" y="26" width="109" height="267">
<path d="M216.513 83.1737C215.739 79.6748 210.778 73.0465 208.394 70.1698L130.177 28.0292C127.759 26.7514 121.754 25.1077 117.086 28.7559C112.418 32.4041 111.116 38.8475 111.048 41.6132L110.72 120.627C110.698 153.502 110.71 221.565 110.934 230.823C111.157 240.081 118.39 247.77 121.978 250.457L189.005 286.609C191.237 287.772 196.989 290.439 202.144 291.798C208.587 293.496 211.167 290.674 213.861 288.593C216.017 286.929 217.547 281.609 218.043 279.157L217.945 90.8565C217.79 89.7534 217.288 86.6726 216.513 83.1737Z" fill="#DE5E78"/>
</mask>
<g mask="url(#mask0)">
<path d="M206.118 289.369C204.356 293.403 196.12 290.5 195.255 289.972C209.758 301.707 220.486 334.174 232.097 207.967C241.385 107.002 219.809 71.1592 207.859 65.8584C206.769 66.399 210.362 69.2125 209.782 70.512C209.057 72.1364 214.764 76.916 214.153 83.3545C213.76 87.5021 210.982 88.7373 209.931 91.1945C209.35 92.5518 209.468 145.297 209.259 171.391L209.17 260.397C208.74 268.709 207.529 286.142 206.118 289.369Z" fill="#B24A5D"/>
<path d="M118.285 31.0113C118.249 30.4665 116.473 29.6437 116.117 29.6322C116.034 23.9497 114.163 15.2501 107.342 25.912C98.8168 39.2393 103.297 231.051 103.037 234.513C102.778 237.975 120.83 253.072 116.072 243.997C112.266 236.737 111.477 231.855 111.558 230.321L111.825 92.8307C111.894 81.7634 111.985 56.9418 111.787 46.1944C111.54 32.7601 113.811 33.3993 114.248 32.8441C114.685 32.2889 118.32 31.556 118.285 31.0113Z" fill="#F26681"/>
</g>
<path d="M201.602 84.2219C199.171 79.3393 195.18 77.2303 193.489 76.7861L149.04 53.5164C140.362 48.325 122.045 38.18 118.2 39.1315C114.354 40.083 113.872 44.4112 114.112 46.4564C113.953 106.226 113.669 227.339 113.798 233.638C113.927 239.938 117.156 243.394 118.755 244.335C121.951 246.368 128.876 250.697 131.006 251.744C133.667 253.052 132.761 251.337 133.845 248.674C134.711 246.543 136.724 247.049 137.622 247.567C149.83 253.988 175.106 267.236 178.545 268.857C182.819 270.872 183.134 274.138 183.424 277.151L183.43 277.204C183.722 280.233 187.248 281.875 195.169 285.304C201.506 288.046 203.402 283.239 203.558 280.492L203.987 94.8349C204.205 93.3317 204.034 89.1045 201.602 84.2219Z" fill="white"/>
<mask id="mask1" mask-type="alpha" maskUnits="userSpaceOnUse" x="113" y="39" width="92" height="248">
<path d="M201.602 84.2219C199.171 79.3393 195.18 77.2303 193.489 76.7861L149.04 53.5164C140.362 48.325 122.045 38.18 118.2 39.1315C114.354 40.083 113.872 44.4112 114.112 46.4564C113.953 106.226 113.669 227.339 113.798 233.638C113.927 239.938 117.156 243.394 118.755 244.335C121.951 246.368 128.876 250.697 131.006 251.744C133.667 253.052 132.761 251.337 133.845 248.674C134.711 246.543 136.724 247.049 137.622 247.567C149.83 253.988 175.106 267.236 178.545 268.857C182.819 270.872 183.134 274.138 183.424 277.151L183.43 277.204C183.722 280.233 187.248 281.875 195.169 285.304C201.506 288.046 203.402 283.239 203.558 280.492L203.987 94.8349C204.205 93.3317 204.034 89.1045 201.602 84.2219Z" fill="white"/>
</mask>
<g mask="url(#mask1)">
<path d="M215.185 253.158C215.185 253.158 101.656 195.889 101.052 195.475C100.449 195.06 101.728 244.843 101.728 244.843L211.523 296.551L215.185 253.158Z" fill="#36C7CC"/>
<path d="M136.701 244.637C136.163 244.358 135.619 244.075 135.075 243.79C127.169 239.651 123.108 231.911 123.4 223.496L123.456 221.89C123.575 218.473 127.444 216.468 130.646 218.164L131.102 218.405C139.606 222.908 144.765 231.555 144.358 240.623C144.195 244.26 140.129 246.413 136.701 244.637Z" fill="#B86EE6"/>
</g>
<path d="M163.801 267.966C164.131 268.093 164.497 267.922 164.639 267.82C164.64 267.328 164.218 266.94 164.007 266.808C160.979 265.089 154.65 261.619 153.559 261.496C152.469 261.373 152.793 261.976 153.091 262.293L161.682 266.833C162.251 267.158 163.471 267.839 163.801 267.966Z" fill="#AA475A"/>
<path d="M153.321 262.068C153.097 261.821 153.385 261.593 153.557 261.511C152.113 260.879 152.337 261.892 152.775 262.359C153.125 262.733 159.867 266.014 163.194 267.607C161.832 266.842 158.849 265.187 157.812 264.684C156.516 264.055 153.602 262.376 153.321 262.068Z" fill="#8B3848"/>
<path d="M169.203 270.114C169.415 269.842 169.941 270.021 170.177 270.145C168.029 268.424 168.924 269.667 168.303 270.087C167.683 270.506 169.539 272.868 170.36 272.386C171.18 271.904 170.833 270.7 170.546 271.272C170.26 271.844 168.938 270.454 169.203 270.114Z" fill="#AA475A"/>
<path d="M168.735 270.35C168.758 269.595 169.397 269.687 169.713 269.828C168.844 268.586 167.934 269.246 168.017 270.464C168.099 271.681 169.353 272.384 170.047 272.45C170.601 272.503 170.815 271.895 170.853 271.584C170.778 271.647 170.552 271.779 170.247 271.796C169.866 271.817 168.706 271.293 168.735 270.35Z" fill="#8B3848"/>
<path d="M174.288 53.865C175.385 53.5715 175.668 54.8503 175.783 55.035C176.102 55.2797 176.664 55.561 176.357 54.7287C175.977 53.6968 175.496 53.4737 174.917 53.2049L174.903 53.1983C174.317 52.9265 172.979 53.2873 172.29 53.7014C171.601 54.1155 171.764 54.9357 172.056 55.1641C172.29 55.3469 173.293 55.5032 173.765 55.5585L174.239 55.3054C173.725 55.2008 172.678 54.9673 172.605 54.8712C172.513 54.751 173.191 54.1585 174.288 53.865Z" fill="#B14B5E"/>
<path d="M153.512 42.8225L153.921 43.4769C153.84 43.1847 153.738 42.6134 153.98 42.6655C154.221 42.7176 154.655 43.1036 154.842 43.2901C154.89 43.5008 155.024 43.9042 155.181 43.8327C155.377 43.7433 155.72 43.0773 155.564 42.9051C155.438 42.7673 154.356 42.292 153.83 42.0715L151.505 43.3127L152.254 44.5123L153.908 44.7509L154.466 44.3492L153.577 44.2213L152.724 43.9704L152.384 43.4251L153.512 42.8225Z" fill="#B14B5E"/>
<path d="M157.43 46.2069C156.641 46.8942 157.6 47.948 158.179 48.3889L162.831 50.7275C167.483 53.0662 167.887 53.1034 168.79 53.0818C169.692 53.0603 170.52 51.6424 170.375 51.3146C170.259 51.0523 168.906 50.3552 168.244 50.0394L168.065 50.4853C168.247 50.6823 168.64 51.1065 168.746 51.2263C168.853 51.3462 168.349 51.2913 168.083 51.2488C165.747 50.0589 161.006 47.6599 160.735 47.5835C160.397 47.488 160.235 47.0369 160.487 46.9022C160.689 46.7945 162.01 47.2456 162.646 47.4846L162.743 47.1934L161.359 46.4364C160.378 46.0735 158.219 45.5196 157.43 46.2069Z" fill="#B14B5E"/>
<path d="M159.299 47.7623C159.564 47.7086 160.192 48.0396 160.495 48.1281C162.978 49.4492 168.017 51.9373 168.131 51.9894C168.274 52.0545 168.788 52.4703 168.518 52.7714C168.302 53.0122 167.895 53.0514 167.719 53.0409C165.169 51.8291 159.926 49.3417 159.345 49.0866C158.62 48.7677 158.678 48.2351 158.803 48.0273C158.928 47.8194 158.968 47.8294 159.299 47.7623Z" fill="#8A414E"/>
<path d="M152.404 43.4946L153.476 42.922L153.14 42.383L152.067 42.9556L152.404 43.4946Z" fill="#8A414E"/>
<path d="M172.546 54.8189L174.301 53.8818L173.957 53.3303L172.201 54.2674L172.546 54.8189Z" fill="#8A414E"/>
<path d="M200.53 69.569C201.6 70.019 202.511 69.7417 202.715 69.2002C202.999 68.4442 202.563 68.4837 201.69 67.9928C200.816 67.5018 200.118 68.08 199.936 68.2227C199.754 68.3655 199.193 69.0066 200.53 69.569Z" fill="#8A414E"/>
<path d="M196.937 67.6682C198.006 68.1181 198.917 67.8408 199.121 67.2993C199.406 66.5433 198.97 66.5829 198.096 66.0919C197.223 65.6009 196.525 66.1792 196.343 66.3219C196.161 66.4646 195.6 67.1057 196.937 67.6682Z" fill="#8A414E"/>
<path d="M189.99 63.9272C191.059 64.3772 191.97 64.0998 192.174 63.5583C192.459 62.8023 192.023 62.8419 191.15 62.3509C190.276 61.8599 189.578 62.4382 189.396 62.5809C189.214 62.7236 188.653 63.3647 189.99 63.9272Z" fill="#8A414E"/>
<path d="M186.503 62.1569C187.573 62.6069 188.484 62.3296 188.688 61.7881C188.973 61.0321 188.536 61.0716 187.663 60.5807C186.79 60.0897 186.091 60.6679 185.909 60.8106C185.727 60.9533 185.166 61.5945 186.503 62.1569Z" fill="#8A414E"/>
<path d="M182.803 60.1271C183.872 60.5771 184.783 60.2998 184.987 59.7583C185.272 59.0023 184.836 59.0419 183.962 58.5509C183.089 58.0599 182.39 58.6381 182.208 58.7809C182.027 58.9236 181.466 59.5647 182.803 60.1271Z" fill="#8A414E"/>
<path d="M143.895 39.3586C144.965 39.8086 145.876 39.5312 146.08 38.9897C146.364 38.2337 145.928 38.2733 145.055 37.7823C144.181 37.2913 143.483 37.8696 143.301 38.0123C143.119 38.155 142.558 38.7961 143.895 39.3586Z" fill="#8A414E"/>
<path d="M140.416 37.5668C141.485 38.0168 142.396 37.7395 142.6 37.198C142.885 36.442 142.449 36.4815 141.576 35.9906C140.702 35.4996 140.004 36.0778 139.822 36.2206C139.64 36.3633 139.079 37.0044 140.416 37.5668Z" fill="#8A414E"/>
<path d="M137.039 35.6213C138.109 36.0712 139.02 35.7939 139.224 35.2524C139.508 34.4964 139.072 34.536 138.199 34.045C137.325 33.554 136.627 34.1323 136.445 34.275C136.263 34.4177 135.702 35.0588 137.039 35.6213Z" fill="#8A414E"/>
<path d="M133.372 33.7307C134.441 34.1806 135.352 33.9033 135.556 33.3618C135.841 32.6058 135.405 32.6454 134.531 32.1544C133.658 31.6634 132.959 32.2417 132.777 32.3844C132.595 32.5271 132.035 33.1682 133.372 33.7307Z" fill="#8A414E"/>
<path d="M129.958 31.9877C131.028 32.4377 131.939 32.1604 132.143 31.6189C132.428 30.8629 131.991 30.9024 131.118 30.4115C130.245 29.9205 129.546 30.4987 129.364 30.6414C129.182 30.7842 128.622 31.4253 129.958 31.9877Z" fill="#8A414E"/>
<path d="M126.304 30.1725C127.373 30.6225 128.285 30.3452 128.488 29.8037C128.773 29.0477 128.337 29.0873 127.464 28.5963C126.59 28.1053 125.892 28.6836 125.71 28.8263C125.528 28.969 124.967 29.6101 126.304 30.1725Z" fill="#8A414E"/>
<path d="M213.681 169.938C213.879 168.74 215.177 168.267 215.801 168.18C216.871 168.444 217.116 169.387 217.105 169.825C217.069 177.013 216.472 192.363 216.485 192.801C216.5 193.349 216.119 194.934 214.87 195.027C213.62 195.119 213.229 193.701 213.19 192.98C213.272 185.799 213.484 171.136 213.681 169.938Z" fill="#9E4153"/>
<path d="M213.932 170.267C214.126 169.081 215.409 168.614 216.026 168.529C217.084 168.791 217.327 169.725 217.317 170.159C217.291 177.276 216.721 192.474 216.734 192.908C216.75 193.451 216.375 195.02 215.14 195.11C213.905 195.2 213.516 193.795 213.477 193.082C213.548 185.971 213.739 171.453 213.932 170.267Z" fill="#B34B60"/>
<path d="M214.973 170.927C214.835 171.72 215.408 171.705 215.712 171.599C215.874 171.547 216.227 171.298 216.345 170.722C216.462 170.146 216.126 169.949 215.943 169.922C215.677 169.927 215.112 170.135 214.973 170.927Z" fill="#9E4153"/>
<path d="M213.183 222.913C213.403 221.43 214.349 220.921 214.794 220.852C216.073 220.498 216.738 221.363 216.911 221.839L216.854 244.246C216.808 245.082 216.332 246.718 214.798 246.577C213.264 246.435 213.014 244.284 213.081 243.226C213.023 237.073 212.963 224.396 213.183 222.913Z" fill="#9E4153"/>
<path d="M213.451 223.231C213.669 221.775 214.6 221.274 215.038 221.205C216.296 220.856 216.949 221.705 217.118 222.173L217.037 244.178C216.99 244.999 216.52 246.606 215.012 246.469C213.503 246.331 213.26 244.219 213.327 243.18C213.278 237.137 213.233 224.687 213.451 223.231Z" fill="#B74C61"/>
<path d="M214.678 223.463C214.896 222.007 215.826 221.506 216.264 221.437C217.522 221.088 218.175 221.937 218.345 222.405L218.263 244.41C218.217 245.231 217.747 246.839 216.238 246.701C214.73 246.563 214.487 244.451 214.554 243.413C214.504 237.37 214.46 224.92 214.678 223.463Z" fill="#AF495C"/>
<path d="M164.732 84.4857C164.747 81.2832 164.738 80.8979 164.69 79.6044C164.646 78.4093 164.468 77.6777 164.318 77.174C164.119 76.5075 163.88 75.9806 163.493 75.3545C163.106 74.7284 162.737 74.2719 162.219 73.7789C161.828 73.4067 161.241 72.8998 160.157 72.2714C158.985 71.5926 158.634 71.3939 155.667 69.8202C152.699 68.2466 152.347 68.072 151.175 67.5079C150.092 66.9869 149.503 66.87 149.11 66.8266C148.59 66.7695 148.218 66.833 147.827 67.0465C147.436 67.26 147.194 67.5314 146.99 67.9845C146.836 68.3266 146.651 68.8659 146.597 70.0091C146.537 71.2455 146.524 71.6186 146.509 74.8212C146.494 78.0245 146.503 78.4097 146.551 79.7032C146.595 80.8983 146.773 81.63 146.923 82.1336C147.122 82.8001 147.361 83.327 147.748 83.9531C148.135 84.5792 148.504 85.0357 149.022 85.5287C149.413 85.9002 150 86.4078 151.083 87.0359C152.255 87.7146 152.607 87.9137 155.574 89.4874C158.542 91.061 158.893 91.2353 160.065 91.7994C161.15 92.3208 161.739 92.4369 162.131 92.481C162.651 92.5381 163.023 92.4746 163.414 92.2611C163.805 92.0476 164.047 91.7762 164.251 91.3232C164.406 90.9811 164.59 90.4418 164.644 89.2985C164.704 88.0624 164.717 87.689 164.732 84.4857ZM144.507 73.7597C144.522 70.5021 144.537 70.1005 144.596 68.8497C144.656 67.6013 144.849 66.8294 145.127 66.2117C145.414 65.574 145.798 65.1066 146.419 64.7675C147.04 64.4284 147.662 64.3473 148.394 64.428C149.102 64.5063 149.911 64.7321 151.094 65.3015C152.28 65.8712 152.659 66.0581 155.677 67.6588C158.695 69.2594 159.073 69.4739 160.259 70.1613C161.441 70.847 162.248 71.4779 162.954 72.1497C163.683 72.8438 164.301 73.5824 164.916 74.5769C165.531 75.5714 165.908 76.4422 166.188 77.3813C166.459 78.2899 166.643 79.2613 166.691 80.5672C166.739 81.8751 166.75 82.2902 166.734 85.5478C166.719 88.8062 166.705 89.2078 166.645 90.4585C166.584 91.7059 166.392 92.4789 166.114 93.0958C165.827 93.7342 165.443 94.2016 164.822 94.5408C164.201 94.8799 163.579 94.961 162.847 94.8803C162.139 94.802 161.33 94.5763 160.147 94.0068C158.961 93.4363 158.582 93.2502 155.564 91.6496C152.546 90.0488 152.168 89.8337 150.982 89.147C149.8 88.4614 148.993 87.8305 148.287 87.1586C147.558 86.4646 146.94 85.726 146.325 84.7314C145.71 83.737 145.333 82.8661 145.053 81.9262C144.782 81.0184 144.598 80.0458 144.55 78.7411C144.502 77.4331 144.491 77.018 144.507 73.7597Z" fill="#DE5E78"/>
<path d="M159.326 81.6186C159.336 79.4109 157.686 76.7411 155.64 75.656C153.594 74.5708 151.926 75.4813 151.916 77.689C151.906 79.8975 153.556 82.5672 155.602 83.6524C157.649 84.7375 159.315 83.827 159.326 81.6186ZM149.914 76.6271C149.93 73.2258 152.498 71.8225 155.65 73.4942C158.802 75.1659 161.344 79.2791 161.328 82.6804C161.312 86.0825 158.744 87.4851 155.592 85.8134C152.44 84.1417 149.898 80.0293 149.914 76.6271Z" fill="#DE5E78"/>
<path d="M148.324 82.2033C148.328 81.4081 148.928 81.0802 149.665 81.4709C150.401 81.8613 150.996 82.8226 150.992 83.6179C150.988 84.4124 150.388 84.7404 149.652 84.3499C148.915 83.9592 148.32 82.9979 148.324 82.2033Z" fill="#DE5E78"/>
<path d="M161.876 242.642C163.681 244.464 165.09 243.696 165.569 243.085C167.324 244.772 169.481 249.03 164.064 252.571C157.293 256.998 152.437 253.014 139.374 245.741C128.923 239.923 123.484 231.639 122.07 228.224C122.07 228.224 121.318 232.271 107.981 228.224C94.6443 224.176 88.6257 218.674 83.1542 211.402C78.7769 205.583 79.1873 198.732 79.9396 196.034L81.7179 195.655C82.2194 196.287 84.1254 198.336 87.7366 201.473C92.2506 205.394 91.977 203.75 100.321 202.928C108.665 202.105 134.997 208.24 136.843 209.125C138.69 210.01 147.034 217.03 149.428 220.508C151.822 223.987 159.619 240.366 161.876 242.642Z" fill="#383837"/>
<mask id="mask2" mask-type="alpha" maskUnits="userSpaceOnUse" x="79" y="195" width="89" height="60">
<path d="M161.876 242.642C163.681 244.464 165.09 243.696 165.569 243.085C167.324 244.772 169.481 249.03 164.064 252.571C157.293 256.998 152.437 253.014 139.374 245.741C128.923 239.923 123.484 231.639 122.07 228.224C122.07 228.224 121.318 232.271 107.981 228.224C94.6443 224.176 88.6257 218.674 83.1542 211.402C78.7769 205.583 79.1873 198.732 79.9396 196.034L81.7179 195.655C82.2194 196.287 84.1254 198.336 87.7366 201.473C92.2506 205.394 91.977 203.75 100.321 202.928C108.665 202.105 134.997 208.24 136.843 209.125C138.69 210.01 147.034 217.03 149.428 220.508C151.822 223.987 159.619 240.366 161.876 242.642Z" fill="#383837"/>
</mask>
<g mask="url(#mask2)">
<path d="M122.019 227.855L122.454 230.071C127.975 238.467 134.584 240.952 137.272 243.369C139.959 245.787 156.592 252.57 161.895 251.832C166.137 251.241 166.277 245.944 165.817 243.369C167.802 244.601 170.582 249.186 165.817 257.675C159.861 268.286 118.387 243.235 99.6472 235.31C80.9076 227.385 78.6559 198.103 80.2539 204.282C81.8518 210.46 91.149 218.923 100.301 224.43C107.622 228.836 117.83 228.549 122.019 227.855Z" fill="#222123"/>
</g>
<path d="M145.837 199.247C145.814 195.594 143.941 191.903 143.007 190.515C137.595 185.207 126.524 174.344 125.531 173.353C124.291 172.114 120.122 154.356 118.137 153.714C116.152 153.071 109.006 160.138 108.46 162.432C107.915 164.726 106.575 168.214 105.334 171.793C104.094 175.372 100.074 185.329 96.5506 191.89C93.0273 198.452 93.1762 203.086 93.8709 206.023C94.5657 208.96 98.2875 212.401 104.639 213.961C110.991 215.521 116.053 213.64 122.058 210.749C128.062 207.858 129.005 208.593 136.449 209.327C143.892 210.061 145.866 203.813 145.837 199.247Z" fill="#FFB657"/>
<mask id="mask3" mask-type="alpha" maskUnits="userSpaceOnUse" x="93" y="153" width="53" height="62">
<path d="M145.837 199.247C145.814 195.594 143.941 191.903 143.007 190.515C137.595 185.207 126.524 174.344 125.531 173.353C124.291 172.114 120.122 154.356 118.137 153.714C116.152 153.071 109.006 160.138 108.46 162.432C107.915 164.726 106.575 168.214 105.334 171.793C104.094 175.372 100.074 185.329 96.5506 191.89C93.0273 198.452 93.1762 203.086 93.8709 206.023C94.5657 208.96 98.2875 212.401 104.639 213.961C110.991 215.521 116.053 213.64 122.058 210.749C128.062 207.858 129.005 208.593 136.449 209.327C143.892 210.061 145.866 203.813 145.837 199.247Z" fill="#FFB657"/>
</mask>
<g mask="url(#mask3)">
<path d="M142.395 204.129C145.277 202.694 143.596 194.362 142.395 190.375C150.987 195.672 146.922 205.24 146.09 210.622C145.259 216.004 118.557 220.703 102.019 216.602C88.7889 213.321 90.532 203.844 93.0574 199.516C93.1498 200.74 94.1106 203.993 97.215 207.205C101.095 211.22 110.519 211.391 114.769 208.742C119.019 206.094 125.025 192.511 126.596 196.44C127.852 199.584 126.072 203.218 125.025 204.642C125.826 204.471 127.815 204.351 129.367 205.24C131.308 206.35 138.791 205.923 142.395 204.129Z" fill="#FFA834"/>
</g>
<path fill-rule="evenodd" clip-rule="evenodd" d="M158.36 168.152L162.196 172.345C162.196 179.01 160.534 192.543 153.887 193.357C145.578 194.375 138.471 189.655 133.365 185.027C128.905 180.983 126.354 177.08 124.179 173.751C123.864 173.27 123.558 172.801 123.255 172.345C121.793 170.15 120.406 166.791 119.183 163.829C118.395 161.92 117.676 160.177 117.048 159.016C115.446 156.054 112.443 159.386 111.742 160.682C111.042 161.978 108.239 165.218 101.231 166.051C94.2236 166.884 86.4152 162.626 80.0084 156.054C73.6757 149.558 72.0376 141.977 71.3238 138.674L71.2991 138.559C70.7385 135.968 69.931 127.112 69.5973 123.009C69.8381 123.067 70.35 122.994 71.0355 122.896C72.5344 122.681 74.8635 122.348 77.0066 123.009C80.9107 124.212 100.385 136.986 103.088 139.67C105.203 141.771 110.413 144.81 114.258 147.053C115.325 147.675 116.287 148.236 117.048 148.699C120.552 150.828 128.929 153.619 130.53 153.897C131.812 154.119 149.617 163.493 158.36 168.152ZM124.194 160.682C124.009 164.009 126.243 172.302 133.365 178.857C133.826 179.28 134.273 179.693 134.71 180.096C142.71 187.475 146.784 191.233 151.79 189.828C157.069 188.346 157.606 185.78 158.36 181.509C159.114 177.238 159.074 171.666 156.996 171.302C152.014 170.429 134.592 159.646 130.094 156.862C129.548 156.524 129.192 156.304 129.072 156.234C127.929 155.564 123.394 154.763 124.194 160.682ZM110.279 149.317C112.12 152.247 109.511 157.004 107.977 159.016C104.751 163.403 102.622 163.369 93.6391 160.682C84.6562 157.995 75.2345 142.175 74.2767 138.559C73.319 134.944 74.9791 129.304 76.2241 128.921C77.4692 128.537 77.9578 128.634 80.5792 130.906C82.6764 132.724 95.2209 138.761 101.231 141.552C103.48 142.919 108.437 146.387 110.279 149.317Z" fill="#373737"/>
<path d="M160.706 167.536L162.991 169.234C162.991 169.631 167.079 168.217 183.43 159.382C203.868 148.338 217.81 152.094 215.329 149.472C212.848 146.85 206.418 146.663 202.671 146.804C199.674 146.916 194.773 149.254 192.697 150.409L160.706 167.536Z" fill="#0D0D0D"/>
<path d="M218.161 161.714C215.763 158.387 210.541 155.383 208.23 154.298C208.329 154.345 209.742 154.536 214.601 154.921C220.675 155.402 228.393 167.848 226.444 168.506C224.495 169.165 221.16 165.872 218.161 161.714Z" fill="#0D0D0D"/>
<path d="M184.927 157.171C182.787 158.323 169.152 165.567 162.602 169.045L162.991 174.172C169.865 170.604 185.206 162.944 191.276 159.382C198.864 154.929 202.277 152.51 210.157 155.097C221.04 158.67 223.009 164.248 224.517 166.677C226.025 169.105 227.681 170.349 228.119 166.526C228.557 162.703 223.839 156.182 222.282 154.563C220.726 152.944 216.738 148.311 209.393 147.412C202.048 146.512 187.603 155.732 184.927 157.171Z" fill="#373737"/>
<path d="M130.613 161.78C130.742 164.206 129.125 169.088 128.301 171.226L124.96 166.246C123.57 162.952 121.817 156.256 125.924 155.822C131.057 155.28 130.452 158.747 130.613 161.78Z" fill="#FFB657"/>
<path d="M72.8139 120.967L69.5971 122.972C76.2095 123.527 77.8901 125.587 78.5438 125.587C79.0667 125.587 81.1737 126.8 82.2874 127.651C88.2918 131.054 101.11 138.823 103.027 140.381C105.424 142.329 112.538 147.131 115.952 149.079C118.683 150.637 126.818 153.568 128.876 153.994L156.215 168.754L161.734 171.876C161.734 172.279 161.45 174.7 160.753 181.9C157.528 190.411 154.82 192.852 152.108 193.479C152.713 193.434 154.608 193.568 156.874 192.01C159.707 190.062 161.371 187.165 161.734 186.091C162.097 185.016 163.728 181.043 164.164 178.357C164.512 176.208 164.679 171.597 164.8 170.231C164.025 169.515 161.793 167.638 159.062 165.865C156.331 164.092 139.765 156.037 131.824 152.232C130.105 151.694 126.013 150.351 123.398 149.277C120.13 147.933 112.866 143.971 112.067 143.165C111.268 142.359 83.8854 127.315 81.2706 124.36C79.1787 121.996 74.7612 121.113 72.8139 120.967Z" fill="#0D0D0D"/>
<path d="M162.823 163.087C162.582 168.135 159.217 168.995 158.735 169.292C156.487 169.292 153.001 168.221 152.332 167.651L137.608 159.485C134.932 158.248 128.888 154.942 126.126 151.616C122.674 147.458 121.71 142.558 121.71 139.588C121.71 136.618 123.637 134.391 126.126 134.02C128.615 133.649 135.521 137.584 138.09 138.92C140.659 140.257 155.777 148.411 157.655 150.533C158.377 151.35 163.064 158.038 162.823 163.087Z" fill="#070707"/>
<path d="M115.538 136.911C115.297 141.96 111.931 142.82 111.45 143.117C109.201 143.117 105.716 142.045 105.047 141.476L90.3231 133.31C87.6466 132.073 81.6032 128.766 78.8411 125.44C75.3885 121.283 74.425 116.383 74.425 113.413C74.425 110.443 76.352 108.216 78.8411 107.845C81.3302 107.474 88.2354 111.409 90.8048 112.745C93.3742 114.081 108.492 122.235 110.37 124.358C111.092 125.175 115.779 131.863 115.538 136.911Z" fill="#070707"/>
<path d="M72.9972 136.457C72.1214 129.978 75.2513 128.557 76.9257 128.656C75.8953 129.43 76.1529 129.371 75.7021 131.812C75.2513 134.254 76.0885 141.162 81.1762 148.486C86.2639 155.811 92.1889 160.039 100.175 161.765C106.563 163.147 108.332 159.046 108.418 156.823C108.332 159.225 106.293 163.909 98.8222 163.433C89.484 162.837 87.2943 159.384 82.6574 155.215C78.0206 151.047 74.0921 144.556 72.9972 136.457Z" fill="#070707"/>
<path d="M126.182 155.692C126.3 155.67 126.411 155.652 126.514 155.638C126.435 155.574 126.318 155.568 126.182 155.692C124.901 155.933 122.794 156.656 122.529 158.066C122.167 159.992 121.986 165.853 124.793 170.877C127.6 175.901 131.132 181.428 136.384 185.028C140.586 187.909 142.905 189.076 143.538 189.299C144.504 189.745 146.871 190.622 148.61 190.555C150.783 190.471 153.681 190.22 154.949 189.299C155.963 188.562 156.639 187.596 156.851 187.205C155.703 188.629 152.069 190.739 146.708 187.792C140.007 184.107 132.4 177.576 129.774 172.719C127.148 167.863 124.703 162.42 125.246 158.736C125.538 156.754 125.902 155.948 126.182 155.692Z" fill="#070707"/>
<g clip-path="url(#clip1)">
<path d="M110.901 293.056C110.932 283.432 103.954 273.305 90.2979 265.42C65.3208 250.999 27.4628 249.543 5.59468 262.253C2.40404 264.122 0.884663 266.531 0.911733 268.923C0.911518 268.897 0.90851 268.87 0.908725 268.844L0.90142 271.383C0.894331 273.855 2.5439 276.316 5.71843 278.148C6.56449 278.637 7.51796 279.08 8.578 279.468C9.81701 279.922 10.9376 280.443 11.9345 281.018C15.1127 282.853 17.0259 285.24 17.5073 287.734C17.1885 289.322 16.2778 290.895 14.7245 292.34L7.97086 298.625C6.29185 300.188 5.48726 301.947 5.51175 303.695C5.51132 303.664 5.5081 303.633 5.50832 303.602L5.50101 306.141C5.49414 308.517 7.02533 310.879 9.99597 312.705C10.5264 313.032 11.0685 313.356 11.6223 313.675C36.5994 328.096 74.4575 329.551 96.1801 316.927C106.029 311.203 110.871 303.568 110.893 295.587L110.901 293.049C110.901 293.051 110.901 293.053 110.901 293.056ZM13.1378 269.162C13.5439 268.071 14.4733 267.034 15.9323 266.185C19.9954 263.824 26.6038 263.824 30.6923 266.185C32.1874 267.048 33.1359 268.107 33.5429 269.219C33.1366 270.31 32.2072 271.348 30.7475 272.196C26.6855 274.557 20.0773 274.556 15.9875 272.195C14.4933 271.332 13.5445 270.273 13.1378 269.162Z" fill="#FFA834"/>
<path d="M33.7811 267.95L33.7738 270.489C33.7781 268.932 32.7505 267.372 30.6925 266.184C26.6038 263.824 19.9955 263.824 15.9325 266.185C13.9147 267.358 12.9045 268.892 12.9002 270.429L12.9075 267.89C12.9118 266.353 13.922 264.819 15.9398 263.646C20.003 261.285 26.6113 261.284 30.6998 263.645C32.7576 264.834 33.7856 266.393 33.7811 267.95Z" fill="black"/>
<path d="M84.0797 269.033C87.2525 270.865 87.2693 273.836 84.1171 275.667C80.9649 277.499 75.8381 277.498 72.6653 275.667C69.4924 273.835 69.4748 270.865 72.627 269.033C75.7788 267.201 80.9067 267.201 84.0797 269.033Z" fill="#36C7CC"/>
<path d="M17.6397 286.462L17.6324 289.001C17.6408 286.058 15.6477 283.162 11.9343 281.018C10.9374 280.443 9.81679 279.922 8.57779 279.468C7.51775 279.08 6.56427 278.637 5.71822 278.148C2.5439 276.316 0.894331 273.855 0.90142 271.383L0.908725 268.844C0.901635 271.316 2.55121 273.777 5.72574 275.609C6.57179 276.098 7.52527 276.541 8.58531 276.929C9.82431 277.383 10.9449 277.904 11.9418 278.479C15.655 280.623 17.6481 283.519 17.6397 286.462Z" fill="#494949"/>
<path d="M83.5624 305.166C86.7352 306.998 86.7519 309.968 83.5997 311.8C80.4475 313.631 75.3199 313.632 72.1468 311.8C68.974 309.968 68.9573 306.998 72.1095 305.166C75.2616 303.334 80.3895 303.334 83.5624 305.166Z" fill="#FFD271"/>
<path d="M51.6022 310.428C54.775 312.26 54.7918 315.23 51.6396 317.062C48.4874 318.894 43.3597 318.894 40.1867 317.062C37.0139 315.23 36.998 312.26 40.1504 310.428C43.3026 308.597 48.4294 308.596 51.6022 310.428Z" fill="#51A7FF"/>
<path d="M90.2979 265.42C115.275 279.84 117.912 301.764 96.188 314.388C74.4652 327.012 36.6071 325.557 11.6303 311.137C11.0762 310.817 10.5344 310.494 10.0039 310.166C4.8859 307.021 4.04049 302.283 7.97127 298.625L14.7249 292.34C19.5698 287.831 18.1946 282.089 11.942 278.479C10.9451 277.904 9.82451 277.382 8.58551 276.929C7.52547 276.541 6.57199 276.098 5.72594 275.609C-0.486481 272.023 -0.85859 266.033 5.59489 262.252C27.4628 249.543 65.3208 250.999 90.2979 265.42ZM15.9877 272.195C20.0775 274.556 26.6859 274.557 30.7477 272.196C34.8108 269.835 34.7894 266.007 30.6996 263.645C26.6109 261.285 20.0027 261.285 15.9396 263.646C11.8776 266.007 11.8993 269.835 15.9877 272.195ZM72.1472 311.8C75.3198 313.632 80.4473 313.632 83.5997 311.8C86.7521 309.968 86.7353 306.998 83.5627 305.166C80.3897 303.334 75.262 303.334 72.1096 305.166C68.9572 306.998 68.9742 309.968 72.1472 311.8ZM96.1747 286.318C93.0017 284.486 87.874 284.486 84.7216 286.318C81.5696 288.149 81.5872 291.119 84.7601 292.951C87.9327 294.783 93.0597 294.783 96.2117 292.951C99.3641 291.119 99.3475 288.149 96.1747 286.318ZM72.6652 275.667C75.8378 277.499 80.9644 277.499 84.1168 275.667C87.2688 273.836 87.2523 270.865 84.0794 269.034C80.9064 267.202 75.7787 267.202 72.6268 269.034C69.4744 270.866 69.4922 273.835 72.6652 275.667ZM40.1867 317.062C43.3593 318.894 48.4869 318.894 51.6395 317.062C54.7915 315.23 54.775 312.26 51.6022 310.428C48.4291 308.596 43.3025 308.597 40.1506 310.428C36.9982 312.26 37.0136 315.23 40.1867 317.062Z" fill="#1D1D1F"/>
<path d="M96.1745 286.317C99.3473 288.149 99.3641 291.12 96.2119 292.951C93.0597 294.783 87.9329 294.782 84.7601 292.951C81.5873 291.119 81.5697 288.149 84.7218 286.318C87.874 284.485 93.0019 284.485 96.1745 286.317Z" fill="#FB6172"/>
<path d="M110.901 293.049L110.894 295.588C110.871 303.569 106.03 311.204 96.1806 316.927C74.4577 329.551 36.5997 328.096 11.6226 313.676C11.0685 313.356 10.5267 313.033 9.9962 312.706C7.02556 310.88 5.49437 308.518 5.50124 306.142L5.50855 303.603C5.50167 305.979 7.03287 308.341 10.0035 310.167C10.534 310.494 11.076 310.817 11.6299 311.137C36.607 325.557 74.465 327.012 96.1877 314.388C106.037 308.665 110.879 301.029 110.901 293.049Z" fill="#030303"/>
</g>
<g clip-path="url(#clip2)">
<path d="M64.0352 241.97C63.9895 241.832 63.9863 241.754 63.9861 241.719C63.9873 241.692 63.9893 241.666 63.9935 241.638C63.9983 241.608 64.0041 241.583 64.0087 241.569C64.0136 241.554 64.0199 241.538 64.0282 241.519C64.0316 241.512 64.0337 241.507 64.0367 241.501C64.038 241.498 64.0386 241.496 64.0403 241.493C64.0416 241.491 64.0432 241.489 64.0445 241.486C64.046 241.484 64.0485 241.478 64.0496 241.477C64.0511 241.474 64.0526 241.473 64.054 241.47C64.0648 241.453 64.0754 241.438 64.0829 241.428C64.0848 241.425 64.0873 241.423 64.0894 241.421C64.0947 241.414 64.099 241.409 64.104 241.404C64.1104 241.397 64.1169 241.39 64.1235 241.384C64.1248 241.382 64.1271 241.38 64.1284 241.378C64.133 241.374 64.1373 241.371 64.1419 241.367C64.1474 241.362 64.1527 241.358 64.158 241.353C64.1657 241.347 64.1727 241.342 64.1799 241.337C64.1837 241.334 64.186 241.332 64.1892 241.33C64.2163 241.312 64.237 241.3 64.2372 241.3C64.2445 241.296 64.2534 241.293 64.261 241.29C64.2881 241.277 64.3158 241.265 64.3397 241.256C64.4456 241.213 64.6011 241.198 64.7153 241.192C64.725 241.192 64.7366 241.192 64.7466 241.191C64.8409 241.187 64.9374 241.186 65.0183 241.191C65.0234 241.191 65.0296 241.192 65.0349 241.192C65.1115 241.195 65.1873 241.2 65.2526 241.207C65.3159 241.214 65.3862 241.223 65.4586 241.232C65.5243 241.24 65.5882 241.249 65.6456 241.258C65.6747 241.263 65.7073 241.269 65.7386 241.275C65.7615 241.279 65.7835 241.282 65.8058 241.287C65.8113 241.287 65.8166 241.288 65.8223 241.29C65.8617 241.297 65.9017 241.304 65.9375 241.312C65.9483 241.314 65.9614 241.317 65.9725 241.32C66.098 241.346 66.224 241.375 66.3306 241.401C66.9043 241.543 67.6591 241.776 68.213 241.981C68.2251 241.986 68.2386 241.991 68.2507 241.995C68.5131 242.088 68.7672 242.182 68.9928 242.266C69.7485 242.547 70.7267 242.949 71.4951 243.277C71.4983 243.278 71.5019 243.28 71.505 243.281C72.155 243.555 72.9363 243.905 73.6768 244.242C74.0518 244.412 74.4163 244.578 74.7537 244.735C74.7842 244.749 74.817 244.764 74.8469 244.778C75.9878 245.303 77.4949 246.033 78.6219 246.587C78.6435 246.598 78.6672 246.609 78.689 246.62C78.7214 246.636 78.7565 246.653 78.7885 246.669C79.7035 247.119 80.8296 247.688 81.8627 248.211C82.2547 248.409 82.6331 248.601 82.9798 248.776C83.1592 248.867 83.3469 248.962 83.5396 249.061C83.6663 249.125 83.7978 249.193 83.9287 249.26C83.9732 249.283 84.0161 249.305 84.061 249.328C85.1033 249.865 86.2472 250.465 87.2108 250.972C87.2868 251.012 87.3662 251.054 87.4397 251.092C87.4467 251.096 87.4541 251.1 87.4611 251.103C87.4698 251.108 87.4793 251.113 87.4878 251.117C88.8926 251.857 90.7615 252.849 92.1576 253.604C92.926 254.017 93.828 254.505 94.719 254.99C95.4912 255.408 96.2555 255.824 96.9154 256.188C96.9157 256.188 96.9161 256.188 96.9163 256.188C98.3486 256.972 100.245 258.014 101.665 258.807C103.071 259.592 104.948 260.632 106.351 261.423C107.709 262.182 109.514 263.202 110.866 263.972C110.867 263.972 110.869 263.973 110.87 263.974C112.148 264.699 113.848 265.666 115.122 266.395C116.298 267.068 117.865 267.968 119.039 268.643C119.654 268.997 120.388 269.42 121.102 269.833C121.581 270.11 122.044 270.378 122.478 270.63C122.493 270.639 122.51 270.648 122.525 270.657C122.769 270.798 123.035 270.952 123.31 271.112C124.04 271.535 124.839 271.999 125.484 272.376C125.488 272.378 125.492 272.381 125.496 272.383C126.207 272.797 127.154 273.35 127.864 273.766C127.881 273.776 127.9 273.787 127.917 273.797C129.347 274.635 130.111 275.085 130.439 275.279C130.974 275.593 131.299 276.265 131.288 277.215C131.265 279.093 129.933 281.347 128.312 282.25C127.519 282.692 126.804 282.728 126.283 282.43C124.267 281.275 122.436 280.216 120.733 279.228C118.709 278.053 116.679 276.87 114.874 275.81C114.864 275.804 114.853 275.797 114.843 275.792C114.451 275.562 114.016 275.306 113.568 275.043C112.685 274.523 111.75 273.973 110.982 273.52C109.716 272.772 108.029 271.772 106.765 271.019C106.765 271.019 106.765 271.019 106.764 271.019C105.427 270.226 103.649 269.164 102.32 268.36C100.938 267.534 99.1043 266.417 97.7264 265.585C96.3349 264.744 94.4913 263.612 93.1015 262.756C93.1009 262.755 93.1001 262.755 93.0996 262.755C92.4676 262.368 91.741 261.918 91.0074 261.462C90.1303 260.918 89.2417 260.365 88.4908 259.894C87.1439 259.056 85.3616 257.926 84.0269 257.073C84.0208 257.069 84.0138 257.065 84.0077 257.061C83.9992 257.056 83.9895 257.05 83.981 257.044C83.8476 256.959 83.7072 256.869 83.5655 256.778C83.5532 256.77 83.542 256.763 83.5297 256.755C83.3767 256.657 83.2194 256.556 83.0593 256.453C83.0402 256.44 83.0216 256.429 83.0023 256.416C82.9036 256.353 82.8026 256.288 82.702 256.223C82.6097 256.164 82.5184 256.105 82.4252 256.045C82.4118 256.036 82.3981 256.027 82.3847 256.019C81.4929 255.444 80.5699 254.845 79.8034 254.344C79.7914 254.336 79.7786 254.328 79.7668 254.32C79.7649 254.319 79.7625 254.317 79.7606 254.316C79.713 254.285 79.6613 254.251 79.6126 254.219C79.5188 254.157 79.4266 254.097 79.329 254.033C79.1924 253.943 79.0516 253.851 78.9094 253.757C78.8864 253.742 78.8643 253.727 78.841 253.712C78.7341 253.641 78.6252 253.569 78.516 253.497C78.442 253.448 78.3687 253.4 78.294 253.35C78.2402 253.314 78.1864 253.278 78.1322 253.243C77.9971 253.153 77.8624 253.063 77.727 252.973C77.7255 252.972 77.7236 252.971 77.722 252.97C77.0656 252.533 76.4146 252.097 75.8548 251.717C75.83 251.7 75.8027 251.682 75.7775 251.665C75.7527 251.648 75.7256 251.63 75.7012 251.613C75.6655 251.589 75.6267 251.562 75.5903 251.538C74.584 250.854 73.3408 249.996 72.3952 249.325C72.3613 249.301 72.3247 249.275 72.29 249.25C72.2804 249.243 72.2696 249.236 72.2599 249.229C71.1099 248.426 69.597 247.323 68.5006 246.448C68.2257 246.228 67.9262 245.988 67.6176 245.737C67.4652 245.615 67.3171 245.497 67.1797 245.387C66.8094 245.091 66.3704 244.699 65.975 244.336C65.9078 244.275 65.8424 244.214 65.7768 244.154C65.6999 244.083 65.6245 244.013 65.5539 243.947C65.3657 243.772 65.1388 243.538 64.9506 243.33C64.9281 243.305 64.9074 243.283 64.887 243.259C64.8733 243.244 64.8574 243.227 64.8444 243.212C64.8262 243.191 64.8046 243.166 64.7839 243.142C64.7809 243.139 64.7777 243.135 64.7746 243.131C64.7381 243.089 64.7043 243.048 64.6695 243.005C64.6663 243.001 64.6638 242.998 64.6608 242.994C64.6458 242.975 64.6284 242.955 64.6153 242.938C64.6128 242.935 64.61 242.931 64.6075 242.928C64.602 242.921 64.5939 242.911 64.5888 242.904C64.5507 242.856 64.51 242.801 64.469 242.744C64.3942 242.643 64.3192 242.538 64.2654 242.444C64.2627 242.44 64.2601 242.435 64.2574 242.43C64.2544 242.425 64.251 242.42 64.248 242.416C64.1864 242.318 64.1195 242.186 64.0714 242.071C64.0668 242.06 64.0611 242.048 64.057 242.037C64.0557 242.034 64.0551 242.031 64.0536 242.028C64.0521 242.023 64.0498 242.019 64.0485 242.015C64.0441 242.001 64.0397 241.985 64.0352 241.97Z" fill="#A66206"/>
<path d="M126.284 282.43C126.805 282.729 127.52 282.692 128.313 282.251C129.933 281.348 131.265 279.093 131.288 277.215C131.3 276.265 130.974 275.594 130.44 275.279C130.108 275.083 129.329 274.624 127.864 273.766C127.154 273.35 126.207 272.798 125.496 272.383C124.606 271.863 123.416 271.174 122.524 270.656C120.308 269.371 117.347 267.669 115.123 266.396C113.847 265.665 112.142 264.695 110.863 263.97C109.511 263.203 107.705 262.187 106.352 261.424C104.949 260.633 103.071 259.592 101.666 258.807C100.237 258.009 98.3251 256.959 96.89 256.174C95.4679 255.396 93.57 254.362 92.1419 253.596C90.7341 252.84 88.8545 251.836 87.4402 251.092C86.1059 250.39 84.3262 249.456 82.9803 248.776C81.6744 248.116 79.9354 247.232 78.6225 246.587C77.4955 246.033 75.9884 245.302 74.8475 244.778C73.8496 244.318 72.5178 243.707 71.5055 243.281C70.5272 242.868 69.209 242.351 68.2136 241.981C67.6596 241.775 66.9048 241.543 66.3312 241.401C66.1273 241.35 65.8534 241.291 65.6459 241.258C65.4591 241.228 65.2077 241.203 65.0188 241.191C64.8769 241.182 64.6858 241.19 64.5448 241.209C64.4495 241.222 64.3233 241.256 64.2377 241.3C64.2372 241.3 64.1814 241.329 64.1288 241.378C64.1091 241.397 64.0793 241.427 64.0498 241.476C64.0422 241.489 64.0231 241.523 64.0089 241.569C63.9903 241.629 63.9882 241.672 63.9863 241.719C63.9873 241.63 64.0286 241.562 64.1114 241.516C64.0284 241.562 63.9874 241.63 63.9863 241.719C63.9865 241.759 63.9871 241.853 64.0579 242.037C64.1074 242.165 64.1979 242.325 64.2663 242.443C64.3569 242.601 64.5071 242.792 64.6162 242.937C64.6808 243.023 64.7748 243.131 64.8453 243.211C65.0467 243.442 65.3305 243.738 65.5546 243.947C66.0313 244.391 66.6711 244.98 67.1803 245.387C67.8487 245.92 68.7361 246.637 69.4187 247.152C70.3012 247.818 71.4942 248.685 72.3958 249.325C73.4247 250.055 74.8107 251.009 75.8554 251.717C77.0332 252.515 78.613 253.565 79.8041 254.344C81.0668 255.169 82.7564 256.261 84.0276 257.073C85.3657 257.928 87.1538 259.061 88.5017 259.9C89.8802 260.758 91.7154 261.906 93.1003 262.754C95.8612 264.444 99.5501 266.686 102.321 268.36C103.652 269.164 105.432 270.228 106.77 271.021C108.034 271.771 109.718 272.772 110.983 273.52C112.15 274.209 113.707 275.124 114.875 275.81C118.394 277.876 122.765 280.413 126.284 282.43Z" fill="#D07400"/>
<path d="M63.9861 241.719C63.9961 241.808 64.0172 241.929 64.0492 242.014C64.0967 242.14 64.1771 242.301 64.2487 242.415C64.3442 242.566 64.4785 242.764 64.5895 242.904C64.6748 243.011 64.8337 243.212 65.1101 243.501C66.0407 244.476 67.4478 245.607 68.501 246.448C69.5973 247.323 71.1103 248.425 72.2603 249.229C73.2898 249.948 74.662 250.908 75.7013 251.613C76.9121 252.434 78.5359 253.515 79.7607 254.316C81.0227 255.14 82.7109 256.232 83.9816 257.044C85.328 257.904 87.1305 259.04 88.4845 259.889C89.8575 260.75 91.695 261.888 93.0749 262.739C94.468 263.597 96.3271 264.738 97.7273 265.584C99.1054 266.417 100.939 267.533 102.321 268.36C103.654 269.159 105.431 270.224 106.766 271.019C108.03 271.772 109.717 272.773 110.984 273.52C112.15 274.208 113.706 275.124 114.874 275.809C115.916 276.421 117.307 277.234 118.351 277.842C120.705 279.213 123.295 280.717 126.285 282.43C125.742 282.119 125.41 281.444 125.422 280.485C122.275 278.674 63.9446 245.107 63.9861 241.719Z" fill="#A66206"/>
<path d="M130.44 275.279C129.668 274.824 128.637 274.219 127.864 273.766C127.154 273.351 126.207 272.797 125.497 272.384C124.606 271.865 123.418 271.174 122.526 270.657C121.481 270.052 120.087 269.246 119.039 268.643C117.865 267.968 116.299 267.068 115.123 266.396C113.847 265.667 112.143 264.698 110.866 263.972C109.514 263.203 107.709 262.182 106.351 261.424C103.525 259.845 99.7509 257.75 96.9153 256.188C95.4931 255.404 93.5868 254.378 92.1589 253.605C90.7625 252.85 88.8928 251.857 87.4876 251.118C86.1525 250.415 84.3718 249.479 83.0254 248.799C81.7555 248.158 80.0646 247.297 78.7883 246.669C77.6561 246.112 76.1409 245.38 74.9969 244.848C73.9945 244.381 72.6509 243.774 71.6351 243.337C70.8494 242.999 69.7944 242.564 68.993 242.266C68.382 242.039 67.5636 241.744 66.9363 241.566C66.6388 241.482 66.2398 241.376 65.9375 241.312C65.7342 241.268 65.4591 241.229 65.2526 241.207C65.0923 241.189 64.8765 241.184 64.7153 241.192C64.6013 241.198 64.4457 241.213 64.3396 241.255C64.2974 241.273 64.2404 241.295 64.2029 241.32C64.1837 241.333 64.1248 241.373 64.0827 241.428C64.0721 241.442 64.056 241.463 64.0401 241.493C64.0229 241.526 64.0155 241.548 64.0085 241.569C64.0003 241.593 63.9867 241.644 63.9859 241.719C63.9444 245.107 122.275 278.674 125.421 280.485C125.444 278.607 126.776 276.353 128.396 275.45C129.197 275.004 129.918 274.971 130.44 275.279Z" fill="#D07400"/>
<path d="M128.397 275.361C129.262 274.879 130.037 274.867 130.578 275.238C135.253 278.444 139.928 281.65 144.604 284.856C144.596 284.851 144.588 284.847 144.581 284.843C144.944 285.078 145.164 285.551 145.156 286.212C145.139 287.563 144.181 289.184 143.015 289.834C142.456 290.146 141.952 290.174 141.579 289.972C141.592 289.98 141.604 289.989 141.617 289.995C136.517 287.52 131.417 285.045 126.317 282.57C125.708 282.275 125.331 281.562 125.344 280.528C125.368 278.601 126.735 276.287 128.397 275.361Z" fill="#D8D8DA"/>
<path d="M126.317 282.57C131.417 285.045 136.517 287.52 141.617 289.995C141.191 289.788 140.926 289.288 140.935 288.563L125.344 280.528C125.331 281.562 125.708 282.275 126.317 282.57Z" fill="#C6C5CB"/>
<path d="M144.604 284.856C139.928 281.65 135.253 278.444 130.578 275.238C130.037 274.867 129.262 274.879 128.397 275.361C126.735 276.287 125.368 278.601 125.344 280.528L140.935 288.564C140.952 287.213 141.91 285.592 143.075 284.942C143.682 284.604 144.224 284.596 144.604 284.856Z" fill="#D8D8DA"/>
<path d="M140.935 288.564C140.918 289.914 141.85 290.483 143.015 289.834C144.181 289.184 145.139 287.563 145.156 286.212C145.172 284.861 144.241 284.292 143.075 284.942C141.91 285.591 140.952 287.213 140.935 288.564ZM141.107 288.468C141.123 287.227 142.003 285.738 143.073 285.141C144.143 284.545 144.999 285.067 144.983 286.308C144.968 287.548 144.088 289.038 143.018 289.634C141.948 290.23 141.092 289.708 141.107 288.468Z" fill="#D8D8DA"/>
<path d="M141.107 288.468C141.108 288.454 141.108 288.44 141.108 288.427C141.116 288.216 141.12 288.188 141.145 287.965C141.154 287.88 141.174 287.768 141.191 287.684C141.206 287.612 141.245 287.421 141.339 287.154C141.371 287.063 141.45 286.864 141.54 286.696C141.607 286.572 141.682 286.432 141.855 286.199C141.89 286.151 141.938 286.09 141.977 286.045C142.044 285.969 142.136 285.87 142.206 285.797C142.247 285.755 142.406 285.605 142.542 285.5C142.626 285.435 142.742 285.352 142.829 285.292C142.876 285.26 142.94 285.22 142.988 285.191C143.048 285.156 143.128 285.108 143.189 285.076C143.261 285.037 143.357 284.986 143.432 284.952C143.545 284.901 143.697 284.835 143.812 284.789C143.894 284.757 144.004 284.717 144.089 284.691C144.366 284.604 144.76 284.481 145.444 284.404C145.694 284.376 146.205 284.335 146.827 284.381C147.457 284.427 147.95 284.54 148.188 284.604C148.325 284.64 148.554 284.701 148.846 284.811C148.95 284.85 149.192 284.94 149.48 285.088C149.626 285.163 149.816 285.27 149.955 285.357C150.166 285.489 150.441 285.676 150.647 285.816C150.893 285.983 151.21 286.225 151.437 286.418C151.886 286.799 152.478 287.313 152.902 287.721C153.576 288.367 154.235 289.075 154.432 289.293C154.844 289.748 155.357 290.315 155.859 290.919C156.659 291.882 156.991 292.292 157.798 293.341C158.306 294.002 158.984 294.925 159.39 295.495C159.66 295.875 160.294 296.764 160.986 297.814C160.69 297.796 159.788 297.739 158.177 297.575C157.595 297.516 157.311 297.482 156.465 297.381C156.178 297.346 155.797 297.294 155.51 297.257C155.126 297.207 154.144 297.063 153.48 296.951C152.156 296.729 151.431 296.576 151.353 296.559C150.32 296.337 149.933 296.254 149.215 296.065C148.211 295.8 147.792 295.662 147.148 295.448C146.8 295.333 146.34 295.165 146.005 295.017C145.544 294.814 144.935 294.527 144.496 294.281C144.399 294.226 144.274 294.145 144.181 294.083C144.09 294.022 143.971 293.937 143.885 293.869C143.736 293.75 143.543 293.585 143.401 293.458C143.32 293.385 143.218 293.28 143.142 293.202C143.065 293.124 142.965 293.016 142.895 292.933C142.77 292.784 142.609 292.582 142.491 292.427C142.406 292.316 142.203 292.017 142.08 291.806C141.983 291.639 141.862 291.412 141.775 291.24C141.722 291.137 141.662 290.995 141.615 290.889C141.558 290.761 141.429 290.421 141.369 290.216C141.332 290.088 141.282 289.916 141.253 289.786C141.216 289.614 141.175 289.384 141.149 289.21C141.128 289.067 141.118 288.875 141.11 288.731C141.105 288.652 141.108 288.547 141.107 288.468Z" fill="#3E3D43"/>
<path d="M144.496 294.28C144.935 294.526 145.543 294.814 146.004 295.017C146.34 295.165 146.799 295.332 147.147 295.448C147.791 295.662 148.211 295.799 149.215 296.064C149.932 296.254 150.319 296.337 151.352 296.558C151.431 296.575 152.155 296.728 153.48 296.951C154.144 297.062 155.125 297.206 155.51 297.256C155.796 297.294 156.178 297.346 156.465 297.38C157.31 297.481 157.595 297.515 158.176 297.574C159.787 297.738 160.69 297.795 160.986 297.814C160.329 297.643 147.855 294.407 143.413 291.825C142.083 291.052 141.075 289.659 141.107 288.468C141.108 288.547 141.105 288.652 141.109 288.731C141.117 288.875 141.127 289.067 141.149 289.209C141.175 289.383 141.215 289.614 141.253 289.786C141.281 289.916 141.331 290.087 141.368 290.215C141.428 290.421 141.557 290.76 141.614 290.889C141.662 290.994 141.722 291.136 141.774 291.24C141.861 291.412 141.982 291.639 142.079 291.806C142.203 292.017 142.405 292.315 142.49 292.427C142.608 292.582 142.769 292.784 142.894 292.932C142.965 293.016 143.064 293.123 143.141 293.202C143.217 293.28 143.319 293.385 143.401 293.458C143.542 293.585 143.735 293.75 143.884 293.869C143.97 293.937 144.09 294.021 144.181 294.083C144.273 294.145 144.398 294.226 144.496 294.28Z" fill="#2E2E30"/>
<path d="M160.986 297.813C160.294 296.763 159.66 295.874 159.389 295.494C158.983 294.924 158.306 294.001 157.797 293.34C156.99 292.291 156.659 291.881 155.858 290.918C155.356 290.314 154.844 289.747 154.432 289.292C154.235 289.074 153.575 288.366 152.902 287.719C152.477 287.312 151.885 286.797 151.437 286.417C151.209 286.224 150.893 285.982 150.646 285.814C150.44 285.674 150.166 285.487 149.954 285.355C149.816 285.269 149.626 285.161 149.48 285.087C149.192 284.939 148.949 284.848 148.845 284.809C148.553 284.7 148.325 284.639 148.188 284.603C147.95 284.539 147.456 284.426 146.826 284.379C146.205 284.334 145.693 284.374 145.444 284.403C144.76 284.48 144.365 284.603 144.088 284.69C144.004 284.716 143.894 284.756 143.812 284.788C143.696 284.834 143.544 284.9 143.431 284.951C143.357 284.985 143.261 285.035 143.189 285.074C143.128 285.107 143.048 285.154 142.988 285.19C142.939 285.218 142.875 285.258 142.829 285.291C142.741 285.351 142.626 285.434 142.541 285.499C142.406 285.604 142.246 285.754 142.206 285.796C142.135 285.869 142.043 285.968 141.977 286.044C141.938 286.088 141.89 286.15 141.855 286.198C141.682 286.431 141.606 286.571 141.54 286.695C141.45 286.863 141.371 287.062 141.339 287.153C141.245 287.421 141.206 287.611 141.191 287.683C141.174 287.767 141.154 287.879 141.144 287.964C141.119 288.187 141.116 288.215 141.108 288.426C141.107 288.44 141.107 288.453 141.107 288.467C141.075 289.658 142.083 291.051 143.413 291.824C147.855 294.406 160.329 297.643 160.986 297.813Z" fill="#3E3D43"/>
</g>
<g clip-path="url(#clip3)">
<path d="M206.155 78.3712L228.21 91.1044L250.157 78.4333L250.229 53.0908L228.174 40.3577L206.227 53.0287L206.155 78.3712Z" fill="#409DF8"/>
<path d="M250.229 53.0907L250.157 78.4332L228.21 91.1042L228.282 65.7618L250.229 53.0907Z" fill="#248BE6"/>
<path d="M228.282 65.7619L228.21 91.1044L206.155 78.3712L206.227 53.0287L228.282 65.7619Z" fill="#59A4FF"/>
<path d="M206.228 53.0287L228.174 40.3577L250.229 53.0908L228.282 65.7619L206.228 53.0287Z" fill="#409DF8"/>
<path d="M196.533 22.1755L196.533 18.4247L192.541 20.7594L196.533 27.6727L196.533 23.7087L249.069 53.7751L171.966 98.2904L169.476 93.9775L167.41 101.689L175.121 103.755L172.631 99.4426L249.734 54.9273L249.502 116.143L246.165 114.23L250.157 121.143L254.148 118.809L250.829 116.905L251.071 53.3876L196.533 22.1755Z" fill="#36C7CC"/>
</g>
<defs>
<linearGradient id="paint0_linear" x1="113.612" y1="258.22" x2="148.096" y2="201.124" gradientUnits="userSpaceOnUse">
<stop/>
<stop offset="1" stop-opacity="0"/>
</linearGradient>
<clipPath id="clip0">
<rect width="69" height="69" transform="matrix(-1 0 0 1 103.901 68.0525)" fill="white"/>
</clipPath>
<clipPath id="clip1">
<rect x="0.901428" y="234.554" width="110" height="110" fill="white"/>
</clipPath>
<clipPath id="clip2">
<rect width="97" height="97" transform="matrix(-1 0 0 1 160.986 221.001)" fill="white"/>
</clipPath>
<clipPath id="clip3">
<rect x="194.628" y="153.921" width="118.603" height="101.246" transform="rotate(-120 194.628 153.921)" fill="white"/>
</clipPath>
</defs>
</svg>
