<svg width="712" height="669" viewBox="0 0 712 669" fill="none" xmlns="http://www.w3.org/2000/svg">
<path d="M711.828 270.522L659.184 295.455L401.717 149.355L457.117 128.281L711.828 270.522Z" fill="url(#paint0_linear)"/>
<g clip-path="url(#clip0)">
<path d="M668.136 261.371C668.544 251.363 662.148 241.27 648.923 233.635L493.101 143.671C467.543 128.916 426.246 128.92 400.855 143.676L19.0064 365.582C6.35024 372.936 0.0378415 382.567 0.0508918 392.208C0.0508918 392.178 0.0469767 392.148 0.0469767 392.118L-4.19445e-06 408.394C-0.0274097 418.123 6.39331 427.867 19.2517 435.292L175.074 525.256C200.621 540.007 241.931 540.007 267.32 525.251L649.169 303.345C661.783 296.014 668.097 286.42 668.124 276.811L668.171 260.533C668.171 260.812 668.146 261.092 668.136 261.371Z" fill="#FFE08E"/>
<path d="M668.172 260.533L668.125 276.81C668.098 286.417 661.784 296.012 649.17 303.343L649.217 287.067C661.83 279.735 668.145 270.141 668.172 260.533Z" fill="#E5AF43"/>
<path d="M-4.19446e-06 408.394L0.0469767 392.117C0.0195712 401.846 6.44029 411.591 19.2987 419.015L19.2517 435.292C6.39331 427.867 -0.0274097 418.124 -4.19446e-06 408.394Z" fill="#FFF1CC"/>
<path d="M649.216 287.067L649.17 303.345L267.321 525.25L267.367 508.973L649.216 287.067Z" fill="#E5AF43"/>
<path d="M175.121 508.978L175.074 525.255L19.2517 435.29L19.2987 419.014L175.121 508.978Z" fill="#FFE08E"/>
<path d="M267.367 508.973L267.32 525.25C241.929 540.005 200.621 540.005 175.074 525.255L175.121 508.979C200.668 523.729 241.975 523.729 267.367 508.973Z" fill="#FFD170"/>
<path d="M648.924 233.635C674.471 248.386 674.606 272.312 649.216 287.068L267.367 508.973C241.977 523.729 200.669 523.729 175.121 508.979L19.2989 419.014C-6.25868 404.258 -6.38396 380.337 19.0066 365.581L400.855 143.675C426.246 128.919 467.543 128.915 493.101 143.67L648.924 233.635Z" fill="#1D1D1F"/>
<path d="M615.173 278.647L411.457 161.38L45.5897 374L249.304 491.267L615.173 278.647Z" fill="#67D4D5"/>
<path d="M570.799 219.845L510.758 185.179C508.256 183.733 504.208 183.733 501.722 185.179C499.232 186.626 499.245 188.97 501.748 190.413L561.792 225.08C564.299 226.527 568.344 226.527 570.834 225.08C573.318 223.635 573.306 221.291 570.799 219.845Z" fill="#FFE08E"/>
<path d="M153.389 461.481L93.3471 426.814C90.8453 425.368 86.7972 425.368 84.3111 426.814C81.8211 428.261 81.8341 430.605 84.3372 432.049L144.381 466.715C146.888 468.163 150.934 468.163 153.424 466.715C155.909 465.272 155.894 462.928 153.389 461.481Z" fill="#FFE08E"/>
<path d="M612.743 311.558L558.657 342.644C556.244 344.038 554.291 347.416 554.299 350.194C554.306 352.967 556.272 354.084 558.685 352.69L612.77 321.604C615.187 320.209 617.137 316.832 617.129 314.057C617.122 311.282 615.158 310.162 612.743 311.558Z" fill="#51A7FF"/>
<path d="M588.541 229.001C585.607 227.307 580.869 227.307 577.955 229.001C575.041 230.695 575.058 233.44 577.989 235.134C580.921 236.828 585.661 236.828 588.575 235.134C591.49 233.44 591.473 230.695 588.541 229.001Z" fill="white"/>
</g>
<ellipse cx="181.944" cy="312.841" rx="48.9389" ry="23.4268" transform="rotate(30 181.944 312.841)" fill="url(#paint1_radial)"/>
<ellipse cx="266.786" cy="370.097" rx="77.4895" ry="23.4268" transform="rotate(32.2402 266.786 370.097)" fill="url(#paint2_radial)"/>
<ellipse cx="351.222" cy="387.068" rx="86.3017" ry="36.3857" transform="rotate(25.9511 351.222 387.068)" fill="url(#paint3_radial)"/>
<ellipse cx="471.887" cy="292.886" rx="55.0347" ry="23.2032" transform="rotate(25.9511 471.887 292.886)" fill="url(#paint4_radial)"/>
<ellipse cx="388.912" cy="256.599" rx="57.8331" ry="23.4268" transform="rotate(32.2402 388.912 256.599)" fill="url(#paint5_radial)"/>
<g clip-path="url(#clip1)">
<path d="M233.53 174.055L172.572 138.86C168.721 136.637 165.232 136.43 162.713 137.894L145.507 147.893C145.515 147.888 145.524 147.885 145.532 147.88C143.031 149.319 141.479 152.397 141.466 156.78L141.267 226.826C141.242 235.618 147.426 246.328 155.077 250.745L216.036 285.94C219.997 288.226 223.572 288.374 226.105 286.77C226.035 286.815 225.966 286.863 225.894 286.905L243.099 276.907C245.586 275.461 247.128 272.388 247.14 268.02L247.339 197.974C247.365 189.18 241.181 178.472 233.53 174.055Z" fill="#3897F2"/>
<path d="M188.382 199.077L178.152 193.171C176.788 192.383 176.102 192.597 175.372 193.157C174.949 193.481 174.821 193.776 175.685 194.465C177.38 195.813 178.333 197.63 178.58 199.728C178.98 203.094 178.942 206.209 178.699 209.215C178.626 210.086 178.485 210.925 178.168 211.596C177.859 212.255 177.432 212.431 176.901 212.125C176.58 211.939 176.22 211.576 175.824 211.035C174.878 209.741 174.213 208.297 173.563 206.859C171.121 201.461 169.178 196.037 167.592 190.6C167.132 189.028 166.341 187.781 165.14 187.067C163.661 186.184 162.184 185.316 160.707 184.463C159.231 183.61 157.754 182.774 156.277 181.955C154.499 180.962 153.967 181.652 154.685 183.921C157.879 193.998 161.437 204.063 166.089 214.04C168.479 219.162 171.23 224.058 174.78 228.449C178.348 232.864 182.163 235.961 186.171 238.275C186.685 238.572 187.203 238.856 187.724 239.128C189.866 240.253 190.511 239.979 190.616 237.587C190.691 235.948 190.86 234.376 191.582 233.283C192.021 232.621 192.597 232.495 193.264 232.88C193.678 233.119 194.127 233.555 194.6 234.182C195.217 235.001 195.731 235.882 196.225 236.788C197.426 238.999 198.581 241.231 199.83 243.422C201.255 245.923 202.929 247.936 204.988 249.124C205.183 249.237 205.383 249.343 205.586 249.441L214.64 254.673C216.095 255.401 216.86 253.786 216.027 251.436C215.439 249.781 214.669 248.166 213.857 246.564C212.015 242.952 209.845 239.519 207.792 236.018C205.938 232.862 205.824 231.584 207.326 230.05C208.962 228.364 210.727 226.858 212.376 225.193C213.917 223.633 215.495 222.108 216.311 219.653C216.83 218.087 216.378 217.004 214.719 215.722C214.437 215.501 214.141 215.325 213.848 215.156L204.003 209.464C203.975 209.448 203.948 209.432 203.921 209.416C202.758 208.745 202.106 208.978 201.685 209.947C201.103 211.283 200.5 212.607 199.805 213.815C198.232 216.568 196.474 219.089 194.014 220.662C193.558 220.952 193.061 221.342 192.38 220.948C192.25 220.873 192.113 220.77 191.969 220.633C190.84 219.505 190.515 217.174 190.535 216.463L190.563 203.4C190.347 201.411 189.993 200.374 188.382 199.077Z" fill="white"/>
<path d="M243.099 276.906L225.894 286.905C228.381 285.459 229.924 282.386 229.936 278.019L247.141 268.02C247.129 272.388 245.586 275.461 243.099 276.906Z" fill="#3897F2"/>
<path d="M145.507 147.893L162.713 137.895C165.232 136.431 168.721 136.637 172.571 138.86L155.366 148.859C151.515 146.636 148.027 146.429 145.507 147.893Z" fill="#248BE6"/>
<path d="M230.134 207.972L247.34 197.973L247.141 268.02L229.936 278.019L230.134 207.972Z" fill="#248BE6"/>
<path d="M155.366 148.859L172.572 138.86L233.53 174.055L216.325 184.053L155.366 148.859Z" fill="#409DF8"/>
<path d="M216.325 184.053L233.53 174.055C241.182 178.472 247.364 189.18 247.34 197.974L230.134 207.972C230.159 199.179 223.976 188.471 216.325 184.053Z" fill="#46A0FB"/>
</g>
<g clip-path="url(#clip2)">
<path d="M519.837 173.03L464.103 140.852C460.583 138.82 457.393 138.631 455.09 139.969L439.359 149.111C439.366 149.107 439.374 149.104 439.382 149.099C437.095 150.415 435.676 153.229 435.664 157.236L435.482 221.279C435.459 229.317 441.113 239.109 448.108 243.147L503.842 275.325C507.463 277.416 510.732 277.551 513.048 276.085C512.984 276.125 512.921 276.169 512.855 276.208L528.585 267.066C530.859 265.745 532.269 262.935 532.281 258.942L532.462 194.899C532.486 186.859 526.832 177.069 519.837 173.03Z" fill="#3D99E2"/>
<path d="M528.586 267.066L512.855 276.207C515.129 274.886 516.539 272.076 516.55 268.083L532.281 258.941C532.27 262.935 530.86 265.744 528.586 267.066Z" fill="#5AAAE7"/>
<path d="M439.359 149.111L455.089 139.97C457.393 138.631 460.582 138.82 464.103 140.852L448.372 149.994C444.852 147.961 441.662 147.772 439.359 149.111Z" fill="#78BAEC"/>
<path d="M516.732 204.041L532.463 194.899L532.281 258.941L516.55 268.083L516.732 204.041Z" fill="#78BAEC"/>
<path d="M448.372 149.994L464.103 140.852L519.837 173.03L504.106 182.172L448.372 149.994Z" fill="#97C7EF"/>
<path d="M504.106 182.172L519.837 173.03C526.833 177.069 532.485 186.859 532.463 194.899L516.732 204.041C516.755 196.001 511.102 186.211 504.106 182.172Z" fill="#B3D8F5"/>
<path d="M467.782 224.392C467.525 224.244 467.269 223.926 467.182 223.521L464.59 211.417C464.293 210.036 464.735 208.998 465.667 208.876L489.975 205.713C490.051 205.703 490.129 205.724 490.202 205.766C490.543 205.963 490.792 206.626 490.483 206.775L470.4 216.602C469.694 216.948 469.238 217.695 469.106 218.713L468.408 224.127C468.359 224.51 468.07 224.558 467.782 224.392ZM500.762 200.759C500.589 200.659 500.41 200.592 500.232 200.569L449.225 193.74C447.965 193.57 447.971 195.622 449.229 196.892L461.628 209.382L466.383 229.912C466.582 230.773 467.17 231.552 467.779 231.903C468.099 232.088 468.423 232.154 468.701 232.054L475.638 229.568C476.017 229.432 476.48 229.52 476.943 229.787C477.368 230.032 477.793 230.429 478.154 230.94L490.605 248.558C490.869 248.931 491.167 249.204 491.46 249.373C492.117 249.753 492.749 249.605 492.901 248.866L502.185 203.61C502.385 202.635 501.642 201.267 500.762 200.759Z" fill="white"/>
</g>
<g clip-path="url(#clip3)">
<path d="M441.148 67.4787L375.835 29.2671C371.71 26.8535 367.972 26.6292 365.272 28.2187L346.838 39.0746C346.846 39.0695 346.856 39.0657 346.864 39.0602C344.184 40.6228 342.521 43.9646 342.508 48.7228L342.295 124.773C342.268 134.319 348.893 145.947 357.091 150.742L422.404 188.954C426.648 191.436 430.478 191.597 433.192 189.855C433.117 189.904 433.043 189.956 432.966 190.002L451.4 179.146C454.065 177.577 455.717 174.241 455.73 169.498L455.943 93.4477C455.97 83.9 449.345 72.2746 441.148 67.4787Z" fill="#25C9C9"/>
<path d="M451.401 179.146L432.966 190.001C435.631 188.432 437.284 185.096 437.297 180.354L455.731 169.498C455.718 174.24 454.065 177.576 451.401 179.146Z" fill="#019799"/>
<path d="M346.838 39.0745L365.272 28.2189C367.971 26.6295 371.709 26.8537 375.834 29.2674L357.4 40.123C353.275 37.7093 349.537 37.4847 346.838 39.0745Z" fill="#00A7A9"/>
<path d="M437.509 104.303L455.944 93.4474L455.731 169.498L437.297 180.354L437.509 104.303Z" fill="#00A7A9"/>
<path d="M357.4 40.123L375.835 29.2671L441.148 67.4787L422.714 78.3343L357.4 40.123Z" fill="#70D6D7"/>
<path d="M422.714 78.3343L441.148 67.4786C449.346 72.2746 455.97 83.9003 455.944 93.4476L437.509 104.303C437.536 94.7559 430.911 83.1305 422.714 78.3343Z" fill="#B5E8E8"/>
<path d="M409.428 102.068C403.88 92.3243 396.487 84.4154 388.602 79.7986C372.347 70.2893 359.077 77.9529 359.017 96.8748C359 102.928 360.341 109.628 362.905 116.344L358.674 131.689L374.317 136.055C378.618 141.311 383.463 145.592 388.396 148.478L388.41 148.486C404.657 157.992 417.928 150.328 417.991 131.407C418.016 122.234 414.978 111.814 409.428 102.068ZM388.426 142.688L388.416 142.682C384.019 140.109 379.707 136.209 375.952 131.406L375.06 130.266L365.777 127.674L368.28 118.591L367.701 117.169C365.263 111.194 363.979 105.181 363.998 99.7917C364.048 84.0618 375.077 77.6927 388.596 85.602C395.139 89.4343 401.285 96.0062 405.897 104.107C410.508 112.208 413.037 120.869 413.012 128.49C412.96 144.22 401.931 150.589 388.426 142.688Z" fill="white"/>
<path d="M401.926 129.183C401.191 128.322 397.575 124.127 396.902 123.447C396.608 123.151 396.349 122.902 396.11 122.762C395.799 122.58 395.521 122.582 395.242 122.907C394.749 123.477 393.33 124.582 392.899 124.906C392.654 125.09 392.407 125.109 392.104 124.932C391.877 124.799 391.617 124.555 391.302 124.186C390.567 123.324 388.195 121.028 385.389 116.46C383.207 112.905 381.736 109.232 381.309 108.12C380.88 107.011 381.267 106.772 381.635 106.559C381.97 106.37 382.374 105.988 382.745 105.701C383.116 105.419 383.238 105.131 383.485 104.703C383.733 104.272 383.613 103.702 383.427 103.162C383.245 102.624 381.785 97.5422 381.175 95.4642C380.675 93.7704 380.169 93.4066 379.756 93.1644C379.734 93.1516 379.712 93.1391 379.69 93.1264C379.631 93.0918 379.575 93.0595 379.523 93.0249C379.091 92.7459 378.6 92.4545 378.11 92.1675C377.619 91.8802 376.82 91.6265 376.141 92.0875C375.464 92.5543 373.554 93.5164 373.542 97.7373C373.531 101.958 376.16 107.583 376.528 108.371C376.893 109.161 381.697 120.649 389.078 128.688C390.833 130.603 392.202 131.931 393.271 132.953C394.285 133.922 395.248 134.614 396.124 135.127C396.772 135.506 397.373 135.787 397.912 136.008C399.326 136.588 402.276 136.482 402.893 134.836C403.514 133.192 403.519 131.474 403.337 131.012C403.154 130.546 402.661 130.04 401.926 129.183Z" fill="white"/>
</g>
<g clip-path="url(#clip4)">
<path d="M414.78 227.761L337.275 182.511C332.38 179.653 327.944 179.387 324.741 181.269L302.865 194.125C302.875 194.119 302.886 194.114 302.897 194.108C299.717 195.958 297.743 199.916 297.727 205.55L297.474 295.611C297.443 306.914 305.304 320.684 315.032 326.363L392.537 371.613C397.573 374.553 402.119 374.744 405.34 372.681C405.25 372.738 405.163 372.8 405.071 372.855L426.946 359.999C430.108 358.141 432.068 354.19 432.085 348.574L432.337 258.514C432.37 247.208 424.508 233.441 414.78 227.761Z" fill="#155C92"/>
<path d="M426.947 359.999L405.071 372.854C408.233 370.996 410.195 367.045 410.21 361.429L432.085 348.574C432.069 354.189 430.108 358.141 426.947 359.999Z" fill="#1A6FB0"/>
<path d="M302.865 194.125L324.741 181.27C327.944 179.387 332.379 179.653 337.275 182.511L315.399 195.367C310.504 192.508 306.069 192.242 302.865 194.125Z" fill="#1D81CD"/>
<path d="M410.462 271.37L432.338 258.514L432.085 348.574L410.21 361.429L410.462 271.37Z" fill="#1D81CD"/>
<path d="M315.4 195.367L337.275 182.511L414.78 227.761L392.905 240.617L315.4 195.367Z" fill="#3D99E2"/>
<path d="M392.905 240.617L414.78 227.761C424.508 233.441 432.369 247.208 432.338 258.514L410.462 271.37C410.494 260.063 402.633 246.297 392.905 240.617Z" fill="#5AAAE7"/>
<path d="M343.017 292.155L343.072 272.48L357.693 281.016L357.734 266.505C357.781 249.664 366.659 245.666 379.586 253.214C385.777 256.828 391.097 260.469 392.65 261.615L392.6 279.212L383.633 273.983C376.604 269.879 375.232 272.967 375.216 278.662L375.181 291.226L391.946 301.014L389.709 319.416L375.125 310.901L374.984 361.385L357.496 351.175L357.638 300.691L343.017 292.155Z" fill="#3D5A98"/>
<path d="M357.734 266.901L357.693 281.412L343.072 272.876L343.017 292.551L357.638 301.087L357.497 351.156L374.985 361.366L375.126 311.297L389.709 319.812L391.946 301.41L375.181 291.622L375.216 279.058C375.232 273.363 376.604 270.275 383.633 274.379L392.6 279.608L392.65 262.011C391.098 260.865 385.778 257.224 379.586 253.61C366.659 246.062 357.781 250.061 357.734 266.901Z" fill="white"/>
</g>
<g clip-path="url(#clip5)">
<path d="M345.752 118.271L258.669 68.4957C253.168 65.3517 248.184 65.0595 244.585 67.13L220.005 81.2713C220.017 81.2646 220.029 81.2596 220.041 81.2525C216.468 83.288 214.25 87.6411 214.232 93.8393L213.948 192.905C213.913 205.34 222.746 220.486 233.676 226.733L320.76 276.509C326.419 279.742 331.526 279.952 335.145 277.683C335.044 277.746 334.946 277.814 334.843 277.874L359.422 263.733C362.975 261.689 365.177 257.343 365.196 251.165L365.479 152.099C365.516 139.662 356.683 124.519 345.752 118.271Z" fill="#9857B8"/>
<path d="M359.423 263.732L334.844 277.873C338.397 275.829 340.6 271.483 340.617 265.306L365.196 251.165C365.179 257.342 362.975 261.688 359.423 263.732Z" fill="#6C3D85"/>
<path d="M220.005 81.2712L244.584 67.1304C248.183 65.0599 253.167 65.352 258.668 68.4961L234.089 82.637C228.588 79.4929 223.605 79.2003 220.005 81.2712Z" fill="#794494"/>
<path d="M340.901 166.24L365.48 152.099L365.196 251.165L340.617 265.306L340.901 166.24Z" fill="#794494"/>
<path d="M234.089 82.6369L258.668 68.4956L345.752 118.271L321.173 132.412L234.089 82.6369Z" fill="#9D5BBE"/>
<path d="M321.173 132.412L345.752 118.271C356.683 124.519 365.515 139.663 365.48 152.099L340.901 166.24C340.937 153.804 332.103 138.66 321.173 132.412Z" fill="#A861CC"/>
<path d="M274.86 217.704C264.05 211.525 262.77 210.747 258.501 208.083C254.556 205.625 252.413 203.647 250.987 202.2C249.1 200.286 247.756 198.518 246.344 196.096C244.931 193.674 244.058 191.637 243.329 189.067C242.778 187.126 242.127 184.313 241.959 179.717C241.78 174.75 241.742 173.27 241.777 160.974C241.813 148.677 241.858 147.241 242.065 142.495C242.259 138.109 242.924 136.048 243.484 134.742C244.225 133.013 245.107 131.979 246.529 131.177C247.95 130.375 249.301 130.147 251.192 130.393C252.622 130.577 254.769 131.051 258.716 133.104C262.986 135.322 264.265 136.006 275.075 142.185C285.888 148.364 287.167 149.143 291.436 151.806C295.382 154.264 297.525 156.242 298.95 157.689C300.837 159.603 302.181 161.372 303.594 163.793C305.006 166.215 305.879 168.253 306.609 170.823C307.156 172.762 307.81 175.577 307.978 180.169C308.158 185.136 308.195 186.619 308.16 198.916C308.125 211.213 308.08 212.646 307.872 217.392C307.678 221.781 307.011 223.84 306.454 225.148C305.712 226.877 304.83 227.911 303.409 228.713C301.987 229.515 300.637 229.743 298.745 229.497C297.316 229.313 295.169 228.838 291.222 226.785C286.953 224.568 285.672 223.884 274.86 217.704ZM275.1 133.888C264.105 127.603 262.726 126.868 258.407 124.623C254.097 122.383 251.152 121.482 248.573 121.146C245.908 120.802 243.645 121.088 241.387 122.362C239.13 123.636 237.739 125.414 236.695 127.85C235.685 130.208 234.992 133.164 234.782 137.956C234.569 142.754 234.518 144.296 234.482 156.803C234.446 169.311 234.488 170.906 234.672 175.932C234.855 180.947 235.529 184.685 236.522 188.188C237.549 191.807 238.925 195.167 241.168 199.014C243.412 202.861 245.665 205.728 248.323 208.427C250.896 211.035 253.836 213.495 258.146 216.185C262.463 218.876 263.841 219.717 274.837 226.002C285.835 232.288 287.213 233.023 291.532 235.267C295.841 237.504 298.788 238.409 301.364 238.743C304.031 239.088 306.294 238.803 308.552 237.529C310.81 236.255 312.201 234.476 313.245 232.041C314.255 229.683 314.948 226.727 315.158 221.935C315.368 217.135 315.422 215.595 315.458 203.087C315.494 190.579 315.449 188.983 315.267 183.959C315.085 178.944 314.411 175.206 313.418 171.702C312.391 168.084 311.015 164.724 308.772 160.877C306.528 157.03 304.274 154.163 301.614 151.463C299.044 148.855 296.101 146.391 291.794 143.706C287.476 141.015 286.098 140.174 275.1 133.888Z" fill="white"/>
<path d="M274.924 195.298C267.472 191.039 261.45 180.711 261.474 172.232C261.498 163.752 267.56 160.332 275.012 164.591C282.466 168.852 288.489 179.179 288.464 187.659C288.44 196.139 282.378 199.558 274.924 195.298ZM275.036 156.294C263.555 149.731 254.215 154.998 254.178 168.061C254.14 181.124 263.42 197.033 274.9 203.595C286.383 210.159 295.721 204.891 295.758 191.828C295.796 178.765 286.519 162.857 275.036 156.294Z" fill="white"/>
<path d="M296.668 162.185C293.984 160.651 291.801 161.883 291.792 164.936C291.783 167.987 293.951 171.706 296.636 173.24C299.317 174.773 301.501 173.541 301.509 170.49C301.518 167.437 299.35 163.718 296.668 162.185Z" fill="white"/>
</g>
<defs>
<linearGradient id="paint0_linear" x1="480.271" y1="215.844" x2="519.632" y2="153.329" gradientUnits="userSpaceOnUse">
<stop/>
<stop offset="1" stop-opacity="0"/>
</linearGradient>
<radialGradient id="paint1_radial" cx="0" cy="0" r="1" gradientUnits="userSpaceOnUse" gradientTransform="translate(181.944 312.841) rotate(92.6769) scale(21.1977 44.2823)">
<stop stop-color="#00A6A8" stop-opacity="0.37"/>
<stop offset="1" stop-color="#00A6A8" stop-opacity="0"/>
</radialGradient>
<radialGradient id="paint2_radial" cx="0" cy="0" r="1" gradientUnits="userSpaceOnUse" gradientTransform="translate(266.786 370.097) rotate(83.6665) scale(19.495 66.0958)">
<stop stop-color="#00A6A8" stop-opacity="0.25"/>
<stop offset="0.0001" stop-color="#00A6A8" stop-opacity="0.18"/>
<stop offset="1" stop-color="#00A6A8" stop-opacity="0"/>
</radialGradient>
<radialGradient id="paint3_radial" cx="0" cy="0" r="1" gradientUnits="userSpaceOnUse" gradientTransform="translate(351.222 387.068) rotate(90) scale(36.3857 86.3017)">
<stop stop-color="#00A6A8" stop-opacity="0.5"/>
<stop offset="1" stop-color="#00A6A8" stop-opacity="0"/>
</radialGradient>
<radialGradient id="paint4_radial" cx="0" cy="0" r="1" gradientUnits="userSpaceOnUse" gradientTransform="translate(471.887 292.886) rotate(90) scale(23.2032 55.0347)">
<stop stop-color="#00A6A8" stop-opacity="0.49"/>
<stop offset="1" stop-color="#00A6A8" stop-opacity="0"/>
</radialGradient>
<radialGradient id="paint5_radial" cx="0" cy="0" r="1" gradientUnits="userSpaceOnUse" gradientTransform="translate(388.912 256.599) rotate(90) scale(23.4268 57.8331)">
<stop stop-opacity="0.14"/>
<stop offset="1" stop-opacity="0"/>
</radialGradient>
<clipPath id="clip0">
<rect y="0.375366" width="668.172" height="668.172" fill="white"/>
</clipPath>
<clipPath id="clip1">
<rect x="118.865" y="136.959" width="150.878" height="150.878" fill="white"/>
</clipPath>
<clipPath id="clip2">
<rect x="415" y="139.115" width="137.945" height="137.945" fill="white"/>
</clipPath>
<clipPath id="clip3">
<rect x="318.292" y="27.2035" width="161.655" height="163.81" fill="white"/>
</clipPath>
<clipPath id="clip4">
<rect x="268.991" y="180.067" width="191.83" height="193.986" fill="white"/>
</clipPath>
<clipPath id="clip5">
<rect x="181.944" y="65.8076" width="215.539" height="213.384" fill="white"/>
</clipPath>
</defs>
</svg>
