<svg width="343" height="311" viewBox="0 0 343 311" fill="none" xmlns="http://www.w3.org/2000/svg">
<path d="M342.925 115.824L306.347 137.822L186.895 70.0381L224.751 49.8309L342.925 115.824Z" fill="url(#paint0_linear)"/>
<g clip-path="url(#clip0)">
<path d="M310.501 122.008C310.69 117.365 307.723 112.682 301.587 109.14L229.293 67.4009C217.435 60.5555 198.275 60.5573 186.495 67.4033L9.3356 170.357C3.46377 173.769 0.535116 178.237 0.541171 182.71C0.541171 182.696 0.539354 182.682 0.539354 182.668L0.517558 190.22C0.504843 194.733 3.48375 199.254 9.44943 202.699L81.7436 244.438C93.5963 251.282 112.762 251.282 124.541 244.436L301.701 141.482C307.553 138.081 310.482 133.63 310.495 129.171L310.517 121.619C310.517 121.749 310.505 121.879 310.501 122.008Z" fill="#FFE08E"/>
<path d="M310.518 121.619L310.496 129.171C310.483 133.628 307.554 138.08 301.701 141.481L301.723 133.93C307.575 130.528 310.505 126.077 310.518 121.619Z" fill="#E5AF43"/>
<path d="M0.517558 190.22L0.539354 182.668C0.52664 187.182 3.50555 191.703 9.47123 195.148L9.44943 202.699C3.48375 199.254 0.504843 194.734 0.517558 190.22Z" fill="#FFF1CC"/>
<path d="M301.723 133.93L301.701 141.482L124.542 244.435L124.563 236.884L301.723 133.93Z" fill="#E5AF43"/>
<path d="M81.7654 236.886L81.7436 244.438L9.44946 202.698L9.47126 195.147L81.7654 236.886Z" fill="#FFE08E"/>
<path d="M124.563 236.884L124.541 244.435C112.761 251.281 93.5962 251.281 81.7436 244.438L81.7654 236.886C93.618 243.73 112.782 243.73 124.563 236.884Z" fill="#FFD170"/>
<path d="M301.587 109.14C313.44 115.984 313.503 127.084 301.723 133.93L124.563 236.884C112.783 243.73 93.618 243.73 81.7654 236.886L9.47121 195.147C-2.38629 188.301 -2.44442 177.203 9.33558 170.357L186.495 67.4027C198.275 60.5567 217.435 60.5549 229.293 67.4003L301.587 109.14Z" fill="#1D1D1F"/>
<path d="M285.928 130.023L191.414 75.6171L21.669 174.262L116.183 228.669L285.928 130.023Z" fill="#67D4D5"/>
<path d="M265.341 102.742L237.485 86.6584C236.324 85.9876 234.446 85.9876 233.292 86.6584C232.137 87.3299 232.143 88.4173 233.305 89.087L261.162 105.171C262.325 105.842 264.202 105.842 265.357 105.171C266.51 104.5 266.504 103.413 265.341 102.742Z" fill="#FFE08E"/>
<path d="M71.6826 214.85L43.8262 198.766C42.6655 198.095 40.7873 198.095 39.6339 198.766C38.4787 199.437 38.4847 200.525 39.646 201.194L67.5036 217.278C68.6667 217.95 70.5437 217.95 71.6989 217.278C72.8517 216.608 72.8451 215.521 71.6826 214.85Z" fill="#FFE08E"/>
<path d="M284.801 145.293L259.708 159.715C258.588 160.362 257.682 161.929 257.686 163.218C257.689 164.504 258.601 165.022 259.721 164.376L284.814 149.954C285.935 149.306 286.839 147.739 286.836 146.452C286.833 145.164 285.922 144.645 284.801 145.293Z" fill="#51A7FF"/>
<path d="M273.572 106.99C272.211 106.204 270.013 106.204 268.661 106.99C267.309 107.776 267.317 109.049 268.677 109.835C270.037 110.621 272.236 110.621 273.588 109.835C274.941 109.049 274.933 107.776 273.572 106.99Z" fill="white"/>
</g>
<ellipse cx="84.9311" cy="145.888" rx="22.7053" ry="10.8689" transform="rotate(30 84.9311 145.888)" fill="url(#paint1_radial)"/>
<ellipse cx="124.293" cy="172.452" rx="35.9514" ry="10.8689" transform="rotate(32.2402 124.293 172.452)" fill="url(#paint2_radial)"/>
<ellipse cx="163.468" cy="180.326" rx="40.0399" ry="16.8812" transform="rotate(25.9511 163.468 180.326)" fill="url(#paint3_radial)"/>
<ellipse cx="219.451" cy="136.63" rx="25.5335" ry="10.7652" transform="rotate(25.9511 219.451 136.63)" fill="url(#paint4_radial)"/>
<ellipse cx="180.954" cy="119.794" rx="26.8318" ry="10.8689" transform="rotate(32.2402 180.954 119.794)" fill="url(#paint5_radial)"/>
<g clip-path="url(#clip1)">
<path d="M108.864 81.4975L80.5825 65.1688C78.7961 64.1374 77.1775 64.0415 76.0087 64.7208L68.026 69.3598C68.0297 69.3576 68.0338 69.3559 68.0376 69.3536C66.8771 70.0213 66.1569 71.4494 66.151 73.4826L66.0589 105.981C66.0473 110.06 68.916 115.029 72.4658 117.078L100.748 133.407C102.585 134.468 104.244 134.536 105.42 133.792C105.387 133.813 105.355 133.835 105.321 133.855L113.304 129.216C114.458 128.545 115.173 127.119 115.179 125.093L115.271 92.5947C115.283 88.5147 112.414 83.5469 108.864 81.4975Z" fill="#3897F2"/>
<path d="M87.9178 93.1066L83.1717 90.3665C82.5387 90.001 82.2204 90.1002 81.8816 90.3599C81.6857 90.5102 81.6262 90.647 82.0268 90.9671C82.8132 91.5925 83.2557 92.4353 83.3702 93.4085C83.5559 94.9702 83.5381 96.4158 83.4253 97.81C83.3914 98.2142 83.3259 98.6037 83.1792 98.9148C83.0357 99.2205 82.8377 99.3023 82.5913 99.1601C82.442 99.074 82.2751 98.9055 82.0916 98.6548C81.6528 98.0542 81.3439 97.3843 81.0426 96.7172C79.9096 94.2128 79.0081 91.6962 78.2724 89.1735C78.059 88.4444 77.6919 87.8658 77.1348 87.5345C76.4486 87.125 75.7632 86.722 75.0781 86.3263C74.393 85.9308 73.708 85.5426 73.0228 85.1627C72.1978 84.7021 71.9508 85.0222 72.2838 86.0752C73.7657 90.7503 75.4167 95.42 77.5749 100.049C78.6839 102.425 79.9602 104.697 81.607 106.734C83.2624 108.782 85.0325 110.219 86.8921 111.293C87.1307 111.43 87.371 111.562 87.6123 111.689C88.6061 112.21 88.9056 112.083 88.9542 110.974C88.9891 110.213 89.0673 109.484 89.4027 108.977C89.6062 108.669 89.8734 108.611 90.1826 108.79C90.3747 108.9 90.5831 109.103 90.8025 109.394C91.0888 109.774 91.3275 110.183 91.5567 110.603C92.1138 111.628 92.6497 112.664 93.229 113.681C93.8905 114.841 94.667 115.775 95.622 116.326C95.7129 116.379 95.8055 116.428 95.8995 116.473L100.1 118.901C100.775 119.238 101.13 118.489 100.744 117.399C100.471 116.631 100.114 115.882 99.7368 115.138C98.8825 113.463 97.8758 111.87 96.9233 110.246C96.0632 108.781 96.0099 108.188 96.7071 107.476C97.4658 106.694 98.2847 105.995 99.0497 105.223C99.765 104.5 100.497 103.792 100.875 102.653C101.116 101.926 100.906 101.424 100.137 100.829C100.006 100.727 99.8689 100.645 99.7327 100.567L95.1651 97.9257C95.1524 97.9182 95.1398 97.9106 95.1274 97.9034C94.5877 97.5919 94.2853 97.7002 94.0899 98.1498C93.8198 98.7696 93.5402 99.3841 93.2174 99.9443C92.4879 101.222 91.6719 102.391 90.531 103.121C90.3192 103.256 90.0889 103.437 89.7725 103.254C89.7123 103.219 89.649 103.171 89.5822 103.108C89.0584 102.584 88.9073 101.503 88.9168 101.173L88.9298 95.1121C88.8297 94.1893 88.6652 93.7082 87.9178 93.1066Z" fill="white"/>
<path d="M113.304 129.216L105.322 133.855C106.476 133.184 107.191 131.758 107.197 129.732L115.179 125.093C115.173 127.119 114.458 128.545 113.304 129.216Z" fill="#3897F2"/>
<path d="M68.026 69.3597L76.0085 64.7209C77.1773 64.0417 78.7959 64.1375 80.5823 65.1689L72.5998 69.8078C70.8134 68.7764 69.1949 68.6804 68.026 69.3597Z" fill="#248BE6"/>
<path d="M107.289 97.2335L115.271 92.5945L115.179 125.093L107.197 129.732L107.289 97.2335Z" fill="#248BE6"/>
<path d="M72.5999 69.8078L80.5825 65.1688L108.864 81.4976L100.882 86.1364L72.5999 69.8078Z" fill="#409DF8"/>
<path d="M100.882 86.1364L108.864 81.4976C112.414 83.547 115.283 88.5149 115.271 92.5947L107.289 97.2336C107.3 93.1538 104.432 88.186 100.882 86.1364Z" fill="#46A0FB"/>
</g>
<g clip-path="url(#clip2)">
<path d="M241.697 81.0223L215.839 66.0932C214.206 65.1502 212.726 65.0626 211.658 65.6836L204.359 69.9249C204.362 69.9229 204.366 69.9214 204.37 69.9193C203.309 70.5298 202.65 71.8354 202.645 73.6944L202.561 103.407C202.55 107.137 205.173 111.679 208.418 113.553L234.276 128.482C235.956 129.452 237.473 129.515 238.547 128.834C238.518 128.853 238.488 128.874 238.458 128.892L245.756 124.65C246.811 124.037 247.465 122.734 247.47 120.881L247.555 91.1683C247.565 87.4381 244.943 82.8961 241.697 81.0223Z" fill="#3D99E2"/>
<path d="M245.756 124.65L238.458 128.892C239.513 128.278 240.167 126.975 240.172 125.122L247.471 120.881C247.465 122.734 246.811 124.037 245.756 124.65Z" fill="#5AAAE7"/>
<path d="M204.359 69.9249L211.657 65.6837C212.726 65.0627 214.206 65.1503 215.839 66.0933L208.541 70.3346C206.908 69.3916 205.428 69.3038 204.359 69.9249Z" fill="#78BAEC"/>
<path d="M240.257 95.4096L247.555 91.1682L247.471 120.881L240.172 125.122L240.257 95.4096Z" fill="#78BAEC"/>
<path d="M208.541 70.3346L215.839 66.0933L241.697 81.0224L234.399 85.2636L208.541 70.3346Z" fill="#97C7EF"/>
<path d="M234.399 85.2636L241.697 81.0223C244.943 82.8961 247.565 87.4382 247.555 91.1683L240.257 95.4096C240.267 91.6795 237.644 87.1375 234.399 85.2636Z" fill="#B3D8F5"/>
<path d="M217.546 104.852C217.427 104.783 217.308 104.635 217.268 104.448L216.065 98.8317C215.927 98.191 216.132 97.7095 216.565 97.6531L227.842 96.1856C227.878 96.181 227.914 96.1908 227.948 96.2102C228.106 96.3017 228.222 96.6091 228.078 96.6783L218.761 101.237C218.433 101.398 218.222 101.745 218.16 102.217L217.837 104.729C217.814 104.906 217.68 104.929 217.546 104.852ZM232.847 93.8871C232.767 93.8406 232.684 93.8096 232.601 93.7987L208.936 90.6306C208.352 90.5516 208.355 91.5036 208.939 92.093L214.691 97.8877L216.897 107.413C216.989 107.812 217.262 108.174 217.545 108.337C217.693 108.422 217.844 108.453 217.972 108.406L221.191 107.253C221.367 107.19 221.581 107.231 221.796 107.355C221.993 107.469 222.191 107.652 222.358 107.89L228.135 116.064C228.257 116.236 228.396 116.363 228.531 116.442C228.837 116.618 229.129 116.549 229.2 116.206L233.507 95.2097C233.6 94.7576 233.256 94.1227 232.847 93.8871Z" fill="white"/>
</g>
<g clip-path="url(#clip3)">
<path d="M205.189 32.0513L174.887 14.323C172.973 13.2032 171.239 13.0991 169.987 13.8365L161.434 18.8732C161.438 18.8708 161.442 18.869 161.446 18.8665C160.203 19.5915 159.431 21.1419 159.425 23.3495L159.326 58.6334C159.314 63.062 162.387 68.4567 166.191 70.6817L196.493 88.4099C198.462 89.5617 200.239 89.6363 201.498 88.8282C201.463 88.8506 201.429 88.8748 201.393 88.8962L209.946 83.8597C211.182 83.1316 211.948 81.5837 211.955 79.3836L212.053 44.0997C212.066 39.67 208.992 34.2764 205.189 32.0513Z" fill="#25C9C9"/>
<path d="M209.946 83.8597L201.393 88.8962C202.63 88.1681 203.396 86.6202 203.402 84.42L211.955 79.3835C211.949 81.5835 211.182 83.1316 209.946 83.8597Z" fill="#019799"/>
<path d="M161.434 18.8733L169.986 13.8368C171.239 13.0993 172.973 13.2034 174.887 14.3232L166.334 19.3597C164.42 18.2399 162.686 18.1357 161.434 18.8733Z" fill="#00A7A9"/>
<path d="M203.501 49.1362L212.054 44.0996L211.955 79.3835L203.402 84.42L203.501 49.1362Z" fill="#00A7A9"/>
<path d="M166.334 19.3598L174.887 14.3231L205.189 32.0515L196.636 37.0879L166.334 19.3598Z" fill="#70D6D7"/>
<path d="M196.636 37.0879L205.189 32.0514C208.993 34.2765 212.066 39.6702 212.054 44.0998L203.501 49.1363C203.513 44.7067 200.44 39.3131 196.636 37.0879Z" fill="#B5E8E8"/>
<path d="M190.472 48.0992C187.899 43.5785 184.468 39.9091 180.81 37.7672C173.269 33.3553 167.112 36.9109 167.084 45.6897C167.077 48.4983 167.699 51.6065 168.888 54.7225L166.925 61.8417L174.183 63.8675C176.178 66.3062 178.426 68.2922 180.715 69.6312L180.721 69.6348C188.259 74.045 194.416 70.4893 194.445 61.7112C194.457 57.4552 193.048 52.6206 190.472 48.0992ZM180.729 66.9447L180.724 66.942C178.684 65.7485 176.683 63.9391 174.941 61.7106L174.528 61.1819L170.221 59.9792L171.382 55.7652L171.113 55.1051C169.982 52.3332 169.386 49.5432 169.395 47.043C169.418 39.7451 174.535 36.7902 180.807 40.4597C183.843 42.2377 186.695 45.2867 188.834 49.0452C190.974 52.8036 192.147 56.8218 192.135 60.3577C192.111 67.6558 186.995 70.6108 180.729 66.9447Z" fill="white"/>
<path d="M186.992 60.6793C186.651 60.2797 184.973 58.3334 184.661 58.0179C184.525 57.8805 184.405 57.765 184.294 57.7C184.149 57.6155 184.02 57.6169 183.891 57.7675C183.662 58.032 183.004 58.5444 182.804 58.6951C182.69 58.7802 182.576 58.7892 182.435 58.7068C182.33 58.6451 182.209 58.5318 182.063 58.3607C181.722 57.9611 180.621 56.8957 179.32 54.7764C178.307 53.1271 177.625 51.4229 177.427 50.9072C177.228 50.3923 177.407 50.2814 177.578 50.1828C177.733 50.0949 177.921 49.9177 178.093 49.7848C178.265 49.6536 178.322 49.5203 178.436 49.3219C178.551 49.1216 178.496 48.8571 178.41 48.6068C178.325 48.3573 177.647 45.9994 177.364 45.0353C177.133 44.2495 176.898 44.0807 176.706 43.9683C176.696 43.9624 176.686 43.9566 176.676 43.9507C176.648 43.9346 176.622 43.9196 176.598 43.9036C176.398 43.7742 176.17 43.6389 175.942 43.5058C175.715 43.3725 175.344 43.2548 175.029 43.4687C174.715 43.6853 173.829 44.1316 173.823 46.0899C173.818 48.0483 175.038 50.658 175.208 51.0234C175.378 51.3898 177.607 56.7198 181.031 60.4493C181.845 61.338 182.48 61.9542 182.976 62.4283C183.447 62.8778 183.894 63.1988 184.3 63.4368C184.601 63.6127 184.879 63.743 185.13 63.8457C185.786 64.1146 187.154 64.0654 187.441 63.3019C187.729 62.539 187.731 61.7419 187.647 61.5277C187.562 61.3118 187.333 61.0769 186.992 60.6793Z" fill="white"/>
</g>
<g clip-path="url(#clip4)">
<path d="M192.956 106.415L156.997 85.4207C154.726 84.0946 152.668 83.9714 151.182 84.8447L141.033 90.8091C141.037 90.8063 141.042 90.8042 141.047 90.8012C139.572 91.6597 138.656 93.4958 138.649 96.11L138.531 137.894C138.517 143.138 142.164 149.526 146.677 152.161L182.636 173.155C184.972 174.519 187.081 174.608 188.576 173.651C188.534 173.677 188.494 173.706 188.451 173.731L198.6 167.767C200.067 166.905 200.977 165.072 200.984 162.466L201.101 120.683C201.116 115.437 197.469 109.05 192.956 106.415Z" fill="#155C92"/>
<path d="M198.6 167.767L188.451 173.731C189.918 172.869 190.828 171.036 190.835 168.43L200.984 162.466C200.977 165.071 200.067 166.905 198.6 167.767Z" fill="#1A6FB0"/>
<path d="M141.033 90.8092L151.182 84.8449C152.668 83.9716 154.726 84.0949 156.997 85.421L146.848 91.3852C144.577 90.0591 142.519 89.9357 141.033 90.8092Z" fill="#1D81CD"/>
<path d="M190.952 126.647L201.102 120.682L200.984 162.466L190.835 168.43L190.952 126.647Z" fill="#1D81CD"/>
<path d="M146.848 91.3852L156.997 85.4208L192.956 106.415L182.807 112.379L146.848 91.3852Z" fill="#3D99E2"/>
<path d="M182.807 112.379L192.956 106.415C197.469 109.05 201.116 115.437 201.102 120.683L190.952 126.647C190.967 121.402 187.32 115.014 182.807 112.379Z" fill="#5AAAE7"/>
<path d="M159.661 136.29L159.687 127.162L166.47 131.122L166.489 124.39C166.511 116.577 170.63 114.722 176.627 118.223C179.5 119.9 181.968 121.59 182.688 122.121L182.665 130.286L178.505 127.859C175.244 125.955 174.607 127.388 174.6 130.03L174.583 135.859L182.362 140.401L181.324 148.938L174.558 144.988L174.492 168.41L166.379 163.673L166.444 140.251L159.661 136.29Z" fill="#3D5A98"/>
<path d="M166.489 124.573L166.47 131.306L159.687 127.345L159.661 136.474L166.444 140.434L166.379 163.664L174.493 168.401L174.558 145.171L181.324 149.121L182.362 140.584L174.583 136.043L174.6 130.214C174.607 127.571 175.244 126.139 178.505 128.043L182.665 130.469L182.688 122.305C181.968 121.773 179.5 120.084 176.627 118.407C170.63 114.905 166.511 116.76 166.489 124.573Z" fill="white"/>
</g>
<g clip-path="url(#clip5)">
<path d="M160.93 55.6166L120.527 32.5231C117.975 31.0644 115.663 30.9289 113.993 31.8895L102.59 38.4503C102.595 38.4473 102.601 38.4449 102.606 38.4416C100.948 39.386 99.9194 41.4057 99.911 44.2813L99.7793 90.2432C99.7627 96.0121 103.861 103.039 108.932 105.938L149.335 129.031C151.96 130.531 154.33 130.629 156.009 129.576C155.962 129.605 155.917 129.637 155.869 129.665L167.272 123.104C168.921 122.155 169.942 120.139 169.951 117.273L170.082 71.3112C170.099 65.541 166.001 58.5151 160.93 55.6166Z" fill="#9857B8"/>
<path d="M167.272 123.104L155.869 129.664C157.517 128.716 158.54 126.7 158.548 123.834L169.951 117.273C169.943 120.139 168.921 122.155 167.272 123.104Z" fill="#6C3D85"/>
<path d="M102.589 38.4504L113.993 31.8897C115.663 30.9291 117.975 31.0646 120.527 32.5233L109.123 39.084C106.572 37.6253 104.259 37.4896 102.589 38.4504Z" fill="#794494"/>
<path d="M158.679 77.8719L170.083 71.311L169.951 117.273L158.548 123.834L158.679 77.8719Z" fill="#794494"/>
<path d="M109.124 39.0841L120.527 32.5232L160.93 55.6167L149.527 62.1774L109.124 39.0841Z" fill="#9D5BBE"/>
<path d="M149.527 62.1774L160.93 55.6167C166.001 58.5152 170.099 65.5413 170.083 71.3113L158.679 77.872C158.696 72.1019 154.598 65.076 149.527 62.1774Z" fill="#A861CC"/>
<path d="M128.039 101.749C123.024 98.882 122.43 98.5208 120.45 97.285C118.619 96.1446 117.625 95.2271 116.964 94.5556C116.088 93.6677 115.464 92.8472 114.809 91.7236C114.154 90.6 113.749 89.6547 113.41 88.4624C113.155 87.562 112.853 86.2568 112.775 84.1246C112.692 81.8201 112.674 81.1335 112.691 75.4285C112.707 69.7234 112.728 69.0573 112.824 66.8555C112.914 64.8206 113.223 63.8644 113.482 63.2582C113.826 62.4562 114.236 61.9764 114.895 61.6042C115.555 61.232 116.181 61.1262 117.059 61.2403C117.722 61.326 118.718 61.546 120.549 62.4985C122.53 63.5272 123.124 63.8447 128.139 66.7112C133.156 69.5784 133.749 69.9396 135.73 71.1753C137.561 72.3158 138.555 73.2333 139.216 73.9048C140.092 74.7927 140.715 75.6131 141.371 76.7367C142.026 77.8603 142.431 78.8057 142.769 79.9979C143.023 80.8978 143.327 82.2036 143.405 84.3344C143.488 86.6389 143.505 87.3268 143.489 93.0321C143.473 98.7372 143.452 99.4019 143.355 101.604C143.266 103.64 142.956 104.596 142.697 105.202C142.353 106.004 141.944 106.484 141.285 106.856C140.625 107.229 139.999 107.334 139.121 107.22C138.458 107.135 137.462 106.915 135.63 105.962C133.65 104.933 133.056 104.616 128.039 101.749ZM128.151 62.862C123.05 59.9462 122.41 59.6053 120.406 58.5637C118.406 57.5242 117.04 57.1061 115.843 56.9503C114.607 56.7909 113.557 56.9234 112.51 57.5145C111.462 58.1054 110.817 58.9306 110.333 60.0606C109.864 61.1547 109.542 62.5262 109.445 64.7492C109.346 66.9756 109.322 67.6908 109.306 73.4937C109.289 79.2968 109.309 80.0366 109.394 82.3683C109.479 84.6952 109.792 86.4296 110.253 88.0548C110.729 89.7338 111.367 91.2924 112.408 93.0773C113.449 94.8622 114.495 96.1924 115.728 97.4444C116.921 98.6546 118.285 99.796 120.285 101.044C122.288 102.292 122.927 102.683 128.029 105.598C133.131 108.515 133.771 108.856 135.774 109.897C137.773 110.935 139.141 111.355 140.336 111.51C141.573 111.67 142.623 111.537 143.671 110.946C144.719 110.356 145.364 109.53 145.848 108.4C146.317 107.306 146.638 105.935 146.736 103.712C146.833 101.485 146.858 100.77 146.875 94.9672C146.892 89.1639 146.871 88.4236 146.787 86.0926C146.702 83.7657 146.389 82.0315 145.928 80.4061C145.452 78.7272 144.814 77.1685 143.773 75.3836C142.732 73.5989 141.686 72.2686 140.452 71.0158C139.26 69.8061 137.894 68.6628 135.896 67.417C133.893 66.1685 133.253 65.7785 128.151 62.862Z" fill="white"/>
<path d="M128.069 91.3532C124.612 89.3773 121.818 84.5858 121.829 80.6517C121.84 76.7176 124.653 75.1309 128.11 77.1068C131.568 79.0836 134.363 83.8748 134.351 87.8091C134.34 91.7434 131.528 93.3299 128.069 91.3532ZM128.121 73.2573C122.795 70.2126 118.461 72.6561 118.444 78.7168C118.426 84.7774 122.732 92.1585 128.058 95.203C133.386 98.2482 137.718 95.8041 137.735 89.7435C137.753 83.6828 133.449 76.3023 128.121 73.2573Z" fill="white"/>
<path d="M138.157 75.9905C136.912 75.2788 135.899 75.8501 135.895 77.2669C135.891 78.6823 136.897 80.4076 138.142 81.1194C139.387 81.8305 140.399 81.2592 140.403 79.8438C140.408 78.427 139.402 76.7015 138.157 75.9905Z" fill="white"/>
</g>
<defs>
<linearGradient id="paint0_linear" x1="223.34" y1="100.886" x2="241.602" y2="71.8819" gradientUnits="userSpaceOnUse">
<stop/>
<stop offset="1" stop-opacity="0"/>
</linearGradient>
<radialGradient id="paint1_radial" cx="0" cy="0" r="1" gradientUnits="userSpaceOnUse" gradientTransform="translate(84.9311 145.888) rotate(92.6769) scale(9.83474 20.5449)">
<stop stop-color="#00A6A8" stop-opacity="0.37"/>
<stop offset="1" stop-color="#00A6A8" stop-opacity="0"/>
</radialGradient>
<radialGradient id="paint2_radial" cx="0" cy="0" r="1" gradientUnits="userSpaceOnUse" gradientTransform="translate(124.293 172.452) rotate(83.6665) scale(9.04473 30.6653)">
<stop stop-color="#00A6A8" stop-opacity="0.25"/>
<stop offset="0.0001" stop-color="#00A6A8" stop-opacity="0.18"/>
<stop offset="1" stop-color="#00A6A8" stop-opacity="0"/>
</radialGradient>
<radialGradient id="paint3_radial" cx="0" cy="0" r="1" gradientUnits="userSpaceOnUse" gradientTransform="translate(163.468 180.326) rotate(90) scale(16.8812 40.0399)">
<stop stop-color="#00A6A8" stop-opacity="0.5"/>
<stop offset="1" stop-color="#00A6A8" stop-opacity="0"/>
</radialGradient>
<radialGradient id="paint4_radial" cx="0" cy="0" r="1" gradientUnits="userSpaceOnUse" gradientTransform="translate(219.451 136.63) rotate(90) scale(10.7652 25.5335)">
<stop stop-color="#00A6A8" stop-opacity="0.49"/>
<stop offset="1" stop-color="#00A6A8" stop-opacity="0"/>
</radialGradient>
<radialGradient id="paint5_radial" cx="0" cy="0" r="1" gradientUnits="userSpaceOnUse" gradientTransform="translate(180.954 119.794) rotate(90) scale(10.8689 26.8318)">
<stop stop-opacity="0.14"/>
<stop offset="1" stop-opacity="0"/>
</radialGradient>
<clipPath id="clip0">
<rect x="0.517578" y="0.918579" width="310" height="310" fill="white"/>
</clipPath>
<clipPath id="clip1">
<rect x="55.6651" y="64.287" width="70" height="70" fill="white"/>
</clipPath>
<clipPath id="clip2">
<rect x="193.058" y="65.287" width="64" height="64" fill="white"/>
</clipPath>
<clipPath id="clip3">
<rect x="148.19" y="13.3656" width="75" height="76" fill="white"/>
</clipPath>
<clipPath id="clip4">
<rect x="125.317" y="84.287" width="89" height="90" fill="white"/>
</clipPath>
<clipPath id="clip5">
<rect x="84.9311" y="31.276" width="100" height="99" fill="white"/>
</clipPath>
</defs>
</svg>
