<svg width="247" height="243" viewBox="0 0 247 243" fill="none" xmlns="http://www.w3.org/2000/svg">
<path d="M190.971 164.784L154.394 186.781L32.1599 122.992L75.964 100.919L190.971 164.784Z" fill="url(#paint0_linear)"/>
<path d="M221.534 202.842L218.675 203.762L187.724 184.562L221.534 172.331L246.394 187.85L221.534 202.842Z" fill="url(#paint1_linear)"/>
<g clip-path="url(#clip0)">
<path d="M224.775 191.697C224.848 187.965 222.417 184.215 217.484 181.367C207.802 175.777 192.156 175.777 182.538 181.367C177.744 184.153 175.353 187.802 175.358 191.453C175.358 191.441 175.357 191.429 175.357 191.418L175.344 195.912C175.337 198.49 176.525 201.069 178.905 203.349L172.327 207.172C172.775 206.911 173.396 206.948 174.082 207.344C175.444 208.13 176.544 210.037 176.54 211.602C176.537 212.38 176.263 212.927 175.82 213.184L185.534 207.539C195.225 211.644 208.876 211.166 217.585 206.104C222.364 203.327 224.755 199.693 224.766 196.053L224.779 191.559C224.779 191.605 224.776 191.651 224.775 191.697Z" fill="#C6C5CB"/>
<path d="M213.124 183.902C220.381 188.091 220.42 194.885 213.209 199.076C205.998 203.266 194.27 203.266 187.012 199.076C179.755 194.885 179.717 188.092 186.927 183.902C194.138 179.711 205.866 179.711 213.124 183.902Z" fill="#D2E7F8"/>
<path d="M218.428 191.541L218.415 196.035C218.423 193.296 216.615 190.553 212.996 188.463C205.802 184.31 194.177 184.31 187.031 188.464C183.48 190.527 181.703 193.227 181.696 195.931L181.708 191.436C181.716 188.732 183.493 186.032 187.044 183.969C194.19 179.816 205.815 179.815 213.008 183.968C216.628 186.058 218.436 188.802 218.428 191.541Z" fill="#ACABB1"/>
<path d="M224.779 191.559L224.766 196.054C224.756 199.693 222.364 203.327 217.585 206.104C207.966 211.694 192.321 211.694 182.639 206.104C177.767 203.292 175.334 199.599 175.344 195.913L175.357 191.418C175.347 195.105 177.78 198.797 182.652 201.61C192.333 207.199 207.979 207.199 217.598 201.609C222.377 198.832 224.768 195.198 224.779 191.559Z" fill="#ACABB1"/>
<mask id="mask0" mask-type="alpha" maskUnits="userSpaceOnUse" x="175" y="191" width="50" height="20">
<path d="M224.779 191.559L224.766 196.054C224.756 199.693 222.364 203.327 217.585 206.104C207.966 211.694 192.321 211.694 182.639 206.104C177.767 203.292 175.334 199.599 175.344 195.913L175.357 191.418C175.347 195.105 177.78 198.797 182.652 201.61C192.333 207.199 207.979 207.199 217.598 201.609C222.377 198.832 224.768 195.198 224.779 191.559Z" fill="#ACABB1"/>
</mask>
<g mask="url(#mask0)">
<path d="M202.421 202.848V213.935L227.644 206.59V185.802L202.421 202.848Z" fill="url(#paint2_linear)"/>
</g>
<path d="M172.327 207.172L182.106 201.489C182.554 201.229 183.175 201.265 183.861 201.661L174.082 207.344C173.396 206.948 172.775 206.911 172.327 207.172Z" fill="#C6C5CB"/>
<path d="M185.599 207.502L175.82 213.184C176.263 212.927 176.538 212.38 176.54 211.602C176.544 210.037 175.444 208.13 174.082 207.344L183.861 201.661C185.222 202.447 186.323 204.354 186.319 205.919C186.317 206.697 186.042 207.244 185.599 207.502Z" fill="#ACABB1"/>
<path d="M174.082 207.344C175.444 208.13 176.544 210.037 176.54 211.602C176.535 213.168 175.428 213.799 174.066 213.013C172.703 212.226 171.603 210.32 171.607 208.754C171.612 207.189 172.719 206.557 174.082 207.344Z" fill="#C6C5CB"/>
<path d="M174.051 206.024C173.054 205.449 172.15 205.395 171.498 205.774L147.051 219.981C147.053 219.98 147.055 219.979 147.057 219.978C146.409 220.351 146.007 221.148 146.004 222.283C145.998 224.56 147.599 227.334 149.581 228.478C150.606 229.07 151.532 229.109 152.188 228.694C152.17 228.706 152.153 228.718 152.134 228.728L176.581 214.522C177.225 214.147 177.625 213.351 177.628 212.22C177.634 209.943 176.033 207.169 174.051 206.024Z" fill="#2E2E30"/>
<path d="M147.051 219.981L171.498 205.774C172.15 205.395 173.054 205.449 174.051 206.024L149.604 220.231C148.607 219.655 147.703 219.602 147.051 219.981Z" fill="#3E3D43"/>
<path d="M176.581 214.522L152.134 228.729C152.779 228.354 153.178 227.558 153.181 226.427C153.188 224.15 151.586 221.376 149.604 220.231L174.051 206.024C176.033 207.169 177.634 209.943 177.628 212.22C177.625 213.351 177.225 214.147 176.581 214.522Z" fill="#1D1D1F"/>
<path d="M149.604 220.231C151.586 221.376 153.188 224.15 153.181 226.427C153.175 228.704 151.563 229.623 149.581 228.478C147.599 227.334 145.997 224.56 146.004 222.283C146.01 220.006 147.622 219.087 149.604 220.231Z" fill="#2E2E30"/>
<path d="M217.484 181.367C227.166 186.957 227.217 196.02 217.598 201.609C207.979 207.199 192.333 207.199 182.652 201.61C172.97 196.02 172.919 186.957 182.538 181.368C192.157 175.778 207.803 175.778 217.484 181.367ZM187.128 199.008C194.322 203.162 205.946 203.162 213.093 199.009C220.239 194.855 220.202 188.122 213.008 183.968C205.815 179.816 194.19 179.816 187.043 183.969C179.897 188.122 179.935 194.855 187.128 199.008Z" fill="#C6C5CB"/>
</g>
<g clip-path="url(#clip1)">
<path d="M48.3013 111.946L0.929194 139.476L0.903961 148.266L111.057 211.863L158.429 184.333L158.454 175.543L48.3013 111.946Z" fill="#B74D62"/>
<path d="M158.454 175.543L158.429 184.333L111.057 211.863L111.082 203.073L158.454 175.543Z" fill="#B74D62"/>
<path d="M111.082 203.073L111.057 211.863L0.903961 148.266L0.929194 139.476L111.082 203.073Z" fill="#FB6172"/>
<path d="M158.454 175.543L111.082 203.073L0.929352 139.476L48.3014 111.946L158.454 175.543Z" fill="#F87D95"/>
<path d="M158.275 176.401L155.124 176.821L156.183 180.353L153.432 179.979L151.53 181.066L148.555 180.595L146.982 182.482L145.949 184.324L142.003 184.218L142.257 186.912L139.075 187.649L136.445 185.634L136.504 190.1L133.437 189.183L133.234 193.19L129.634 191.358L127.058 191.285L124.982 192.073L125.604 197.506L122.691 196.949L121.666 199.457L117.774 197.123L116.971 200.104L116.425 203.53L112.083 200.426L111.098 205.442L109.14 202.127L108.642 198.678L104.597 201.372L104.736 196.822L101.148 198.727L99.4767 197.312L99.4773 193.001L96.1023 194.535L95.1484 191.877L92.3334 192.443L89.4295 193.163L89.0738 189.467L87.445 187.977L85.2507 187.468L82.8284 187.353L81.2704 185.739L80.7088 182.401L78.9213 181.187L75.7042 182.448L72.2845 184.059L71.0931 181.816L69.0065 181.123L67.6362 179.189L65.0437 179.372L65.1966 174.796L62.7989 174.638L61.3431 172.851L57.3825 175.403L57.8589 170.269L54.791 171.269L51.8486 172.056L52.1819 167.17L48.2856 169.607L48.4554 165L47.1892 162.883L43.324 165.267L42.7473 162.264L39.8653 162.634L37.0863 161.635L37.3094 158.437L33.9414 160.197L32.1638 157.51L29.4017 159.194L30.0618 153.739L28.5278 152.083L23.9583 155.683L24.4952 150.438L20.7516 152.613L20.0417 149.529L17.5772 149.487L15.0407 149.567L13.6923 147.588L11.5952 146.905L11.2746 145.449L8.15219 144.592L5.07258 145.257L4.37037 142.157L1.80803 142.274L1.09567 139.478L4.33314 138.362L4.55808 135.666L7.31643 135.764L7.0678 134.683L10.0296 133.338L10.9087 130.491L13.7043 130.941L15.8718 130.31L17.5415 128.822L20.1571 128.961L21.1688 126.341L24.5463 127.79L26.3704 126.568L27.7358 124.559L30.4526 124.872L29.7011 119.22L33.4811 121.363L36.2388 121.746L36.0853 117.119L39.9265 119.365L39.9745 115.083L42.062 114.313L45.846 116.459L45.8795 112.148L48.305 112.486L49.9131 113.465L53.3499 111.823L53.9284 115.132L57.0557 114.025L56.6099 119.106L59.9587 117.615L62.0352 118.33L63.1633 120.687L64.9022 121.986L68.3356 120.349L67.9418 125.342L69.8819 126.292L73.8914 123.659L74.0905 127.624L75.3626 129.731L77.8733 129.694L79.5408 131.117L82.7998 129.783L82.3564 134.862L86.2653 132.403L88.6448 132.589L88.3334 137.435L91.5767 136.124L93.0934 137.805L93.6012 141.237L97.4245 138.925L99.9078 138.932L101.296 140.837L103.78 140.844L103.675 145.337L107.285 143.395L106.638 148.825L110.302 146.789L111.146 149.641L113.767 149.41L115.038 151.52L117.861 150.943L120.193 151.216L122.634 151.299L122.571 155.495L124.728 155.734L125.806 158.25L128.861 157.51L130.037 160.041L132.222 160.569L135.08 159.934L135.956 162.731L139.205 161.412L138.691 166.617L141.755 165.62L141.935 169.62L146.128 166.674L147.502 168.61L150.535 167.671L150.367 172.028L153.482 172.477L154.233 174.212L155.941 174.092L158.275 176.401Z" fill="#F87D95"/>
<path d="M55.9707 138.911L53.5272 137.5L42.9169 140.189L44.9536 137.6L51.0451 136.089L48.9662 134.889L44.8121 136.056L46.8307 133.656L44.7539 132.457L42.1823 136L37.702 137.178L42.3079 131.023L39.8831 129.623L34.0608 137.867L36.1773 139.089L42.2894 137.522L39.6215 141.077L41.7401 142.301L55.9707 138.911Z" fill="#B74D62"/>
<path d="M54.6913 142.999C55.0864 142.8 55.5101 142.653 55.9646 142.561C56.4169 142.467 56.868 142.426 57.3155 142.432C57.7629 142.441 58.1989 142.496 58.6205 142.599C59.0439 142.703 59.4276 142.855 59.7738 143.055C60.4794 143.462 60.8536 143.941 60.8948 144.487C60.936 145.037 60.6145 145.547 59.9255 146.02L54.6913 142.999ZM61.6675 141.998C60.8477 141.525 59.9643 141.18 59.0248 140.961C58.0814 140.742 57.1425 140.638 56.2025 140.649C55.2642 140.661 54.3549 140.779 53.4823 141.005C52.6077 141.231 51.8135 141.551 51.099 141.966C50.4113 142.366 49.8774 142.82 49.5047 143.327C49.1284 143.834 48.9382 144.359 48.9278 144.898C48.9176 145.44 49.1047 145.979 49.4847 146.516C49.8651 147.053 50.4574 147.555 51.2658 148.021C52.3954 148.673 53.613 149.092 54.9181 149.276C56.2231 149.463 57.4441 149.438 58.5802 149.21L56.9804 147.577C56.4049 147.718 55.7661 147.728 55.0621 147.61C54.3583 147.491 53.7503 147.284 53.2367 146.988C52.9019 146.795 52.6388 146.577 52.4465 146.332C52.2535 146.087 52.1425 145.832 52.1163 145.565C52.0901 145.299 52.1511 145.032 52.3031 144.765C52.4551 144.498 52.7096 144.24 53.0644 143.987L60.8582 148.487C60.9868 148.443 61.1305 148.377 61.2914 148.293C61.4502 148.207 61.6127 148.117 61.7789 148.02C62.4534 147.628 62.9836 147.182 63.3731 146.682C63.759 146.182 63.9609 145.664 63.9766 145.126C63.9926 144.59 63.8172 144.053 63.4498 143.515C63.0817 142.979 62.4894 142.473 61.6675 141.998Z" fill="#B74D62"/>
<path d="M74.8244 145.232L72.2454 143.743L60.6024 150.509C59.8107 150.969 59.4248 151.451 59.439 151.954C59.455 152.458 59.8673 152.944 60.6757 153.41C61.0483 153.625 61.5105 153.839 62.0613 154.055C62.6121 154.27 63.1439 154.428 63.6565 154.531L65.2603 153.198C65.0157 153.147 64.7744 153.082 64.5387 153.005C64.3015 152.927 64.1076 152.844 63.9534 152.755C63.6187 152.561 63.4642 152.354 63.4891 152.132C63.5125 151.909 63.7104 151.691 64.0787 151.476L74.8244 145.232Z" fill="#B74D62"/>
<path d="M79.2764 152.165C78.4548 151.691 77.5751 151.347 76.6415 151.132C75.7057 150.918 74.7724 150.815 73.84 150.822C72.9055 150.829 72.0036 150.943 71.1368 151.165C70.2681 151.388 69.4831 151.703 68.7821 152.111C68.0944 152.51 67.5605 152.966 67.1786 153.477C66.7986 153.988 66.6004 154.515 66.5847 155.06C66.569 155.604 66.7463 156.147 67.1208 156.687C67.4934 157.229 68.0916 157.736 68.9129 158.21C70.0293 158.855 71.2257 159.265 72.5082 159.443C73.7871 159.621 74.9807 159.588 76.0925 159.343L74.3379 157.444C73.8533 157.547 73.2978 157.552 72.6793 157.46C72.0571 157.368 71.5155 157.187 71.0555 156.921C70.6961 156.713 70.4275 156.475 70.2533 156.204C70.0794 155.935 70.0077 155.653 70.0382 155.359C70.0687 155.066 70.1979 154.773 70.4275 154.477C70.6533 154.18 70.9912 153.902 71.4368 153.643C71.8827 153.384 72.3593 153.186 72.8649 153.049C73.3683 152.911 73.8702 152.835 74.3687 152.821C74.8672 152.807 75.3506 152.849 75.8174 152.948C76.2842 153.049 76.7042 153.206 77.0769 153.421C77.5126 153.673 77.8117 153.959 77.9726 154.282C78.1339 154.605 78.1394 154.936 77.9877 155.276L81.2747 156.287C81.652 155.62 81.6898 154.927 81.3864 154.204C81.083 153.481 80.3796 152.802 79.2764 152.165Z" fill="#B74D62"/>
<path d="M81.8123 163.131C81.4396 162.916 81.1655 162.674 80.991 162.403C80.8171 162.134 80.7454 161.852 80.7759 161.559C80.8064 161.266 80.9356 160.977 81.1652 160.687C81.3929 160.399 81.7307 160.125 82.1766 159.866C82.6093 159.615 83.0782 159.419 83.5838 159.282C84.0872 159.146 84.5913 159.067 85.0968 159.048C85.6009 159.03 86.0923 159.069 86.5646 159.164C87.0373 159.262 87.4607 159.416 87.8333 159.632C88.2041 159.846 88.4786 160.09 88.6525 160.359C88.8263 160.63 88.8962 160.911 88.8676 161.203C88.8371 161.497 88.7042 161.79 88.4709 162.082C88.2355 162.375 87.9013 162.646 87.4672 162.899C87.0213 163.158 86.5465 163.357 86.0431 163.493C85.5375 163.63 85.0338 163.707 84.5279 163.726C84.022 163.744 83.5361 163.705 83.0693 163.604C82.6028 163.505 82.1828 163.345 81.8123 163.131ZM90.0144 158.365C89.1928 157.89 88.3131 157.547 87.3795 157.332C86.4437 157.117 85.5104 157.017 84.578 157.032C83.6456 157.047 82.744 157.166 81.8769 157.388C81.0061 157.61 80.2214 157.925 79.5204 158.332C78.8327 158.732 78.297 159.184 77.9185 159.688C77.5366 160.192 77.3366 160.713 77.3129 161.254C77.2895 161.794 77.4649 162.335 77.8397 162.876C78.2123 163.417 78.8105 163.924 79.6318 164.399C80.4513 164.872 81.3292 165.217 82.2649 165.431C83.2007 165.647 84.1303 165.744 85.0587 165.726C85.9852 165.708 86.8816 165.588 87.7503 165.365C88.6171 165.143 89.3965 164.831 90.0843 164.432C90.7852 164.024 91.3268 163.569 91.7087 163.065C92.0887 162.562 92.2906 162.039 92.3143 161.499C92.3358 160.957 92.1623 160.419 91.7952 159.881C91.4284 159.345 90.8339 158.838 90.0144 158.365Z" fill="#B74D62"/>
<path d="M109.662 169.708C108.854 169.242 107.952 168.933 106.962 168.782C105.969 168.629 104.925 168.634 103.824 168.798C104.294 168.375 104.504 167.912 104.45 167.408C104.398 166.905 103.947 166.409 103.099 165.919C102.266 165.438 101.348 165.112 100.351 164.943C99.3526 164.772 98.3421 164.768 97.3196 164.931L99.1732 163.854L96.8454 162.51L86.8274 168.331L89.4064 169.82L95.2582 166.42C96.0739 166.168 96.9017 166.062 97.7399 166.103C98.5763 166.144 99.2462 166.31 99.7462 166.598C100.233 166.879 100.432 167.207 100.338 167.581C100.243 167.955 99.7942 168.375 98.9914 168.841L93.3704 172.108L95.9493 173.597L101.78 170.208C102.598 169.956 103.426 169.847 104.263 169.88C105.101 169.913 105.775 170.079 106.289 170.375C106.776 170.656 106.975 170.983 106.88 171.358C106.786 171.732 106.339 172.152 105.536 172.619L99.9145 175.886L102.492 177.373L108.744 173.74C109.228 173.459 109.664 173.157 110.055 172.835C110.441 172.513 110.713 172.182 110.864 171.84C111.014 171.5 111.006 171.147 110.837 170.785C110.669 170.423 110.278 170.064 109.662 169.708Z" fill="#B74D62"/>
<path d="M112.654 176.463C113.047 176.263 113.472 176.117 113.927 176.025C114.379 175.932 114.83 175.89 115.278 175.896C115.723 175.904 116.159 175.959 116.583 176.063C117.004 176.166 117.39 176.319 117.736 176.519C118.441 176.926 118.814 177.404 118.857 177.952C118.898 178.501 118.575 179.01 117.888 179.484L112.654 176.463ZM119.63 175.463C118.808 174.989 117.926 174.644 116.985 174.425C116.043 174.207 115.104 174.103 114.164 174.114C113.224 174.125 112.317 174.245 111.444 174.47C110.568 174.695 109.773 175.015 109.059 175.43C108.371 175.83 107.839 176.285 107.467 176.792C107.091 177.3 106.899 177.823 106.89 178.364C106.88 178.905 107.067 179.444 107.447 179.981C107.827 180.518 108.42 181.02 109.228 181.486C110.358 182.138 111.575 182.557 112.88 182.741C114.184 182.927 115.406 182.904 116.543 182.675L114.941 181.042C114.367 181.184 113.728 181.193 113.024 181.076C112.321 180.956 111.71 180.748 111.199 180.453C110.864 180.26 110.602 180.043 110.409 179.798C110.216 179.553 110.105 179.298 110.079 179.031C110.051 178.763 110.113 178.497 110.265 178.23C110.417 177.964 110.67 177.704 111.027 177.453L118.821 181.952C118.949 181.908 119.093 181.843 119.252 181.757C119.412 181.672 119.575 181.583 119.741 181.486C120.415 181.094 120.946 180.647 121.333 180.147C121.721 179.648 121.921 179.129 121.939 178.592C121.953 178.055 121.777 177.518 121.412 176.981C121.044 176.444 120.451 175.937 119.63 175.463Z" fill="#B74D62"/>
</g>
<g clip-path="url(#clip2)">
<path d="M170.012 119.347L129.272 95.672L125.649 98.7614L133.708 132.39L114.148 143.683L114.16 147.966L154.9 171.642L179.184 157.621L170.012 119.347Z" fill="#57565C"/>
<path d="M154.9 171.642L114.16 147.966L114.148 143.683L154.888 167.358L154.9 171.642Z" fill="#3E3D43"/>
<path d="M174.448 156.065L133.708 132.39L125.649 98.7614L166.389 122.437L174.448 156.065Z" fill="#2E2E30"/>
<path d="M166.389 122.437L125.649 98.7614L129.272 95.672L170.012 119.347L166.389 122.437Z" fill="#77767E"/>
<path d="M170.012 119.347L179.184 157.621L154.9 171.641L154.888 167.358L174.448 156.065L166.389 122.437L170.012 119.347Z" fill="#1D1D1F"/>
<path d="M205.432 57.1393L102.692 0.437256L92.9713 2.56594L92.9723 2.56661L92.9713 91.3297V103.238L197.451 165.031L197.452 69.0072V59.8766L116 15.1973L197.48 59.8896L199.071 59.3395L197.452 59.9053L197.453 164.992L205.356 160.732L205.368 57.1617L205.432 57.1393Z" fill="#C6C5CB"/>
<path d="M197.452 59.9053L197.453 164.992L205.356 160.732L205.368 57.1393L197.452 59.9053Z" fill="#ACABB1"/>
<path d="M102.692 0.437256L92.9713 2.56594L197.48 59.8896L205.432 57.1393L102.692 0.437256Z" fill="#D8D8DA"/>
<path d="M102.692 0.437256L92.9713 2.56594L197.48 59.8896L205.432 57.1393L102.692 0.437256Z" fill="#CCCCCD"/>
<path d="M197.451 151.577L92.9713 91.3297L92.9723 2.56592L197.452 59.8765L197.451 151.577Z" fill="#1D1D1F"/>
<path d="M128.026 82.432L128.151 38.5071L179.708 68.2736L179.583 112.198L128.026 82.432ZM192.814 65.4243L118.142 22.3123L117.928 97.8066L192.6 140.918L192.814 65.4243Z" fill="#57565C"/>
<path d="M111.709 80.5856L109.394 79.2487L109.387 81.9094L107.069 80.5712L107.061 83.2345L111.694 85.9096L111.709 80.5856ZM101.369 77.2805L101.395 68.0706L109.413 72.6995L109.4 77.3059L113.408 79.6202L113.382 88.8301L105.365 84.2012L105.378 79.5948L101.369 77.2805ZM98.9641 62.6181L98.9892 53.7339L107.004 58.3611L106.979 67.2453L98.9641 62.6181ZM107.86 67.7543L107.885 58.87L115.901 63.4972L115.876 72.3815L107.86 67.7543ZM98.9922 52.7237L99.0172 43.8395L107.032 48.4667L107.007 57.3509L98.9922 52.7237ZM107.888 57.8599L107.913 48.9756L115.928 53.6028L115.903 62.4871L107.888 57.8599ZM99.0203 42.8266L99.0453 33.9448L107.061 38.572L107.035 47.4538L99.0203 42.8266ZM107.917 47.9628L107.942 39.0809L115.957 43.7081L115.932 52.59L107.917 47.9628ZM99.0483 32.9322L99.0734 24.048L107.089 28.6752L107.064 37.5594L99.0483 32.9322ZM107.945 38.0687L107.97 29.1845L115.985 33.812L115.96 42.6962L107.945 38.0687ZM99.0761 23.0378L99.1012 14.1536L107.116 18.7808L107.091 27.665L99.0761 23.0378ZM107.972 28.1743L107.997 19.2901L116.013 23.9173L115.988 32.8015L107.972 28.1743ZM118.142 22.3122L96.9879 10.0989L96.7739 85.5929L117.928 97.8063L118.142 22.3122Z" fill="#77767E"/>
<path d="M107.116 18.7812L99.1015 14.1537L99.0761 23.0379L107.091 27.6658L107.116 18.7812Z" fill="#898890"/>
<path d="M116.013 23.9174L107.997 19.2902L107.972 28.1744L115.988 32.8019L116.013 23.9174Z" fill="#898890"/>
<path d="M107.089 28.6753L99.0734 24.0481L99.0483 32.9323L107.063 37.5602L107.089 28.6753Z" fill="#898890"/>
<path d="M115.985 33.8117L107.97 29.1842L107.945 38.0688L115.959 42.6963L115.985 33.8117Z" fill="#898890"/>
<path d="M107.061 38.5724L99.0453 33.9448L99.0203 42.8267L107.035 47.4542L107.061 38.5724Z" fill="#898890"/>
<path d="M115.957 43.7088L107.942 39.0813L107.917 47.9629L115.932 52.5907L115.957 43.7088Z" fill="#898890"/>
<path d="M107.032 48.4668L99.0172 43.8392L98.9922 52.7238L107.007 57.351L107.032 48.4668Z" fill="#898890"/>
<path d="M115.928 53.6032L107.914 48.9753L107.888 57.8599L115.903 62.4874L115.928 53.6032Z" fill="#898890"/>
<path d="M107.004 58.3612L98.9892 53.7336L98.9641 62.6182L106.979 67.2454L107.004 58.3612Z" fill="#898890"/>
<path d="M115.901 63.4976L107.885 58.8698L107.86 67.7543L115.875 72.3819L115.901 63.4976Z" fill="#898890"/>
<path d="M113.408 79.6199L109.4 77.3057L109.394 79.2488L111.709 80.5856L111.694 85.9097L107.061 83.2343L107.069 80.5713L105.378 79.5952L105.365 84.201L113.382 88.8299L113.408 79.6199Z" fill="#3E3D43"/>
<path d="M109.413 40.4624L101.395 35.8335L101.369 45.0434L105.378 47.358L107.069 48.3341L109.386 49.6723L109.394 47.0116L109.4 45.0685L109.413 40.4624Z" fill="white"/>
<path d="M128.147 38.5084L179.708 68.2747L179.577 112.196L128.019 82.4287L128.147 38.5084Z" fill="#C4C4C4"/>
<path d="M128.147 46.224L179.708 75.9903L179.577 119.911L128.019 90.1443L128.147 46.224Z" fill="white"/>
<path d="M175.249 81.7959L134.574 58.2664L134.549 67.1509L175.224 90.6804L175.249 81.7959Z" fill="#FFD271"/>
<path d="M177.563 69.2582L174.844 67.6882L174.835 70.8119L176.195 71.5969L176.768 71.9279L177.554 72.3818L177.557 71.4794L177.559 70.8204L177.563 69.2582Z" fill="#FB6172"/>
<path d="M136.111 52.3458L137.838 59.2299L138.857 57.0079L141.34 57.273L136.111 52.3458Z" fill="white"/>
<path d="M137.837 58.7603L136.323 52.6026L140.909 57.0103L138.731 56.7726L137.837 58.7603ZM135.775 51.6539L136.436 54.3377L137.803 59.8896L138.994 57.2339L141.907 57.5506L137.773 53.5757L135.775 51.6539Z" fill="#010101"/>
</g>
<path d="M148.193 100.126L135.589 65.0608L130.912 62.214L121.213 103.653L128.796 95.0127L130.912 107.18H138.847L137.084 95.0127L148.193 100.126Z" fill="url(#paint3_linear)"/>
<g clip-path="url(#clip3)">
<path d="M24.508 77.5631L24.4721 90.7386L46.5654 96.0142L25.75 108.567L25.7142 121.743L41.681 131.288L78.1218 109.29L93.2251 131.931L135.771 64.9473L135.807 51.7716L24.508 77.5631Z" fill="#E5AF43"/>
<path d="M62.2265 86.5695L62.1904 99.7452L24.4721 90.7386L24.508 77.5631L62.2265 86.5695Z" fill="#FFD46B"/>
<path d="M78.1576 96.1145L78.1215 109.29L41.681 131.288V118.112L78.1576 96.1145Z" fill="#E5AF43"/>
<path d="M41.681 118.112V131.288L25.7142 121.743L25.75 108.567L41.681 118.112Z" fill="#FFD46B"/>
<path d="M93.261 118.756L93.2251 131.931L78.1215 109.29L78.1576 96.1145L93.261 118.756Z" fill="#FFD46B"/>
<path d="M135.807 51.7716L135.771 64.9473L93.2251 131.931L93.2609 118.756L135.807 51.7716Z" fill="#E5AF43"/>
<path d="M135.807 51.7716L93.261 118.756L78.1576 96.1144L41.681 118.112L25.75 108.567L62.2265 86.5696L24.5079 77.5631L135.807 51.7716Z" fill="#FFE08E"/>
</g>
<defs>
<linearGradient id="paint0_linear" x1="67.562" y1="155.531" x2="82.4989" y2="127.525" gradientUnits="userSpaceOnUse">
<stop/>
<stop offset="1" stop-opacity="0"/>
</linearGradient>
<linearGradient id="paint1_linear" x1="201" y1="205.332" x2="218.308" y2="181.668" gradientUnits="userSpaceOnUse">
<stop/>
<stop offset="1" stop-opacity="0"/>
</linearGradient>
<linearGradient id="paint2_linear" x1="243.582" y1="188.297" x2="209.905" y2="207.283" gradientUnits="userSpaceOnUse">
<stop/>
<stop offset="1" stop-opacity="0"/>
</linearGradient>
<linearGradient id="paint3_linear" x1="146.253" y1="59.0399" x2="118.392" y2="114.939" gradientUnits="userSpaceOnUse">
<stop/>
<stop offset="0.556862" stop-color="white" stop-opacity="0"/>
</linearGradient>
<clipPath id="clip0">
<rect x="146.004" y="163.685" width="78.775" height="78.775" fill="white"/>
</clipPath>
<clipPath id="clip1">
<rect x="0.903961" y="83.0677" width="157.55" height="157.55" fill="white"/>
</clipPath>
<clipPath id="clip2">
<rect x="63.5997" y="0.437256" width="171.204" height="171.204" fill="white"/>
</clipPath>
<clipPath id="clip3">
<rect x="24.4721" y="34.083" width="111.335" height="115.537" fill="white"/>
</clipPath>
</defs>
</svg>
