<svg width="237" height="262" viewBox="0 0 237 262" fill="none" xmlns="http://www.w3.org/2000/svg">
<path d="M236.208 134.021L199.63 156.019L105.564 108.2L143.42 87.9932L236.208 134.021Z" fill="url(#paint0_linear)"/>
<g clip-path="url(#clip0)">
<path d="M203.876 148.464C203.923 147.915 203.585 147.356 202.855 146.937L121.207 100.03C119.841 99.2457 117.634 99.2457 116.277 100.03L1.90931 166.166C1.23331 166.557 0.8959 167.069 0.896693 167.582C0.896693 167.58 0.896297 167.579 0.896297 167.577L0.884006 171.977C0.882816 172.494 1.22578 173.012 1.91328 173.407L83.5613 220.314C84.9268 221.099 87.134 221.099 88.4908 220.314L202.859 154.178C203.533 153.789 203.871 153.278 203.872 152.767L203.884 148.368C203.884 148.4 203.878 148.432 203.876 148.464Z" fill="#1D1D1F"/>
<path d="M203.884 148.368L203.872 152.767C203.871 153.278 203.533 153.789 202.859 154.178L202.871 149.779C203.545 149.389 203.882 148.879 203.884 148.368Z" fill="#3E3D43"/>
<path d="M0.884006 171.977L0.896297 167.577C0.894711 168.094 1.23807 168.613 1.92557 169.007L1.91328 173.407C1.22578 173.012 0.882816 172.494 0.884006 171.977Z" fill="#2E2E30"/>
<path d="M202.871 149.778L202.858 154.179L88.4904 220.315L88.5031 215.914L202.871 149.778Z" fill="#2E2E30"/>
<path d="M83.5736 215.914L83.5605 220.315L1.91328 173.407L1.92558 169.007L83.5736 215.914Z" fill="#3E3D43"/>
<path d="M88.5031 215.914L88.4908 220.314C87.134 221.098 84.9268 221.098 83.5613 220.314L83.5736 215.914C84.9391 216.699 87.1463 216.699 88.5031 215.914Z" fill="#57565C"/>
<path d="M202.855 146.937C204.221 147.721 204.228 148.994 202.871 149.778L88.5031 215.914C87.1463 216.698 84.9395 216.698 83.5736 215.914L1.92558 169.007C0.559694 168.223 0.552557 166.95 1.90933 166.166L116.277 100.03C117.634 99.2453 119.841 99.2453 121.207 100.03L202.855 146.937Z" fill="#1D1D1F"/>
<path d="M183.994 152.128L111.391 110.417L20.7733 162.819L93.3771 204.53L183.994 152.128Z" fill="#409DF8"/>
<path d="M57.2027 165.085C55.2736 163.972 55.2633 162.166 57.1799 161.052C59.0966 159.938 62.2138 159.938 64.1429 161.052C66.072 162.166 66.0823 163.972 64.1656 165.085C62.249 166.199 59.1323 166.199 57.2027 165.085ZM65.7727 160.105C62.9378 158.468 58.3564 158.468 55.5398 160.105C52.723 161.742 52.7375 164.396 55.5724 166.033C58.4073 167.67 62.9894 167.669 65.806 166.032C68.6226 164.395 68.6078 161.742 65.7727 160.105Z" fill="white"/>
<path d="M72.0201 158.321L68.8317 156.48L65.6645 158.321L68.8526 160.162L72.0201 158.321Z" fill="white"/>
<path d="M76.3985 163.257L73.2103 161.416L70.0428 163.257L73.2313 165.098L76.3985 163.257Z" fill="white"/>
<path d="M63.8618 156.019L60.6737 154.178L57.5062 156.019L60.6946 157.86L63.8618 156.019Z" fill="white"/>
<path d="M64.6613 170.078L61.4731 168.237L58.3059 170.078L61.4938 171.919L64.6613 170.078Z" fill="white"/>
<path d="M52.1247 162.84L48.9365 160.999L45.769 162.84L48.9572 164.68L52.1247 162.84Z" fill="white"/>
<path d="M55.6817 167.816L52.4935 165.975L49.326 167.816L52.5142 169.657L55.6817 167.816Z" fill="white"/>
<path d="M72.0735 167.816L68.8854 165.975L65.7179 167.816L68.906 169.657L72.0735 167.816Z" fill="white"/>
<path d="M55.6282 158.321L52.4401 156.48L49.2726 158.321L52.4607 160.162L55.6282 158.321Z" fill="white"/>
<path d="M166.166 132.341L145.779 120.628C144.93 120.14 143.556 120.14 142.711 120.628C141.866 121.117 141.87 121.91 142.72 122.398L163.107 134.11C163.958 134.599 165.331 134.599 166.177 134.11C167.021 133.622 167.017 132.83 166.166 132.341Z" fill="#57565C"/>
<path d="M187.739 159.668L173.746 167.661C173.148 168.005 172.664 168.837 172.666 169.522C172.668 170.205 173.155 170.481 173.753 170.137L187.746 162.144C188.345 161.8 188.828 160.968 188.826 160.284C188.824 159.599 188.338 159.324 187.739 159.668Z" fill="#3E3D43"/>
<path d="M41.4202 187.503C39.4179 186.353 39.4072 184.48 41.3964 183.33C43.3856 182.179 46.634 182.18 48.6362 183.33L55.4898 187.267C57.4921 188.417 57.5052 190.291 55.516 191.442C53.5264 192.592 50.2757 192.591 48.2734 191.44L41.4202 187.503ZM55.828 186.904L49.2682 183.135C46.9932 181.828 43.3182 181.828 41.0582 183.135C38.8006 184.44 38.8129 186.559 41.0875 187.865L47.6474 191.634C49.9192 192.94 53.595 192.939 55.8522 191.634C58.1122 190.328 58.0999 188.209 55.828 186.904Z" fill="#57565C"/>
<path d="M55.4902 187.267L48.6366 183.329C46.6343 182.179 43.3859 182.179 41.3968 183.329C39.4072 184.479 39.4183 186.352 41.4206 187.502L48.2742 191.44C50.2764 192.59 53.5272 192.591 55.5168 191.441C57.5055 190.291 57.4924 188.417 55.4902 187.267Z" fill="#1D1D1F"/>
<path d="M145.681 135.421L112.584 116.403L62.4291 145.397L95.5259 164.414L145.681 135.421Z" fill="#248BE6"/>
<path d="M169.746 149.535L150.611 138.569L121.616 155.288L140.75 166.255L169.746 149.535Z" fill="white"/>
<path d="M136.62 168.776L117.486 157.809L88.4905 174.529L107.625 185.496L136.62 168.776Z" fill="white"/>
<path d="M171.77 131.668C164.196 131.971 123.676 145.68 104.362 152.497C117.238 134.698 132.007 108.946 133.522 108.946C135.037 108.946 181.238 131.29 171.77 131.668Z" fill="url(#paint1_linear)"/>
</g>
<path d="M75.4598 171.039L73.1671 171.737L48.3462 157.183L75.4598 147.913L95.3962 159.676L75.4598 171.039Z" fill="url(#paint2_linear)"/>
<g clip-path="url(#clip1)">
<path d="M74.2109 144.945C67.1193 140.742 55.6583 140.742 48.6122 144.945L48.5833 155.427L61.4244 163.035L77.5732 158.2L77.6021 147.718C76.7499 146.718 75.6205 145.78 74.2109 144.945Z" fill="#FFD46B"/>
<path d="M77.6021 147.718L77.5731 158.2L61.4244 163.036L61.4533 152.554L77.6021 147.718Z" fill="#E5AF43"/>
<path d="M74.2109 144.944C75.6204 145.78 76.7498 146.718 77.602 147.718L61.4532 152.553L48.6122 144.945C55.6583 140.742 67.1193 140.742 74.2109 144.944Z" fill="#FFD271"/>
<path d="M80.7423 149.866C80.7603 148.172 80.1104 146.475 78.7919 144.927L62.6431 149.761L62.6046 163.738L75.4457 171.346C78.9456 169.259 80.6973 166.527 80.7049 163.791L80.7434 149.815C80.7434 149.832 80.7425 149.849 80.7423 149.866ZM80.7353 150.109C80.7366 150.081 80.7376 150.054 80.7386 150.026C80.7376 150.054 80.7366 150.081 80.7353 150.109ZM80.7198 150.346C80.7217 150.323 80.7231 150.3 80.7248 150.277C80.7231 150.3 80.7217 150.323 80.7198 150.346ZM80.6957 150.58C80.6945 150.59 80.6928 150.6 80.6916 150.611C80.6928 150.6 80.6945 150.59 80.6957 150.58ZM80.6623 150.815C80.6583 150.84 80.6537 150.866 80.6493 150.892C80.6537 150.866 80.6583 150.841 80.6623 150.815ZM80.62 151.052C80.6146 151.08 80.609 151.107 80.6032 151.135C80.609 151.107 80.6146 151.08 80.62 151.052ZM80.5667 151.298C80.561 151.322 80.5556 151.346 80.5496 151.371C80.5557 151.346 80.5611 151.322 80.5667 151.298ZM80.4881 151.603C80.4878 151.604 80.4876 151.605 80.4875 151.605C80.4876 151.605 80.4878 151.604 80.4881 151.603ZM80.4172 151.835C80.4092 151.859 80.4009 151.884 80.3927 151.908C80.4009 151.884 80.4093 151.859 80.4172 151.835ZM80.3369 152.069C80.327 152.096 80.3169 152.123 80.3067 152.15C80.3169 152.123 80.327 152.096 80.3369 152.069ZM80.2452 152.308C80.2351 152.333 80.2252 152.358 80.2148 152.383C80.2252 152.358 80.2351 152.333 80.2452 152.308ZM80.1274 152.586C80.1233 152.595 80.1196 152.604 80.1155 152.613C80.1196 152.604 80.1233 152.595 80.1274 152.586ZM80.0073 152.84C79.9961 152.863 79.9843 152.885 79.9728 152.908C79.9843 152.885 79.9961 152.863 80.0073 152.84ZM79.8893 153.068C79.8751 153.095 79.8605 153.122 79.8458 153.148C79.8604 153.122 79.8749 153.095 79.8893 153.068ZM79.7594 153.301C79.7447 153.326 79.7303 153.352 79.7154 153.377C79.7304 153.352 79.7447 153.326 79.7594 153.301ZM79.6048 153.558C79.5958 153.572 79.5873 153.587 79.5782 153.601C79.5873 153.587 79.5958 153.572 79.6048 153.558ZM79.4326 153.822C79.4188 153.842 79.4044 153.863 79.3904 153.883C79.4044 153.863 79.4188 153.843 79.4326 153.822ZM79.2769 154.044C79.2584 154.069 79.2395 154.095 79.2205 154.121C79.2395 154.095 79.2584 154.069 79.2769 154.044ZM79.1092 154.268C79.09 154.293 79.0708 154.318 79.0512 154.343C79.0708 154.318 79.09 154.293 79.1092 154.268ZM78.9182 154.508C78.904 154.526 78.8903 154.543 78.8759 154.56C78.8903 154.543 78.904 154.526 78.9182 154.508ZM75.7804 157.189C75.8109 157.17 75.8408 157.151 75.8709 157.132C75.8408 157.151 75.8109 157.17 75.7804 157.189ZM76.0711 157.003C76.1045 156.981 76.1378 156.959 76.1709 156.937C76.1377 156.959 76.1045 156.981 76.0711 157.003ZM76.3615 156.808C76.3913 156.788 76.4213 156.767 76.4508 156.747C76.4212 156.767 76.3913 156.788 76.3615 156.808ZM76.6867 156.579C76.6973 156.571 76.7082 156.563 76.7189 156.556C76.7083 156.563 76.6973 156.571 76.6867 156.579ZM76.9771 156.362C77.0023 156.343 77.0269 156.323 77.0517 156.304C77.0268 156.323 77.0023 156.343 76.9771 156.362ZM77.2289 156.164C77.2579 156.141 77.2865 156.117 77.3152 156.094C77.2866 156.117 77.2579 156.141 77.2289 156.164ZM77.478 155.958C77.5047 155.936 77.5315 155.913 77.5578 155.89C77.5315 155.913 77.5048 155.936 77.478 155.958ZM77.744 155.727C77.7586 155.714 77.7737 155.701 77.7883 155.688C77.7739 155.701 77.7587 155.714 77.744 155.727ZM78.0089 155.483C78.0287 155.464 78.0479 155.445 78.0675 155.426C78.0478 155.445 78.0287 155.464 78.0089 155.483ZM78.2224 155.275C78.2467 155.25 78.2706 155.226 78.2946 155.201C78.2706 155.226 78.2467 155.25 78.2224 155.275ZM78.693 154.774C78.6778 154.791 78.662 154.808 78.6466 154.825C78.662 154.808 78.6778 154.791 78.693 154.774ZM78.4999 154.987C78.4772 155.011 78.4542 155.035 78.4312 155.06C78.4542 155.035 78.4772 155.011 78.4999 154.987Z" fill="#FB6172"/>
<path d="M80.7434 149.815L80.7048 163.791C80.6973 166.527 78.9454 169.259 75.4456 171.346L75.4841 157.37C78.9842 155.283 80.7359 152.551 80.7434 149.815Z" fill="#B74D62"/>
<path d="M78.7919 144.927C82.2266 148.96 81.1295 154.003 75.4843 157.37L62.6432 149.762L78.7919 144.927Z" fill="#F87D95"/>
<path d="M60.8637 157.101L48.0227 149.492C44.5134 151.585 42.7619 154.326 42.7634 157.069C42.7633 157.062 42.7629 157.055 42.7629 157.048L42.7434 164.036C42.7358 166.807 44.5181 169.583 48.0868 171.698C55.179 175.9 66.6399 175.9 73.6855 171.698L73.7048 164.71L60.8637 157.101Z" fill="#9857B8"/>
<path d="M73.7048 164.71C66.6592 168.912 55.1983 168.912 48.1061 164.71C41.0144 160.508 40.9771 153.694 48.0227 149.492L60.8638 157.101L73.7048 164.71Z" fill="#A861CC"/>
</g>
<g clip-path="url(#clip2)">
<path d="M98.3612 144.439C98.3612 144.439 98.1123 143.424 98.113 143.318L110.004 144.004L110.255 144.811L104.311 152.118L98.3612 144.439Z" fill="#F87D95"/>
<path d="M99.8894 145.811C97.4488 144.341 97.5325 141.999 100.076 140.58C102.62 139.16 106.661 139.201 109.102 140.671C111.542 142.141 111.459 144.483 108.915 145.902C106.371 147.322 102.33 147.281 99.8894 145.811Z" fill="#FB6172"/>
<path d="M98.8233 143.425C95.8193 141.616 95.9223 138.733 99.0534 136.986C102.184 135.239 107.158 135.29 110.162 137.099C113.166 138.908 113.063 141.79 109.932 143.537C106.801 145.284 101.827 145.234 98.8233 143.425Z" fill="#FFD271"/>
<path d="M88.9576 129.096C88.9576 129.096 88.3274 126.799 88.3292 126.53L118.443 128.267L119.078 130.312L111.789 141.969H97.24L88.9576 129.096Z" fill="#FFD271"/>
<path d="M92.8279 132.844C86.647 129.122 86.859 123.191 93.3012 119.597C99.7435 116.002 109.976 116.106 116.157 119.828C122.338 123.55 122.126 129.481 115.684 133.075C109.242 136.67 99.0088 136.567 92.8279 132.844Z" fill="#F9BA62"/>
<path d="M89.1647 127.133C81.0412 122.241 81.3198 114.446 89.7868 109.722C98.2538 104.998 111.703 105.134 119.826 110.026C127.95 114.918 127.671 122.713 119.204 127.437C110.737 132.161 97.2882 132.025 89.1647 127.133Z" fill="#A861CC"/>
<path d="M70.1861 101.872C67.913 98.9117 67.524 95.2166 67.6137 93.7391L129.076 95.4227L139.853 100.072C134.831 107.497 124.721 122.449 124.452 122.852C124.183 123.255 123.743 123.781 123.557 123.994H85.3046C81.2122 117.853 72.4592 104.832 70.1861 101.872Z" fill="#A861CC"/>
<path d="M77.8994 108.796C63.8067 100.309 64.29 86.7861 78.9786 78.5907C93.6673 70.3954 116.999 70.6314 131.092 79.1179C145.184 87.6043 144.701 101.128 130.012 109.323C115.324 117.518 91.9921 117.283 77.8994 108.796Z" fill="#9857B8"/>
<path d="M69.592 98.2699C51.0974 87.1326 51.7316 69.3852 71.0083 58.63C90.285 47.8748 120.904 48.1846 139.399 59.3218C157.894 70.4591 157.259 88.2064 137.983 98.9617C118.706 109.717 88.0866 109.408 69.592 98.2699Z" fill="#248BE6"/>
<path d="M39.8208 71.7776L60.4052 90.4762H148.444L168.907 71.7776H39.8208Z" fill="#248BE6"/>
<path d="M48.2463 77.7646C18.4411 59.8162 19.4632 31.2152 50.5288 13.8825C81.5944 -3.45019 130.939 -2.95096 160.745 14.9974C190.55 32.9458 189.528 61.5468 158.462 78.8795C127.397 96.2122 78.0516 95.7139 48.2463 77.7646Z" fill="#409DF8"/>
<mask id="mask0" mask-type="alpha" maskUnits="userSpaceOnUse" x="26" y="1" width="157" height="91">
<path d="M48.2463 77.7646C18.4411 59.8162 19.4632 31.2152 50.5288 13.8825C81.5944 -3.45019 130.939 -2.95096 160.745 14.9974C190.55 32.9458 189.528 61.5468 158.462 78.8795C127.397 96.2122 78.0516 95.7139 48.2463 77.7646Z" fill="#409DF8"/>
</mask>
<g mask="url(#mask0)">
<path d="M69.592 93.889C51.0974 82.7517 51.7316 65.0044 71.0083 54.2492C90.285 43.4939 120.904 43.8037 139.399 54.941C157.894 66.0782 157.259 83.8256 137.983 94.5808C118.706 105.336 88.0866 105.027 69.592 93.889Z" fill="#248BE6"/>
<path d="M84.1564 60.8093C98.147 91.0682 114.09 92.695 117.018 97.5755C104.329 100.829 22.3371 88.1399 10.6239 74.1493C-1.08918 60.1586 12.9016 4.84664 33.0742 -10.4455C53.2467 -25.7377 86.7593 -0.684557 80.5773 4.84664C74.3954 10.3778 70.1657 30.5504 84.1564 60.8093Z" fill="url(#paint3_linear)"/>
</g>
</g>
<mask id="mask1" mask-type="alpha" maskUnits="userSpaceOnUse" x="13" y="0" width="181" height="153">
<g clip-path="url(#clip3)">
<path d="M98.3612 144.439C98.3612 144.439 98.1123 143.424 98.113 143.318L110.004 144.004L110.255 144.811L104.311 152.118L98.3612 144.439Z" fill="#F87D95"/>
<path d="M99.8894 145.811C97.4488 144.341 97.5325 141.999 100.076 140.58C102.62 139.16 106.661 139.201 109.102 140.671C111.542 142.141 111.459 144.483 108.915 145.902C106.371 147.322 102.33 147.281 99.8894 145.811Z" fill="#FB6172"/>
<path d="M98.8233 143.425C95.8193 141.616 95.9223 138.733 99.0534 136.986C102.184 135.239 107.158 135.29 110.162 137.099C113.166 138.908 113.063 141.79 109.932 143.537C106.801 145.284 101.827 145.234 98.8233 143.425Z" fill="#FFD271"/>
<path d="M88.9576 129.096C88.9576 129.096 88.3274 126.799 88.3292 126.53L118.443 128.267L119.078 130.312L111.789 141.969H97.24L88.9576 129.096Z" fill="#FFD271"/>
<path d="M92.8279 132.844C86.647 129.122 86.859 123.191 93.3012 119.597C99.7435 116.002 109.976 116.106 116.157 119.828C122.338 123.55 122.126 129.481 115.684 133.075C109.242 136.67 99.0088 136.567 92.8279 132.844Z" fill="#F9BA62"/>
<path d="M89.1647 127.133C81.0412 122.241 81.3198 114.446 89.7868 109.722C98.2538 104.998 111.703 105.134 119.826 110.026C127.95 114.918 127.671 122.713 119.204 127.437C110.737 132.161 97.2882 132.025 89.1647 127.133Z" fill="#A861CC"/>
<path d="M70.1861 101.872C67.913 98.9117 67.524 95.2166 67.6137 93.7391L129.076 95.4227L139.853 100.072C134.831 107.497 124.721 122.449 124.452 122.852C124.183 123.255 123.743 123.781 123.557 123.994H85.3046C81.2122 117.853 72.4592 104.832 70.1861 101.872Z" fill="#A861CC"/>
<path d="M77.8994 108.796C63.8067 100.309 64.29 86.7861 78.9786 78.5907C93.6673 70.3954 116.999 70.6314 131.092 79.1179C145.184 87.6043 144.701 101.128 130.012 109.323C115.324 117.518 91.9921 117.283 77.8994 108.796Z" fill="#9857B8"/>
<path d="M69.592 98.2699C51.0974 87.1326 51.7316 69.3852 71.0083 58.63C90.285 47.8748 120.904 48.1846 139.399 59.3218C157.894 70.4591 157.259 88.2064 137.983 98.9617C118.706 109.717 88.0866 109.408 69.592 98.2699Z" fill="#248BE6"/>
<path d="M39.8208 71.7776L60.4052 90.4762H148.444L168.907 71.7776H39.8208Z" fill="#248BE6"/>
<path d="M48.2463 77.7646C18.4411 59.8162 19.4632 31.2152 50.5288 13.8825C81.5944 -3.45019 130.939 -2.95096 160.745 14.9974C190.55 32.9458 189.528 61.5468 158.462 78.8795C127.397 96.2122 78.0516 95.7139 48.2463 77.7646Z" fill="#409DF8"/>
<mask id="mask2" maskUnits="userSpaceOnUse" x="26" y="1" width="157" height="91">
<path d="M48.2463 77.7646C18.4411 59.8162 19.4632 31.2152 50.5288 13.8825C81.5944 -3.45019 130.939 -2.95096 160.745 14.9974C190.55 32.9458 189.528 61.5468 158.462 78.8795C127.397 96.2122 78.0516 95.7139 48.2463 77.7646Z" fill="#409DF8"/>
</mask>
<g mask="url(#mask2)">
<path d="M69.592 93.889C51.0974 82.7517 51.7316 65.0044 71.0083 54.2492C90.285 43.4939 120.904 43.8037 139.399 54.941C157.894 66.0782 157.259 83.8256 137.983 94.5808C118.706 105.336 88.0866 105.027 69.592 93.889Z" fill="#248BE6"/>
<path d="M84.1564 60.8093C98.147 91.0682 114.09 92.695 117.018 97.5755C104.329 100.829 22.3371 88.1399 10.6239 74.1493C-1.08918 60.1586 12.9016 4.84664 33.0742 -10.4455C53.2467 -25.7377 86.7593 -0.684557 80.5773 4.84664C74.3954 10.3778 70.1657 30.5504 84.1564 60.8093Z" fill="url(#paint4_linear)"/>
</g>
</g>
</mask>
<g mask="url(#mask1)">
<path d="M103.973 152.645C107.503 141.109 115.433 116.715 118.912 111.42C122.392 106.126 126.544 94.1769 128.186 88.8645C135.18 88.054 152.411 84.0556 165.379 74.5457C174.597 67.7857 179.174 60.0489 181.147 54.5116L182.399 49.0599C182.321 50.3706 181.949 52.2592 181.147 54.5116L169.882 103.544L103.973 152.645Z" fill="url(#paint5_linear)"/>
</g>
<defs>
<linearGradient id="paint0_linear" x1="116.623" y1="119.083" x2="134.885" y2="90.0792" gradientUnits="userSpaceOnUse">
<stop/>
<stop offset="1" stop-opacity="0"/>
</linearGradient>
<linearGradient id="paint1_linear" x1="104.362" y1="155.298" x2="124.455" y2="124.286" gradientUnits="userSpaceOnUse">
<stop stop-opacity="0.49"/>
<stop offset="0.869792" stop-opacity="0"/>
</linearGradient>
<linearGradient id="paint2_linear" x1="58.9922" y1="172.927" x2="71.8712" y2="154.298" gradientUnits="userSpaceOnUse">
<stop/>
<stop offset="1" stop-opacity="0"/>
</linearGradient>
<linearGradient id="paint3_linear" x1="38.9307" y1="80.0058" x2="73.7447" y2="64.3883" gradientUnits="userSpaceOnUse">
<stop stop-opacity="0.26"/>
<stop offset="1" stop-opacity="0"/>
</linearGradient>
<linearGradient id="paint4_linear" x1="38.9307" y1="80.0058" x2="73.7447" y2="64.3883" gradientUnits="userSpaceOnUse">
<stop stop-opacity="0.26"/>
<stop offset="1" stop-opacity="0"/>
</linearGradient>
<linearGradient id="paint5_linear" x1="161.991" y1="123.574" x2="131.557" y2="100.852" gradientUnits="userSpaceOnUse">
<stop stop-color="#0C0C0C"/>
<stop offset="1" stop-opacity="0"/>
</linearGradient>
<clipPath id="clip0">
<rect x="0.884018" y="59.172" width="203" height="202" fill="white"/>
</clipPath>
<clipPath id="clip1">
<rect x="42.7434" y="138.821" width="38" height="39" fill="white"/>
</clipPath>
<clipPath id="clip2">
<rect x="13.884" y="0.445557" width="180" height="152" fill="white"/>
</clipPath>
<clipPath id="clip3">
<rect x="13.884" y="0.445557" width="180" height="152" fill="white"/>
</clipPath>
</defs>
</svg>
