<svg width="286" height="232" viewBox="0 0 286 232" fill="none" xmlns="http://www.w3.org/2000/svg">
<g clip-path="url(#clip0)">
<path d="M250.304 120.139C243.924 116.455 235.456 114.426 226.461 114.427C217.467 114.427 209.022 116.456 202.683 120.139L165.342 141.839L168.499 143.662L205.84 121.962C217.197 115.362 235.737 115.362 247.168 121.961C258.6 128.562 258.659 139.3 247.303 145.9L209.962 167.601L213.119 169.424L250.46 147.723C256.799 144.039 260.273 139.141 260.244 133.931C260.215 128.721 256.685 123.823 250.304 120.139Z" fill="#3E3D43"/>
<path d="M165.995 136.995L148.382 147.231V152.404L157.602 157.727L175.215 147.491V142.319L165.995 136.995Z" fill="#3E3D43"/>
<path d="M157.602 152.554L175.215 142.319V147.491L157.602 157.727V152.554Z" fill="#2E2E30"/>
<path d="M148.382 147.231L165.995 136.995L175.215 142.319L157.602 152.554L148.382 147.231Z" fill="#57565C"/>
<path d="M150.107 149.559L144.244 152.966V155.682L150.16 159.097L156.015 155.69L156.022 152.974L150.107 149.559ZM149.955 158.749L149.961 158.745V158.749H149.955Z" fill="#898890"/>
<path d="M144.441 153.314L150.304 149.907L150.298 152.154L144.441 155.562V153.314Z" fill="#77767E"/>
<path d="M149.704 157.412L155.566 154.005L155.564 154.853L149.704 158.26V157.412Z" fill="#2E2E30"/>
<path d="M144.698 154.522L150.56 151.115L155.566 154.005L149.704 157.412L144.698 154.522Z" fill="#57565C"/>
<path d="M144.244 152.966L150.16 156.381V159.097L144.244 155.682V152.966ZM149.961 158.749V156.501L144.441 153.314V155.562L149.955 158.748" fill="#ACABB1"/>
<path d="M149.704 157.412V158.26L144.698 155.369V154.522L149.704 157.412Z" fill="#3E3D43"/>
<path d="M150.16 156.381L156.022 152.974L156.015 155.69L150.16 159.097V156.381Z" fill="#898890"/>
<path d="M144.244 152.966L150.107 149.559L156.022 152.974L150.16 156.381L144.244 152.966Z" fill="#C6C5CB"/>
<path d="M149.178 152.638C149.209 152.656 149.21 152.686 149.179 152.704L148.18 153.284C148.149 153.302 148.098 153.302 148.067 153.284L146.753 152.525C146.722 152.507 146.721 152.478 146.752 152.46L147.751 151.879C147.782 151.861 147.833 151.862 147.864 151.879L149.178 152.638ZM151.843 154.177L150.529 153.418C150.497 153.4 150.447 153.4 150.416 153.418L149.417 153.998C149.386 154.016 149.386 154.046 149.418 154.064L150.732 154.823C150.763 154.841 150.814 154.841 150.845 154.823L151.843 154.242C151.875 154.224 151.874 154.195 151.843 154.177Z" fill="#77767E"/>
<path d="M148.067 153.284C148.098 153.302 148.149 153.302 148.18 153.284L149.178 152.704C149.209 152.686 149.209 152.657 149.178 152.639L148.556 152.28L147.444 152.925L148.067 153.284Z" fill="#57565C"/>
<path d="M150.845 154.823L151.843 154.242C151.875 154.225 151.874 154.195 151.843 154.177L150.529 153.418C150.497 153.4 150.447 153.4 150.416 153.418L149.417 153.999C149.386 154.017 149.386 154.046 149.418 154.064L150.732 154.823C150.763 154.841 150.813 154.841 150.845 154.823Z" fill="#57565C"/>
<path d="M166.413 141.716C165.845 141.388 164.928 141.388 164.364 141.716C163.911 141.979 163.825 142.374 164.103 142.689L161.799 144.028H158.545C158.426 144.028 158.312 144.056 158.228 144.104L157.368 144.604L157.007 144.395L155.656 145.18L157.016 145.965L158.366 145.18L158.005 144.972L158.734 144.548H160.904L157.342 146.618L156.641 146.213L155.925 147.78L158.628 147.36L157.979 146.986L163.28 143.906L163.286 145.101L161.827 145.949C161.421 145.857 160.942 145.905 160.615 146.095C160.176 146.351 160.178 146.765 160.62 147.02C161.063 147.275 161.777 147.275 162.217 147.02C162.544 146.83 162.626 146.552 162.464 146.317L164.055 145.393C164.139 145.345 164.186 145.279 164.185 145.209L164.175 143.386L164.741 143.057C165.285 143.217 165.967 143.166 166.42 142.902C166.983 142.574 166.981 142.043 166.413 141.716Z" fill="#3E3D43"/>
<path d="M212.265 162.025L199.847 169.242V172.889L206.347 176.642L218.766 169.425V165.778L212.265 162.025Z" fill="#3E3D43"/>
<path d="M206.348 172.995L218.766 165.778V169.425L206.348 176.642V172.995Z" fill="#2E2E30"/>
<path d="M199.847 169.242L212.265 162.025L218.766 165.778L206.347 172.995L199.847 169.242Z" fill="#57565C"/>
<path d="M201.063 170.883L196.93 173.285V175.2L201.1 177.608L205.228 175.205L205.234 173.291L201.063 170.883ZM200.956 177.362L200.96 177.36V177.362H200.956Z" fill="#898890"/>
<path d="M197.069 173.53L201.202 171.128L201.198 172.713L197.069 175.115V173.53Z" fill="#77767E"/>
<path d="M200.779 176.42L204.912 174.018L204.911 174.615L200.779 177.017V176.42Z" fill="#2E2E30"/>
<path d="M197.249 174.382L201.383 171.98L204.913 174.018L200.779 176.42L197.249 174.382Z" fill="#57565C"/>
<path d="M196.93 173.285L201.1 175.693V177.608L196.93 175.2V173.285V173.285ZM200.96 177.362V175.777L197.069 173.53V175.115L200.956 177.362" fill="#ACABB1"/>
<path d="M200.779 176.42V177.017L197.249 174.98V174.382L200.779 176.42Z" fill="#3E3D43"/>
<path d="M201.1 175.693L205.234 173.291L205.229 175.205L201.1 177.608V175.693Z" fill="#898890"/>
<path d="M196.93 173.285L201.063 170.883L205.234 173.291L201.1 175.693L196.93 173.285Z" fill="#C6C5CB"/>
<path d="M200.409 173.054C200.431 173.067 200.431 173.087 200.409 173.1L199.704 173.51C199.682 173.522 199.647 173.522 199.625 173.51L198.698 172.975C198.676 172.962 198.676 172.941 198.698 172.928L199.402 172.519C199.424 172.506 199.46 172.506 199.482 172.519L200.409 173.054ZM202.287 174.139L201.36 173.604C201.338 173.591 201.303 173.591 201.281 173.604L200.576 174.013C200.554 174.026 200.555 174.047 200.577 174.06L201.504 174.595C201.526 174.607 201.561 174.607 201.583 174.595L202.287 174.185C202.309 174.172 202.309 174.151 202.287 174.139Z" fill="#77767E"/>
<path d="M199.625 173.509C199.647 173.522 199.682 173.522 199.704 173.509L200.409 173.1C200.431 173.087 200.43 173.067 200.408 173.054L199.97 172.801L199.186 173.256L199.625 173.509Z" fill="#57565C"/>
<path d="M201.583 174.594L202.288 174.185C202.31 174.172 202.309 174.151 202.287 174.139L201.361 173.604C201.339 173.591 201.303 173.591 201.281 173.604L200.577 174.013C200.555 174.026 200.555 174.046 200.577 174.059L201.504 174.594C201.526 174.607 201.561 174.607 201.583 174.594Z" fill="#57565C"/>
<path d="M212.56 165.352C212.16 165.121 211.513 165.121 211.116 165.352C210.796 165.538 210.735 165.817 210.931 166.039L209.307 166.983H207.012C206.928 166.983 206.848 167.002 206.789 167.036L206.182 167.389L205.928 167.242L204.975 167.795L205.934 168.348L206.886 167.795L206.632 167.648L207.145 167.349H208.675L206.164 168.809L205.669 168.523L205.164 169.628L207.07 169.332L206.612 169.068L210.35 166.896L210.355 167.739L209.326 168.337C209.04 168.272 208.702 168.306 208.471 168.44C208.162 168.62 208.163 168.912 208.475 169.092C208.787 169.272 209.291 169.272 209.6 169.092C209.831 168.958 209.889 168.762 209.775 168.596L210.896 167.945C210.955 167.91 210.989 167.864 210.988 167.815L210.981 166.529L211.38 166.297C211.764 166.41 212.245 166.374 212.564 166.188C212.962 165.958 212.96 165.584 212.56 165.352Z" fill="#3E3D43"/>
</g>
<g clip-path="url(#clip1)">
<path d="M160.163 131.652L150.396 133.803L196.398 159.564L204.387 156.785L160.163 131.652Z" fill="url(#paint0_linear)"/>
<path d="M141.195 102.047L120.424 106.622L218.261 161.412L235.253 155.501L141.195 102.047Z" fill="url(#paint1_linear)"/>
<path d="M187.033 120.881L146.104 96.9576L142.464 100.079L150.561 134.061L130.91 145.472L130.922 149.8L171.852 173.724L196.248 159.557L187.033 120.881Z" fill="#D8D8DA"/>
<path d="M171.852 173.724L130.922 149.8L130.91 145.472L171.839 169.396L171.852 173.724Z" fill="#C6C5CB"/>
<path d="M191.49 157.984L150.561 134.061L142.465 100.079L183.394 124.003L191.49 157.984Z" fill="#ACABB1"/>
<path d="M183.394 124.003L142.465 100.079L146.104 96.9576L187.033 120.881L183.394 124.003Z" fill="#77767E"/>
<path d="M187.033 120.881L196.248 159.557L171.852 173.724L171.839 169.396L191.49 157.984L183.393 124.003L187.033 120.881Z" fill="#898890"/>
<path d="M222.618 58.0208L119.401 0.72403L109.635 2.87504L109.636 2.87572L109.635 92.5698V104.603L214.6 167.045L214.601 70.0132V60.7868L132.77 15.6389L214.629 60.8L216.228 60.2441L214.601 60.8158L214.602 167.005L222.541 162.7L222.554 58.0435L222.618 58.0208Z" fill="#C6C5CB"/>
<path d="M155.621 123.121C154.289 122.347 153.205 122.969 153.2 124.509C153.196 126.049 154.273 127.925 155.606 128.699C156.938 129.473 158.022 128.851 158.027 127.311C158.031 125.771 156.954 123.895 155.621 123.121Z" fill="#1D1D1F"/>
<path d="M214.601 60.8158L214.602 167.005L222.541 162.7L222.553 58.0208L214.601 60.8158Z" fill="#ACABB1"/>
<path d="M217.428 85.275L217.429 128.699L220.675 126.939L220.68 84.132L217.428 85.275Z" fill="#3E3D43"/>
<path d="M218.269 85.9573L218.269 127.227L219.837 126.377L219.84 85.4053L218.269 85.9573Z" fill="#1D1D1F"/>
<path d="M119.401 0.72403L109.635 2.87504L214.629 60.8L222.618 58.0208L119.401 0.72403Z" fill="#D8D8DA"/>
<path d="M119.401 0.72403L109.635 2.87504L214.629 60.8L222.618 58.0208L119.401 0.72403Z" fill="#CCCCCD"/>
<path d="M214.6 153.45L109.635 92.5698L109.636 2.87507L214.601 60.7868L214.6 153.45Z" fill="#1D1D1F"/>
<path d="M209.965 144.754L113.428 88.4134L113.429 9.67068L209.966 63.0432L209.965 144.754Z" fill="#409DF8"/>
<path d="M201.257 113.046L151.381 83.9375L151.381 43.2549L201.257 70.8299L201.257 113.046Z" fill="#FA6B7F"/>
<path d="M201.257 125.009L151.381 95.9006L151.381 55.218L201.257 82.7931L201.257 125.009Z" fill="white"/>
<path d="M187.033 106.667L154.47 87.6625L154.47 61.1021L187.033 79.105L187.033 106.667Z" fill="#1D1D1F"/>
<path d="M174.586 99.4198L162.932 92.6182L162.932 86.5031C162.932 84.98 164.566 84.0159 165.899 84.7528L170.457 87.2725C173.005 88.6811 174.586 91.3625 174.586 94.2738L174.586 99.4198Z" fill="#36C7CC"/>
<path d="M166.985 88.6095C165.952 87.3916 166.554 85.9647 166.985 85.4034L169.338 86.6951C169.807 86.895 170.814 87.3824 171.091 87.733C171.437 88.1712 170.975 89.6935 170.168 90.2932C169.361 90.8929 168.277 90.1318 166.985 88.6095Z" fill="#67D4D5"/>
<path d="M171.843 84.3115C171.843 85.7812 170.249 86.6968 168.98 85.956V85.956C166.933 84.7615 165.674 82.5699 165.674 80.2001L165.674 76.9648C165.674 75.6408 167.095 74.8028 168.254 75.4434V75.4434C170.469 76.6678 171.843 78.9987 171.843 81.5293L171.843 84.3115Z" fill="#FFB657"/>
<path d="M170.242 87.8276C170.242 88.5009 169.511 88.9203 168.93 88.5809V88.5809C167.992 88.0338 167.416 87.0299 167.416 85.9443L167.416 84.4624C167.416 83.8559 168.067 83.472 168.598 83.7654V83.7654C169.612 84.3263 170.242 85.394 170.242 86.5532L170.242 87.8276Z" fill="#FFB657"/>
<path d="M199.54 114.031L187.661 106.838L187.662 79.5488L199.54 85.9993L199.54 114.031Z" fill="#C6C5CB"/>
<path d="M197.996 77.1086L200.059 85.3344L201.276 82.6793L204.244 82.9961L197.996 77.1086Z" fill="white"/>
<path d="M200.058 84.7734L198.248 77.4155L203.728 82.6823L201.125 82.3983L200.058 84.7734ZM197.594 76.2819L198.384 79.4888L200.016 86.1228L201.441 82.9495L204.92 83.3279L199.981 78.5782L197.594 76.2819Z" fill="#010101"/>
<path d="M167.424 77.5883C168.548 77.8208 169.12 76.6197 169.265 75.99C169.426 75.7479 168.864 74.6557 167.004 74.0357C164.679 73.2608 163.929 75.5153 163.59 77.4042C163.319 78.9153 165.347 81.9129 165.896 82.4456C165.831 81.4447 165.741 78.8316 165.896 78.4441C166.09 77.9598 166.02 77.2977 167.424 77.5883Z" fill="#3E3D43"/>
<path d="M169.993 76.9361C169.791 76.9812 169.026 76.6354 168.669 76.4569C167.447 76.4569 165.23 76.051 166.132 74.4275C167.259 72.3981 169.204 73.9201 170.98 74.1456C172.756 74.3711 174.475 78.9373 174.56 80.1211C174.644 81.3049 172.784 84.2362 172.586 84.4053C172.389 84.5745 173.432 81.4458 173.319 80.3184C173.207 79.1909 170.247 76.8797 169.993 76.9361Z" fill="#3E3D43"/>
<path d="M169.909 79.5489C169.095 78.509 169.276 77.1073 169.253 76.7456C169.381 76.4216 169.922 75.7961 171.062 75.8865C172.486 75.9996 173.774 79.8654 174.317 81.0862C174.86 82.307 174.091 85.3816 172.757 85.7885C171.69 86.1141 170.233 87.0093 169.637 87.4163C169.984 86.9566 170.79 85.9875 171.242 85.7885C171.808 85.5399 172.667 83.6408 171.378 84.4773C170.347 85.1465 169.05 84.937 168.53 84.7486C168.861 84.7185 169.669 84.5406 170.248 84.0704C170.971 83.4826 170.723 80.5889 169.909 79.5489Z" fill="#3E3D43"/>
<path d="M171.835 93.3901L171.121 97.3932L171.835 97.8522V93.3901Z" fill="#00A6A8"/>
</g>
<mask id="mask0" mask-type="alpha" maskUnits="userSpaceOnUse" x="201" y="78" width="85" height="96">
<path d="M219.259 125.712L219.259 87.3327L273.86 92.479L265.508 173.582L219.259 125.712Z" fill="#C4C4C4"/>
</mask>
<g mask="url(#mask0)">
<path d="M233.872 110.076C233.795 110.204 233.731 110.354 233.683 110.527C233.737 110.512 233.791 110.497 233.845 110.482C233.893 110.309 233.957 110.159 234.034 110.032C233.985 110.045 233.92 110.063 233.872 110.076Z" fill="#67D4D5"/>
<path d="M233.635 110.735C233.69 110.72 233.744 110.705 233.798 110.69C233.811 110.62 233.827 110.551 233.845 110.483C233.845 110.483 233.845 110.482 233.846 110.482C233.791 110.497 233.737 110.512 233.683 110.527C233.683 110.527 233.683 110.528 233.683 110.528C233.664 110.595 233.648 110.664 233.635 110.735Z" fill="#67D4D5"/>
<path d="M233.635 110.734C233.623 110.8 233.614 110.867 233.606 110.935C233.661 110.92 233.715 110.905 233.769 110.89C233.777 110.822 233.786 110.756 233.798 110.69C233.744 110.705 233.69 110.72 233.635 110.734Z" fill="#67D4D5"/>
<path d="M234.547 113.789C234.686 113.927 234.827 114.032 234.967 114.106L235.13 114.062C234.99 113.988 234.848 113.883 234.71 113.745C234.041 113.079 233.662 111.877 233.77 110.891C233.739 110.9 233.709 110.908 233.678 110.916C233.675 110.917 233.67 110.918 233.667 110.919C233.661 110.921 233.652 110.923 233.646 110.925C233.64 110.927 233.632 110.929 233.626 110.931C233.62 110.932 233.612 110.932 233.607 110.936C233.499 111.922 233.879 113.123 234.547 113.789Z" fill="#67D4D5"/>
<path d="M229.103 129.621L228.941 129.665C229.285 129.571 229.691 129.704 230.075 130.088C230.213 130.226 230.339 130.387 230.451 130.565L230.613 130.52C230.501 130.343 230.376 130.181 230.237 130.043C229.853 129.66 229.448 129.526 229.103 129.621Z" fill="#00A6A8"/>
<path d="M220.155 96.1723L219.993 96.2167L233.871 110.076L234.033 110.032L220.155 96.1723Z" fill="#67D4D5"/>
<path d="M214.374 117.239L214.212 117.284L228.09 131.143L228.252 131.099L214.374 117.239Z" fill="#00A6A8"/>
<path d="M229.103 129.621L228.941 129.665C228.6 129.758 228.319 130.074 228.178 130.59C228.13 130.764 228.101 130.951 228.09 131.143L228.252 131.099C228.264 130.906 228.292 130.72 228.34 130.545C228.481 130.029 228.762 129.714 229.103 129.621Z" fill="#67D4D5"/>
<path d="M220.562 119.648L220.724 119.604C222.63 119.082 224.203 117.317 224.996 114.427L224.834 114.472C224.041 117.362 222.468 119.127 220.562 119.648Z" fill="#00A6A8"/>
<path d="M214.211 117.284C216.351 119.421 218.613 120.171 220.539 119.655L220.701 119.61C218.776 120.126 216.514 119.377 214.374 117.239C214.325 117.253 214.26 117.27 214.211 117.284Z" fill="#67D4D5"/>
<path d="M220.155 96.1721L219.993 96.2166C224.263 100.481 226.431 108.654 224.834 114.472L224.996 114.427C226.593 108.61 224.425 100.437 220.155 96.1721Z" fill="#00A6A8"/>
<path d="M206.277 82.3123L206.115 82.3567L219.993 96.2166L220.155 96.1722L206.277 82.3123Z" fill="#67D4D5"/>
<path d="M213.804 93.8072L213.642 93.8516C215.572 93.3232 217.844 94.0706 219.993 96.2166L220.155 96.1722C218.006 94.0261 215.735 93.2787 213.804 93.8072Z" fill="#00A6A8"/>
<path d="M213.665 93.8451C211.749 94.3586 210.166 96.1263 209.37 99.0283C209.424 99.0135 209.478 98.9986 209.532 98.9839C210.329 96.0819 211.911 94.3142 213.828 93.8007C213.779 93.8141 213.714 93.8319 213.665 93.8451Z" fill="#67D4D5"/>
<path d="M205.262 83.8343L205.425 83.7898C205.766 83.6964 206.047 83.3811 206.189 82.865C206.238 82.6912 206.266 82.5052 206.278 82.3127L206.115 82.3572C206.104 82.5499 206.075 82.7357 206.027 82.9097C205.885 83.4256 205.603 83.7409 205.262 83.8343Z" fill="#00A6A8"/>
<path d="M200.493 103.39L200.33 103.435L214.214 117.273L214.376 117.228L200.493 103.39Z" fill="#00A6A8"/>
<path d="M208.964 101.162C208.307 106.71 210.437 113.519 214.212 117.28L214.375 117.236C210.6 113.474 208.47 106.665 209.126 101.118C209.072 101.133 209.018 101.148 208.964 101.162Z" fill="#67D4D5"/>
<path d="M214.158 117.23C214.175 117.248 214.193 117.266 214.211 117.284L214.374 117.239C214.356 117.221 214.338 117.203 214.32 117.185C214.266 117.2 214.212 117.215 214.158 117.23Z" fill="#67D4D5"/>
<path d="M209.371 99.0288C209.183 99.7104 209.047 100.424 208.96 101.16C209.014 101.145 209.068 101.13 209.123 101.116C209.21 100.38 209.346 99.666 209.534 98.9843C209.48 98.9992 209.426 99.014 209.371 99.0288Z" fill="#67D4D5"/>
<path d="M205.264 83.8336L205.426 83.7891C205.081 83.8837 204.675 83.7507 204.291 83.3682C204.153 83.2303 204.027 83.0691 203.916 82.892L203.753 82.9366C203.865 83.1137 203.991 83.2748 204.129 83.4127C204.513 83.7952 204.919 83.9282 205.264 83.8336Z" fill="#67D4D5"/>
<path d="M212.148 114.684C212.749 115.627 213.422 116.486 214.159 117.229C214.213 117.214 214.267 117.199 214.321 117.184C213.585 116.441 212.911 115.582 212.31 114.639C212.256 114.654 212.202 114.669 212.148 114.684Z" fill="#67D4D5"/>
<path d="M212.148 114.683C212.202 114.668 212.256 114.653 212.31 114.638C212.293 114.611 212.276 114.583 212.259 114.556C212.204 114.571 212.15 114.586 212.096 114.6C212.113 114.628 212.13 114.655 212.148 114.683Z" fill="#67D4D5"/>
<path d="M212.078 114.574C212.084 114.583 212.089 114.592 212.095 114.601C212.15 114.586 212.204 114.571 212.259 114.556C212.253 114.547 212.247 114.538 212.241 114.529C212.187 114.544 212.133 114.559 212.078 114.574Z" fill="#67D4D5"/>
<path d="M212.131 114.558C212.168 114.548 212.205 114.538 212.242 114.528C211.654 113.592 211.137 112.576 210.699 111.51C210.645 111.525 210.591 111.54 210.536 111.555C210.975 112.62 211.492 113.637 212.079 114.573C212.088 114.571 212.096 114.568 212.104 114.566C212.109 114.565 212.113 114.563 212.118 114.562C212.122 114.561 212.127 114.56 212.131 114.558Z" fill="#67D4D5"/>
<path d="M210.536 111.554C210.59 111.539 210.645 111.524 210.699 111.509C210.695 111.499 210.69 111.488 210.686 111.478C210.632 111.493 210.577 111.508 210.523 111.522C210.527 111.533 210.532 111.543 210.536 111.554Z" fill="#67D4D5"/>
<path d="M210.504 111.476C210.511 111.492 210.517 111.507 210.523 111.523C210.578 111.508 210.632 111.493 210.686 111.478C210.68 111.463 210.674 111.447 210.667 111.431C210.618 111.444 210.553 111.462 210.504 111.476Z" fill="#67D4D5"/>
<path d="M210.432 111.298C210.456 111.358 210.48 111.417 210.504 111.476L210.667 111.431C210.643 111.372 210.62 111.313 210.596 111.254C210.541 111.268 210.487 111.283 210.432 111.298Z" fill="#67D4D5"/>
<path d="M210.488 111.285C210.524 111.275 210.56 111.265 210.597 111.255C210.593 111.245 210.589 111.236 210.585 111.226C210.531 111.241 210.476 111.256 210.422 111.27C210.426 111.28 210.43 111.29 210.433 111.3C210.451 111.295 210.469 111.29 210.488 111.285Z" fill="#67D4D5"/>
<path d="M209.132 106.6C209.157 106.752 209.183 106.904 209.211 107.055C209.265 107.041 209.32 107.026 209.374 107.011C209.346 106.859 209.319 106.707 209.294 106.555C209.245 106.569 209.18 106.587 209.132 106.6Z" fill="#67D4D5"/>
<path d="M209.211 107.055C209.212 107.063 209.214 107.071 209.215 107.079C209.269 107.064 209.324 107.049 209.378 107.034C209.377 107.026 209.375 107.018 209.374 107.011C209.319 107.026 209.265 107.041 209.211 107.055Z" fill="#67D4D5"/>
<path d="M209.301 107.513C209.355 107.498 209.41 107.483 209.464 107.469C209.434 107.324 209.405 107.179 209.378 107.034C209.324 107.049 209.27 107.064 209.216 107.079C209.243 107.224 209.271 107.368 209.301 107.513Z" fill="#67D4D5"/>
<path d="M209.929 109.891C210.079 110.357 210.244 110.818 210.423 111.27C210.477 111.256 210.531 111.241 210.585 111.226C210.406 110.773 210.241 110.313 210.091 109.846C210.043 109.86 209.977 109.877 209.929 109.891Z" fill="#67D4D5"/>
<path d="M209.301 107.513C209.314 107.577 209.328 107.642 209.342 107.707L209.505 107.662C209.491 107.598 209.477 107.533 209.463 107.468C209.409 107.483 209.355 107.498 209.301 107.513Z" fill="#67D4D5"/>
<path d="M220.169 96.1756C215.897 91.9173 211.133 93.1803 209.529 98.9956C209.341 99.6771 209.205 100.391 209.118 101.127C208.461 106.671 210.589 113.476 214.36 117.236C218.632 121.494 223.396 120.231 225 114.415C226.604 108.6 224.441 100.434 220.169 96.1756Z" fill="#67D4D5"/>
<path d="M199.399 99.3482L199.237 99.3926C199.377 99.4668 199.518 99.572 199.657 99.7102C200.42 100.472 200.807 101.932 200.522 102.971C200.474 103.145 200.41 103.296 200.333 103.424L200.495 103.379C200.572 103.251 200.636 103.101 200.684 102.926C200.969 101.888 200.582 100.427 199.819 99.6658C199.68 99.5277 199.539 99.4226 199.399 99.3482Z" fill="#00A6A8"/>
<path d="M237.124 111.361L203.943 78.2257L197.405 102.049L230.586 135.185L237.124 111.361ZM199.399 99.3482L203.916 82.8907C204.028 83.0681 204.153 83.2295 204.292 83.3677C205.054 84.1294 205.904 83.9043 206.189 82.8651C206.237 82.691 206.265 82.505 206.277 82.3121L220.156 96.1719L234.033 110.031C233.957 110.159 233.893 110.31 233.845 110.484C233.56 111.523 233.947 112.984 234.71 113.745C234.848 113.883 234.989 113.988 235.13 114.063L230.613 130.52C230.501 130.343 230.376 130.181 230.237 130.043C229.475 129.281 228.625 129.506 228.34 130.545C228.292 130.72 228.264 130.906 228.252 131.099L214.374 117.239C212.842 115.71 211.581 113.677 210.667 111.431C211.581 113.677 212.842 115.709 214.373 117.239L200.495 103.379C200.572 103.251 200.636 103.101 200.684 102.926C200.969 101.887 200.582 100.427 199.819 99.6656C199.68 99.5275 199.539 99.4225 199.399 99.3482Z" fill="#67D4D5"/>
<path d="M220.155 96.1721C224.425 100.437 226.593 108.61 224.996 114.427C223.4 120.244 218.644 121.504 214.374 117.239L228.252 131.099C228.263 130.906 228.292 130.72 228.34 130.545C228.625 129.506 229.474 129.282 230.237 130.043C230.376 130.181 230.501 130.343 230.613 130.52L235.13 114.063C234.99 113.989 234.848 113.883 234.71 113.745C233.947 112.983 233.56 111.523 233.845 110.484C233.893 110.31 233.957 110.16 234.033 110.032L220.155 96.1721Z" fill="#00A6A8"/>
<path d="M235.14 114.066L230.603 130.517C230.569 130.464 230.531 130.415 230.495 130.364L234.978 114.11L235.14 114.066Z" fill="#67D4D5"/>
<path d="M209.294 106.555C209.355 106.925 209.425 107.294 209.505 107.662C209.425 107.294 209.355 106.925 209.294 106.555Z" fill="#67D4D5"/>
<path d="M203.926 82.8936L203.764 82.9382L199.226 99.3898L199.389 99.3451L203.926 82.8936Z" fill="#00A6A8"/>
<path d="M206.272 82.3118C206.26 82.5046 206.232 82.6905 206.184 82.8644C205.897 83.9035 205.046 84.129 204.283 83.3687C204.145 83.2306 204.019 83.0694 203.907 82.8923L199.37 99.3442C199.51 99.4182 199.651 99.5232 199.79 99.6612C200.553 100.422 200.939 101.881 200.653 102.919C200.605 103.093 200.54 103.244 200.464 103.372L214.347 117.21C210.576 113.451 208.449 106.646 209.105 101.102C209.193 100.366 209.329 99.652 209.517 98.9703C211.121 93.155 215.884 91.892 220.156 96.1503L206.272 82.3118Z" fill="#00A6A8"/>
<path d="M233.249 99.578C233.208 99.7234 233.184 99.8874 233.183 100.07C233.232 100.042 233.281 100.013 233.331 99.984C233.332 99.801 233.355 99.6369 233.397 99.4915C233.353 99.5176 233.294 99.5521 233.249 99.578Z" fill="#67D4D5"/>
<path d="M233.191 100.287C233.24 100.258 233.29 100.229 233.339 100.201C233.333 100.128 233.33 100.056 233.331 99.9847C233.331 99.9843 233.331 99.9839 233.331 99.9836C233.281 100.012 233.232 100.041 233.183 100.07C233.183 100.071 233.183 100.071 233.183 100.071C233.182 100.143 233.185 100.215 233.191 100.287Z" fill="#67D4D5"/>
<path d="M233.191 100.287C233.196 100.354 233.204 100.422 233.215 100.491C233.264 100.462 233.314 100.433 233.363 100.404C233.352 100.336 233.344 100.268 233.339 100.2C233.29 100.229 233.24 100.258 233.191 100.287Z" fill="#67D4D5"/>
<path d="M234.89 103.046C235.062 103.146 235.229 103.211 235.386 103.247L235.534 103.161C235.377 103.125 235.21 103.059 235.038 102.96C234.206 102.482 233.517 101.402 233.364 100.405C233.336 100.422 233.308 100.438 233.28 100.454C233.277 100.456 233.273 100.458 233.27 100.46C233.265 100.463 233.257 100.468 233.251 100.471C233.246 100.474 233.238 100.479 233.233 100.482C233.228 100.485 233.219 100.487 233.216 100.492C233.37 101.489 234.059 102.568 234.89 103.046Z" fill="#67D4D5"/>
<path d="M233.709 120.026L233.562 120.112C233.875 119.929 234.309 119.953 234.787 120.228C234.959 120.328 235.125 120.453 235.281 120.598L235.429 120.511C235.273 120.367 235.107 120.241 234.934 120.142C234.457 119.867 234.023 119.842 233.709 120.026Z" fill="#00A6A8"/>
<path d="M216.122 89.5336L215.974 89.6199L233.249 99.5781L233.397 99.4918L216.122 89.5336Z" fill="#67D4D5"/>
<path d="M215.987 111.743L215.84 111.829L233.115 121.787L233.263 121.701L215.987 111.743Z" fill="#00A6A8"/>
<path d="M233.709 120.026L233.562 120.112C233.252 120.293 233.059 120.677 233.056 121.221C233.055 121.405 233.076 121.595 233.115 121.787L233.263 121.701C233.223 121.509 233.202 121.318 233.203 121.134C233.206 120.59 233.399 120.207 233.709 120.026Z" fill="#67D4D5"/>
<path d="M222.698 112.48L222.846 112.394C224.58 111.38 225.66 109.233 225.679 106.186L225.531 106.272C225.513 109.319 224.433 111.466 222.698 112.48Z" fill="#00A6A8"/>
<path d="M215.84 111.829C218.503 113.365 220.922 113.506 222.677 112.493L222.824 112.406C221.07 113.419 218.651 113.278 215.987 111.743C215.943 111.769 215.884 111.803 215.84 111.829Z" fill="#67D4D5"/>
<path d="M216.121 89.5335L215.974 89.6198C221.289 92.6839 225.568 100.14 225.531 106.272L225.679 106.186C225.716 100.053 221.437 92.5975 216.121 89.5335Z" fill="#00A6A8"/>
<path d="M198.846 79.5749L198.698 79.6612L215.974 89.6198L216.122 89.5335L198.846 79.5749Z" fill="#67D4D5"/>
<path d="M209.262 88.8822L209.115 88.9685C210.871 87.9417 213.299 88.0779 215.974 89.6198L216.122 89.5335C213.447 87.9915 211.019 87.8554 209.262 88.8822Z" fill="#00A6A8"/>
<path d="M209.136 88.956C207.39 89.9644 206.3 92.1168 206.282 95.1761C206.331 95.1474 206.38 95.1185 206.43 95.0898C206.448 92.0305 207.537 89.8781 209.284 88.8697C209.24 88.8956 209.181 88.9303 209.136 88.956Z" fill="#67D4D5"/>
<path d="M198.712 101.795L198.564 101.882L215.839 111.818L215.987 111.731L198.712 101.795Z" fill="#00A6A8"/>
<path d="M206.444 97.3788C207.259 102.999 211.142 109.125 215.839 111.826L215.987 111.739C211.29 109.038 207.407 102.913 206.592 97.2923C206.543 97.321 206.494 97.35 206.444 97.3788Z" fill="#67D4D5"/>
<path d="M215.773 111.79C215.795 111.803 215.817 111.816 215.839 111.829L215.987 111.742C215.965 111.73 215.943 111.717 215.921 111.704C215.871 111.733 215.822 111.762 215.773 111.79Z" fill="#67D4D5"/>
<path d="M206.283 95.1763C206.278 95.895 206.332 96.6317 206.44 97.3775C206.489 97.3487 206.539 97.3198 206.588 97.291C206.48 96.5454 206.426 95.8086 206.431 95.0898C206.382 95.1186 206.332 95.1475 206.283 95.1763Z" fill="#67D4D5"/>
<path d="M213.129 109.819C213.967 110.587 214.855 111.253 215.773 111.789C215.823 111.76 215.872 111.731 215.921 111.702C215.002 111.167 214.115 110.5 213.277 109.732C213.227 109.761 213.178 109.79 213.129 109.819Z" fill="#67D4D5"/>
<path d="M213.129 109.818C213.178 109.789 213.227 109.76 213.277 109.731C213.252 109.709 213.228 109.687 213.204 109.664C213.155 109.693 213.105 109.722 213.056 109.751C213.08 109.773 213.104 109.795 213.129 109.818Z" fill="#67D4D5"/>
<path d="M213.032 109.729C213.04 109.736 213.048 109.744 213.056 109.751C213.105 109.722 213.155 109.693 213.204 109.665C213.196 109.657 213.188 109.65 213.18 109.642C213.131 109.671 213.082 109.7 213.032 109.729Z" fill="#67D4D5"/>
<path d="M213.08 109.7C213.113 109.68 213.147 109.661 213.18 109.641C212.357 108.877 211.582 108.015 210.871 107.084C210.822 107.113 210.773 107.141 210.723 107.17C211.434 108.101 212.21 108.963 213.033 109.728C213.04 109.723 213.048 109.719 213.055 109.714C213.059 109.712 213.063 109.71 213.067 109.707C213.072 109.705 213.076 109.702 213.08 109.7Z" fill="#67D4D5"/>
<path d="M210.723 107.169C210.772 107.14 210.822 107.111 210.871 107.083C210.864 107.073 210.857 107.064 210.85 107.055C210.801 107.084 210.751 107.113 210.702 107.142C210.709 107.151 210.716 107.16 210.723 107.169Z" fill="#67D4D5"/>
<path d="M210.671 107.101C210.682 107.115 210.692 107.128 210.702 107.142C210.752 107.113 210.801 107.084 210.85 107.056C210.84 107.042 210.829 107.028 210.819 107.014C210.775 107.04 210.716 107.075 210.671 107.101Z" fill="#67D4D5"/>
<path d="M210.555 106.946C210.594 106.998 210.632 107.05 210.671 107.101L210.819 107.015C210.78 106.963 210.742 106.911 210.703 106.859C210.654 106.888 210.604 106.917 210.555 106.946Z" fill="#67D4D5"/>
<path d="M210.604 106.918C210.637 106.898 210.67 106.879 210.703 106.86C210.697 106.851 210.691 106.843 210.684 106.834C210.635 106.863 210.586 106.892 210.536 106.921C210.543 106.929 210.549 106.938 210.555 106.946C210.572 106.937 210.588 106.927 210.604 106.918Z" fill="#67D4D5"/>
<path d="M208.04 102.674C208.104 102.817 208.17 102.959 208.238 103.1C208.287 103.072 208.337 103.043 208.386 103.014C208.318 102.872 208.252 102.73 208.188 102.588C208.143 102.613 208.084 102.648 208.04 102.674Z" fill="#67D4D5"/>
<path d="M208.238 103.1C208.241 103.108 208.245 103.115 208.248 103.122C208.297 103.093 208.347 103.064 208.396 103.036C208.393 103.028 208.389 103.021 208.386 103.014C208.336 103.043 208.287 103.072 208.238 103.1Z" fill="#67D4D5"/>
<path d="M208.447 103.526C208.496 103.497 208.545 103.468 208.594 103.44C208.527 103.306 208.461 103.171 208.396 103.036C208.347 103.065 208.298 103.093 208.248 103.122C208.313 103.257 208.379 103.392 208.447 103.526Z" fill="#67D4D5"/>
<path d="M209.689 105.696C209.959 106.115 210.242 106.524 210.537 106.921C210.586 106.892 210.635 106.863 210.685 106.834C210.39 106.437 210.107 106.028 209.837 105.61C209.792 105.635 209.733 105.67 209.689 105.696Z" fill="#67D4D5"/>
<path d="M208.446 103.526C208.476 103.586 208.507 103.646 208.538 103.706L208.686 103.619C208.655 103.56 208.624 103.499 208.594 103.439C208.545 103.468 208.496 103.497 208.446 103.526Z" fill="#67D4D5"/>
<path d="M216.136 89.5333C210.82 86.4758 206.474 88.9694 206.43 95.1021C206.424 95.8208 206.478 96.5575 206.586 97.3033C207.4 102.921 211.28 109.043 215.973 111.743C221.289 114.8 225.634 112.306 225.679 106.174C225.724 100.041 221.451 92.5905 216.136 89.5333Z" fill="#67D4D5"/>
<path d="M236.781 99.9844L195.479 76.1759L195.327 101.291L236.629 125.1L236.781 99.9844ZM196.575 98.1138L196.68 80.7642C196.836 80.909 197.002 81.0343 197.174 81.1337C198.124 81.6809 198.899 81.2364 198.905 80.1408C198.907 79.9572 198.885 79.7671 198.846 79.5747L216.122 89.5332L233.397 99.4915C233.355 99.6373 233.332 99.8017 233.331 99.9854C233.324 101.081 234.089 102.413 235.038 102.96C235.21 103.06 235.376 103.126 235.534 103.162L235.429 120.511C235.272 120.367 235.107 120.241 234.934 120.142C233.985 119.595 233.21 120.039 233.203 121.134C233.202 121.318 233.223 121.508 233.263 121.701L215.987 111.743C214.081 110.644 212.308 108.98 210.819 107.014C212.308 108.98 214.081 110.643 215.987 111.742L198.712 101.784C198.753 101.638 198.776 101.474 198.777 101.289C198.784 100.194 198.02 98.8622 197.07 98.3151C196.898 98.2159 196.732 98.1499 196.575 98.1138Z" fill="#67D4D5"/>
<path d="M216.121 89.5334C221.437 92.5975 225.716 100.053 225.679 106.186C225.642 112.319 221.303 114.807 215.987 111.743L233.263 121.701C233.223 121.509 233.202 121.318 233.203 121.134C233.21 120.039 233.985 119.595 234.934 120.142C235.107 120.241 235.272 120.367 235.429 120.511L235.534 103.162C235.377 103.126 235.21 103.06 235.038 102.96C234.089 102.413 233.324 101.081 233.331 99.9856C233.332 99.8022 233.355 99.6375 233.396 99.4917L216.121 89.5334Z" fill="#00A6A8"/>
<path d="M235.545 103.162L235.418 120.512C235.37 120.468 235.321 120.429 235.271 120.389L235.397 103.248L235.545 103.162Z" fill="#67D4D5"/>
<path d="M208.187 102.588C208.344 102.935 208.511 103.279 208.686 103.619C208.511 103.279 208.345 102.935 208.187 102.588Z" fill="#67D4D5"/>
<path d="M196.691 80.7642L196.543 80.8508L196.416 98.2001L196.564 98.1135L196.691 80.7642Z" fill="#00A6A8"/>
<path d="M198.841 79.5757C198.881 79.7681 198.901 79.9582 198.9 80.1416C198.892 81.2373 198.116 81.6827 197.166 81.1368C196.994 81.0377 196.828 80.9124 196.672 80.7679L196.545 98.1176C196.702 98.1534 196.868 98.2193 197.041 98.3184C197.99 98.8644 198.754 100.195 198.745 101.291C198.744 101.474 198.721 101.639 198.679 101.785L215.954 111.721C211.262 109.022 207.382 102.899 206.568 97.2818C206.46 96.5362 206.406 95.7994 206.411 95.0805C206.456 88.9478 210.801 86.4542 216.117 89.5117L198.841 79.5757Z" fill="#00A6A8"/>
</g>
<path d="M25.3445 131.786V127.229L145.717 82.0634L145.56 86.611L25.3445 131.786Z" fill="#ACABB1"/>
<path d="M1.50317 119.441V114.899L25.3382 127.325V131.884L1.50317 119.441Z" fill="#C6C5CB"/>
<path d="M25.1926 127.3L1.49906 114.806L123.638 69.376L145.51 82.2262L25.1926 127.3Z" fill="#CCCCCD"/>
<path d="M40.1977 211.075L16.5042 198.581L130.332 148.743L152.204 161.594L40.1977 211.075Z" fill="url(#paint2_radial)"/>
<g clip-path="url(#clip2)">
<path d="M96.8416 91.6031C96.5818 91.5534 95.9997 90.9599 95.9997 90.7942L106.652 85.0178L105.283 84.2395C101.957 85.7806 94.5883 89.1198 93.5489 89.6275C92.1801 90.2962 92.6035 89.496 92.2917 88.9989C92.0423 88.6012 103.904 83.1627 108.563 80.5113L114.453 83.6028C112.339 84.6302 108.315 86.0657 106.652 86.9804C104.573 88.1238 97.3613 91.7025 96.8416 91.6031Z" fill="url(#paint3_linear)" style="mix-blend-mode:multiply"/>
<path d="M95.4177 90.0714V91.5526C95.4177 91.5526 95.7563 92.0281 96.3911 91.8488C97.0259 91.6696 99.2514 90.5125 99.087 90.1497C98.687 89.2674 97.7189 89.8656 96.4888 89.9618C95.8117 90.0147 95.4177 90.0714 95.4177 90.0714Z" fill="#791900"/>
<path d="M91.9897 88.167V89.6483C91.9897 89.6483 92.3283 90.1237 92.9631 89.9445C93.5979 89.7652 95.88 88.5767 95.659 88.2453C95.0998 87.4068 94.2909 87.9612 93.0609 88.0574C92.3838 88.1104 91.9897 88.167 91.9897 88.167Z" fill="#791900"/>
<path d="M91.5725 73.7235L91.6405 75.0109C91.6405 75.0109 92.0689 75.2965 92.1165 75.3441C92.1642 75.3918 93.2249 75.0055 93.2249 74.8839C93.2249 74.7623 92.9893 74.0111 92.9893 73.9C92.9893 73.789 92.91 73.2176 92.91 73.2176L91.5725 73.7235Z" fill="#FFB657"/>
<path d="M93.3504 62.9141C92.9546 62.861 91.6088 62.7678 91.3972 65.4202C91.3055 66.5697 91.224 68.4188 91.2807 69.8012C91.3691 71.9575 91.5752 73.7738 91.5752 73.7738C91.5752 73.7738 91.9052 74.2475 92.9395 73.4375C92.9395 73.4375 92.9679 69.2813 93.1111 67.6631C93.3228 65.2719 94.1692 63.0239 93.3504 62.9141Z" fill="#FFB657"/>
<path d="M91.7744 65.272C91.7744 65.272 91.2673 69.0048 91.6919 73.2177C91.7221 73.5171 91.7507 73.7953 91.7779 74.0548C91.7744 75.6052 92.5301 75.2156 92.963 75.0288L91.7744 65.272Z" fill="#FFA834"/>
<path d="M91.4441 72.8461C91.4971 73.432 91.5377 73.7883 91.5377 73.7883C91.5377 73.7883 91.8768 74.2751 92.9395 73.4428C92.9395 73.4428 92.9419 73.0923 92.9488 72.5535C92.5585 72.8624 91.9415 72.9658 91.4441 72.8461Z" fill="#CD2A01"/>
<path d="M91.9429 72.7893L91.9896 88.167C91.9896 88.167 91.9896 88.664 92.8755 88.664C93.7196 88.664 93.7016 88.1213 93.7016 88.1213L94.4314 76.7172L94.9628 77.0095L95.4197 90.226C95.4197 90.226 95.6739 90.6006 96.2985 90.6006C96.944 90.6006 97.0521 90.058 97.0521 90.058L97.6555 73.7994L91.9429 72.7893Z" fill="#FFB657"/>
<path d="M91.9873 87.4312L91.9895 88.167C91.9895 88.167 91.9895 89.0242 92.8754 89.0242C93.7195 89.0242 93.7547 88.0682 93.7547 88.0682L93.7417 87.495C93.1954 87.7461 92.4684 87.7405 91.9873 87.4312Z" fill="#791900"/>
<path d="M95.3947 89.3671C95.3932 89.3656 95.3913 89.3643 95.3896 89.3628L95.4195 90.2259C95.4195 90.2259 95.6737 90.9608 96.2983 90.9608C96.9439 90.9608 97.1051 90.0048 97.1051 90.0048L97.0782 89.3501C96.5837 89.6134 95.947 89.5328 95.3947 89.3671Z" fill="#791900"/>
<path d="M97.5297 81.4318L97.811 73.8544L91.861 72.8023L91.8103 80.2645C92.3873 80.7842 93.3284 81.0125 94.1469 81.0643L94.4114 76.9309L94.9716 77.2391L95.1044 81.0805C95.8471 81.4482 96.6934 81.5471 97.5297 81.4318Z" fill="#891D00"/>
<path d="M91.7891 73.2894C91.7891 73.2894 91.6606 71.0362 91.6962 68.893C91.726 67.0946 91.7746 66.4252 91.7746 65.4952C91.7746 63.4026 92.6721 62.9009 93.3505 62.9141C93.3505 62.9141 96.0666 63.725 98.1628 65.5796L97.7899 74.0842C97.028 75.0871 93.2396 74.7803 91.7891 73.2894Z" fill="#AD2201"/>
<path d="M96.5976 67.0069L96.3391 74.6496C96.6435 74.6224 96.9211 74.569 97.1559 74.4887L96.5976 67.0069Z" fill="#891D00"/>
<path d="M97.1884 59.7465C97.1884 59.7465 97.3119 61.9742 96.7673 62.3734C96.2228 62.7725 93.6386 62.5106 92.873 61.1642C92.1074 59.8178 92.5273 57.2742 94.2295 56.9979C96.2179 56.6752 97.3071 57.7455 97.1884 59.7465Z" fill="#FFB657"/>
<path d="M94.2845 61.7966L93.8325 64.0991C93.8325 64.0991 94.5884 64.9142 95.9951 64.3305C95.9951 64.3305 96.1254 62.5584 96.2524 62.2886C96.3794 62.0189 94.2845 61.7966 94.2845 61.7966Z" fill="#FFB657"/>
<path d="M95.2015 59.9364C95.6521 59.7041 95.6741 60.224 95.9599 61.1415C96.178 60.6324 95.9427 59.5876 96.3311 59.2507C96.7991 58.8449 96.9705 58.9878 97.2005 58.9374C97.0325 57.052 95.3208 56.6339 93.9295 57.0204C92.4818 57.4227 92.0144 59.7916 92.7871 61.1506C93.1539 61.7957 94.1482 62.3774 94.7572 62.424C94.8311 60.8688 94.8293 60.2691 95.2015 59.9364Z" fill="#FFA834"/>
<path d="M97.2136 76.6925C97.2136 76.6925 97.2452 77.7896 97.2524 77.9296C97.2595 78.0709 97.1187 78.1671 97.2307 78.4462C97.2482 78.4898 97.5742 78.7177 97.6913 78.7556C97.818 78.7965 98.603 78.2589 98.7187 78.1735C98.8343 78.0882 98.738 77.4044 98.7297 77.2408C98.7272 77.1907 98.7077 76.3865 98.6106 76.3516C98.5134 76.3168 97.2136 76.6925 97.2136 76.6925Z" fill="#FFB657"/>
<path d="M98.2914 65.678C98.0647 65.3341 97.1526 64.7641 96.7294 66.203C96.3062 67.6419 97.2192 76.8886 97.2192 76.8886C97.2192 76.8886 97.9316 77.6165 98.6679 76.4896C98.6679 76.4896 98.4645 73.0954 98.4645 70.9272C98.4646 68.7587 98.7184 66.3257 98.2914 65.678Z" fill="#FFB657"/>
<path d="M97.0337 75.6198C97.1072 76.4371 97.1583 76.9546 97.1583 76.9546C97.1583 76.9546 97.9355 77.7488 98.7391 76.5192C98.7391 76.5192 98.7052 75.9543 98.6639 75.1248C98.2766 75.5634 97.6251 75.8532 97.0337 75.6198Z" fill="#CD2A01"/>
</g>
<g clip-path="url(#clip3)">
<path d="M116.686 84.3621C116.459 84.3185 115.288 84.2896 115.288 84.1443L125.577 78.6743L124.326 77.8403C121.41 79.1916 114.978 82.5649 113.991 82.7963C113.058 83.015 112.87 82.8972 112.262 82.7963C111.856 82.729 121.951 77.6485 126.037 75.3237L131.928 77.504C130.075 78.4049 126.546 79.6636 125.088 80.4657C123.265 81.4683 117.142 84.4493 116.686 84.3621Z" fill="url(#paint4_linear)" style="mix-blend-mode:multiply"/>
<path d="M117.153 83.4017C117.146 83.4054 117.137 83.4093 117.128 83.4132C117.137 83.4093 117.146 83.4055 117.153 83.4017C117.01 83.2561 116.845 83.1056 116.784 82.8918C116.603 82.2612 116.389 81.4299 116.389 81.4299C116.389 81.4299 116.22 81.0901 115.76 80.9754C115.607 80.9371 115.198 81.0514 115.198 81.0514C115.198 81.0514 114.728 82.2315 115.147 82.5914C115.492 82.8872 115.47 83.8701 116.086 84.2053C116.724 84.5529 117.367 84.0142 117.388 83.9153C117.432 83.7039 117.305 83.5555 117.153 83.4017Z" fill="#FFB657"/>
<path d="M117.153 83.4016C117.094 83.4315 116.999 83.4667 116.934 83.4667C116.851 83.4667 116.721 83.2416 116.586 82.9459C116.585 82.9443 116.167 82.0061 116.049 81.5547C115.867 80.8621 115.198 81.0512 115.198 81.0512C115.198 81.0512 114.728 82.2314 115.147 82.5912C115.492 82.8871 115.47 83.87 116.086 84.2052C116.724 84.5527 117.367 84.0141 117.388 83.9152C117.432 83.7038 117.305 83.5554 117.153 83.4016Z" fill="#CD2A01"/>
<path d="M110.737 66.0732L110.807 67.2988C110.807 67.2988 111.249 67.5707 111.298 67.616C111.347 67.6613 112.44 67.2937 112.44 67.1779C112.44 67.0621 112.197 66.347 112.197 66.2412C112.197 66.1354 112.116 65.5916 112.116 65.5916L110.737 66.0732Z" fill="#FEC377"/>
<path d="M112.786 55.8774C112.479 55.6246 110.774 55.6438 110.556 58.1687C110.461 59.2629 110.258 61.0233 110.316 62.3393C110.407 64.3919 110.608 66.2054 110.608 66.2054C110.608 66.2054 110.937 66.6056 112.074 66.1122C111.887 63.1243 111.765 63.0805 111.84 60.8279C111.928 58.2105 113.707 56.6346 112.786 55.8774Z" fill="#898890"/>
<path d="M111.519 65.3001C111.519 65.3001 110.601 66.8386 110.737 68.8445C110.834 70.2756 112.162 74.2734 112.162 74.2734C111.789 77.5763 112.323 79.5059 112.323 79.5059C112.323 79.5059 112.352 79.9159 112.982 80.0592C113.377 80.1489 113.539 79.981 113.539 79.981L113.848 71.738C114.262 73.4671 115.012 75.7225 115.012 75.7225C114.638 79.0254 115.172 80.955 115.172 80.955C115.172 80.955 115.201 81.365 115.831 81.5083C116.226 81.598 116.389 81.4301 116.389 81.4301L116.926 67.0786L111.519 65.3001Z" fill="#1D81CD"/>
<path d="M110.737 66.6692C110.737 66.6692 111.473 64.9974 111.874 62.8023C112.182 61.1138 110.945 59.1255 110.945 58.2401C110.945 56.248 111.87 55.7704 112.569 55.783C112.569 55.783 115.369 56.5549 117.53 58.3204C117.53 58.3204 118.024 59.9235 117.915 60.4965C117.791 61.1489 116.567 62.0705 116.567 62.7731C116.567 63.6897 117.246 67.1526 117.246 67.1526C116.304 68.7739 112.426 68.7947 110.737 66.6692Z" fill="#898890"/>
<path d="M110.722 66.2845C110.76 66.3032 110.811 66.3214 110.873 66.3353C111.097 65.7615 111.549 64.4987 111.844 62.9573C111.818 62.4862 111.81 62.0225 111.826 61.3249C111.579 60.0745 110.945 58.8743 110.945 58.2402C110.945 57.0305 111.286 56.3799 111.711 56.0578C111.189 56.3111 110.721 56.9614 110.721 58.3779C110.721 59.2633 111.958 61.2517 111.65 62.9401C111.384 64.3983 110.97 65.6249 110.722 66.2845Z" fill="#77767E"/>
<path d="M116.884 53.4917C116.884 53.4917 116.954 55.3892 116.408 55.7705C115.862 56.1517 113.087 55.9054 112.321 54.6213C111.554 53.3372 111.977 50.9099 113.683 50.6452C115.677 50.3358 117.005 51.5825 116.884 53.4917Z" fill="#FEC377"/>
<path d="M113.151 54.8567L112.741 56.7875C112.741 56.7875 113.517 58.0342 114.915 57.2689C114.915 57.2689 115.049 55.5818 115.18 55.325C115.311 55.0683 113.151 54.8567 113.151 54.8567Z" fill="#FEC377"/>
<path d="M116.552 68.8995C116.552 68.8995 116.584 69.9439 116.592 70.0773C116.599 70.2118 116.454 70.3034 116.569 70.5691C116.587 70.6106 116.924 70.8275 117.044 70.8635C117.175 70.9024 117.984 70.3907 118.103 70.3095C118.223 70.2283 118.123 69.5773 118.115 69.4215C118.112 69.3739 118.092 68.6082 117.992 68.5751C117.892 68.542 116.552 68.8995 116.552 68.8995Z" fill="#FEC377"/>
<path d="M117.663 58.4144C117.429 58.087 116.576 57.7559 116.14 59.1256C115.704 60.4954 116.37 69.2165 116.37 69.2165C116.37 69.2165 117.402 69.9206 118.161 68.8478C118.161 68.8478 117.841 65.4754 117.841 63.4112C117.841 61.347 118.103 59.0309 117.663 58.4144Z" fill="#898890"/>
<path d="M116.14 59.1256C116.171 59.0297 116.203 58.9429 116.238 58.8631C116.15 59.023 116.067 59.2175 115.992 59.4536C115.653 60.5171 115.829 65.6841 115.992 68.0879C116.092 68.0528 116.189 68.0137 116.282 67.9708C116.117 65.51 115.807 60.1721 116.14 59.1256Z" fill="#77767E"/>
<path d="M114.304 81.9527C114.296 81.9565 114.287 81.9604 114.279 81.9642C114.287 81.9604 114.296 81.9565 114.304 81.9527C114.161 81.8071 113.996 81.6566 113.935 81.4428C113.754 80.8123 113.539 79.981 113.539 79.981C113.539 79.981 113.37 79.6411 112.911 79.5265C112.757 79.4881 112.348 79.6024 112.348 79.6024C112.348 79.6024 111.878 80.7825 112.298 81.1424C112.643 81.4382 112.621 82.4211 113.236 82.7564C113.874 83.1038 114.518 82.5653 114.539 82.4663C114.583 82.2549 114.455 82.1065 114.304 81.9527Z" fill="#FFB657"/>
<path d="M114.304 81.9526C114.245 81.9826 113.871 81.7926 113.736 81.497C113.735 81.4953 113.318 80.5571 113.199 80.1057C113.018 79.4131 112.348 79.6023 112.348 79.6023C112.348 79.6023 111.878 80.7824 112.298 81.1423C112.643 81.438 112.621 82.421 113.236 82.7562C113.874 83.1037 114.518 82.5651 114.539 82.4662C114.583 82.2548 114.455 82.1065 114.304 81.9526Z" fill="#CD2A01"/>
<path d="M115.524 82.1936C115.524 82.8714 115.385 84.1995 115.385 84.1995H115.25V82.0391C115.249 82.0392 115.524 81.9704 115.524 82.1936Z" fill="#CD2A01"/>
<path d="M112.505 80.7447C112.505 81.4224 112.366 82.7506 112.366 82.7506H112.231V80.5902C112.231 80.5902 112.505 80.5214 112.505 80.7447Z" fill="#CD2A01"/>
<path d="M116.492 51.1837C116.289 50.9854 115.798 50.5254 114.995 50.4919C112.741 50.3978 112.077 51.764 111.74 53.0869C111.325 54.7182 110.847 59.4069 110.906 59.8402C111.066 60.9955 111.612 61.8816 112.662 62.0871C115.063 62.5567 116.168 61.3152 116.28 60.9268C116.532 60.0555 116.562 56.743 116.502 54.706C116.71 53.9423 116.958 53.1375 116.992 52.822C117.056 52.2396 116.928 51.6088 116.492 51.1837Z" fill="#891D00"/>
</g>
<g clip-path="url(#clip4)">
<path d="M107.199 87.8995C106.962 87.8542 106.221 87.476 106.221 87.3248L116.449 81.9816L115.147 81.1139C112.113 82.5198 104.776 85.5361 103.828 85.9993C102.579 86.6094 102.942 86.0505 102.657 85.597C102.43 85.2341 113.432 80.3624 117.683 77.9436L123.056 80.764C121.128 81.7013 117.457 83.011 115.94 83.8455C114.043 84.8886 107.673 87.9902 107.199 87.8995Z" fill="url(#paint5_linear)" style="mix-blend-mode:multiply"/>
<path d="M105.507 86.5708V87.9967C105.507 87.9967 105.837 88.4544 106.456 88.2818C107.075 88.1093 109.245 86.9953 109.085 86.6461C108.695 85.7967 107.751 86.3727 106.551 86.4652C105.891 86.5161 105.507 86.5708 105.507 86.5708Z" fill="#884D01"/>
<path d="M102.164 84.7374V86.1633C102.164 86.1633 102.494 86.621 103.113 86.4484C103.732 86.2759 105.957 85.1317 105.742 84.8127C105.197 84.0055 104.408 84.5393 103.208 84.6318C102.548 84.6827 102.164 84.7374 102.164 84.7374Z" fill="#884D01"/>
<path d="M101.757 70.8331L101.823 72.0725C101.823 72.0725 102.241 72.3476 102.288 72.3934C102.334 72.4393 103.369 72.0675 103.369 71.9504C103.369 71.8332 103.139 71.1101 103.139 71.0032C103.139 70.8962 102.827 70.3815 102.827 70.3815L101.757 70.8331Z" fill="#FEC377"/>
<path d="M103.491 60.4272C103.105 60.3762 101.793 60.2864 101.586 62.8398C101.497 63.9464 101.417 65.7264 101.473 67.0573C101.559 69.1331 101.757 70.8331 101.757 70.8331C101.757 70.8331 101.854 71.1259 102.863 70.3461C102.863 70.3461 103.118 66.5568 103.258 64.999C103.464 62.6971 104.289 60.533 103.491 60.4272Z" fill="#FEC377"/>
<path d="M103.479 60.4279C103.1 60.2954 101.724 60.2286 101.51 62.922C101.431 63.9188 101.357 65.4437 101.377 66.7297C101.852 67.1328 102.546 67.2548 103.088 67.0303C103.142 66.3103 103.195 65.631 103.238 65.1541C103.451 62.7744 104.305 60.7159 103.479 60.4279Z" fill="#008778"/>
<path d="M102.118 69.9339L101.954 84.8064C101.954 84.8064 101.922 85.2159 103.028 85.2159C104.134 85.2159 104.192 84.6936 104.192 84.6936L104.633 73.7629L104.644 73.7689L105.106 86.6708C105.106 86.6708 105.074 87.0804 106.18 87.0804C107.286 87.0804 107.344 86.558 107.344 86.558L107.503 70.9063L102.118 69.9339Z" fill="#57565C"/>
<path d="M102.045 70.4251C102.045 70.4251 101.843 68.246 101.878 66.1829C101.907 64.4516 101.954 63.8073 101.954 62.9119C101.954 60.8974 102.83 60.4145 103.491 60.4272C103.491 60.4272 106.14 61.2077 108.184 62.9931L107.82 71.1803C107.077 72.1457 103.46 71.8603 102.045 70.4251Z" fill="#008778"/>
<path d="M106.911 69.7494C106.899 69.7459 106.886 69.7426 106.874 69.7389C106.773 68.384 106.659 66.9357 106.609 65.7685L106.405 71.7247C106.645 71.7035 106.866 71.665 107.064 71.6106C107.015 71.0504 106.962 70.4141 106.911 69.7494Z" fill="#02665A"/>
<path d="M107.234 57.3777C107.234 57.3777 107.354 59.5223 106.823 59.9065C106.292 60.2908 103.772 60.0386 103.026 58.7425C102.279 57.4463 102.688 54.9977 104.348 54.7317C106.287 54.4211 107.349 55.4516 107.234 57.3777Z" fill="#FEC377"/>
<path d="M104.402 59.3514L103.961 61.568C103.961 61.568 104.698 62.3527 106.07 61.7908C106.07 61.7908 106.197 60.0848 106.321 59.8251C106.445 59.5652 104.402 59.3514 104.402 59.3514Z" fill="#FEC377"/>
<path d="M103.914 61.515C103.891 61.3929 103.961 60.947 104.078 60.9814C104.078 60.9814 104.103 61.5326 106.115 61.2572L106.326 61.667C106.326 61.667 105.657 62.1346 105.015 62.0851C104.558 62.0499 103.961 61.7732 103.914 61.515Z" fill="#00AB95"/>
<path d="M107.258 73.6913C107.258 73.6913 107.289 74.7474 107.296 74.8823C107.303 75.0182 107.165 75.111 107.275 75.3796C107.292 75.4215 107.61 75.641 107.724 75.6774C107.847 75.7169 108.613 75.1992 108.726 75.1172C108.838 75.0351 108.744 74.3767 108.736 74.2192C108.734 74.171 108.715 73.3968 108.62 73.3633C108.526 73.3296 107.258 73.6913 107.258 73.6913Z" fill="#FEC377"/>
<path d="M108.309 63.0881C108.088 62.7569 107.199 62.2083 106.786 63.5935C106.373 64.9786 107.258 73.6914 107.258 73.6914C107.258 73.6914 107.93 74.4823 108.648 73.3975C108.648 73.3975 108.478 70.2287 108.478 68.1413C108.478 66.0537 108.725 63.7115 108.309 63.0881Z" fill="#FEC377"/>
<path d="M108.326 63.0988C108.055 62.7244 107.1 62.1951 106.676 63.6179C106.452 64.3689 106.685 67.2167 106.874 69.7389C107.405 69.9009 108.042 69.9487 108.519 69.7506C108.507 69.2416 108.499 68.7411 108.499 68.2898C108.499 66.1454 108.81 63.7686 108.326 63.0988Z" fill="#008778"/>
<path d="M103.992 59.6301C103.696 59.5662 103.02 59.0671 102.691 58.2113C102.411 57.4862 102.512 56.1514 102.779 55.6616C103.136 55.0076 103.586 54.6485 104.228 54.5194C104.966 54.3711 106.889 54.7812 107.754 54.8585C107.838 55.6617 107.362 56.2214 106.937 56.4692C106.713 56.5997 106.721 56.6369 106.534 56.8162C106.266 57.0741 106.292 57.917 106.299 58.2865C106.177 57.9345 105.997 57.209 105.665 57.2209C105.333 57.2329 105.058 57.5863 105.139 57.9041C105.162 57.9946 105.348 58.4655 105.508 58.8385C105.606 59.0671 105.485 59.5263 105.414 59.7084L103.992 59.6301Z" fill="#806749"/>
</g>
<path d="M197.437 190.423L222.005 180.346L114.42 120.35L91.6164 130.951L197.437 190.423Z" fill="url(#paint6_radial)"/>
<path d="M195.626 183.816C196.015 186.155 191.24 191.287 188.804 193.561L174.441 178.214C180.047 176.813 192.131 172.569 195.626 166.803C199.993 159.596 211.377 159.296 217.383 164.401C223.389 169.506 223.896 176.641 215.596 182.204C207.296 187.768 195.138 180.893 195.626 183.816Z" fill="url(#paint7_linear)"/>
<g clip-path="url(#clip5)">
<path d="M187.889 194.189C191.174 192.292 192.815 189.802 192.808 187.316L192.791 183.686C192.791 183.693 192.789 183.701 192.789 183.709C192.792 181.246 191.18 178.785 187.946 176.905C181.457 173.134 170.903 173.134 164.374 176.904C160.88 178.921 159.264 181.609 159.493 184.25C159.479 184.093 159.453 183.936 159.453 183.779L159.47 187.409C159.477 189.864 161.091 192.315 164.314 194.189C170.803 197.96 181.358 197.96 187.889 194.189Z" fill="#D8D8DA"/>
<path d="M187.889 194.189C191.174 192.292 192.815 189.802 192.808 187.316L192.791 183.626C192.798 186.113 191.157 188.603 187.872 190.5C181.34 194.27 170.786 194.27 164.297 190.499C161.074 188.626 159.46 186.175 159.453 183.719L159.47 187.409C159.477 189.864 161.091 192.315 164.314 194.189C170.803 197.96 181.358 197.96 187.889 194.189Z" fill="#1D1D1F"/>
<path d="M187.872 190.559C181.34 194.33 170.786 194.33 164.297 190.559C157.808 186.788 157.843 180.675 164.374 176.904C170.903 173.134 181.457 173.134 187.946 176.905C194.435 180.676 194.401 186.79 187.872 190.559Z" fill="#3E3D43"/>
<path d="M187.872 190.559C181.34 194.33 170.786 194.33 164.297 190.559C157.808 186.788 157.843 180.675 164.374 176.904C170.903 173.134 181.457 173.134 187.946 176.905C194.435 180.676 194.401 186.79 187.872 190.559Z" fill="url(#paint8_linear)"/>
<path d="M176.13 188.272C187.798 188.272 197.257 178.813 197.257 167.144C197.257 155.476 187.798 146.017 176.13 146.017C164.462 146.017 155.003 155.476 155.003 167.144C155.003 178.813 164.462 188.272 176.13 188.272Z" fill="#3E3D43"/>
<path d="M176.13 188.272C187.799 188.272 197.258 178.813 197.258 167.144C197.258 155.476 187.799 146.017 176.13 146.017C164.462 146.017 155.003 155.476 155.003 167.144C155.003 178.813 164.462 188.272 176.13 188.272Z" fill="url(#paint9_radial)"/>
<path d="M172.248 178.062C172.311 183.165 168.792 185.314 164.389 182.86C159.986 180.406 156.366 174.28 156.304 169.177C156.241 164.073 159.76 161.925 164.163 164.379C168.566 166.832 172.186 172.958 172.248 178.062Z" fill="#4D4D4D"/>
<path d="M166.333 174.765C166.349 176.082 165.441 176.636 164.305 176.003C163.17 175.37 162.236 173.79 162.22 172.473C162.204 171.157 163.111 170.603 164.247 171.236C165.383 171.869 166.317 173.449 166.333 174.765Z" fill="#666666"/>
<path d="M173.548 178.786C173.621 184.722 169.529 187.22 164.408 184.367C159.287 181.513 155.077 174.388 155.004 168.452C154.931 162.517 159.024 160.018 164.144 162.872C169.265 165.726 173.476 172.851 173.548 178.786ZM170.929 177.327C170.877 173.068 167.856 167.956 164.181 165.909C160.507 163.861 157.571 165.654 157.623 169.912C157.675 174.171 160.696 179.283 164.37 181.331C168.045 183.378 170.981 181.585 170.929 177.327Z" fill="#1D1D1F"/>
<path d="M166.214 158.342C164.743 157.493 162.858 157.207 162.005 157.702C161.151 158.198 161.652 159.289 163.123 160.138C164.594 160.987 166.479 161.274 167.332 160.778C168.185 160.282 167.684 159.192 166.214 158.342Z" fill="#82CF95"/>
</g>
<path d="M133.675 79.5186V46.6415L137.245 45.4203V78.2382L133.675 79.5186Z" fill="#E5AF43"/>
<path d="M124.578 73.8971V41.1905L133.696 46.6518V79.3715L124.578 73.8971Z" fill="#FFD46B"/>
<path d="M130.565 64.6771V60.7037L131.914 61.3371V65.312L130.565 64.6771Z" fill="#1D1D1F"/>
<path d="M133.694 46.6477L124.574 41.194L127.696 39.9305L137.253 45.4197L133.694 46.6477Z" fill="#FFE08E"/>
<g clip-path="url(#clip6)">
<path d="M86.9736 95.4314C86.7684 95.3921 86.1278 95.0649 86.1278 94.934L94.9787 90.31L93.8524 89.559C91.2265 90.7758 84.8248 93.2303 84.0042 93.6311C82.9235 94.1591 83.2108 93.6097 82.9647 93.2172C82.7677 92.9032 92.3683 88.9087 96.0472 86.8154L100.697 89.2562C99.0284 90.0674 95.851 91.2008 94.5381 91.923C92.8969 92.8257 87.3838 95.5099 86.9736 95.4314Z" fill="url(#paint10_linear)" style="mix-blend-mode:multiply"/>
<path d="M85.48 94.3927V95.6462C85.48 95.6462 85.7664 96.0486 86.3037 95.8969C86.841 95.7453 88.7245 94.766 88.5853 94.4589C88.2467 93.7121 87.4275 94.2185 86.3865 94.2999C85.8135 94.3447 85.48 94.3927 85.48 94.3927Z" fill="#971052"/>
<path d="M82.6079 92.7811V94.0346C82.6079 94.0346 82.8944 94.437 83.4317 94.2853C83.969 94.1336 85.9003 93.1277 85.7133 92.8472C85.24 92.1376 84.5555 92.6068 83.5145 92.6882C82.9414 92.7331 82.6079 92.7811 82.6079 92.7811Z" fill="#971052"/>
<path d="M81.0103 75.9905L81.0809 77.3298C81.0809 77.3298 81.5267 77.627 81.5762 77.6765C81.6257 77.726 82.7292 77.3243 82.7292 77.1977C82.7292 77.071 82.4842 76.2896 82.4842 76.1741C82.4842 76.0585 82.4017 75.4641 82.4017 75.4641L81.0103 75.9905Z" fill="#FEC377"/>
<path d="M83.0786 64.8487C82.7684 64.5723 81.0479 64.5933 80.8278 67.3525C80.7324 68.5484 80.6178 70.3808 80.6768 71.819C80.7687 74.0621 81.0103 75.9903 81.0103 75.9903C81.0103 75.9903 81.212 76.5723 82.3603 76.0331C82.1715 72.7679 82.0478 72.7201 82.1241 70.2585C82.2126 67.3984 84.0074 65.6761 83.0786 64.8487Z" fill="#FEC377"/>
<path d="M81.7997 75.1455C81.7997 75.1455 80.873 76.8268 81.0102 79.0188C81.1081 80.5827 82.4486 84.9515 82.4486 84.9515C82.0714 88.5608 82.6108 92.9483 82.6108 92.9483C82.6108 92.9483 82.7378 93.2548 83.0811 93.2786C83.5476 93.3109 83.8385 93.0511 83.8385 93.0511L84.15 82.1808C84.5679 84.0704 85.3241 86.535 85.3241 86.535C84.947 90.1443 85.4863 94.5318 85.4863 94.5318C85.4863 94.5318 85.6107 94.8007 85.9788 94.8832C86.3793 94.9729 86.7141 94.6346 86.7141 94.6346L87.2563 77.0891L81.7997 75.1455Z" fill="#FFB657"/>
<path d="M81.8696 74.9666C81.8305 75.0376 80.7933 76.5804 80.9331 78.8128C80.9891 79.7072 81.2816 81.19 81.6632 82.5705C82.0089 83.4507 83.2658 83.558 84.1688 83.4348L84.2047 82.7823C84.299 83.0986 84.3918 83.4173 84.4706 83.7225C85.1196 84.3715 86.2847 84.3395 87.1579 83.7282L87.4909 76.892L81.8696 74.9666Z" fill="#5AAAE7"/>
<path d="M81.2202 76.2622C81.2202 76.2622 81.7532 74.815 82.1574 72.4162C82.4683 70.571 81.2202 68.3981 81.2202 67.4306C81.2202 65.2537 82.1539 64.7318 82.8596 64.7455C82.8596 64.7455 85.6852 65.589 87.8658 67.5184C87.8658 67.5184 88.3646 69.2702 88.2545 69.8965C88.1293 70.6094 86.8938 71.6165 86.8938 72.3842C86.8938 73.3859 87.5794 77.1703 87.5794 77.1703C86.6281 78.9419 82.9253 78.5851 81.2202 76.2622Z" fill="#E5197C"/>
<path d="M86.3135 68.7566C85.9717 69.9189 86.1492 75.5652 86.3134 78.1921C86.8769 77.9788 87.1577 77.6347 87.4072 77.1702C87.4072 77.1702 86.894 73.386 86.894 72.3842C86.894 71.8318 87.5334 71.1556 87.9388 70.5541C87.9776 69.1966 87.9776 68.0435 87.699 67.6208C87.4631 67.2631 86.7537 67.2597 86.3135 68.7566Z" fill="#C71468"/>
<path d="M87.2143 62.2414C87.2143 62.2414 87.2844 64.3151 86.7334 64.7316C86.1823 65.1482 83.382 64.879 82.6087 63.4758C81.8353 62.0725 82.2621 59.4201 83.984 59.1307C85.9954 58.7929 87.3359 60.1552 87.2143 62.2414Z" fill="#FEC377"/>
<path d="M83.4469 63.7333L83.0327 65.8432C83.0327 65.8432 82.5844 67.4236 85.2265 66.3693C85.2265 66.3693 85.362 64.5257 85.4941 64.245C85.6261 63.9645 83.4469 63.7333 83.4469 63.7333Z" fill="#FEC377"/>
<path d="M87.0375 66.7319C83.1251 67.9858 82.213 65.9943 82.213 65.9943C82.0016 63.1476 81.6482 59.828 83.5083 59.1517C86.118 58.2028 87.7838 60.5722 87.2932 61.4417C86.9459 62.0574 86.8879 61.9734 86.867 62.7575C86.8164 64.6552 86.9869 66.4156 87.0375 66.7319Z" fill="#5E4C36"/>
<path d="M86.8784 79.0792C86.8784 79.0792 86.9114 80.2205 86.9188 80.3662C86.9262 80.5131 86.7797 80.6133 86.8963 80.9035C86.9145 80.9489 87.2536 81.186 87.3755 81.2253C87.5072 81.2679 88.3239 80.7086 88.4442 80.6199C88.5646 80.5311 88.4643 79.8197 88.4557 79.6495C88.453 79.5975 88.4327 78.7608 88.3317 78.7246C88.2307 78.6884 86.8784 79.0792 86.8784 79.0792Z" fill="#FEC377"/>
<path d="M87.9997 67.6209C87.7638 67.2631 86.903 66.9013 86.4628 68.3982C86.0226 69.8951 86.8783 79.0793 86.8783 79.0793C86.8783 79.0793 87.5654 79.897 88.3316 78.7247C88.3316 78.7247 88.1798 75.3373 88.1798 73.0816C88.1798 70.8257 88.4438 68.2947 87.9997 67.6209Z" fill="#FEC377"/>
<path d="M85.3752 93.8366C85.4167 94.2694 85.4477 94.5261 85.449 94.5366L85.4498 94.5425L85.4521 94.5478C85.4576 94.5594 85.5888 94.8347 85.9705 94.9202C86.018 94.9308 86.067 94.9362 86.1163 94.9362C86.1164 94.9362 86.1164 94.9362 86.1164 94.9362C86.4649 94.9362 86.7299 94.6725 86.7409 94.6613L86.7514 94.6508L86.7801 93.7216C86.354 93.9721 85.8331 94.0703 85.3752 93.8366Z" fill="#E0E0E2"/>
<path d="M82.4888 92.1377C82.5356 92.6398 82.5719 92.9416 82.5734 92.953L82.574 92.9581L82.5759 92.9629C82.5814 92.9763 82.716 93.2914 83.0785 93.3164C83.1066 93.3183 83.1342 93.3193 83.1611 93.3193C83.5901 93.3193 83.8526 93.0892 83.8637 93.0794L83.8758 93.0686L83.9012 92.1803C83.4607 92.3667 82.9468 92.3959 82.4888 92.1377Z" fill="#E0E0E2"/>
</g>
<g clip-path="url(#clip7)">
<path d="M75.0868 99.4612C74.8269 99.4115 74.0155 98.997 74.0155 98.8312L85.2259 92.9745L83.7993 92.0234C80.4734 93.5644 72.3652 96.6733 71.3258 97.181C69.957 97.8497 70.321 97.1539 70.0092 96.6568C69.7597 96.2591 81.9196 91.1997 86.5793 88.5484L92.4686 91.6398C90.3552 92.6672 86.3308 94.1028 84.6678 95.0175C82.5891 96.1609 75.6064 99.5606 75.0868 99.4612Z" fill="url(#paint11_linear)" style="mix-blend-mode:multiply"/>
<path d="M73.4443 97.8669V99.5147C73.4443 99.5147 73.8209 100.044 74.5272 99.8443C75.2334 99.645 77.7093 98.3576 77.5263 97.954C77.0813 96.9724 76.0044 97.6381 74.636 97.7449C73.8826 97.8039 73.4443 97.8669 73.4443 97.8669Z" fill="#884D01"/>
<path d="M69.6309 95.7484V97.3962C69.6309 97.3962 70.0075 97.9251 70.7137 97.7257C71.4199 97.5264 73.9587 96.2041 73.7128 95.8355C73.0907 94.9026 72.1909 95.5195 70.8225 95.6264C70.0692 95.6853 69.6309 95.7484 69.6309 95.7484Z" fill="#884D01"/>
<path d="M69.167 79.68L69.2426 81.1122C69.2426 81.1122 69.7193 81.43 69.7723 81.483C69.8253 81.5359 71.0054 81.1064 71.0054 80.9709C71.0054 80.8356 70.7433 79.9999 70.7433 79.8763C70.7433 79.7528 70.655 79.1172 70.655 79.1172L69.167 79.68Z" fill="#FEC377"/>
<path d="M71.1446 67.6547C70.7043 67.5956 69.207 67.4919 68.9717 70.4426C68.8697 71.7214 68.7791 73.7785 68.8422 75.3164C68.9404 77.7152 69.028 79.8346 69.028 79.8346C69.028 79.8346 69.8927 80.6185 71.0432 79.7174C71.0432 79.7174 70.7191 74.7381 70.8785 72.9379C71.1138 70.2777 72.0555 67.7768 71.1446 67.6547Z" fill="#AD2201"/>
<path d="M69.5789 78.6408L69.3917 95.8279C69.3917 95.8279 69.3545 96.3012 70.6164 96.3012C71.8784 96.3012 71.9449 95.6976 71.9449 95.6976L72.4477 83.0658L72.6764 83.1916L73.1997 97.9825C73.1997 97.9825 73.1625 98.4559 74.4244 98.4559C75.6863 98.4559 75.7529 97.8523 75.7529 97.8523L75.9341 79.7646L69.5789 78.6408Z" fill="#013F8A"/>
<path d="M69.4954 79.2086C69.4954 79.2086 69.2649 76.6904 69.3043 74.3061C69.3375 72.3054 69.3916 71.5608 69.3916 70.5261C69.3916 68.198 70.3901 67.6399 71.1447 67.6546C71.1447 67.6546 74.1663 68.5566 76.4985 70.6199L76.0835 80.0812C75.2359 81.1969 71.1091 80.8672 69.4954 79.2086Z" fill="#AD2201"/>
<path d="M69.4954 79.2087C69.4954 79.2087 69.2649 76.6904 69.3043 74.3062C69.3375 72.3054 69.3916 71.5609 69.3916 70.5261C69.3916 70.4504 69.3928 70.3768 69.3948 70.3048L69.3916 70.2777C69.3916 70.2777 68.8275 74.4305 69.2998 79.1173C69.3334 79.4505 69.3653 79.7598 69.3955 80.0486C69.666 80.1559 70.0695 80.2231 70.5511 80.0153L70.5441 79.9573C70.1381 79.7489 69.7781 79.4994 69.4954 79.2087Z" fill="#891D00"/>
<path d="M72.184 66.4114L71.6812 68.9728C71.6812 68.9728 72.5221 69.8796 74.087 69.2303C74.087 69.2303 74.232 67.2588 74.3732 66.9587C74.5145 66.6586 72.184 66.4114 72.184 66.4114Z" fill="#FEC377"/>
<path d="M75.4146 64.1305C75.4146 64.1305 75.5518 66.6089 74.9462 67.0529C74.3404 67.4969 71.4656 67.2056 70.6138 65.7077C69.7621 64.2098 70.2292 61.3802 72.1229 61.0727C74.335 60.7137 75.5466 61.9046 75.4146 64.1305Z" fill="#FEC377"/>
<path d="M72.0831 66.8633C71.4336 66.8325 70.6663 66.2025 70.2931 65.2207C69.9768 64.3887 70.0904 62.857 70.3933 62.2949C70.7977 61.5445 71.307 61.1324 72.0347 60.9842C72.87 60.8141 73.1961 60.886 74.0231 61.0925C74.5716 61.2296 75.6402 61.7846 76.0282 61.3734C76.1238 62.295 75.5844 62.9372 75.1026 63.2215C74.8488 63.3713 74.8581 63.414 74.647 63.6198C74.3435 63.9157 74.3307 64.3913 74.3379 64.8152C74.3765 64.4411 74.0379 64.0704 73.6621 64.0841C73.2864 64.0978 72.9742 64.5034 73.066 64.868C73.1081 65.0353 73.3932 65.6459 73.4994 65.7818L72.0831 66.8633Z" fill="#DDB201"/>
<path d="M75.4424 82.983C75.4424 82.983 75.4777 84.2034 75.4855 84.3593C75.4934 84.5164 75.3368 84.6235 75.4614 84.9339C75.4809 84.9825 75.8435 85.236 75.9738 85.2781C76.1147 85.3236 76.9881 84.7254 77.1168 84.6306C77.2455 84.5358 77.1383 83.7749 77.1291 83.5929C77.1262 83.5373 77.1045 82.6425 76.9964 82.6037C76.8884 82.5651 75.4424 82.983 75.4424 82.983Z" fill="#FEC377"/>
<path d="M76.6416 70.7295C76.3894 70.3468 75.3748 69.7128 74.904 71.3135C74.4332 72.9143 75.2464 83.3532 75.2464 83.3532C75.2464 83.3532 76.4796 84.1495 77.2988 82.8958C77.2988 82.8958 76.8342 78.9812 76.8342 76.5689C76.8342 74.1568 77.1166 71.4502 76.6416 70.7295Z" fill="#AD2201"/>
<path d="M74.7759 72.4563L74.7574 72.2078L74.4697 80.7104C74.6782 80.6918 74.8734 80.6608 75.0551 80.6199C74.8919 78.0829 74.6957 74.413 74.7759 72.4563Z" fill="#891D00"/>
<path d="M71.6271 68.9117C71.6015 68.7705 71.6812 68.2554 71.8143 68.2951C71.8143 68.2951 71.8432 68.932 74.1384 68.6138L74.3796 69.0874C74.3796 69.0874 73.6163 69.6278 72.8835 69.5705C72.3627 69.53 71.6812 69.2101 71.6271 68.9117Z" fill="#CD2A01"/>
</g>
<g clip-path="url(#clip8)">
<path d="M59.4924 102.881V104.517C59.4924 104.517 59.8664 105.043 60.5676 104.845C61.2688 104.647 63.727 103.369 63.5453 102.968C63.1034 101.993 62.0343 102.654 60.6756 102.76C59.9276 102.819 59.4924 102.881 59.4924 102.881Z" fill="#884D01"/>
<path d="M55.7061 100.778V102.414C55.7061 102.414 56.0801 102.939 56.7812 102.741C57.4824 102.543 60.0031 101.23 59.7589 100.864C59.1412 99.938 58.2479 100.55 56.8892 100.657C56.1412 100.715 55.7061 100.778 55.7061 100.778Z" fill="#884D01"/>
<path d="M55.2454 84.8241L55.3204 86.2462C55.3204 86.2462 55.7937 86.5617 55.8463 86.6142C55.8989 86.6669 57.0706 86.2402 57.0706 86.1059C57.0706 85.9716 56.8104 85.1418 56.8104 85.0191C56.8104 84.8964 56.7228 84.2653 56.7228 84.2653L55.2454 84.8241Z" fill="#FFB657"/>
<path d="M57.2091 72.8845C56.772 72.8259 55.2854 72.723 55.0517 75.6527C54.9504 76.9224 54.8604 78.9648 54.9231 80.4917C55.0206 82.8734 55.2484 84.8797 55.2484 84.8797C55.2484 84.8797 55.6129 85.4029 56.7554 84.5082C56.7554 84.5082 56.7868 79.9176 56.9449 78.1301C57.1784 75.4889 58.1134 73.0059 57.2091 72.8845Z" fill="#FFB657"/>
<path d="M55.4682 75.4888C55.4682 75.4888 54.9081 79.6119 55.3771 84.2653C55.4105 84.596 55.4421 84.9032 55.472 85.1899C55.4682 86.9024 56.3029 86.4721 56.7811 86.2658L55.4682 75.4888Z" fill="#FFA834"/>
<path d="M57.1737 72.8861C56.6964 72.8221 55.0737 72.7098 54.8186 75.9079C54.8132 75.9747 54.8027 76.1145 54.8027 76.1145C54.9023 76.7219 55.272 76.9793 56.0849 77.1923C56.4459 74.8953 57.9958 72.9964 57.1737 72.8861Z" fill="#FF9911"/>
<path d="M55.6542 83.7921L55.4684 100.857C55.4684 100.857 55.4314 101.327 56.6844 101.327C57.9373 101.327 58.0035 100.727 58.0035 100.727L58.5027 88.1856L58.7298 88.3104L59.2493 102.996C59.2493 102.996 59.2124 103.466 60.4653 103.466C61.7182 103.466 61.7844 102.867 61.7844 102.867L61.9643 84.9079L55.6542 83.7921Z" fill="#01544C"/>
<path d="M55.5714 84.356C55.5714 84.356 55.3426 81.8557 55.3817 79.4885C55.4146 77.502 55.4683 76.7627 55.4683 75.7354C55.4683 73.4239 56.4597 72.8698 57.209 72.8843C57.209 72.8843 60.2091 73.7799 62.5246 75.8285L62.1126 85.2225C61.271 86.3302 57.1736 86.0028 55.5714 84.356Z" fill="#FF9911"/>
<path d="M61.4483 69.3855C61.4483 69.3855 61.5847 71.8462 60.9832 72.287C60.3818 72.7279 57.5274 72.4386 56.6817 70.9514C55.836 69.4643 56.2999 66.6547 58.1801 66.3495C60.3763 65.9931 61.5794 67.1754 61.4483 69.3855Z" fill="#FFB657"/>
<path d="M58.2409 71.6501L57.7417 74.1932C57.7417 74.1932 58.5767 75.0936 60.1304 74.4488C60.1304 74.4488 60.2743 72.4915 60.4146 72.1935C60.5547 71.8954 58.2409 71.6501 58.2409 71.6501Z" fill="#FFB657"/>
<path d="M60.5608 69.1091L60.5346 71.0023C60.5346 71.0023 60.3647 69.2434 59.634 69.7347C58.9947 70.1644 59.634 71.2691 59.634 71.2691C59.5816 71.5045 58.1819 72.7075 58.1819 72.7075C58.1819 72.7075 56.8989 71.8155 56.4587 70.8325C56 69.8079 55.9861 68.6603 56.1865 67.962C56.3006 67.5641 56.6972 67.3856 56.6972 67.3856C56.6972 67.3856 56.7845 66.7358 57.296 66.3714C58.4447 65.5527 60.9331 65.5799 61.5764 68.0206C61.6384 68.2557 61.6538 68.5155 61.5913 68.7504C61.5288 68.9853 61.0454 69.3673 60.8178 69.4532C61.0384 68.8754 60.8395 68.502 60.7114 68.6155C60.5833 68.7292 60.5418 68.9389 60.5608 69.1091Z" fill="#5E4C36"/>
<path d="M61.4763 88.1035C61.4763 88.1035 61.5113 89.3152 61.5191 89.47C61.527 89.626 61.3716 89.7323 61.4953 90.0405C61.5146 90.0887 61.8747 90.3404 62.0041 90.3822C62.144 90.4274 63.0111 89.8336 63.1388 89.7394C63.2666 89.6452 63.1602 88.8899 63.151 88.7091C63.1482 88.6538 63.1266 87.7655 63.0194 87.727C62.9121 87.6886 61.4763 88.1035 61.4763 88.1035Z" fill="#FFB657"/>
<path d="M62.6668 75.9374C62.4164 75.5575 61.409 74.9281 60.9415 76.5173C60.4741 78.1066 61.4825 88.3201 61.4825 88.3201C61.4825 88.3201 62.2693 89.1242 63.0827 87.8794C63.0827 87.8794 62.858 84.1304 62.858 81.7352C62.8581 79.3401 63.1384 76.6528 62.6668 75.9374Z" fill="#FFB657"/>
<path d="M60.8223 77.7605L60.7958 77.4052L60.5103 85.8472C60.7781 85.8233 61.0258 85.7801 61.2471 85.7191C61.0412 83.282 60.781 79.7295 60.8223 77.7605Z" fill="#F18700"/>
<path d="M63.0234 79.6865C63.071 77.9967 63.081 76.5587 62.7644 76.0317C62.4873 75.5705 61.3102 74.819 60.7575 76.698C60.6234 77.1539 60.5821 78.2955 60.6115 79.6334C61.4314 79.9505 62.0541 79.9932 63.0234 79.6865Z" fill="#FF9911"/>
</g>
<g clip-path="url(#clip9)">
<path d="M47.6111 109.936C47.3512 109.887 46.8205 109.032 46.8205 108.866L58.4168 102.194L57.0643 101.381C53.7384 102.923 46.2177 105.625 45.2615 106.38C44.0663 107.325 42.7671 106.878 42.4553 106.38C42.2058 105.983 53.3538 101.367 58.0135 98.7153L63.7607 101.381C61.6473 102.409 58.4665 104.657 56.8036 105.571C54.7249 106.715 48.1307 110.036 47.6111 109.936Z" fill="url(#paint12_linear)" style="mix-blend-mode:multiply"/>
<path d="M44.9639 108.718V110.487C44.9639 110.487 45.3682 111.055 46.1263 110.841C46.8845 110.627 49.5422 109.245 49.3458 108.812C48.8681 107.758 47.7121 108.473 46.2431 108.588C45.4344 108.651 44.9639 108.718 44.9639 108.718Z" fill="#3E3D43"/>
<path d="M40.8701 106.444V108.213C40.8701 108.213 41.2744 108.781 42.0326 108.567C42.7907 108.353 45.516 106.933 45.2521 106.538C44.5842 105.536 43.6183 106.199 42.1493 106.313C41.3406 106.376 40.8701 106.444 40.8701 106.444Z" fill="#3E3D43"/>
<path d="M40.3721 89.1952L40.4533 90.7326C40.4533 90.7326 40.965 91.0738 41.0218 91.1306C41.0787 91.1875 42.3455 90.7263 42.3455 90.581C42.3455 90.4357 42.0641 89.5386 42.0641 89.406C42.0641 89.2733 41.9694 88.5911 41.9694 88.5911L40.3721 89.1952Z" fill="#FEC377"/>
<path d="M42.4952 76.2862C42.0226 76.2228 40.4153 76.1115 40.1627 79.2791C40.0532 80.6519 39.956 82.8601 40.0236 84.5111C40.1291 87.0861 40.2231 89.3612 40.2231 89.3612C40.2231 89.3612 41.1513 90.2028 42.3864 89.2355C42.3864 89.2355 42.0385 83.8904 42.2095 81.9578C42.4622 79.1021 43.473 76.4175 42.4952 76.2862Z" fill="#2E2E30"/>
<path d="M40.6132 88.8006C40.6132 88.8006 40.4772 85.986 40.5196 83.4265C40.5524 81.446 40.6043 80.612 40.6122 79.6234V79.6232C40.2546 82.644 40.5113 89.5395 40.5115 89.5444C40.6547 89.6136 40.8463 89.6799 41.076 89.6966L41.0634 89.4245C40.903 89.2391 40.7529 89.0335 40.6132 88.8006Z" fill="#1D1D1F"/>
<path d="M40.8143 88.0796L40.6134 106.53C40.6134 106.53 40.5735 107.038 41.928 107.038C43.2826 107.038 43.3542 106.389 43.3542 106.389L43.894 92.8296L44.1395 92.9646L44.7013 108.842C44.7013 108.842 44.6613 109.35 46.0159 109.35C47.3705 109.35 47.4421 108.702 47.4421 108.702L47.6367 89.2858L40.8143 88.0796Z" fill="#1D1D1F"/>
<path d="M40.6133 88.8005C40.6133 88.8005 40.4773 85.9858 40.5197 83.4263C40.5553 81.2787 40.6133 80.4794 40.6133 79.3686C40.6133 76.8695 41.6852 76.2703 42.4952 76.2861C42.4952 76.2861 45.7388 77.2544 48.2423 79.4692L48.396 89.2989C47.8868 91.0521 45.395 91.638 43.2208 90.8435L42.9132 89.7004L42.6021 90.5748C41.7821 90.1581 41.1288 89.6605 40.6133 88.8005Z" fill="#2E2E30"/>
<path d="M47.0931 72.5958C47.0931 72.5958 47.2438 75.3152 46.5791 75.8025C45.9144 76.2899 42.7599 75.97 41.8253 74.3264C40.8906 72.6829 41.4033 69.5778 43.4812 69.2405C45.9084 68.8466 47.2379 70.1533 47.0931 72.5958Z" fill="#FEC377"/>
<path d="M43.6109 74.9516L43.071 77.7013C43.071 77.7013 43.9738 78.6748 45.6537 77.9776C45.6537 77.9776 45.8093 75.8613 45.9609 75.5391C46.1126 75.2169 43.6109 74.9516 43.6109 74.9516Z" fill="#FEC377"/>
<path d="M47.2311 71.2598C48.1289 68.5658 43.5072 68.4587 42.3758 69.5021C41.8784 69.9607 40.5643 71.6303 41.6647 74.0802C42.1399 75.1383 43.5207 76.0998 43.5207 76.0998C43.5207 76.0998 45.0283 74.8042 45.0846 74.5506C45.0846 74.5506 44.3961 73.3607 45.0846 72.8978C45.8717 72.3686 46.0546 74.2632 46.0546 74.2632C46.0546 74.2632 46.1679 72.4554 46.1649 71.9047C46.3288 70.6553 47.0411 71.8299 47.2311 71.2598Z" fill="#3E3D43"/>
<path d="M47.1086 92.7408C47.1086 92.7408 47.1464 94.0509 47.1549 94.2183C47.1635 94.3869 46.9952 94.502 47.129 94.8352C47.1499 94.8873 47.5392 95.1594 47.679 95.2046C47.8302 95.2535 48.7678 94.6115 48.9059 94.5097C49.044 94.4079 48.929 93.5911 48.9191 93.3958C48.9161 93.336 48.8928 92.3755 48.7768 92.334C48.6609 92.2922 47.1086 92.7408 47.1086 92.7408Z" fill="#FEC377"/>
<path d="M48.3958 79.587C48.125 79.1763 47.0359 78.4956 46.5305 80.214C46.0251 81.9323 46.8981 93.1383 46.8981 93.1383C46.8981 93.1383 48.2219 93.9932 49.1014 92.6474C49.1014 92.6474 48.6025 88.4452 48.6025 85.8557C48.6026 83.2661 48.9057 80.3605 48.3958 79.587Z" fill="#2E2E30"/>
<path d="M46.3755 82.1805C46.3392 83.9188 46.2759 88.3847 46.5084 91.004C46.5876 90.9804 46.6645 90.9537 46.7404 90.9256C46.5772 88.4912 46.3499 84.604 46.3755 82.1805Z" fill="#1D1D1F"/>
<path d="M43.0129 77.6357C42.9854 77.4842 43.071 76.9311 43.2138 76.9738C43.2138 76.9738 43.2448 77.6576 45.7086 77.3159L45.9675 77.8243C45.9675 77.8243 45.1482 78.4044 44.3616 78.3429C43.8026 78.2993 43.071 77.956 43.0129 77.6357Z" fill="#CD2A01"/>
</g>
<g clip-path="url(#clip10)">
<path d="M32.2436 115.497C32.0625 115.462 31.4968 115.173 31.4968 115.058L39.6845 109.975L38.7417 109.409C36.4234 110.483 31.0766 112.798 30.4101 113.325C29.577 113.983 28.6714 113.671 28.454 113.325C28.2801 113.048 36.1552 109.399 39.4033 107.551L43.4095 109.409C41.9363 110.125 39.7191 111.692 38.56 112.33C37.111 113.127 32.6058 115.566 32.2436 115.497Z" fill="url(#paint13_linear)" style="mix-blend-mode:multiply"/>
<path d="M26.5723 94.9048L26.6429 96.3142C26.6429 96.3142 27.088 96.6269 27.1374 96.6791C27.1868 96.7312 28.2886 96.3084 28.2886 96.1753C28.2886 96.0421 28.044 95.2197 28.044 95.0981C28.044 94.9765 27.9615 94.3511 27.9615 94.3511L26.5723 94.9048Z" fill="#FEC377"/>
<path d="M31.1067 114.268V115.589C31.1067 115.589 31.3932 116.013 31.9304 115.853C32.4676 115.693 34.3512 114.661 34.212 114.337C33.8735 113.55 33.0543 114.084 32.0132 114.17C31.4401 114.217 31.1067 114.268 31.1067 114.268Z" fill="#CD2A01"/>
<path d="M28.043 112.569V113.89C28.043 113.89 28.3295 114.314 28.8668 114.154C29.4041 113.994 31.3354 112.934 31.1484 112.638C30.6751 111.89 29.9906 112.385 28.9495 112.471C28.3764 112.518 28.043 112.569 28.043 112.569Z" fill="#CD2A01"/>
<path d="M27.1768 94.9757C27.1768 94.9757 26.2342 96.911 26.3804 99.3728C26.4847 101.129 27.8681 105.989 27.8681 105.989C27.4663 110.042 27.9926 112.799 27.9926 112.799C27.9926 112.799 28.1301 113.094 28.6537 113.081C29.0909 113.069 29.3491 112.735 29.3491 112.735L29.6778 102.862C30.1224 104.986 30.9319 107.767 30.9319 107.767C30.5301 111.82 31.0563 114.577 31.0563 114.577C31.0563 114.577 31.233 114.882 31.7266 114.867C32.1637 114.853 32.4128 114.513 32.4128 114.513L32.9906 97.1584L27.1768 94.9757Z" fill="#1D81CD"/>
<path d="M28.6373 83.1798C28.3276 82.889 26.6099 82.9111 26.3902 85.8148C26.2949 87.0733 26.0895 89.0975 26.1484 90.6109C26.2401 92.9715 26.4426 95.0569 26.4426 95.0569C26.4426 95.0569 26.7736 95.5173 27.92 94.9498C27.7315 91.5137 27.6081 91.4633 27.6842 88.8729C27.7727 85.8629 29.5645 84.0505 28.6373 83.1798Z" fill="#E0E0E2"/>
<path d="M26.5723 95.59C26.5723 95.59 27.3141 93.6675 27.7177 91.1432C28.0281 89.2015 26.7821 86.9148 26.7821 85.8966C26.7821 83.6057 27.7142 83.0564 28.4188 83.071C28.4188 83.071 31.2398 83.9587 33.4169 85.9889C33.4169 85.9889 33.9148 87.8325 33.805 88.4914C33.68 89.2415 32.4465 90.3015 32.4465 91.1093C32.4465 92.1635 33.131 96.1458 33.131 96.1458C32.1811 98.0103 28.2746 98.0344 26.5723 95.59Z" fill="#E0E0E2"/>
<path d="M26.5572 95.1479C26.5962 95.1695 26.6469 95.1904 26.7097 95.2063C26.9357 94.5464 27.3907 93.0942 27.6883 91.3216C27.6618 90.7798 27.6536 90.2467 27.67 89.4444C27.4213 88.0064 26.7821 86.6262 26.7821 85.897C26.7821 84.5057 27.1261 83.7577 27.5539 83.3872C27.0283 83.6785 26.5569 84.4264 26.5569 86.0553C26.5569 87.0734 27.803 89.3601 27.4925 91.3018C27.2244 92.9787 26.8072 94.3893 26.5572 95.1479Z" fill="#D8D8DA"/>
<path d="M32.7666 80.4362C32.7666 80.4362 32.8366 82.6184 32.2864 83.0569C31.7363 83.4952 28.9406 83.2119 28.1684 81.7353C27.3963 80.2586 27.8223 77.4673 29.5415 77.1629C31.5497 76.8071 32.8879 78.2407 32.7666 80.4362Z" fill="#FEC377"/>
<path d="M29.0051 82.006L28.5916 84.2264C28.5916 84.2264 29.3733 85.6602 30.7817 84.78C30.7817 84.78 30.917 82.84 31.0489 82.5446C31.1809 82.2492 29.0051 82.006 29.0051 82.006Z" fill="#FEC377"/>
<path d="M32.4311 98.1551C32.4311 98.1551 32.4641 99.3561 32.4714 99.5095C32.4788 99.6641 32.3326 99.7695 32.449 100.075C32.4672 100.123 32.8057 100.372 32.9273 100.414C33.0588 100.458 33.8742 99.8698 33.9943 99.7765C34.1144 99.6831 34.0144 98.9344 34.0058 98.7554C34.0031 98.7006 33.9829 97.8201 33.882 97.782C33.7811 97.7439 32.4311 98.1551 32.4311 98.1551Z" fill="#FEC377"/>
<path d="M33.5505 86.0972C33.3151 85.7206 32.4557 85.3399 32.0162 86.9151C31.5767 88.4902 32.2479 98.5195 32.2479 98.5195C32.2479 98.5195 33.288 99.3293 34.0528 98.0956C34.0528 98.0956 33.7303 94.2173 33.7303 91.8435C33.7304 89.4697 33.994 86.8062 33.5505 86.0972Z" fill="#E0E0E2"/>
<path d="M32.0161 86.9152C32.0469 86.8049 32.0799 86.7051 32.1145 86.6133C32.0265 86.7973 31.9426 87.0209 31.8669 87.2925C31.5256 88.5156 31.7029 94.4574 31.8668 97.2217C31.9681 97.1813 32.0656 97.1363 32.1592 97.087C31.9929 94.2572 31.6803 88.1187 32.0161 86.9152Z" fill="#D8D8DA"/>
<path d="M32.2766 83.536C31.0697 84.0314 28.8088 83.151 28.0496 81.9371C27.4422 80.9657 27.2138 77.8148 29.0665 77.0647C31.1375 76.2262 33.3351 78.6132 32.8452 79.561C32.4984 80.232 32.1418 80.6092 32.1418 81.4643C32.1418 82.9015 32.3249 83.6487 32.2766 83.536Z" fill="#2E2E30"/>
</g>
<defs>
<linearGradient id="paint0_linear" x1="171.837" y1="153.858" x2="180.026" y2="142.056" gradientUnits="userSpaceOnUse">
<stop/>
<stop offset="0.0001"/>
<stop offset="1" stop-opacity="0"/>
</linearGradient>
<linearGradient id="paint1_linear" x1="166.024" y1="149.276" x2="183.441" y2="124.176" gradientUnits="userSpaceOnUse">
<stop/>
<stop offset="0.0001"/>
<stop offset="1" stop-opacity="0"/>
</linearGradient>
<radialGradient id="paint2_radial" cx="0" cy="0" r="1" gradientUnits="userSpaceOnUse" gradientTransform="translate(102.007 173.394) rotate(65.0776) scale(11.882 227.603)">
<stop stop-color="#E5AF43" stop-opacity="0.51"/>
<stop offset="1" stop-color="#F9BA62" stop-opacity="0"/>
</radialGradient>
<linearGradient id="paint3_linear" x1="92.1541" y1="88.7063" x2="105.816" y2="82.2874" gradientUnits="userSpaceOnUse">
<stop/>
<stop offset="1" stop-color="#C4C4C4" stop-opacity="0"/>
</linearGradient>
<linearGradient id="paint4_linear" x1="112.375" y1="81.9789" x2="124.355" y2="76.3506" gradientUnits="userSpaceOnUse">
<stop/>
<stop offset="1" stop-color="#C4C4C4" stop-opacity="0"/>
</linearGradient>
<linearGradient id="paint5_linear" x1="102.713" y1="85.4199" x2="115.177" y2="79.5639" gradientUnits="userSpaceOnUse">
<stop/>
<stop offset="1" stop-color="#C4C4C4" stop-opacity="0"/>
</linearGradient>
<radialGradient id="paint6_radial" cx="0" cy="0" r="1" gradientUnits="userSpaceOnUse" gradientTransform="translate(140.728 146.04) rotate(120.131) scale(13.2767 63.4893)">
<stop stop-color="#E5AF43" stop-opacity="0.44"/>
<stop offset="1" stop-color="#E5AF43" stop-opacity="0"/>
</radialGradient>
<linearGradient id="paint7_linear" x1="176.243" y1="189.025" x2="190.534" y2="173.649" gradientUnits="userSpaceOnUse">
<stop/>
<stop offset="1" stop-opacity="0"/>
</linearGradient>
<linearGradient id="paint8_linear" x1="196.196" y1="182.368" x2="161.138" y2="184.826" gradientUnits="userSpaceOnUse">
<stop/>
<stop offset="1" stop-color="#3E3D43" stop-opacity="0"/>
</linearGradient>
<radialGradient id="paint9_radial" cx="0" cy="0" r="1" gradientUnits="userSpaceOnUse" gradientTransform="translate(169.788 163.458) rotate(30.0909) scale(31.7484)">
<stop stop-color="#3E3D43" stop-opacity="0"/>
<stop offset="1" stop-opacity="0.97"/>
</radialGradient>
<linearGradient id="paint10_linear" x1="83.0916" y1="93.2855" x2="93.8783" y2="88.2177" gradientUnits="userSpaceOnUse">
<stop/>
<stop offset="1" stop-color="#C4C4C4" stop-opacity="0"/>
</linearGradient>
<linearGradient id="paint11_linear" x1="70.1699" y1="96.7433" x2="83.8321" y2="90.3245" gradientUnits="userSpaceOnUse">
<stop/>
<stop offset="1" stop-color="#C4C4C4" stop-opacity="0"/>
</linearGradient>
<linearGradient id="paint12_linear" x1="42.4553" y1="106.679" x2="56.1175" y2="100.26" gradientUnits="userSpaceOnUse">
<stop/>
<stop offset="1" stop-color="#C4C4C4" stop-opacity="0"/>
</linearGradient>
<linearGradient id="paint13_linear" x1="28.454" y1="113.533" x2="37.9774" y2="109.058" gradientUnits="userSpaceOnUse">
<stop/>
<stop offset="1" stop-color="#C4C4C4" stop-opacity="0"/>
</linearGradient>
<clipPath id="clip0">
<rect x="144.244" y="88.0172" width="116" height="116" fill="white"/>
</clipPath>
<clipPath id="clip1">
<rect x="80.1265" y="0.72403" width="172" height="173" fill="white"/>
</clipPath>
<clipPath id="clip2">
<rect x="89.6787" y="56.8892" width="17" height="35" fill="white"/>
</clipPath>
<clipPath id="clip3">
<rect x="107.679" y="49.8892" width="18" height="35" fill="white"/>
</clipPath>
<clipPath id="clip4">
<rect x="98.6787" y="53.8892" width="19" height="35" fill="white"/>
</clipPath>
<clipPath id="clip5">
<rect x="150.63" y="146.017" width="51" height="51" fill="white"/>
</clipPath>
<clipPath id="clip6">
<rect x="77.6787" y="58.8892" width="20" height="37" fill="white"/>
</clipPath>
<clipPath id="clip7">
<rect x="67.6787" y="60.8892" width="18" height="39" fill="white"/>
</clipPath>
<clipPath id="clip8">
<rect x="51.6787" y="65.8892" width="22" height="39" fill="white"/>
</clipPath>
<clipPath id="clip9">
<rect x="37.6787" y="68.8892" width="21" height="42" fill="white"/>
</clipPath>
<clipPath id="clip10">
<rect x="24.6787" y="76.8892" width="15" height="39" fill="white"/>
</clipPath>
</defs>
</svg>
