<svg width="287" height="232" viewBox="0 0 287 232" fill="none" xmlns="http://www.w3.org/2000/svg">
<g clip-path="url(#clip0)">
<path d="M250.769 120.139C244.388 116.455 235.921 114.426 226.926 114.427C217.932 114.427 209.487 116.456 203.148 120.139L165.807 141.84L168.963 143.662L206.305 121.962C217.662 115.362 236.202 115.362 247.633 121.961C259.065 128.562 259.124 139.3 247.768 145.9L210.426 167.601L213.584 169.424L250.925 147.723C257.264 144.039 260.738 139.141 260.709 133.931C260.68 128.721 257.15 123.823 250.769 120.139Z" fill="#3E3D43"/>
<path d="M166.46 136.995L148.847 147.231V152.404L158.066 157.727L175.68 147.491V142.319L166.46 136.995Z" fill="#3E3D43"/>
<path d="M158.066 152.554L175.68 142.319V147.491L158.066 157.727V152.554Z" fill="#2E2E30"/>
<path d="M148.847 147.231L166.46 136.995L175.68 142.319L158.066 152.554L148.847 147.231Z" fill="#57565C"/>
<path d="M150.572 149.559L144.709 152.966V155.682L150.625 159.097L156.48 155.69L156.487 152.974L150.572 149.559ZM150.42 158.749L150.426 158.745V158.749H150.42Z" fill="#898890"/>
<path d="M144.906 153.314L150.769 149.907L150.763 152.154L144.906 155.562V153.314Z" fill="#77767E"/>
<path d="M150.168 157.412L156.031 154.005L156.029 154.853L150.168 158.26V157.412Z" fill="#2E2E30"/>
<path d="M145.162 154.522L151.025 151.115L156.031 154.005L150.168 157.412L145.162 154.522Z" fill="#57565C"/>
<path d="M144.709 152.966L150.625 156.381V159.097L144.709 155.682V152.966ZM150.426 158.749V156.501L144.906 153.314V155.562L150.42 158.748" fill="#ACABB1"/>
<path d="M150.168 157.412V158.26L145.162 155.369V154.522L150.168 157.412Z" fill="#3E3D43"/>
<path d="M150.625 156.381L156.487 152.974L156.479 155.69L150.625 159.097V156.381Z" fill="#898890"/>
<path d="M144.709 152.966L150.572 149.559L156.487 152.974L150.625 156.381L144.709 152.966Z" fill="#C6C5CB"/>
<path d="M149.643 152.638C149.674 152.656 149.675 152.686 149.644 152.704L148.645 153.284C148.614 153.302 148.563 153.302 148.532 153.284L147.218 152.525C147.186 152.507 147.186 152.478 147.217 152.46L148.216 151.879C148.247 151.861 148.298 151.862 148.329 151.879L149.643 152.638ZM152.308 154.177L150.994 153.418C150.962 153.4 150.912 153.4 150.881 153.418L149.882 153.999C149.851 154.016 149.851 154.046 149.883 154.064L151.197 154.823C151.228 154.841 151.278 154.841 151.31 154.823L152.308 154.242C152.339 154.224 152.339 154.195 152.308 154.177Z" fill="#77767E"/>
<path d="M148.532 153.284C148.563 153.302 148.614 153.302 148.644 153.284L149.643 152.704C149.674 152.686 149.674 152.657 149.643 152.639L149.021 152.28L147.909 152.925L148.532 153.284Z" fill="#57565C"/>
<path d="M151.309 154.823L152.308 154.242C152.339 154.225 152.339 154.195 152.308 154.177L150.993 153.418C150.962 153.4 150.912 153.4 150.881 153.418L149.882 153.999C149.851 154.017 149.851 154.046 149.882 154.064L151.197 154.823C151.228 154.841 151.278 154.841 151.309 154.823Z" fill="#57565C"/>
<path d="M166.878 141.716C166.31 141.388 165.393 141.388 164.829 141.716C164.376 141.979 164.289 142.374 164.567 142.689L162.264 144.028H159.01C158.89 144.028 158.776 144.055 158.692 144.104L157.832 144.604L157.472 144.395L156.121 145.18L157.481 145.965L158.831 145.18L158.47 144.971L159.199 144.548H161.369L157.807 146.618L157.106 146.213L156.389 147.78L159.092 147.36L158.444 146.986L163.744 143.906L163.751 145.101L162.292 145.949C161.886 145.857 161.407 145.905 161.08 146.095C160.641 146.351 160.643 146.765 161.085 147.02C161.527 147.275 162.242 147.275 162.682 147.02C163.008 146.83 163.091 146.552 162.929 146.317L164.519 145.393C164.603 145.345 164.65 145.278 164.65 145.209L164.64 143.386L165.205 143.057C165.75 143.217 166.432 143.166 166.885 142.902C167.448 142.574 167.445 142.043 166.878 141.716Z" fill="#3E3D43"/>
<path d="M212.73 162.025L200.312 169.242V172.889L206.812 176.642L219.231 169.425V165.778L212.73 162.025Z" fill="#3E3D43"/>
<path d="M206.812 172.995L219.231 165.778V169.425L206.812 176.642V172.995Z" fill="#2E2E30"/>
<path d="M200.312 169.242L212.73 162.025L219.231 165.778L206.812 172.995L200.312 169.242Z" fill="#57565C"/>
<path d="M201.528 170.883L197.395 173.285V175.2L201.565 177.608L205.693 175.205L205.699 173.29L201.528 170.883ZM201.421 177.362L201.425 177.36V177.362H201.421Z" fill="#898890"/>
<path d="M197.534 173.53L201.667 171.128L201.663 172.713L197.534 175.115V173.53Z" fill="#77767E"/>
<path d="M201.244 176.42L205.377 174.018L205.376 174.615L201.244 177.017V176.42Z" fill="#2E2E30"/>
<path d="M197.714 174.382L201.848 171.98L205.377 174.018L201.244 176.42L197.714 174.382Z" fill="#57565C"/>
<path d="M197.395 173.285L201.565 175.693V177.608L197.395 175.2V173.285ZM201.425 177.362V175.777L197.534 173.53V175.115L201.421 177.362" fill="#ACABB1"/>
<path d="M201.244 176.42V177.017L197.714 174.98V174.382L201.244 176.42Z" fill="#3E3D43"/>
<path d="M201.565 175.693L205.699 173.291L205.693 175.205L201.565 177.608V175.693Z" fill="#898890"/>
<path d="M197.395 173.285L201.528 170.883L205.699 173.29L201.565 175.692L197.395 173.285Z" fill="#C6C5CB"/>
<path d="M200.873 173.054C200.895 173.067 200.895 173.087 200.873 173.1L200.169 173.51C200.147 173.522 200.112 173.522 200.09 173.51L199.163 172.975C199.141 172.962 199.141 172.941 199.162 172.928L199.867 172.519C199.889 172.506 199.925 172.506 199.946 172.519L200.873 173.054ZM202.752 174.139L201.825 173.604C201.803 173.591 201.767 173.591 201.746 173.604L201.041 174.013C201.019 174.026 201.019 174.047 201.041 174.06L201.968 174.595C201.99 174.607 202.026 174.607 202.048 174.595L202.752 174.185C202.774 174.172 202.774 174.151 202.752 174.139Z" fill="#77767E"/>
<path d="M200.09 173.509C200.112 173.522 200.147 173.522 200.169 173.509L200.873 173.1C200.895 173.087 200.895 173.067 200.873 173.054L200.435 172.801L199.651 173.256L200.09 173.509Z" fill="#57565C"/>
<path d="M202.048 174.594L202.753 174.185C202.775 174.172 202.774 174.151 202.752 174.139L201.825 173.604C201.804 173.591 201.768 173.591 201.746 173.604L201.042 174.013C201.02 174.026 201.02 174.046 201.042 174.059L201.969 174.594C201.99 174.607 202.026 174.607 202.048 174.594Z" fill="#57565C"/>
<path d="M213.025 165.352C212.625 165.121 211.978 165.121 211.58 165.352C211.261 165.538 211.2 165.817 211.396 166.039L209.772 166.983H207.477C207.393 166.983 207.313 167.002 207.254 167.036L206.647 167.389L206.392 167.242L205.44 167.795L206.399 168.348L207.351 167.795L207.096 167.648L207.61 167.349H209.14L206.629 168.809L206.134 168.523L205.629 169.628L207.534 169.332L207.077 169.068L210.814 166.896L210.819 167.739L209.791 168.337C209.504 168.272 209.167 168.306 208.936 168.44C208.626 168.62 208.628 168.911 208.94 169.092C209.252 169.271 209.755 169.271 210.065 169.092C210.296 168.958 210.354 168.762 210.24 168.596L211.361 167.945C211.42 167.91 211.454 167.864 211.453 167.815L211.446 166.529L211.845 166.297C212.229 166.41 212.709 166.374 213.029 166.188C213.427 165.958 213.425 165.583 213.025 165.352Z" fill="#3E3D43"/>
</g>
<g clip-path="url(#clip1)">
<path d="M160.628 131.652L150.861 133.803L196.863 159.564L204.852 156.785L160.628 131.652Z" fill="url(#paint0_linear)"/>
<path d="M141.66 102.047L120.889 106.622L218.726 161.412L235.717 155.501L141.66 102.047Z" fill="url(#paint1_linear)"/>
<path d="M187.498 120.881L146.568 96.9576L142.929 100.079L151.026 134.061L131.375 145.472L131.387 149.8L172.316 173.724L196.713 159.557L187.498 120.881Z" fill="#D8D8DA"/>
<path d="M172.316 173.724L131.387 149.8L131.375 145.472L172.304 169.396L172.316 173.724Z" fill="#C6C5CB"/>
<path d="M191.955 157.984L151.026 134.061L142.929 100.079L183.858 124.003L191.955 157.984Z" fill="#ACABB1"/>
<path d="M183.858 124.003L142.929 100.079L146.568 96.9576L187.498 120.881L183.858 124.003Z" fill="#77767E"/>
<path d="M187.498 120.881L196.713 159.557L172.316 173.724L172.304 169.396L191.955 157.984L183.858 124.003L187.498 120.881Z" fill="#898890"/>
<path d="M223.083 58.0208L119.866 0.723999L110.099 2.87501L110.1 2.87569L110.099 92.5698V104.603L215.065 167.045L215.066 70.0132V60.7868L133.235 15.6388L215.094 60.7999L216.693 60.2441L215.066 60.8158L215.067 167.005L223.006 162.7L223.018 58.0434L223.083 58.0208Z" fill="#C6C5CB"/>
<path d="M156.086 123.121C154.753 122.347 153.67 122.969 153.665 124.509C153.661 126.049 154.737 127.925 156.07 128.699C157.403 129.472 158.487 128.851 158.491 127.311C158.495 125.771 157.419 123.895 156.086 123.121Z" fill="#1D1D1F"/>
<path d="M215.066 60.8158L215.067 167.005L223.006 162.7L223.018 58.0208L215.066 60.8158Z" fill="#ACABB1"/>
<path d="M217.893 85.2749L217.893 128.699L221.14 126.939L221.145 84.132L217.893 85.2749Z" fill="#3E3D43"/>
<path d="M218.734 85.9572L218.734 127.227L220.302 126.377L220.304 85.4053L218.734 85.9572Z" fill="#1D1D1F"/>
<path d="M119.866 0.723999L110.099 2.87501L215.094 60.7999L223.083 58.0208L119.866 0.723999Z" fill="#D8D8DA"/>
<path d="M119.866 0.723999L110.099 2.87501L215.094 60.7999L223.083 58.0208L119.866 0.723999Z" fill="#CCCCCD"/>
<path d="M215.065 153.45L110.099 92.5698L110.1 2.875L215.066 60.7868L215.065 153.45Z" fill="#1D1D1F"/>
<path d="M210.43 144.754L113.893 88.4134L113.894 9.67065L210.431 63.0432L210.43 144.754Z" fill="#409DF8"/>
<path d="M201.722 113.046L151.845 83.9374L151.846 43.2549L201.722 70.8299L201.722 113.046Z" fill="#FA6B7F"/>
<path d="M201.722 125.009L151.845 95.9006L151.846 55.218L201.722 82.793L201.722 125.009Z" fill="white"/>
<path d="M187.497 106.667L154.935 87.6625L154.935 61.1021L187.498 79.1049L187.497 106.667Z" fill="#1D1D1F"/>
<path d="M175.051 99.4198L163.396 92.6181L163.397 86.5031C163.397 84.9799 165.031 84.0158 166.364 84.7528L170.922 87.2724C173.469 88.681 175.051 91.3625 175.051 94.2737L175.051 99.4198Z" fill="#36C7CC"/>
<path d="M172.308 84.3114C172.308 85.7811 170.714 86.6967 169.444 85.9559V85.9559C167.398 84.7614 166.139 82.5698 166.139 80.2L166.139 76.9648C166.139 75.6408 167.56 74.8027 168.719 75.4433V75.4433C170.933 76.6677 172.308 78.9986 172.308 81.5292L172.308 84.3114Z" fill="#FFB657"/>
<path d="M168 80.109C168 80.4251 167.657 80.6221 167.384 80.4627V80.4627C166.944 80.2058 166.673 79.7344 166.673 79.2247L166.673 78.5289C166.673 78.2441 166.979 78.0639 167.228 78.2017V78.2017C167.704 78.465 168 78.9663 168 79.5106L168 80.109Z" fill="white"/>
<path d="M170.868 82.0756C170.868 82.3917 170.525 82.5886 170.252 82.4293V82.4293C169.812 82.1724 169.541 81.701 169.541 81.1913L169.541 80.4954C169.541 80.2107 169.847 80.0304 170.096 80.1682V80.1682C170.572 80.4316 170.868 80.9329 170.868 81.4772L170.868 82.0756Z" fill="white"/>
<path d="M200.005 114.031L188.126 106.838L188.126 79.5488L200.005 85.9993L200.005 114.031Z" fill="#C6C5CB"/>
<path d="M198.46 77.1085L200.524 85.3344L201.741 82.6793L204.709 82.9961L198.46 77.1085Z" fill="white"/>
<path d="M200.523 84.7734L198.713 77.4155L204.193 82.6822L201.59 82.3983L200.523 84.7734ZM198.059 76.2819L198.848 79.4888L200.481 86.1228L201.906 82.9494L205.385 83.3279L200.445 78.5782L198.059 76.2819Z" fill="#010101"/>
</g>
<mask id="mask0" mask-type="alpha" maskUnits="userSpaceOnUse" x="201" y="78" width="86" height="96">
<path d="M219.869 125.711L219.869 87.3322L274.469 92.4786L266.117 173.582L219.869 125.711Z" fill="#C4C4C4"/>
</mask>
<g mask="url(#mask0)">
<path d="M234.481 110.076C234.405 110.203 234.341 110.353 234.293 110.526C234.347 110.512 234.401 110.497 234.455 110.482C234.503 110.309 234.567 110.159 234.644 110.031C234.595 110.045 234.53 110.062 234.481 110.076Z" fill="#67D4D5"/>
<path d="M234.245 110.735C234.299 110.72 234.354 110.705 234.408 110.69C234.421 110.619 234.436 110.55 234.455 110.483C234.455 110.482 234.455 110.482 234.455 110.482C234.401 110.497 234.347 110.511 234.293 110.526C234.292 110.527 234.292 110.527 234.292 110.527C234.274 110.595 234.258 110.664 234.245 110.735Z" fill="#67D4D5"/>
<path d="M234.245 110.734C234.233 110.8 234.223 110.866 234.216 110.934C234.27 110.919 234.325 110.905 234.379 110.89C234.386 110.822 234.396 110.755 234.408 110.689C234.354 110.704 234.299 110.719 234.245 110.734Z" fill="#67D4D5"/>
<path d="M235.157 113.789C235.295 113.927 235.437 114.032 235.577 114.106L235.74 114.061C235.599 113.987 235.458 113.882 235.319 113.744C234.651 113.078 234.271 111.877 234.379 110.891C234.349 110.899 234.318 110.907 234.287 110.916C234.284 110.917 234.28 110.918 234.277 110.919C234.27 110.921 234.262 110.923 234.256 110.925C234.25 110.926 234.241 110.929 234.235 110.93C234.23 110.932 234.221 110.932 234.216 110.935C234.109 111.922 234.489 113.123 235.157 113.789Z" fill="#67D4D5"/>
<path d="M229.712 129.62L229.55 129.665C229.895 129.57 230.301 129.704 230.684 130.087C230.823 130.225 230.949 130.387 231.06 130.564L231.223 130.52C231.111 130.343 230.985 130.181 230.847 130.043C230.463 129.659 230.057 129.526 229.712 129.62Z" fill="#00A6A8"/>
<path d="M220.765 96.1719L220.603 96.2163L234.481 110.076L234.643 110.031L220.765 96.1719Z" fill="#67D4D5"/>
<path d="M214.983 117.239L214.821 117.283L228.699 131.143L228.862 131.098L214.983 117.239Z" fill="#00A6A8"/>
<path d="M229.712 129.62L229.55 129.665C229.21 129.758 228.929 130.073 228.787 130.589C228.739 130.764 228.711 130.95 228.7 131.143L228.862 131.099C228.873 130.906 228.902 130.72 228.949 130.545C229.091 130.029 229.372 129.714 229.712 129.62Z" fill="#67D4D5"/>
<path d="M221.172 119.648L221.334 119.603C223.24 119.082 224.813 117.317 225.606 114.427L225.444 114.471C224.651 117.361 223.078 119.126 221.172 119.648Z" fill="#00A6A8"/>
<path d="M214.821 117.283C216.961 119.42 219.223 120.17 221.148 119.654L221.31 119.61C219.385 120.126 217.123 119.376 214.983 117.239C214.935 117.252 214.87 117.27 214.821 117.283Z" fill="#67D4D5"/>
<path d="M220.765 96.1718L220.603 96.2162C224.873 100.481 227.04 108.654 225.444 114.471L225.606 114.427C227.203 108.61 225.035 100.436 220.765 96.1718Z" fill="#00A6A8"/>
<path d="M206.886 82.3119L206.724 82.3563L220.603 96.2162L220.765 96.1718L206.886 82.3119Z" fill="#67D4D5"/>
<path d="M214.414 93.8068L214.252 93.8512C216.182 93.3228 218.454 94.0701 220.603 96.2162L220.765 96.1718C218.616 94.0257 216.344 93.2783 214.414 93.8068Z" fill="#00A6A8"/>
<path d="M214.275 93.8447C212.359 94.3582 210.776 96.1259 209.98 99.0279C210.034 99.0131 210.088 98.9982 210.142 98.9835C210.938 96.0815 212.521 94.3138 214.437 93.8003C214.389 93.8137 214.324 93.8315 214.275 93.8447Z" fill="#67D4D5"/>
<path d="M205.872 83.8338L206.035 83.7893C206.375 83.6959 206.657 83.3806 206.799 82.8645C206.847 82.6907 206.876 82.5047 206.887 82.3122L206.725 82.3567C206.713 82.5494 206.685 82.7352 206.637 82.9092C206.494 83.4251 206.213 83.7404 205.872 83.8338Z" fill="#00A6A8"/>
<path d="M201.102 103.39L200.94 103.434L214.823 117.272L214.986 117.228L201.102 103.39Z" fill="#00A6A8"/>
<path d="M209.573 101.162C208.916 106.709 211.046 113.518 214.822 117.28L214.984 117.235C211.209 113.474 209.079 106.665 209.736 101.118C209.682 101.132 209.627 101.147 209.573 101.162Z" fill="#67D4D5"/>
<path d="M214.767 117.23C214.785 117.248 214.803 117.265 214.821 117.283L214.983 117.239C214.966 117.221 214.948 117.203 214.93 117.185C214.876 117.2 214.822 117.215 214.767 117.23Z" fill="#67D4D5"/>
<path d="M209.981 99.0284C209.793 99.7099 209.657 100.424 209.569 101.16C209.624 101.145 209.678 101.13 209.732 101.115C209.819 100.379 209.955 99.6655 210.143 98.9838C210.089 98.9987 210.035 99.0136 209.981 99.0284Z" fill="#67D4D5"/>
<path d="M205.873 83.8331L206.036 83.7886C205.691 83.8832 205.285 83.7502 204.901 83.3677C204.763 83.2298 204.637 83.0686 204.525 82.8916L204.363 82.9361C204.474 83.1132 204.6 83.2743 204.739 83.4122C205.122 83.7947 205.528 83.9277 205.873 83.8331Z" fill="#67D4D5"/>
<path d="M212.757 114.683C213.359 115.626 214.032 116.486 214.768 117.228C214.822 117.213 214.877 117.199 214.931 117.184C214.194 116.441 213.521 115.582 212.92 114.639C212.866 114.654 212.812 114.669 212.757 114.683Z" fill="#67D4D5"/>
<path d="M212.757 114.682C212.811 114.667 212.866 114.652 212.92 114.638C212.903 114.61 212.885 114.583 212.868 114.555C212.814 114.57 212.76 114.585 212.705 114.6C212.723 114.628 212.74 114.655 212.757 114.682Z" fill="#67D4D5"/>
<path d="M212.687 114.573C212.693 114.582 212.699 114.592 212.705 114.601C212.759 114.586 212.814 114.571 212.868 114.556C212.862 114.547 212.857 114.538 212.851 114.528C212.796 114.543 212.742 114.558 212.687 114.573Z" fill="#67D4D5"/>
<path d="M212.741 114.558C212.778 114.548 212.815 114.538 212.851 114.528C212.264 113.592 211.747 112.575 211.309 111.51C211.254 111.525 211.2 111.54 211.146 111.554C211.585 112.62 212.102 113.636 212.689 114.572C212.697 114.57 212.706 114.568 212.714 114.565C212.718 114.564 212.723 114.563 212.727 114.562C212.732 114.56 212.737 114.559 212.741 114.558Z" fill="#67D4D5"/>
<path d="M211.146 111.553C211.2 111.539 211.254 111.524 211.309 111.509C211.304 111.498 211.3 111.488 211.296 111.477C211.241 111.492 211.187 111.507 211.133 111.522C211.137 111.532 211.141 111.543 211.146 111.553Z" fill="#67D4D5"/>
<path d="M211.114 111.475C211.12 111.491 211.126 111.507 211.133 111.522C211.187 111.508 211.242 111.493 211.296 111.478C211.289 111.462 211.283 111.446 211.277 111.431C211.228 111.444 211.162 111.462 211.114 111.475Z" fill="#67D4D5"/>
<path d="M211.042 111.298C211.065 111.357 211.089 111.417 211.113 111.476L211.277 111.431C211.253 111.372 211.229 111.313 211.205 111.253C211.151 111.268 211.096 111.283 211.042 111.298Z" fill="#67D4D5"/>
<path d="M211.097 111.284C211.133 111.274 211.17 111.265 211.206 111.255C211.202 111.245 211.198 111.235 211.195 111.225C211.14 111.24 211.086 111.255 211.032 111.27C211.035 111.28 211.039 111.289 211.043 111.299C211.061 111.294 211.079 111.289 211.097 111.284Z" fill="#67D4D5"/>
<path d="M209.741 106.6C209.766 106.751 209.792 106.903 209.821 107.055C209.875 107.04 209.929 107.025 209.983 107.01C209.955 106.859 209.929 106.707 209.904 106.555C209.855 106.568 209.79 106.586 209.741 106.6Z" fill="#67D4D5"/>
<path d="M209.82 107.055C209.822 107.063 209.823 107.07 209.824 107.078C209.879 107.063 209.933 107.048 209.987 107.034C209.986 107.026 209.985 107.018 209.983 107.01C209.929 107.025 209.874 107.04 209.82 107.055Z" fill="#67D4D5"/>
<path d="M209.911 107.513C209.965 107.498 210.019 107.483 210.073 107.468C210.043 107.324 210.015 107.179 209.988 107.034C209.934 107.049 209.879 107.064 209.825 107.078C209.852 107.223 209.881 107.368 209.911 107.513Z" fill="#67D4D5"/>
<path d="M210.538 109.89C210.688 110.357 210.853 110.818 211.032 111.27C211.086 111.255 211.141 111.24 211.195 111.225C211.016 110.773 210.851 110.312 210.701 109.846C210.652 109.859 210.587 109.877 210.538 109.89Z" fill="#67D4D5"/>
<path d="M209.91 107.512C209.924 107.577 209.937 107.642 209.951 107.707L210.114 107.662C210.1 107.597 210.086 107.532 210.073 107.468C210.019 107.482 209.965 107.497 209.91 107.512Z" fill="#67D4D5"/>
<path d="M220.778 96.1752C216.506 91.917 211.743 93.1799 210.139 98.9952C209.951 99.6768 209.815 100.39 209.727 101.127C209.071 106.671 211.198 113.476 214.97 117.235C219.242 121.493 224.005 120.23 225.609 114.415C227.213 108.6 225.05 100.433 220.778 96.1752Z" fill="#67D4D5"/>
<path d="M200.009 99.3478L199.847 99.3922C199.987 99.4664 200.128 99.5716 200.266 99.7098C201.029 100.471 201.416 101.932 201.131 102.97C201.083 103.145 201.019 103.295 200.943 103.423L201.105 103.379C201.182 103.251 201.245 103.101 201.293 102.926C201.579 101.887 201.191 100.427 200.429 99.6654C200.29 99.5273 200.149 99.4222 200.009 99.3478Z" fill="#00A6A8"/>
<path d="M237.733 111.361L204.553 78.2252L198.015 102.049L231.195 135.185L237.733 111.361ZM200.009 99.3477L204.525 82.8902C204.637 83.0676 204.763 83.229 204.901 83.3672C205.664 84.1289 206.514 83.9039 206.799 82.8646C206.847 82.6905 206.875 82.5045 206.886 82.3116L220.765 96.1715L234.643 110.031C234.566 110.159 234.502 110.309 234.455 110.483C234.169 111.523 234.557 112.983 235.319 113.745C235.458 113.883 235.599 113.988 235.739 114.062L231.223 130.52C231.111 130.342 230.985 130.181 230.847 130.043C230.084 129.281 229.234 129.506 228.949 130.545C228.901 130.719 228.873 130.905 228.862 131.098L214.983 117.239C213.452 115.709 212.191 113.677 211.277 111.431C212.191 113.677 213.452 115.709 214.983 117.238L201.105 103.379C201.181 103.251 201.245 103.1 201.293 102.926C201.578 101.887 201.191 100.427 200.428 99.6652C200.29 99.5271 200.149 99.422 200.009 99.3477Z" fill="#67D4D5"/>
<path d="M220.765 96.1717C225.035 100.436 227.202 108.609 225.606 114.427C224.009 120.244 219.253 121.503 214.983 117.239L228.862 131.098C228.873 130.906 228.902 130.72 228.949 130.545C229.234 129.506 230.084 129.281 230.847 130.043C230.985 130.181 231.111 130.343 231.223 130.52L235.739 114.062C235.599 113.988 235.458 113.883 235.319 113.745C234.557 112.983 234.169 111.523 234.455 110.484C234.502 110.31 234.567 110.159 234.643 110.031L220.765 96.1717Z" fill="#00A6A8"/>
<path d="M235.749 114.065L231.212 130.517C231.178 130.463 231.141 130.414 231.104 130.364L235.587 114.11L235.749 114.065Z" fill="#67D4D5"/>
<path d="M209.903 106.555C209.964 106.924 210.035 107.294 210.114 107.662C210.035 107.294 209.964 106.925 209.903 106.555Z" fill="#67D4D5"/>
<path d="M204.536 82.8931L204.373 82.9377L199.836 99.3893L199.999 99.3447L204.536 82.8931Z" fill="#00A6A8"/>
<path d="M206.882 82.3114C206.87 82.5041 206.841 82.6901 206.793 82.864C206.507 83.903 205.656 84.1285 204.893 83.3682C204.754 83.2302 204.629 83.0689 204.517 82.8918L199.979 99.3437C200.12 99.4177 200.261 99.5228 200.399 99.6608C201.162 100.421 201.549 101.88 201.262 102.919C201.214 103.093 201.15 103.243 201.073 103.371L214.957 117.21C211.186 113.451 209.058 106.646 209.715 101.101C209.802 100.365 209.938 99.6515 210.126 98.9699C211.73 93.1545 216.494 91.8915 220.766 96.1499L206.882 82.3114Z" fill="#00A6A8"/>
<path d="M233.859 99.5775C233.817 99.7229 233.794 99.887 233.792 100.07C233.842 100.041 233.891 100.012 233.94 99.9835C233.942 99.8005 233.965 99.6364 234.007 99.4911C233.963 99.5171 233.903 99.5516 233.859 99.5775Z" fill="#67D4D5"/>
<path d="M233.8 100.287C233.85 100.258 233.899 100.229 233.949 100.2C233.943 100.127 233.94 100.055 233.94 99.9842C233.94 99.9837 233.94 99.9834 233.941 99.983C233.891 100.012 233.842 100.041 233.792 100.07C233.792 100.07 233.792 100.071 233.792 100.071C233.792 100.142 233.795 100.214 233.8 100.287Z" fill="#67D4D5"/>
<path d="M233.801 100.286C233.806 100.354 233.814 100.422 233.825 100.49C233.874 100.462 233.923 100.433 233.973 100.404C233.962 100.335 233.954 100.267 233.949 100.199C233.899 100.228 233.85 100.257 233.801 100.286Z" fill="#67D4D5"/>
<path d="M235.499 103.046C235.672 103.145 235.838 103.211 235.996 103.247L236.144 103.16C235.986 103.124 235.82 103.059 235.647 102.959C234.816 102.481 234.127 101.402 233.973 100.405C233.946 100.421 233.918 100.437 233.89 100.454C233.887 100.455 233.883 100.458 233.88 100.459C233.874 100.463 233.867 100.467 233.861 100.471C233.855 100.474 233.848 100.478 233.843 100.481C233.838 100.484 233.829 100.487 233.825 100.492C233.979 101.488 234.668 102.568 235.499 103.046Z" fill="#67D4D5"/>
<path d="M234.319 120.025L234.171 120.112C234.485 119.928 234.919 119.952 235.396 120.228C235.569 120.327 235.735 120.453 235.891 120.597L236.039 120.511C235.882 120.366 235.716 120.241 235.544 120.142C235.066 119.866 234.633 119.842 234.319 120.025Z" fill="#00A6A8"/>
<path d="M216.731 89.5332L216.584 89.6195L233.859 99.5777L234.006 99.4914L216.731 89.5332Z" fill="#67D4D5"/>
<path d="M216.597 111.742L216.449 111.828L233.725 121.787L233.872 121.7L216.597 111.742Z" fill="#00A6A8"/>
<path d="M234.319 120.025L234.171 120.112C233.861 120.293 233.668 120.676 233.665 121.22C233.664 121.404 233.685 121.595 233.725 121.787L233.872 121.701C233.833 121.508 233.812 121.318 233.813 121.134C233.816 120.59 234.009 120.206 234.319 120.025Z" fill="#67D4D5"/>
<path d="M223.308 112.479L223.456 112.393C225.19 111.379 226.27 109.232 226.288 106.186L226.141 106.272C226.122 109.319 225.042 111.466 223.308 112.479Z" fill="#00A6A8"/>
<path d="M216.449 111.829C219.113 113.364 221.532 113.505 223.287 112.492L223.434 112.406C221.679 113.419 219.261 113.278 216.597 111.742C216.553 111.768 216.494 111.803 216.449 111.829Z" fill="#67D4D5"/>
<path d="M216.731 89.533L216.584 89.6193C221.899 92.6835 226.178 100.139 226.141 106.272L226.288 106.186C226.326 100.053 222.047 92.5971 216.731 89.533Z" fill="#00A6A8"/>
<path d="M199.456 79.5744L199.308 79.6607L216.584 89.6193L216.731 89.533L199.456 79.5744Z" fill="#67D4D5"/>
<path d="M209.872 88.8817L209.724 88.968C211.481 87.9412 213.909 88.0774 216.584 89.6193L216.731 89.533C214.056 87.991 211.629 87.8549 209.872 88.8817Z" fill="#00A6A8"/>
<path d="M209.746 88.9555C207.999 89.964 206.91 92.1164 206.892 95.1757C206.941 95.1469 206.99 95.118 207.039 95.0894C207.058 92.0301 208.147 89.8777 209.893 88.8692C209.849 88.8952 209.79 88.9298 209.746 88.9555Z" fill="#67D4D5"/>
<path d="M199.322 101.795L199.174 101.881L216.449 111.817L216.597 111.731L199.322 101.795Z" fill="#00A6A8"/>
<path d="M207.054 97.3784C207.869 102.999 211.752 109.125 216.449 111.825L216.597 111.739C211.9 109.038 208.017 102.912 207.202 97.2919C207.153 97.3206 207.103 97.3496 207.054 97.3784Z" fill="#67D4D5"/>
<path d="M216.383 111.79C216.405 111.803 216.427 111.816 216.449 111.829L216.597 111.742C216.575 111.729 216.553 111.716 216.531 111.703C216.481 111.732 216.432 111.761 216.383 111.79Z" fill="#67D4D5"/>
<path d="M206.893 95.1758C206.888 95.8946 206.942 96.6313 207.05 97.3771C207.099 97.3483 207.148 97.3193 207.198 97.2906C207.09 96.545 207.036 95.8082 207.041 95.0893C206.992 95.1182 206.942 95.147 206.893 95.1758Z" fill="#67D4D5"/>
<path d="M213.739 109.819C214.577 110.586 215.464 111.253 216.383 111.788C216.432 111.76 216.482 111.731 216.531 111.702C215.612 111.166 214.725 110.5 213.887 109.732C213.837 109.761 213.788 109.79 213.739 109.819Z" fill="#67D4D5"/>
<path d="M213.738 109.817C213.788 109.788 213.837 109.759 213.886 109.731C213.862 109.708 213.838 109.686 213.814 109.664C213.764 109.692 213.715 109.721 213.666 109.75C213.69 109.773 213.714 109.795 213.738 109.817Z" fill="#67D4D5"/>
<path d="M213.642 109.728C213.65 109.736 213.658 109.743 213.666 109.751C213.715 109.722 213.765 109.693 213.814 109.664C213.806 109.657 213.798 109.649 213.79 109.642C213.741 109.671 213.691 109.699 213.642 109.728Z" fill="#67D4D5"/>
<path d="M213.69 109.7C213.723 109.68 213.757 109.661 213.79 109.641C212.967 108.876 212.192 108.014 211.481 107.083C211.432 107.112 211.382 107.141 211.333 107.17C212.044 108.101 212.819 108.963 213.642 109.727C213.65 109.723 213.657 109.719 213.665 109.714C213.669 109.712 213.673 109.709 213.677 109.707C213.682 109.704 213.686 109.702 213.69 109.7Z" fill="#67D4D5"/>
<path d="M211.333 107.169C211.382 107.14 211.432 107.111 211.481 107.082C211.474 107.073 211.467 107.064 211.46 107.055C211.411 107.084 211.361 107.113 211.312 107.141C211.319 107.15 211.326 107.16 211.333 107.169Z" fill="#67D4D5"/>
<path d="M211.281 107.101C211.291 107.114 211.302 107.128 211.312 107.142C211.361 107.113 211.411 107.084 211.46 107.055C211.45 107.041 211.439 107.028 211.429 107.014C211.385 107.04 211.325 107.075 211.281 107.101Z" fill="#67D4D5"/>
<path d="M211.165 106.946C211.203 106.998 211.242 107.049 211.281 107.101L211.429 107.014C211.39 106.963 211.351 106.911 211.313 106.859C211.263 106.888 211.214 106.917 211.165 106.946Z" fill="#67D4D5"/>
<path d="M211.214 106.917C211.247 106.898 211.28 106.879 211.313 106.86C211.307 106.851 211.301 106.843 211.294 106.834C211.245 106.863 211.195 106.892 211.146 106.921C211.153 106.929 211.159 106.938 211.165 106.946C211.181 106.937 211.198 106.927 211.214 106.917Z" fill="#67D4D5"/>
<path d="M208.65 102.674C208.714 102.816 208.78 102.958 208.848 103.1C208.897 103.071 208.946 103.042 208.996 103.014C208.928 102.872 208.862 102.73 208.797 102.587C208.753 102.613 208.694 102.648 208.65 102.674Z" fill="#67D4D5"/>
<path d="M208.848 103.1C208.851 103.107 208.855 103.114 208.858 103.122C208.907 103.093 208.957 103.064 209.006 103.035C209.002 103.028 208.999 103.021 208.996 103.013C208.946 103.042 208.897 103.071 208.848 103.1Z" fill="#67D4D5"/>
<path d="M209.056 103.526C209.106 103.497 209.155 103.468 209.204 103.439C209.137 103.305 209.071 103.171 209.006 103.035C208.957 103.064 208.907 103.093 208.858 103.122C208.923 103.257 208.989 103.392 209.056 103.526Z" fill="#67D4D5"/>
<path d="M210.298 105.696C210.569 106.114 210.852 106.523 211.146 106.921C211.196 106.892 211.245 106.863 211.294 106.834C211 106.437 210.717 106.028 210.446 105.609C210.402 105.635 210.343 105.67 210.298 105.696Z" fill="#67D4D5"/>
<path d="M209.056 103.526C209.086 103.586 209.117 103.646 209.147 103.706L209.296 103.619C209.265 103.559 209.234 103.499 209.204 103.439C209.155 103.468 209.105 103.496 209.056 103.526Z" fill="#67D4D5"/>
<path d="M216.745 89.5329C211.43 86.4755 207.084 88.9691 207.039 95.1018C207.034 95.8205 207.088 96.5572 207.196 97.303C208.01 102.92 211.89 109.043 216.583 111.742C221.898 114.8 226.244 112.306 226.289 106.173C226.334 100.04 222.061 92.5901 216.745 89.5329Z" fill="#67D4D5"/>
<path d="M237.391 99.9839L196.089 76.1754L195.937 101.291L237.239 125.099L237.391 99.9839ZM197.184 98.1133L197.289 80.7637C197.446 80.9085 197.612 81.0339 197.784 81.1332C198.733 81.6805 199.508 81.2359 199.515 80.1403C199.516 79.9568 199.495 79.7667 199.456 79.5743L216.731 89.5327L234.006 99.491C233.965 99.6368 233.941 99.8012 233.94 99.985C233.934 101.081 234.698 102.413 235.648 102.96C235.82 103.059 235.986 103.125 236.143 103.161L236.039 120.511C235.882 120.366 235.716 120.241 235.544 120.141C234.595 119.594 233.819 120.038 233.813 121.134C233.812 121.318 233.833 121.508 233.872 121.7L216.597 111.742C214.69 110.643 212.917 108.979 211.429 107.014C212.917 108.979 214.69 110.643 216.597 111.742L199.321 101.783C199.363 101.638 199.386 101.473 199.387 101.289C199.394 100.194 198.629 98.8618 197.68 98.3147C197.508 98.2155 197.342 98.1494 197.184 98.1133Z" fill="#67D4D5"/>
<path d="M216.731 89.533C222.047 92.5971 226.325 100.053 226.288 106.186C226.251 112.318 221.912 114.806 216.597 111.742L233.872 121.701C233.833 121.508 233.812 121.318 233.813 121.134C233.819 120.039 234.595 119.594 235.544 120.142C235.716 120.241 235.882 120.366 236.039 120.511L236.143 103.161C235.986 103.125 235.82 103.059 235.648 102.96C234.698 102.413 233.934 101.081 233.94 99.9852C233.942 99.8018 233.965 99.6371 234.006 99.4913L216.731 89.533Z" fill="#00A6A8"/>
<path d="M236.154 103.162L236.028 120.511C235.98 120.467 235.93 120.429 235.881 120.389L236.007 103.248L236.154 103.162Z" fill="#67D4D5"/>
<path d="M208.797 102.587C208.954 102.934 209.12 103.278 209.296 103.619C209.121 103.279 208.954 102.934 208.797 102.587Z" fill="#67D4D5"/>
<path d="M197.3 80.7638L197.152 80.8503L197.026 98.1997L197.174 98.113L197.3 80.7638Z" fill="#00A6A8"/>
<path d="M199.451 79.5752C199.49 79.7676 199.511 79.9577 199.51 80.1411C199.502 81.2369 198.725 81.6822 197.776 81.1363C197.604 81.0372 197.438 80.912 197.281 80.7675L197.154 98.1171C197.312 98.1529 197.478 98.2189 197.651 98.3179C198.6 98.8639 199.363 100.195 199.355 101.29C199.354 101.474 199.33 101.639 199.289 101.785L216.564 111.72C211.871 109.021 207.991 102.899 207.177 97.2813C207.069 96.5357 207.015 95.7989 207.021 95.0801C207.065 88.9474 211.411 86.4537 216.727 89.5113L199.451 79.5752Z" fill="#00A6A8"/>
</g>
<path d="M25.8093 131.786V127.229L146.182 82.0634L146.025 86.6109L25.8093 131.786Z" fill="#ACABB1"/>
<path d="M1.96783 119.441V114.899L25.8029 127.324V131.884L1.96783 119.441Z" fill="#C6C5CB"/>
<path d="M25.6574 127.3L1.96384 114.806L124.103 69.376L145.975 82.2262L25.6574 127.3Z" fill="#CCCCCD"/>
<path d="M40.6625 211.075L16.9689 198.581L130.797 148.743L152.669 161.594L40.6625 211.075Z" fill="url(#paint2_radial)"/>
<g clip-path="url(#clip2)">
<path d="M97.3064 91.6031C97.0466 91.5534 96.4644 90.9599 96.4644 90.7942L107.117 85.0178L105.748 84.2395C102.422 85.7806 95.0531 89.1198 94.0137 89.6275C92.6449 90.2962 93.0683 89.4961 92.7565 88.9989C92.5071 88.6012 104.369 83.1627 109.028 80.5114L114.918 83.6028C112.804 84.6302 108.78 86.0658 107.117 86.9805C105.038 88.1238 97.8261 91.7026 97.3064 91.6031Z" fill="url(#paint3_linear)" style="mix-blend-mode:multiply"/>
<path d="M95.8823 90.0714V91.5526C95.8823 91.5526 96.2208 92.0281 96.8556 91.8488C97.4904 91.6696 99.7159 90.5125 99.5515 90.1497C99.1516 89.2674 98.1834 89.8656 96.9534 89.9618C96.2763 90.0147 95.8823 90.0714 95.8823 90.0714Z" fill="#791900"/>
<path d="M92.4543 88.167V89.6482C92.4543 89.6482 92.7929 90.1237 93.4277 89.9444C94.0625 89.7652 96.3446 88.5767 96.1236 88.2453C95.5644 87.4067 94.7555 87.9612 93.5255 88.0574C92.8484 88.1103 92.4543 88.167 92.4543 88.167Z" fill="#791900"/>
<path d="M92.0372 73.7234L92.1052 75.0108C92.1052 75.0108 92.5337 75.2964 92.5812 75.3441C92.6289 75.3917 93.6896 75.0055 93.6896 74.8839C93.6896 74.7622 93.454 74.011 93.454 73.9C93.454 73.7889 93.3747 73.2175 93.3747 73.2175L92.0372 73.7234Z" fill="#FFB657"/>
<path d="M93.8151 62.914C93.4193 62.861 92.0735 62.7678 91.8618 65.4202C91.7701 66.5696 91.6887 68.4188 91.7454 69.8012C91.8338 71.9574 92.0399 73.7738 92.0399 73.7738C92.0399 73.7738 92.3699 74.2475 93.4042 73.4374C93.4042 73.4374 93.4325 69.2813 93.5758 67.6631C93.7875 65.2719 94.6338 63.0239 93.8151 62.914Z" fill="#FFB657"/>
<path d="M92.2392 65.272C92.2392 65.272 91.7321 69.0048 92.1567 73.2177C92.1869 73.5171 92.2155 73.7952 92.2427 74.0548C92.2392 75.6052 92.9949 75.2156 93.4278 75.0288L92.2392 65.272Z" fill="#FFA834"/>
<path d="M91.9088 72.8461C91.9618 73.432 92.0023 73.7883 92.0023 73.7883C92.0023 73.7883 92.3415 74.275 93.4041 73.4428C93.4041 73.4428 93.4066 73.0923 93.4134 72.5535C93.0231 72.8624 92.4061 72.9658 91.9088 72.8461Z" fill="#CD2A01"/>
<path d="M92.4077 72.7893L92.4544 88.167C92.4544 88.167 92.4544 88.6639 93.3403 88.6639C94.1844 88.6639 94.1664 88.1213 94.1664 88.1213L94.8961 76.7172L95.4276 77.0095L95.8845 90.226C95.8845 90.226 96.1387 90.6006 96.7632 90.6006C97.4088 90.6006 97.5169 90.058 97.5169 90.058L98.1203 73.7994L92.4077 72.7893Z" fill="#FFB657"/>
<path d="M92.4521 87.4312L92.4543 88.167C92.4543 88.167 92.4543 89.0242 93.3402 89.0242C94.1843 89.0242 94.2195 88.0682 94.2195 88.0682L94.2065 87.4949C93.6602 87.7461 92.9332 87.7405 92.4521 87.4312Z" fill="#791900"/>
<path d="M95.8595 89.367C95.858 89.3655 95.8561 89.3642 95.8545 89.3627L95.8844 90.2258C95.8844 90.2258 96.1386 90.9607 96.7631 90.9607C97.4087 90.9607 97.5699 90.0047 97.5699 90.0047L97.543 89.35C97.0485 89.6133 96.4118 89.5328 95.8595 89.367Z" fill="#791900"/>
<path d="M97.9944 81.4318L98.2757 73.8544L92.3257 72.8022L92.275 80.2645C92.852 80.7842 93.7931 81.0125 94.6116 81.0643L94.8761 76.9309L95.4364 77.2391L95.5691 81.0804C96.3118 81.4482 97.1581 81.5471 97.9944 81.4318Z" fill="#891D00"/>
<path d="M92.2537 73.2894C92.2537 73.2894 92.1253 71.0362 92.1608 68.893C92.1906 67.0946 92.2392 66.4252 92.2392 65.4952C92.2392 63.4026 93.1368 62.9009 93.8151 62.9141C93.8151 62.9141 96.5312 63.7249 98.6275 65.5795L98.2545 74.0842C97.4926 75.087 93.7043 74.7802 92.2537 73.2894Z" fill="#AD2201"/>
<path d="M97.0624 67.0068L96.8039 74.6496C97.1083 74.6224 97.3859 74.569 97.6207 74.4887L97.0624 67.0068Z" fill="#891D00"/>
<path d="M97.6532 59.7464C97.6532 59.7464 97.7767 61.9742 97.2321 62.3733C96.6877 62.7725 94.1035 62.5105 93.3378 61.1641C92.5722 59.8177 92.9922 57.2741 94.6944 56.9978C96.6827 56.6752 97.7719 57.7455 97.6532 59.7464Z" fill="#FFB657"/>
<path d="M94.7493 61.7966L94.2973 64.0991C94.2973 64.0991 95.0532 64.9142 96.4599 64.3305C96.4599 64.3305 96.5902 62.5584 96.7172 62.2886C96.8442 62.0189 94.7493 61.7966 94.7493 61.7966Z" fill="#FFB657"/>
<path d="M95.6662 59.9364C96.1167 59.704 96.1387 60.224 96.4245 61.1414C96.6427 60.6324 96.4073 59.5876 96.7958 59.2506C97.2637 58.8448 97.4352 58.9878 97.6652 58.9373C97.4972 57.052 95.7855 56.6338 94.3942 57.0204C92.9464 57.4226 92.479 59.7916 93.2518 61.1506C93.6185 61.7956 94.6129 62.3774 95.2219 62.424C95.2958 60.8688 95.294 60.2691 95.6662 59.9364Z" fill="#FFA834"/>
<path d="M97.6783 76.6925C97.6783 76.6925 97.7099 77.7896 97.717 77.9296C97.7241 78.0709 97.5834 78.1671 97.6953 78.4462C97.7128 78.4899 98.0389 78.7178 98.156 78.7556C98.2826 78.7965 99.0677 78.2589 99.1833 78.1736C99.299 78.0882 99.2027 77.4044 99.1944 77.2408C99.1919 77.1908 99.1723 76.3865 99.0752 76.3516C98.9781 76.3168 97.6783 76.6925 97.6783 76.6925Z" fill="#FFB657"/>
<path d="M98.7561 65.678C98.5294 65.3341 97.6173 64.7641 97.1941 66.203C96.7709 67.6419 97.6839 76.8886 97.6839 76.8886C97.6839 76.8886 98.3963 77.6165 99.1326 76.4896C99.1326 76.4896 98.9292 73.0954 98.9292 70.9271C98.9293 68.7587 99.1832 66.3257 98.7561 65.678Z" fill="#FFB657"/>
<path d="M97.4985 75.6197C97.572 76.4371 97.6231 76.9545 97.6231 76.9545C97.6231 76.9545 98.4003 77.7487 99.2038 76.5192C99.2038 76.5192 99.17 75.9542 99.1287 75.1248C98.7414 75.5634 98.0899 75.8531 97.4985 75.6197Z" fill="#CD2A01"/>
</g>
<g clip-path="url(#clip3)">
<path d="M117.151 84.3621C116.923 84.3185 115.752 84.2896 115.752 84.1443L126.042 78.6743L124.791 77.8403C121.874 79.1916 115.443 82.5649 114.456 82.7963C113.522 83.015 113.335 82.8972 112.727 82.7963C112.321 82.729 122.416 77.6485 126.501 75.3237L132.392 77.504C130.539 78.4049 127.01 79.6636 125.552 80.4657C123.73 81.4683 117.607 84.4493 117.151 84.3621Z" fill="url(#paint4_linear)" style="mix-blend-mode:multiply"/>
<path d="M117.618 83.4016C117.611 83.4054 117.601 83.4093 117.593 83.4131C117.601 83.4093 117.61 83.4055 117.618 83.4016C117.475 83.2561 117.31 83.1056 117.249 82.8918C117.068 82.2612 116.853 81.4299 116.853 81.4299C116.853 81.4299 116.684 81.0901 116.225 80.9754C116.071 80.937 115.662 81.0513 115.662 81.0513C115.662 81.0513 115.192 82.2315 115.612 82.5914C115.957 82.8872 115.935 83.8701 116.55 84.2053C117.188 84.5528 117.832 84.0142 117.853 83.9153C117.897 83.7038 117.769 83.5555 117.618 83.4016Z" fill="#FFB657"/>
<path d="M117.618 83.4015C117.559 83.4315 117.464 83.4666 117.398 83.4666C117.316 83.4666 117.185 83.2416 117.05 82.9459C117.05 82.9443 116.632 82.0061 116.514 81.5547C116.332 80.8621 115.662 81.0512 115.662 81.0512C115.662 81.0512 115.192 82.2313 115.612 82.5912C115.957 82.887 115.935 83.8699 116.55 84.2051C117.188 84.5527 117.832 84.014 117.853 83.9151C117.897 83.7037 117.769 83.5554 117.618 83.4015Z" fill="#CD2A01"/>
<path d="M111.202 66.0731L111.272 67.2988C111.272 67.2988 111.713 67.5707 111.762 67.616C111.811 67.6613 112.905 67.2937 112.905 67.1779C112.905 67.0621 112.662 66.347 112.662 66.2412C112.662 66.1354 112.58 65.5916 112.58 65.5916L111.202 66.0731Z" fill="#FEC377"/>
<path d="M113.251 55.8774C112.944 55.6246 111.239 55.6437 111.021 58.1687C110.926 59.2629 110.722 61.0232 110.781 62.3392C110.872 64.3919 111.073 66.2054 111.073 66.2054C111.073 66.2054 111.401 66.6056 112.539 66.1122C112.352 63.1243 112.23 63.0805 112.305 60.8279C112.393 58.2105 114.171 56.6345 113.251 55.8774Z" fill="#898890"/>
<path d="M111.984 65.3C111.984 65.3 111.066 66.8385 111.201 68.8444C111.299 70.2755 112.627 74.2734 112.627 74.2734C112.253 77.5763 112.788 79.5059 112.788 79.5059C112.788 79.5059 112.816 79.9159 113.446 80.0592C113.841 80.1489 114.004 79.9809 114.004 79.9809L114.313 71.738C114.727 73.4671 115.476 75.7225 115.476 75.7225C115.102 79.0253 115.637 80.955 115.637 80.955C115.637 80.955 115.666 81.3649 116.296 81.5083C116.691 81.598 116.853 81.43 116.853 81.43L117.391 67.0786L111.984 65.3Z" fill="#1D81CD"/>
<path d="M111.202 66.6692C111.202 66.6692 111.938 64.9974 112.338 62.8023C112.646 61.1138 111.41 59.1254 111.41 58.24C111.41 56.248 112.335 55.7704 113.034 55.783C113.034 55.783 115.834 56.5548 117.995 58.3203C117.995 58.3203 118.489 59.9234 118.38 60.4965C118.256 61.1488 117.032 62.0705 117.032 62.773C117.032 63.6897 117.711 67.1526 117.711 67.1526C116.768 68.7739 112.891 68.7947 111.202 66.6692Z" fill="#898890"/>
<path d="M111.187 66.2845C111.225 66.3032 111.276 66.3214 111.338 66.3353C111.562 65.7614 112.014 64.4986 112.309 62.9572C112.283 62.4861 112.275 62.0225 112.291 61.3249C112.044 60.0745 111.41 58.8743 111.41 58.2402C111.41 57.0305 111.751 56.3799 112.176 56.0577C111.654 56.3111 111.186 56.9613 111.186 58.3778C111.186 59.2633 112.423 61.2516 112.115 62.9401C111.849 64.3983 111.435 65.6248 111.187 66.2845Z" fill="#77767E"/>
<path d="M117.349 53.4917C117.349 53.4917 117.419 55.3892 116.873 55.7705C116.327 56.1517 113.552 55.9054 112.785 54.6213C112.019 53.3372 112.442 50.9099 114.148 50.6452C116.141 50.3358 117.47 51.5825 117.349 53.4917Z" fill="#FEC377"/>
<path d="M113.616 54.8567L113.206 56.7874C113.206 56.7874 113.981 58.0342 115.379 57.2688C115.379 57.2688 115.514 55.5818 115.644 55.325C115.775 55.0683 113.616 54.8567 113.616 54.8567Z" fill="#FEC377"/>
<path d="M117.016 68.8994C117.016 68.8994 117.049 69.9438 117.056 70.0772C117.064 70.2117 116.919 70.3033 117.034 70.569C117.052 70.6105 117.388 70.8274 117.509 70.8634C117.639 70.9024 118.449 70.3906 118.568 70.3094C118.687 70.2282 118.588 69.5772 118.579 69.4214C118.577 69.3738 118.557 68.6082 118.456 68.575C118.356 68.5419 117.016 68.8994 117.016 68.8994Z" fill="#FEC377"/>
<path d="M118.128 58.4144C117.894 58.0869 117.041 57.7559 116.605 59.1256C116.168 60.4953 116.835 69.2165 116.835 69.2165C116.835 69.2165 117.867 69.9206 118.626 68.8478C118.626 68.8478 118.306 65.4754 118.306 63.4111C118.306 61.347 118.568 59.0308 118.128 58.4144Z" fill="#898890"/>
<path d="M116.605 59.1256C116.635 59.0296 116.668 58.9429 116.702 58.863C116.615 59.023 116.532 59.2174 116.457 59.4536C116.118 60.5171 116.294 65.684 116.456 68.0879C116.557 68.0528 116.654 68.0136 116.747 67.9707C116.582 65.51 116.271 60.1721 116.605 59.1256Z" fill="#77767E"/>
<path d="M114.769 81.9527C114.761 81.9564 114.752 81.9603 114.743 81.9642C114.752 81.9603 114.761 81.9564 114.769 81.9527C114.625 81.8071 114.461 81.6566 114.399 81.4428C114.219 80.8122 114.004 79.9809 114.004 79.9809C114.004 79.9809 113.835 79.6411 113.376 79.5264C113.222 79.488 112.813 79.6024 112.813 79.6024C112.813 79.6024 112.343 80.7825 112.763 81.1424C113.108 81.4382 113.085 82.4211 113.701 82.7563C114.339 83.1038 114.983 82.5652 115.003 82.4663C115.048 82.2548 114.92 82.1065 114.769 81.9527Z" fill="#FFB657"/>
<path d="M114.769 81.9526C114.71 81.9825 114.336 81.7926 114.201 81.497C114.2 81.4953 113.782 80.5571 113.664 80.1057C113.483 79.413 112.813 79.6022 112.813 79.6022C112.813 79.6022 112.343 80.7824 112.763 81.1422C113.108 81.438 113.085 82.421 113.701 82.7562C114.339 83.1037 114.983 82.5651 115.003 82.4662C115.048 82.2548 114.92 82.1064 114.769 81.9526Z" fill="#CD2A01"/>
<path d="M115.989 82.1936C115.989 82.8714 115.85 84.1995 115.85 84.1995H115.714V82.0391C115.714 82.0392 115.989 81.9704 115.989 82.1936Z" fill="#CD2A01"/>
<path d="M112.97 80.7447C112.97 81.4224 112.831 82.7506 112.831 82.7506H112.696V80.5902C112.695 80.5902 112.97 80.5214 112.97 80.7447Z" fill="#CD2A01"/>
<path d="M116.957 51.1836C116.754 50.9854 116.262 50.5254 115.46 50.4919C113.206 50.3977 112.542 51.764 112.205 53.0869C111.79 54.7182 111.311 59.4069 111.371 59.8402C111.531 60.9955 112.076 61.8816 113.127 62.087C115.527 62.5567 116.633 61.3151 116.745 60.9268C116.996 60.0555 117.026 56.743 116.966 54.706C117.175 53.9422 117.423 53.1375 117.457 52.822C117.521 52.2396 117.393 51.6087 116.957 51.1836Z" fill="#891D00"/>
</g>
<g clip-path="url(#clip4)">
<path d="M107.663 87.8995C107.426 87.8542 106.686 87.476 106.686 87.3248L116.913 81.9816L115.612 81.1139C112.578 82.5198 105.241 85.5362 104.293 85.9994C103.044 86.6094 103.407 86.0505 103.122 85.597C102.894 85.2342 113.897 80.3624 118.148 77.9436L123.521 80.764C121.593 81.7013 117.921 83.011 116.404 83.8455C114.508 84.8886 108.137 87.9902 107.663 87.8995Z" fill="url(#paint5_linear)" style="mix-blend-mode:multiply"/>
<path d="M105.971 86.5708V87.9967C105.971 87.9967 106.302 88.4544 106.921 88.2818C107.54 88.1093 109.71 86.9953 109.549 86.6461C109.159 85.7967 108.215 86.3727 107.016 86.4652C106.356 86.5161 105.971 86.5708 105.971 86.5708Z" fill="#884D01"/>
<path d="M102.629 84.7374V86.1633C102.629 86.1633 102.959 86.621 103.578 86.4484C104.197 86.2759 106.422 85.1317 106.207 84.8127C105.661 84.0054 104.873 84.5393 103.673 84.6318C103.013 84.6827 102.629 84.7374 102.629 84.7374Z" fill="#884D01"/>
<path d="M102.222 70.8331L102.288 72.0725C102.288 72.0725 102.706 72.3476 102.752 72.3934C102.799 72.4393 103.833 72.0675 103.833 71.9504C103.833 71.8332 103.604 71.1101 103.604 71.0032C103.604 70.8962 103.292 70.3815 103.292 70.3815L102.222 70.8331Z" fill="#FEC377"/>
<path d="M103.956 60.4272C103.57 60.3761 102.257 60.2864 102.051 62.8397C101.961 63.9463 101.882 65.7264 101.937 67.0573C102.023 69.133 102.222 70.8331 102.222 70.8331C102.222 70.8331 102.319 71.1259 103.327 70.3461C103.327 70.3461 103.583 66.5568 103.722 64.9989C103.928 62.6971 104.754 60.5329 103.956 60.4272Z" fill="#FEC377"/>
<path d="M103.944 60.4278C103.564 60.2954 102.188 60.2285 101.975 62.9219C101.896 63.9188 101.822 65.4436 101.842 66.7297C102.317 67.1327 103.01 67.2547 103.553 67.0302C103.607 66.3103 103.66 65.631 103.703 65.1541C103.916 62.7744 104.769 60.7158 103.944 60.4278Z" fill="#008778"/>
<path d="M102.583 69.9338L102.419 84.8063C102.419 84.8063 102.386 85.2159 103.492 85.2159C104.599 85.2159 104.657 84.6935 104.657 84.6935L105.098 73.7629L105.109 73.7688L105.571 86.6708C105.571 86.6708 105.538 87.0804 106.645 87.0804C107.751 87.0804 107.809 86.558 107.809 86.558L107.968 70.9063L102.583 69.9338Z" fill="#57565C"/>
<path d="M102.51 70.4251C102.51 70.4251 102.308 68.2459 102.343 66.1828C102.372 64.4516 102.419 63.8072 102.419 62.9119C102.419 60.8974 103.294 60.4144 103.956 60.4271C103.956 60.4271 106.604 61.2077 108.649 62.993L108.285 71.1803C107.542 72.1456 103.924 71.8603 102.51 70.4251Z" fill="#008778"/>
<path d="M107.376 69.7494C107.364 69.7458 107.351 69.7425 107.339 69.7388C107.237 68.384 107.123 66.9357 107.074 65.7684L106.87 71.7246C107.11 71.7035 107.331 71.665 107.529 71.6106C107.48 71.0504 107.427 70.4141 107.376 69.7494Z" fill="#02665A"/>
<path d="M107.698 57.3777C107.698 57.3777 107.819 59.5223 107.288 59.9065C106.757 60.2908 104.237 60.0386 103.49 58.7424C102.744 57.4463 103.153 54.9976 104.813 54.7317C106.752 54.4211 107.814 55.4515 107.698 57.3777Z" fill="#FEC377"/>
<path d="M104.867 59.3514L104.426 61.568C104.426 61.568 105.163 62.3527 106.535 61.7908C106.535 61.7908 106.662 60.0848 106.786 59.8251C106.909 59.5653 104.867 59.3514 104.867 59.3514Z" fill="#FEC377"/>
<path d="M104.378 61.515C104.356 61.3929 104.426 60.947 104.542 60.9814C104.542 60.9814 104.568 61.5326 106.58 61.2571L106.791 61.667C106.791 61.667 106.122 62.1346 105.48 62.0851C105.023 62.0499 104.426 61.7732 104.378 61.515Z" fill="#00AB95"/>
<path d="M107.723 73.6913C107.723 73.6913 107.754 74.7474 107.76 74.8823C107.767 75.0182 107.63 75.1109 107.739 75.3796C107.756 75.4215 108.074 75.641 108.189 75.6774C108.312 75.7168 109.078 75.1992 109.19 75.1172C109.303 75.0351 109.209 74.3767 109.201 74.2192C109.199 74.171 109.18 73.3967 109.085 73.3633C108.99 73.3296 107.723 73.6913 107.723 73.6913Z" fill="#FEC377"/>
<path d="M108.774 63.088C108.553 62.7569 107.663 62.2082 107.251 63.5935C106.838 64.9786 107.723 73.6914 107.723 73.6914C107.723 73.6914 108.395 74.4822 109.113 73.3974C109.113 73.3974 108.943 70.2287 108.943 68.1412C108.943 66.0537 109.19 63.7115 108.774 63.088Z" fill="#FEC377"/>
<path d="M108.791 63.0987C108.52 62.7243 107.565 62.195 107.141 63.6179C106.917 64.3689 107.15 67.2167 107.339 69.7389C107.869 69.9008 108.507 69.9487 108.984 69.7506C108.972 69.2416 108.964 68.7411 108.964 68.2897C108.964 66.1453 109.275 63.7686 108.791 63.0987Z" fill="#008778"/>
<path d="M104.456 59.6301C104.161 59.5661 103.485 59.067 103.155 58.2113C102.876 57.4862 102.976 56.1514 103.244 55.6616C103.601 55.0076 104.05 54.6485 104.693 54.5194C105.43 54.3711 107.354 54.7812 108.218 54.8585C108.303 55.6616 107.827 56.2213 107.401 56.4691C107.177 56.5997 107.185 56.6368 106.999 56.8162C106.731 57.0741 106.757 57.917 106.763 58.2864C106.642 57.9345 106.461 57.209 106.13 57.2209C105.798 57.2328 105.522 57.5863 105.603 57.9041C105.626 57.9945 105.812 58.4654 105.973 58.8385C106.071 59.067 105.949 59.5263 105.879 59.7084L104.456 59.6301Z" fill="#806749"/>
</g>
<path d="M197.902 190.423L222.469 180.346L114.885 120.35L92.0813 130.951L197.902 190.423Z" fill="url(#paint6_radial)"/>
<path d="M196.235 183.816C196.625 186.154 191.85 191.287 189.413 193.561L175.051 178.214C180.656 176.812 192.741 172.568 196.235 166.803C200.603 159.596 211.986 159.296 217.992 164.4C223.998 169.505 224.506 176.64 216.205 182.204C207.905 187.768 195.748 180.892 196.235 183.816Z" fill="url(#paint7_linear)"/>
<g clip-path="url(#clip5)">
<path d="M188.354 194.189C191.639 192.292 193.28 189.802 193.273 187.315L193.255 183.686C193.255 183.693 193.254 183.701 193.254 183.709C193.257 181.246 191.645 178.785 188.411 176.905C181.922 173.134 171.368 173.134 164.839 176.903C161.344 178.921 159.729 181.609 159.958 184.25C159.944 184.093 159.918 183.936 159.918 183.779L159.935 187.408C159.942 189.864 161.556 192.315 164.779 194.189C171.268 197.96 181.822 197.96 188.354 194.189Z" fill="#D8D8DA"/>
<path d="M188.354 194.189C191.639 192.292 193.28 189.802 193.273 187.315L193.255 183.686C193.263 186.172 191.622 188.662 188.336 190.559C181.805 194.33 171.251 194.33 164.762 190.559C161.538 188.686 159.925 186.234 159.918 183.779L159.935 187.409C159.942 189.864 161.556 192.315 164.779 194.189C171.268 197.96 181.822 197.96 188.354 194.189Z" fill="#1D1D1F"/>
<path d="M188.336 190.559C181.805 194.33 171.251 194.33 164.762 190.559C158.273 186.788 158.307 180.675 164.839 176.904C171.368 173.134 181.922 173.134 188.411 176.905C194.9 180.676 194.866 186.79 188.336 190.559Z" fill="#3E3D43"/>
<path d="M188.336 190.559C181.805 194.33 171.251 194.33 164.762 190.559C158.273 186.788 158.307 180.675 164.839 176.904C171.368 173.134 181.922 173.134 188.411 176.905C194.9 180.676 194.866 186.79 188.336 190.559Z" fill="url(#paint8_linear)"/>
<path d="M176.595 188.272C188.263 188.272 197.722 178.813 197.722 167.144C197.722 155.476 188.263 146.017 176.595 146.017C164.927 146.017 155.468 155.476 155.468 167.144C155.468 178.813 164.927 188.272 176.595 188.272Z" fill="#3E3D43"/>
<path d="M176.595 188.272C188.263 188.272 197.722 178.813 197.722 167.144C197.722 155.476 188.263 146.017 176.595 146.017C164.927 146.017 155.468 155.476 155.468 167.144C155.468 178.813 164.927 188.272 176.595 188.272Z" fill="url(#paint9_radial)"/>
<path d="M172.713 178.062C172.776 183.165 169.257 185.313 164.854 182.86C160.451 180.406 156.831 174.28 156.768 169.177C156.706 164.073 160.225 161.925 164.627 164.379C169.03 166.832 172.651 172.958 172.713 178.062Z" fill="#4D4D4D"/>
<path d="M166.797 174.765C166.814 176.082 165.906 176.636 164.77 176.003C163.634 175.37 162.701 173.79 162.684 172.473C162.668 171.157 163.576 170.603 164.712 171.236C165.848 171.869 166.781 173.449 166.797 174.765Z" fill="#666666"/>
<path d="M174.013 178.786C174.086 184.722 169.993 187.22 164.873 184.367C159.752 181.513 155.541 174.388 155.469 168.452C155.396 162.517 159.488 160.018 164.609 162.872C169.73 165.726 173.94 172.851 174.013 178.786ZM171.393 177.327C171.341 173.068 168.321 167.956 164.646 165.908C160.972 163.861 158.036 165.654 158.088 169.912C158.14 174.171 161.161 179.283 164.835 181.33C168.509 183.378 171.446 181.585 171.393 177.327Z" fill="#1D1D1F"/>
<path d="M166.678 158.342C165.208 157.493 163.323 157.206 162.469 157.702C161.616 158.198 162.117 159.289 163.588 160.138C165.059 160.987 166.944 161.274 167.797 160.778C168.65 160.282 168.149 159.191 166.678 158.342Z" fill="#82CF95"/>
</g>
<path d="M134.14 79.5185V46.6414L137.709 45.4203V78.2381L134.14 79.5185Z" fill="#E5AF43"/>
<path d="M125.043 73.897V41.1904L134.161 46.6517V79.3714L125.043 73.897Z" fill="#FFD46B"/>
<path d="M131.03 64.6771V60.7037L132.379 61.3371V65.312L131.03 64.6771Z" fill="#1D1D1F"/>
<path d="M134.159 46.6476L125.039 41.194L128.161 39.9304L137.718 45.4196L134.159 46.6476Z" fill="#FFE08E"/>
<g clip-path="url(#clip6)">
<path d="M87.4382 95.4314C87.233 95.3921 86.5924 95.0649 86.5924 94.934L95.4433 90.31L94.317 89.559C91.6911 90.7758 85.2894 93.2303 84.4688 93.6311C83.3881 94.1591 83.6754 93.6097 83.4293 93.2172C83.2323 92.9032 92.8329 88.9087 96.5118 86.8154L101.162 89.2562C99.493 90.0674 96.3156 91.2008 95.0027 91.923C93.3615 92.8257 87.8484 95.5099 87.4382 95.4314Z" fill="url(#paint10_linear)" style="mix-blend-mode:multiply"/>
<path d="M85.9445 94.3927V95.6462C85.9445 95.6462 86.231 96.0486 86.7683 95.8969C87.3056 95.7452 89.189 94.7659 89.0498 94.4589C88.7113 93.7121 87.8921 94.2185 86.851 94.2998C86.278 94.3447 85.9445 94.3927 85.9445 94.3927Z" fill="#971052"/>
<path d="M83.0726 92.781V94.0345C83.0726 94.0345 83.3591 94.4369 83.8964 94.2852C84.4336 94.1335 86.365 93.1277 86.178 92.8472C85.7047 92.1376 85.0202 92.6068 83.9791 92.6882C83.4061 92.7331 83.0726 92.781 83.0726 92.781Z" fill="#971052"/>
<path d="M81.4749 75.9904L81.5456 77.3297C81.5456 77.3297 81.9913 77.627 82.0408 77.6765C82.0903 77.726 83.1939 77.3242 83.1939 77.1976C83.1939 77.071 82.9488 76.2896 82.9488 76.1741C82.9488 76.0585 82.8663 75.4641 82.8663 75.4641L81.4749 75.9904Z" fill="#FEC377"/>
<path d="M83.5433 64.8486C83.2331 64.5723 81.5126 64.5932 81.2925 67.3525C81.1971 68.5483 81.0825 70.3808 81.1414 71.819C81.2334 74.0621 81.4749 75.9903 81.4749 75.9903C81.4749 75.9903 81.6766 76.5723 82.8249 76.0331C82.6361 72.7679 82.5125 72.72 82.5888 70.2584C82.6773 67.3984 84.472 65.6761 83.5433 64.8486Z" fill="#FEC377"/>
<path d="M82.2644 75.1455C82.2644 75.1455 81.3377 76.8268 81.4749 79.0187C81.5728 80.5826 82.9133 84.9515 82.9133 84.9515C82.5361 88.5608 83.0755 92.9483 83.0755 92.9483C83.0755 92.9483 83.2025 93.2548 83.5458 93.2786C84.0123 93.3109 84.3033 93.0511 84.3033 93.0511L84.6147 82.1807C85.0326 84.0703 85.7888 86.535 85.7888 86.535C85.4117 90.1443 85.9511 94.5317 85.9511 94.5317C85.9511 94.5317 86.0754 94.8007 86.4435 94.8832C86.844 94.9728 87.1788 94.6346 87.1788 94.6346L87.7211 77.089L82.2644 75.1455Z" fill="#FFB657"/>
<path d="M82.3344 74.9666C82.2953 75.0376 81.2581 76.5803 81.3979 78.8128C81.4539 79.7072 81.7464 81.19 82.128 82.5704C82.4736 83.4507 83.7306 83.5579 84.6336 83.4347L84.6694 82.7823C84.7637 83.0985 84.8566 83.4173 84.9354 83.7225C85.5844 84.3715 86.7495 84.3395 87.6226 83.7281L87.9556 76.892L82.3344 74.9666Z" fill="#5AAAE7"/>
<path d="M81.6849 76.2622C81.6849 76.2622 82.2179 74.8149 82.6221 72.4162C82.933 70.571 81.6849 68.3981 81.6849 67.4306C81.6849 65.2537 82.6186 64.7318 83.3243 64.7455C83.3243 64.7455 86.1499 65.589 88.3306 67.5183C88.3306 67.5183 88.8293 69.2701 88.7192 69.8965C88.594 70.6094 87.3585 71.6165 87.3585 72.3842C87.3585 73.3859 88.0441 77.1702 88.0441 77.1702C87.0928 78.9418 83.39 78.585 81.6849 76.2622Z" fill="#E5197C"/>
<path d="M86.7782 68.7566C86.4363 69.9189 86.6138 75.5652 86.7781 78.1921C87.3415 77.9787 87.6224 77.6347 87.8718 77.1702C87.8718 77.1702 87.3587 73.386 87.3587 72.3841C87.3587 71.8318 87.9981 71.1556 88.4035 70.5541C88.4422 69.1966 88.4422 68.0434 88.1636 67.6208C87.9278 67.263 87.2184 67.2597 86.7782 68.7566Z" fill="#C71468"/>
<path d="M87.6791 62.2414C87.6791 62.2414 87.7492 64.315 87.1982 64.7316C86.6471 65.1482 83.8468 64.8789 83.0734 63.4757C82.3001 62.0725 82.7269 59.42 84.4488 59.1307C86.4602 58.7929 87.8007 60.1551 87.6791 62.2414Z" fill="#FEC377"/>
<path d="M83.9116 63.7333L83.4974 65.8431C83.4974 65.8431 83.0491 67.4236 85.6912 66.3692C85.6912 66.3692 85.8267 64.5257 85.9588 64.245C86.0908 63.9645 83.9116 63.7333 83.9116 63.7333Z" fill="#FEC377"/>
<path d="M87.5022 66.7319C83.5898 67.9858 82.6778 65.9943 82.6778 65.9943C82.4663 63.1476 82.1129 59.8279 83.973 59.1517C86.5827 58.2028 88.2485 60.5722 87.758 61.4417C87.4107 62.0573 87.3526 61.9734 87.3317 62.7575C87.2812 64.6552 87.4516 66.4156 87.5022 66.7319Z" fill="#5E4C36"/>
<path d="M87.3432 79.0792C87.3432 79.0792 87.3762 80.2204 87.3836 80.3662C87.391 80.5131 87.2445 80.6133 87.3611 80.9035C87.3793 80.9489 87.7184 81.186 87.8403 81.2253C87.972 81.2679 88.7887 80.7086 88.909 80.6199C89.0294 80.5311 88.9291 79.8197 88.9205 79.6495C88.9178 79.5974 88.8975 78.7607 88.7965 78.7245C88.6955 78.6883 87.3432 79.0792 87.3432 79.0792Z" fill="#FEC377"/>
<path d="M88.4645 67.6209C88.2286 67.2631 87.3678 66.9013 86.9276 68.3982C86.4873 69.895 87.3431 79.0792 87.3431 79.0792C87.3431 79.0792 88.0302 79.897 88.7964 78.7246C88.7964 78.7246 88.6446 75.3373 88.6446 73.0815C88.6446 70.8257 88.9086 68.2947 88.4645 67.6209Z" fill="#FEC377"/>
<path d="M85.8398 93.8366C85.8813 94.2693 85.9123 94.5261 85.9136 94.5366L85.9144 94.5424L85.9167 94.5478C85.9222 94.5594 86.0534 94.8347 86.4351 94.9202C86.4826 94.9308 86.5316 94.9362 86.5809 94.9362C86.581 94.9362 86.581 94.9362 86.581 94.9362C86.9295 94.9362 87.1945 94.6725 87.2055 94.6613L87.216 94.6507L87.2447 93.7216C86.8186 93.9721 86.2977 94.0703 85.8398 93.8366Z" fill="#E0E0E2"/>
<path d="M82.9534 92.1377C83.0002 92.6398 83.0365 92.9416 83.038 92.9529L83.0386 92.9581L83.0405 92.9628C83.046 92.9763 83.1806 93.2913 83.5431 93.3164C83.5712 93.3183 83.5988 93.3193 83.6257 93.3193C84.0547 93.3193 84.3172 93.0892 84.3283 93.0794L84.3404 93.0685L84.3658 92.1803C83.9253 92.3667 83.4114 92.3958 82.9534 92.1377Z" fill="#E0E0E2"/>
</g>
<g clip-path="url(#clip7)">
<path d="M75.5515 99.4611C75.2916 99.4114 74.4802 98.9969 74.4802 98.8312L85.6906 92.9745L84.264 92.0233C80.9381 93.5644 72.8299 96.6733 71.7905 97.181C70.4217 97.8497 70.7857 97.1539 70.4739 96.6567C70.2244 96.259 82.3843 91.1997 87.044 88.5483L92.9333 91.6398C90.82 92.6672 86.7955 94.1027 85.1325 95.0174C83.0539 96.1608 76.0711 99.5606 75.5515 99.4611Z" fill="url(#paint11_linear)" style="mix-blend-mode:multiply"/>
<path d="M73.9092 97.8669V99.5147C73.9092 99.5147 74.2858 100.044 74.992 99.8443C75.6982 99.645 78.1741 98.3576 77.9912 97.954C77.5462 96.9724 76.4692 97.6381 75.1008 97.7449C74.3475 97.8039 73.9092 97.8669 73.9092 97.8669Z" fill="#884D01"/>
<path d="M70.0956 95.7484V97.3961C70.0956 97.3961 70.4722 97.9251 71.1784 97.7257C71.8846 97.5264 74.4235 96.2041 74.1776 95.8354C73.5554 94.9026 72.6556 95.5195 71.2872 95.6263C70.534 95.6852 70.0956 95.7484 70.0956 95.7484Z" fill="#884D01"/>
<path d="M69.6317 79.6799L69.7073 81.1122C69.7073 81.1122 70.184 81.43 70.237 81.4829C70.2899 81.5359 71.4701 81.1063 71.4701 80.9709C71.4701 80.8356 71.208 79.9999 71.208 79.8763C71.208 79.7528 71.1197 79.1172 71.1197 79.1172L69.6317 79.6799Z" fill="#FEC377"/>
<path d="M71.6094 67.6546C71.1692 67.5956 69.6719 67.4919 69.4366 70.4426C69.3345 71.7214 69.2439 73.7785 69.307 75.3164C69.4053 77.7152 69.4929 79.8345 69.4929 79.8345C69.4929 79.8345 70.3576 80.6185 71.5081 79.7174C71.5081 79.7174 71.1839 74.7381 71.3433 72.9379C71.5787 70.2777 72.5203 67.7768 71.6094 67.6546Z" fill="#AD2201"/>
<path d="M70.0437 78.6407L69.8564 95.8278C69.8564 95.8278 69.8193 96.3012 71.0811 96.3012C72.3431 96.3012 72.4096 95.6976 72.4096 95.6976L72.9125 83.0658L73.1411 83.1916L73.6644 97.9825C73.6644 97.9825 73.6273 98.4558 74.8891 98.4558C76.1511 98.4558 76.2176 97.8522 76.2176 97.8522L76.3989 79.7646L70.0437 78.6407Z" fill="#013F8A"/>
<path d="M69.96 79.2086C69.96 79.2086 69.7296 76.6903 69.769 74.3061C69.8021 72.3053 69.8562 71.5608 69.8562 70.526C69.8562 68.198 70.8548 67.6399 71.6094 67.6546C71.6094 67.6546 74.631 68.5566 76.9631 70.6199L76.5482 80.0812C75.7006 81.1969 71.5738 80.8672 69.96 79.2086Z" fill="#AD2201"/>
<path d="M69.9601 79.2087C69.9601 79.2087 69.7296 76.6904 69.7691 74.3061C69.8022 72.3054 69.8563 71.5608 69.8563 70.5261C69.8563 70.4504 69.8575 70.3768 69.8596 70.3048L69.8564 70.2777C69.8564 70.2777 69.2922 74.4305 69.7646 79.1172C69.7982 79.4504 69.83 79.7598 69.8602 80.0485C70.1307 80.1559 70.5342 80.2231 71.0158 80.0152L71.0088 79.9573C70.6028 79.7489 70.2428 79.4993 69.9601 79.2087Z" fill="#891D00"/>
<path d="M72.6488 66.4114L72.1459 68.9728C72.1459 68.9728 72.9868 69.8796 74.5518 69.2303C74.5518 69.2303 74.6967 67.2588 74.8379 66.9587C74.9792 66.6586 72.6488 66.4114 72.6488 66.4114Z" fill="#FEC377"/>
<path d="M75.8793 64.1305C75.8793 64.1305 76.0166 66.6089 75.4109 67.0529C74.8051 67.4969 71.9303 67.2056 71.0785 65.7077C70.2268 64.2098 70.694 61.3801 72.5877 61.0727C74.7997 60.7137 76.0113 61.9046 75.8793 64.1305Z" fill="#FEC377"/>
<path d="M72.5477 66.8633C71.8982 66.8324 71.131 66.2025 70.7578 65.2206C70.4415 64.3886 70.5551 62.857 70.858 62.2949C71.2624 61.5444 71.7717 61.1323 72.4994 60.9842C73.3347 60.814 73.6608 60.8859 74.4878 61.0925C75.0363 61.2295 76.1048 61.7846 76.4928 61.3734C76.5885 62.295 76.0491 62.9372 75.5673 63.2215C75.3135 63.3713 75.3228 63.414 75.1117 63.6197C74.8081 63.9157 74.7953 64.3913 74.8026 64.8152C74.8411 64.4411 74.5025 64.0704 74.1268 64.0841C73.751 64.0978 73.4389 64.5033 73.5307 64.868C73.5728 65.0352 73.8579 65.6458 73.9641 65.7817L72.5477 66.8633Z" fill="#DDB201"/>
<path d="M75.9072 82.983C75.9072 82.983 75.9424 84.2034 75.9503 84.3593C75.9582 84.5164 75.8016 84.6235 75.9262 84.9339C75.9457 84.9824 76.3083 85.2359 76.4386 85.278C76.5795 85.3236 77.4529 84.7254 77.5816 84.6306C77.7103 84.5357 77.6031 83.7749 77.5938 83.5929C77.591 83.5373 77.5693 82.6425 77.4612 82.6037C77.3532 82.5651 75.9072 82.983 75.9072 82.983Z" fill="#FEC377"/>
<path d="M77.1063 70.7295C76.8541 70.3468 75.8395 69.7128 75.3687 71.3135C74.898 72.9142 75.7111 83.3531 75.7111 83.3531C75.7111 83.3531 76.9443 84.1494 77.7635 82.8958C77.7635 82.8958 77.2989 78.9812 77.2989 76.5689C77.299 74.1567 77.5813 71.4501 77.1063 70.7295Z" fill="#AD2201"/>
<path d="M75.2405 72.4563L75.222 72.2078L74.9344 80.7104C75.1429 80.6917 75.3381 80.6607 75.5198 80.6198C75.3565 78.0828 75.1603 74.4129 75.2405 72.4563Z" fill="#891D00"/>
<path d="M72.0917 68.9117C72.0661 68.7705 72.1459 68.2553 72.279 68.295C72.279 68.295 72.3078 68.932 74.603 68.6137L74.8442 69.0874C74.8442 69.0874 74.081 69.6277 73.3482 69.5704C72.8273 69.5299 72.1459 69.2101 72.0917 68.9117Z" fill="#CD2A01"/>
</g>
<g clip-path="url(#clip8)">
<path d="M59.9571 102.881V104.517C59.9571 104.517 60.3311 105.043 61.0323 104.845C61.7334 104.647 64.1916 103.368 64.01 102.968C63.5681 101.993 62.499 102.654 61.1403 102.76C60.3923 102.819 59.9571 102.881 59.9571 102.881Z" fill="#884D01"/>
<path d="M56.1707 100.778V102.414C56.1707 102.414 56.5447 102.939 57.2459 102.741C57.947 102.543 60.4677 101.23 60.2236 100.864C59.6058 99.9379 58.7126 100.55 57.3539 100.657C56.6059 100.715 56.1707 100.778 56.1707 100.778Z" fill="#884D01"/>
<path d="M55.71 84.8241L55.7851 86.2461C55.7851 86.2461 56.2584 86.5617 56.3109 86.6142C56.3636 86.6668 57.5353 86.2402 57.5353 86.1059C57.5353 85.9715 57.2751 85.1418 57.2751 85.0191C57.2751 84.8963 57.1875 84.2653 57.1875 84.2653L55.71 84.8241Z" fill="#FFB657"/>
<path d="M57.6738 72.8845C57.2367 72.8258 55.7501 72.7229 55.5164 75.6527C55.4151 76.9224 55.3252 78.9648 55.3878 80.4917C55.4854 82.8734 55.7131 84.8797 55.7131 84.8797C55.7131 84.8797 56.0777 85.4029 57.2201 84.5082C57.2201 84.5082 57.2515 79.9176 57.4096 78.1301C57.6431 75.4889 58.5781 73.0058 57.6738 72.8845Z" fill="#FFB657"/>
<path d="M55.9331 75.4888C55.9331 75.4888 55.373 79.6119 55.842 84.2652C55.8753 84.596 55.9069 84.9032 55.9369 85.1899C55.9331 86.9024 56.7678 86.4721 57.2459 86.2657L55.9331 75.4888Z" fill="#FFA834"/>
<path d="M57.6384 72.8861C57.1612 72.8221 55.5384 72.7098 55.2833 75.9078C55.278 75.9746 55.2675 76.1145 55.2675 76.1145C55.367 76.7219 55.7368 76.9793 56.5497 77.1922C56.9106 74.8953 58.4605 72.9964 57.6384 72.8861Z" fill="#FF9911"/>
<path d="M56.1191 83.7921L55.9332 100.857C55.9332 100.857 55.8963 101.327 57.1492 101.327C58.4022 101.327 58.4683 100.727 58.4683 100.727L58.9675 88.1856L59.1946 88.3104L59.7142 102.996C59.7142 102.996 59.6772 103.466 60.9302 103.466C62.1831 103.466 62.2493 102.867 62.2493 102.867L62.4292 84.9079L56.1191 83.7921Z" fill="#01544C"/>
<path d="M56.0361 84.356C56.0361 84.356 55.8073 81.8557 55.8464 79.4884C55.8793 77.5019 55.933 76.7627 55.933 75.7354C55.933 73.4239 56.9244 72.8698 57.6737 72.8843C57.6737 72.8843 60.6738 73.7799 62.9893 75.8284L62.5773 85.2224C61.7357 86.3301 57.6383 86.0027 56.0361 84.356Z" fill="#FF9911"/>
<path d="M61.9131 69.3855C61.9131 69.3855 62.0494 71.8461 61.448 72.287C60.8465 72.7279 57.9922 72.4386 57.1465 70.9514C56.3008 69.4642 56.7646 66.6546 58.6449 66.3495C60.8411 65.9931 62.0442 67.1754 61.9131 69.3855Z" fill="#FFB657"/>
<path d="M58.7057 71.65L58.2064 74.1932C58.2064 74.1932 59.0414 75.0936 60.5951 74.4488C60.5951 74.4488 60.7391 72.4914 60.8793 72.1934C61.0195 71.8954 58.7057 71.65 58.7057 71.65Z" fill="#FFB657"/>
<path d="M61.0254 69.109L60.9992 71.0023C60.9992 71.0023 60.8293 69.2433 60.0986 69.7346C59.4593 70.1644 60.0986 71.2691 60.0986 71.2691C60.0462 71.5045 58.6465 72.7075 58.6465 72.7075C58.6465 72.7075 57.3635 71.8154 56.9233 70.8324C56.4646 69.8079 56.4507 68.6602 56.6511 67.962C56.7652 67.5641 57.1618 67.3856 57.1618 67.3856C57.1618 67.3856 57.2491 66.7358 57.7606 66.3713C58.9093 65.5526 61.3977 65.5799 62.041 68.0206C62.103 68.2557 62.1184 68.5154 62.0559 68.7503C61.9934 68.9853 61.51 69.3673 61.2824 69.4532C61.503 68.8754 61.3041 68.5019 61.176 68.6155C61.0479 68.7292 61.0064 68.9389 61.0254 69.109Z" fill="#5E4C36"/>
<path d="M61.9408 88.1034C61.9408 88.1034 61.9758 89.3152 61.9836 89.47C61.9914 89.626 61.836 89.7323 61.9597 90.0405C61.9791 90.0886 62.3392 90.3404 62.4686 90.3822C62.6085 90.4274 63.4756 89.8336 63.6033 89.7394C63.731 89.6452 63.6246 88.8898 63.6155 88.7091C63.6127 88.6538 63.5911 87.7655 63.4839 87.727C63.3765 87.6885 61.9408 88.1034 61.9408 88.1034Z" fill="#FFB657"/>
<path d="M63.1314 75.9374C62.881 75.5574 61.8736 74.928 61.4061 76.5173C60.9387 78.1066 61.9471 88.3201 61.9471 88.3201C61.9471 88.3201 62.7339 89.1241 63.5473 87.8793C63.5473 87.8793 63.3226 84.1304 63.3226 81.7352C63.3227 79.3401 63.603 76.6528 63.1314 75.9374Z" fill="#FFB657"/>
<path d="M61.2871 77.7605L61.2605 77.4052L60.975 85.8471C61.2428 85.8232 61.4905 85.78 61.7119 85.719C61.506 83.282 61.2457 79.7295 61.2871 77.7605Z" fill="#F18700"/>
<path d="M63.488 79.6865C63.5357 77.9967 63.5456 76.5586 63.229 76.0317C62.952 75.5705 61.7748 74.8189 61.2222 76.698C61.0881 77.1538 61.0468 78.2955 61.0762 79.6334C61.896 79.9504 62.5187 79.9932 63.488 79.6865Z" fill="#FF9911"/>
</g>
<g clip-path="url(#clip9)">
<path d="M48.0757 109.936C47.8159 109.887 47.2852 109.032 47.2852 108.866L58.8815 102.194L57.529 101.381C54.2031 102.922 46.6824 105.625 45.7262 106.38C44.5309 107.325 43.2318 106.878 42.92 106.38C42.6705 105.983 53.8184 101.367 58.4782 98.7152L64.2253 101.381C62.112 102.409 58.9312 104.657 57.2683 105.571C55.1896 106.715 48.5954 110.036 48.0757 109.936Z" fill="url(#paint12_linear)" style="mix-blend-mode:multiply"/>
<path d="M45.4286 108.718V110.487C45.4286 110.487 45.833 111.055 46.5911 110.841C47.3492 110.627 50.007 109.245 49.8106 108.812C49.3328 107.758 48.1769 108.473 46.7078 108.588C45.8992 108.651 45.4286 108.718 45.4286 108.718Z" fill="#3E3D43"/>
<path d="M41.335 106.444V108.213C41.335 108.213 41.7393 108.781 42.4974 108.567C43.2556 108.353 45.9809 106.933 45.7169 106.538C45.049 105.536 44.0832 106.198 42.6142 106.313C41.8055 106.376 41.335 106.444 41.335 106.444Z" fill="#3E3D43"/>
<path d="M40.8369 89.1951L40.9181 90.7326C40.9181 90.7326 41.4298 91.0737 41.4866 91.1306C41.5435 91.1874 42.8103 90.7263 42.8103 90.581C42.8103 90.4357 42.5289 89.5386 42.5289 89.406C42.5289 89.2733 42.4342 88.5911 42.4342 88.5911L40.8369 89.1951Z" fill="#FEC377"/>
<path d="M42.96 76.2862C42.4874 76.2228 40.8801 76.1115 40.6275 79.2791C40.518 80.6519 40.4208 82.8601 40.4883 84.511C40.5938 87.0861 40.6879 89.3612 40.6879 89.3612C40.6879 89.3612 41.6161 90.2028 42.8512 89.2355C42.8512 89.2355 42.5033 83.8904 42.6742 81.9577C42.927 79.1021 43.9378 76.4174 42.96 76.2862Z" fill="#2E2E30"/>
<path d="M41.0779 88.8006C41.0779 88.8006 40.9419 85.9859 40.9844 83.4265C41.0171 81.446 41.069 80.612 41.077 79.6233V79.6232C40.7193 82.644 40.976 89.5394 40.9762 89.5444C41.1195 89.6136 41.311 89.6799 41.5407 89.6966L41.5281 89.4245C41.3677 89.2391 41.2176 89.0335 41.0779 88.8006Z" fill="#1D1D1F"/>
<path d="M41.2791 88.0796L41.0782 106.529C41.0782 106.529 41.0382 107.038 42.3928 107.038C43.7474 107.038 43.819 106.389 43.819 106.389L44.3588 92.8296L44.6043 92.9646L45.166 108.842C45.166 108.842 45.1261 109.35 46.4807 109.35C47.8353 109.35 47.9069 108.702 47.9069 108.702L48.1015 89.2858L41.2791 88.0796Z" fill="#1D1D1F"/>
<path d="M41.078 88.8004C41.078 88.8004 40.942 85.9858 40.9844 83.4263C41.02 81.2787 41.078 80.4793 41.078 79.3686C41.078 76.8695 42.1499 76.2703 42.96 76.2861C42.96 76.2861 46.2035 77.2544 48.7071 79.4692L48.8607 89.2988C48.3515 91.0521 45.8598 91.638 43.6855 90.8435L43.3779 89.7004L43.0668 90.5748C42.2469 90.158 41.5936 89.6604 41.078 88.8004Z" fill="#2E2E30"/>
<path d="M47.5578 72.5957C47.5578 72.5957 47.7085 75.3151 47.0438 75.8025C46.3791 76.2898 43.2246 75.97 42.2899 74.3264C41.3553 72.6828 41.8679 69.5778 43.9459 69.2405C46.3731 68.8466 47.7026 70.1532 47.5578 72.5957Z" fill="#FEC377"/>
<path d="M44.0756 74.9515L43.5357 77.7012C43.5357 77.7012 44.4385 78.6748 46.1184 77.9776C46.1184 77.9776 46.274 75.8613 46.4256 75.539C46.5773 75.2168 44.0756 74.9515 44.0756 74.9515Z" fill="#FEC377"/>
<path d="M47.6959 71.2598C48.5936 68.5658 43.9719 68.4587 42.8405 69.502C42.3432 69.9607 41.029 71.6303 42.1294 74.0802C42.6047 75.1383 43.9854 76.0997 43.9854 76.0997C43.9854 76.0997 45.493 74.8041 45.5493 74.5506C45.5493 74.5506 44.8608 73.3607 45.5493 72.8978C46.3364 72.3686 46.5194 74.2631 46.5194 74.2631C46.5194 74.2631 46.6326 72.4553 46.6296 71.9046C46.7935 70.6552 47.5059 71.8299 47.6959 71.2598Z" fill="#3E3D43"/>
<path d="M47.5734 92.7408C47.5734 92.7408 47.6113 94.0509 47.6197 94.2183C47.6283 94.3869 47.4601 94.5019 47.5939 94.8351C47.6148 94.8872 48.004 95.1594 48.1439 95.2046C48.2951 95.2535 49.2326 94.6114 49.3708 94.5096C49.5088 94.4078 49.3938 93.591 49.384 93.3957C49.3809 93.336 49.3576 92.3755 49.2416 92.3339C49.1257 92.2922 47.5734 92.7408 47.5734 92.7408Z" fill="#FEC377"/>
<path d="M48.8607 79.587C48.5899 79.1762 47.5007 78.4956 46.9953 80.2139C46.4899 81.9322 47.3629 93.1383 47.3629 93.1383C47.3629 93.1383 48.6867 93.9931 49.5662 92.6474C49.5662 92.6474 49.0674 88.4452 49.0674 85.8556C49.0675 83.2661 49.3706 80.3605 48.8607 79.587Z" fill="#2E2E30"/>
<path d="M46.8401 82.1804C46.8038 83.9187 46.7405 88.3847 46.973 91.0039C47.0522 90.9803 47.1291 90.9537 47.205 90.9256C47.0418 88.4912 46.8145 84.604 46.8401 82.1804Z" fill="#1D1D1F"/>
<path d="M46.8571 81.4578V81.4576C46.8571 81.4576 46.8571 81.459 46.8571 81.4606C46.8571 81.4597 46.8571 81.4587 46.8571 81.4578Z" fill="#1D1D1F"/>
<path d="M43.4777 77.6357C43.4502 77.4842 43.5358 76.931 43.6786 76.9738C43.6786 76.9738 43.7096 77.6576 46.1734 77.3159L46.4323 77.8243C46.4323 77.8243 45.613 78.4043 44.8264 78.3429C44.2673 78.2992 43.5358 77.9559 43.4777 77.6357Z" fill="#CD2A01"/>
</g>
<g clip-path="url(#clip10)">
<path d="M32.7083 115.497C32.5272 115.462 31.9616 115.173 31.9616 115.058L40.1492 109.975L39.2064 109.409C36.8881 110.483 31.5414 112.798 30.8748 113.325C30.0417 113.983 29.1361 113.671 28.9187 113.325C28.7449 113.048 36.6199 109.399 39.8681 107.551L43.8742 109.409C42.4011 110.125 40.1839 111.692 39.0247 112.33C37.5757 113.127 33.0706 115.566 32.7083 115.497Z" fill="url(#paint13_linear)" style="mix-blend-mode:multiply"/>
<path d="M27.037 94.9048L27.1077 96.3142C27.1077 96.3142 27.5527 96.6269 27.6022 96.679C27.6516 96.7312 28.7534 96.3084 28.7534 96.1752C28.7534 96.0421 28.5087 95.2197 28.5087 95.0981C28.5087 94.9764 28.4263 94.3511 28.4263 94.3511L27.037 94.9048Z" fill="#FEC377"/>
<path d="M31.5715 114.268V115.589C31.5715 115.589 31.858 116.013 32.3952 115.853C32.9324 115.693 34.816 114.661 34.6768 114.337C34.3383 113.55 33.519 114.084 32.478 114.17C31.9049 114.217 31.5715 114.268 31.5715 114.268Z" fill="#CD2A01"/>
<path d="M28.5077 112.569V113.89C28.5077 113.89 28.7942 114.314 29.3315 114.154C29.8688 113.994 31.8001 112.934 31.6131 112.638C31.1398 111.89 30.4553 112.385 29.4143 112.471C28.8411 112.518 28.5077 112.569 28.5077 112.569Z" fill="#CD2A01"/>
<path d="M27.6416 94.9757C27.6416 94.9757 26.6989 96.911 26.8451 99.3728C26.9495 101.129 28.3328 105.989 28.3328 105.989C27.9311 110.042 28.4573 112.799 28.4573 112.799C28.4573 112.799 28.5948 113.094 29.1184 113.081C29.5556 113.069 29.8138 112.735 29.8138 112.735L30.1425 102.862C30.5871 104.986 31.3966 107.767 31.3966 107.767C30.9948 111.82 31.5211 114.577 31.5211 114.577C31.5211 114.577 31.6977 114.882 32.1913 114.867C32.6284 114.853 32.8776 114.513 32.8776 114.513L33.4553 97.1583L27.6416 94.9757Z" fill="#1D81CD"/>
<path d="M29.102 83.1798C28.7924 82.889 27.0747 82.9111 26.8549 85.8148C26.7597 87.0732 26.5543 89.0974 26.6131 90.6109C26.7049 92.9715 26.9074 95.0569 26.9074 95.0569C26.9074 95.0569 27.2384 95.5172 28.3848 94.9497C28.1963 91.5136 28.0729 91.4633 28.149 88.8729C28.2375 85.8629 30.0293 84.0505 29.102 83.1798Z" fill="#E0E0E2"/>
<path d="M27.037 95.59C27.037 95.59 27.7789 93.6675 28.1825 91.1431C28.4929 89.2014 27.2468 86.9148 27.2468 85.8966C27.2468 83.6057 28.179 83.0564 28.8836 83.071C28.8836 83.071 31.7046 83.9587 33.8817 85.9889C33.8817 85.9889 34.3796 87.8325 34.2698 88.4914C34.1448 89.2415 32.9113 90.3014 32.9113 91.1093C32.9113 92.1635 33.5957 96.1458 33.5957 96.1458C32.6459 98.0103 28.7394 98.0343 27.037 95.59Z" fill="#E0E0E2"/>
<path d="M27.0219 95.1479C27.0609 95.1694 27.1116 95.1904 27.1744 95.2063C27.4004 94.5463 27.8553 93.0942 28.153 91.3216C28.1265 90.7798 28.1183 90.2467 28.1347 89.4443C27.886 88.0064 27.2468 86.6262 27.2468 85.8969C27.2468 84.5057 27.5907 83.7576 28.0185 83.3872C27.4929 83.6785 27.0215 84.4263 27.0215 86.0553C27.0215 87.0734 28.2676 89.3601 27.9572 91.3018C27.6891 92.9787 27.2719 94.3893 27.0219 95.1479Z" fill="#D8D8DA"/>
<path d="M33.2312 80.4362C33.2312 80.4362 33.3012 82.6184 32.751 83.0568C32.2009 83.4952 29.4052 83.2119 28.633 81.7353C27.8609 80.2586 28.2869 77.4673 30.0061 77.1629C32.0143 76.8071 33.3525 78.2407 33.2312 80.4362Z" fill="#FEC377"/>
<path d="M29.4697 82.006L29.0562 84.2263C29.0562 84.2263 29.8379 85.6601 31.2463 84.7799C31.2463 84.7799 31.3816 82.8399 31.5135 82.5445C31.6455 82.2492 29.4697 82.006 29.4697 82.006Z" fill="#FEC377"/>
<path d="M32.8958 98.1551C32.8958 98.1551 32.9288 99.3561 32.9361 99.5095C32.9434 99.6641 32.7972 99.7695 32.9137 100.075C32.9319 100.123 33.2704 100.372 33.392 100.414C33.5235 100.458 34.3389 99.8698 34.459 99.7765C34.5791 99.6831 34.4791 98.9344 34.4705 98.7554C34.4678 98.7006 34.4476 97.8201 34.3467 97.782C34.2458 97.7439 32.8958 98.1551 32.8958 98.1551Z" fill="#FEC377"/>
<path d="M34.0152 86.0971C33.7798 85.7206 32.9204 85.3399 32.4809 86.9151C32.0414 88.4902 32.7127 98.5195 32.7127 98.5195C32.7127 98.5195 33.7527 99.3293 34.5176 98.0956C34.5176 98.0956 34.195 94.2173 34.195 91.8435C34.1951 89.4696 34.4587 86.8062 34.0152 86.0971Z" fill="#E0E0E2"/>
<path d="M32.481 86.9152C32.5118 86.8049 32.5448 86.7051 32.5793 86.6133C32.4914 86.7972 32.4075 87.0209 32.3317 87.2924C31.9904 88.5155 32.1677 94.4573 32.3317 97.2217C32.4329 97.1812 32.5305 97.1363 32.6241 97.087C32.4577 94.2571 32.1452 88.1187 32.481 86.9152Z" fill="#D8D8DA"/>
<path d="M32.7412 83.536C31.5343 84.0313 29.2735 83.1509 28.5143 81.937C27.9068 80.9657 27.6785 77.8148 29.5311 77.0647C31.6022 76.2261 33.7997 78.6132 33.3099 79.561C32.9631 80.232 32.6065 80.6091 32.6065 81.4642C32.6065 82.9015 32.7895 83.6486 32.7412 83.536Z" fill="#2E2E30"/>
</g>
<defs>
<linearGradient id="paint0_linear" x1="172.302" y1="153.858" x2="180.491" y2="142.056" gradientUnits="userSpaceOnUse">
<stop/>
<stop offset="0.0001"/>
<stop offset="1" stop-opacity="0"/>
</linearGradient>
<linearGradient id="paint1_linear" x1="166.489" y1="149.276" x2="183.905" y2="124.176" gradientUnits="userSpaceOnUse">
<stop/>
<stop offset="0.0001"/>
<stop offset="1" stop-opacity="0"/>
</linearGradient>
<radialGradient id="paint2_radial" cx="0" cy="0" r="1" gradientUnits="userSpaceOnUse" gradientTransform="translate(102.471 173.394) rotate(65.0776) scale(11.882 227.603)">
<stop stop-color="#E5AF43" stop-opacity="0.51"/>
<stop offset="1" stop-color="#F9BA62" stop-opacity="0"/>
</radialGradient>
<linearGradient id="paint3_linear" x1="92.6189" y1="88.7063" x2="106.281" y2="82.2874" gradientUnits="userSpaceOnUse">
<stop/>
<stop offset="1" stop-color="#C4C4C4" stop-opacity="0"/>
</linearGradient>
<linearGradient id="paint4_linear" x1="112.84" y1="81.9789" x2="124.819" y2="76.3506" gradientUnits="userSpaceOnUse">
<stop/>
<stop offset="1" stop-color="#C4C4C4" stop-opacity="0"/>
</linearGradient>
<linearGradient id="paint5_linear" x1="103.178" y1="85.42" x2="115.642" y2="79.564" gradientUnits="userSpaceOnUse">
<stop/>
<stop offset="1" stop-color="#C4C4C4" stop-opacity="0"/>
</linearGradient>
<radialGradient id="paint6_radial" cx="0" cy="0" r="1" gradientUnits="userSpaceOnUse" gradientTransform="translate(141.192 146.04) rotate(120.131) scale(13.2767 63.4893)">
<stop stop-color="#E5AF43" stop-opacity="0.44"/>
<stop offset="1" stop-color="#E5AF43" stop-opacity="0"/>
</radialGradient>
<linearGradient id="paint7_linear" x1="176.853" y1="189.024" x2="191.143" y2="173.649" gradientUnits="userSpaceOnUse">
<stop/>
<stop offset="1" stop-opacity="0"/>
</linearGradient>
<linearGradient id="paint8_linear" x1="196.661" y1="182.367" x2="161.603" y2="184.825" gradientUnits="userSpaceOnUse">
<stop/>
<stop offset="1" stop-color="#3E3D43" stop-opacity="0"/>
</linearGradient>
<radialGradient id="paint9_radial" cx="0" cy="0" r="1" gradientUnits="userSpaceOnUse" gradientTransform="translate(170.253 163.458) rotate(30.0909) scale(31.7484)">
<stop stop-color="#3E3D43" stop-opacity="0"/>
<stop offset="1" stop-opacity="0.97"/>
</radialGradient>
<linearGradient id="paint10_linear" x1="83.5562" y1="93.2855" x2="94.3429" y2="88.2177" gradientUnits="userSpaceOnUse">
<stop/>
<stop offset="1" stop-color="#C4C4C4" stop-opacity="0"/>
</linearGradient>
<linearGradient id="paint11_linear" x1="70.6346" y1="96.7433" x2="84.2969" y2="90.3244" gradientUnits="userSpaceOnUse">
<stop/>
<stop offset="1" stop-color="#C4C4C4" stop-opacity="0"/>
</linearGradient>
<linearGradient id="paint12_linear" x1="42.92" y1="106.679" x2="56.5822" y2="100.26" gradientUnits="userSpaceOnUse">
<stop/>
<stop offset="1" stop-color="#C4C4C4" stop-opacity="0"/>
</linearGradient>
<linearGradient id="paint13_linear" x1="28.9187" y1="113.533" x2="38.4422" y2="109.058" gradientUnits="userSpaceOnUse">
<stop/>
<stop offset="1" stop-color="#C4C4C4" stop-opacity="0"/>
</linearGradient>
<clipPath id="clip0">
<rect x="144.709" y="88.0172" width="116" height="116" fill="white"/>
</clipPath>
<clipPath id="clip1">
<rect x="80.5912" y="0.723999" width="172" height="173" fill="white"/>
</clipPath>
<clipPath id="clip2">
<rect x="90.1434" y="56.8892" width="17" height="35" fill="white"/>
</clipPath>
<clipPath id="clip3">
<rect x="108.143" y="49.8892" width="18" height="35" fill="white"/>
</clipPath>
<clipPath id="clip4">
<rect x="99.1434" y="53.8892" width="19" height="35" fill="white"/>
</clipPath>
<clipPath id="clip5">
<rect x="151.095" y="146.017" width="51" height="51" fill="white"/>
</clipPath>
<clipPath id="clip6">
<rect x="78.1434" y="58.8892" width="20" height="37" fill="white"/>
</clipPath>
<clipPath id="clip7">
<rect x="68.1434" y="60.8892" width="18" height="39" fill="white"/>
</clipPath>
<clipPath id="clip8">
<rect x="52.1434" y="65.8892" width="22" height="39" fill="white"/>
</clipPath>
<clipPath id="clip9">
<rect x="38.1434" y="68.8892" width="21" height="42" fill="white"/>
</clipPath>
<clipPath id="clip10">
<rect x="25.1434" y="76.8892" width="15" height="39" fill="white"/>
</clipPath>
</defs>
</svg>
