<svg width="313" height="289" viewBox="0 0 313 289" fill="none" xmlns="http://www.w3.org/2000/svg">
<path d="M310.3 200.832L279.79 219.181L244.321 200.832L275.417 184.343L310.3 200.832Z" fill="url(#paint0_linear)"/>
<g clip-path="url(#clip0)">
<path d="M30.6526 76.0862C39.0989 71.2098 50.3078 68.5241 62.2149 68.5247C74.122 68.5244 85.3005 71.2104 93.692 76.0868L143.123 104.813L138.945 107.226L89.5135 78.4991C74.4795 69.7621 49.9365 69.7621 34.8041 78.4988C19.6708 87.236 19.5919 101.452 34.6257 110.188L84.0571 138.915L79.8777 141.328L30.4463 112.602C22.0552 107.725 17.4553 101.241 17.494 94.3444C17.5321 87.4471 22.2054 80.9632 30.6526 76.0862Z" fill="#3E3D43"/>
<path d="M142.259 98.4004L165.575 111.95V118.798L153.37 125.844L130.054 112.294V105.447L142.259 98.4004Z" fill="#3E3D43"/>
<path d="M153.37 118.997L130.054 105.447V112.294L153.37 125.844V118.997Z" fill="#2E2E30"/>
<path d="M165.575 111.95L142.259 98.4004L130.054 105.447L153.37 118.997L165.575 111.95Z" fill="#57565C"/>
<path d="M163.291 115.031L171.052 119.542V123.137L163.222 127.658L155.471 123.148L155.461 119.552L163.291 115.031ZM163.493 127.197L163.484 127.192V127.197H163.493Z" fill="#898890"/>
<path d="M170.792 120.003L163.03 115.492L163.039 118.468L170.792 122.978V120.003Z" fill="#77767E"/>
<path d="M163.825 125.428L156.064 120.917L156.067 122.039L163.825 126.55V125.428Z" fill="#2E2E30"/>
<path d="M170.452 121.601L162.691 117.091L156.064 120.917L163.825 125.428L170.452 121.601Z" fill="#57565C"/>
<path d="M171.052 119.542L163.222 124.062V127.658L171.052 123.137V119.542ZM163.484 127.197V124.221L170.791 120.002V122.978L163.493 127.196" fill="#ACABB1"/>
<path d="M163.825 125.428V126.55L170.452 122.724V121.602L163.825 125.428Z" fill="#3E3D43"/>
<path d="M163.222 124.063L155.461 119.552L155.471 123.148L163.222 127.658V124.063Z" fill="#898890"/>
<path d="M171.052 119.542L163.291 115.031L155.461 119.552L163.222 124.063L171.052 119.542Z" fill="#C6C5CB"/>
<path d="M164.521 119.108C164.479 119.132 164.479 119.171 164.52 119.195L165.842 119.963C165.884 119.987 165.95 119.987 165.992 119.963L167.731 118.958C167.773 118.935 167.773 118.896 167.732 118.872L166.41 118.104C166.369 118.08 166.302 118.08 166.261 118.104L164.521 119.108ZM160.993 121.145L162.733 120.14C162.774 120.117 162.841 120.117 162.882 120.14L164.204 120.909C164.246 120.932 164.245 120.971 164.204 120.995L162.464 122C162.423 122.024 162.356 122.024 162.315 122L160.993 121.231C160.951 121.208 160.952 121.169 160.993 121.145Z" fill="#77767E"/>
<path d="M165.992 119.963C165.951 119.987 165.884 119.987 165.843 119.963L164.521 119.195C164.48 119.171 164.48 119.132 164.521 119.109L165.345 118.634L166.816 119.488L165.992 119.963Z" fill="#57565C"/>
<path d="M162.315 122L160.993 121.232C160.951 121.208 160.952 121.169 160.993 121.145L162.733 120.141C162.775 120.117 162.841 120.117 162.883 120.141L164.205 120.909C164.246 120.933 164.246 120.972 164.204 120.995L162.464 122C162.423 122.024 162.356 122.024 162.315 122Z" fill="#57565C"/>
<path d="M141.706 104.649C142.457 104.215 143.672 104.215 144.418 104.649C145.018 104.998 145.132 105.521 144.764 105.938L147.814 107.71H152.122C152.28 107.71 152.43 107.747 152.541 107.811L153.68 108.473L154.158 108.196L155.945 109.235L154.146 110.274L152.358 109.235L152.836 108.959L151.871 108.399H148.998L153.714 111.139L154.642 110.603L155.59 112.677L152.012 112.121L152.87 111.626L145.854 107.548L145.845 109.131L147.776 110.254C148.314 110.131 148.948 110.195 149.381 110.447C149.962 110.785 149.959 111.333 149.374 111.67C148.789 112.008 147.843 112.008 147.261 111.67C146.828 111.419 146.719 111.051 146.933 110.741L144.828 109.518C144.717 109.453 144.654 109.366 144.655 109.274L144.669 106.86L143.92 106.425C143.199 106.637 142.296 106.568 141.696 106.22C140.951 105.786 140.955 105.082 141.706 104.649Z" fill="#3E3D43"/>
<path d="M81.0078 131.534L97.4469 141.087V145.915L88.8413 150.883L72.4022 141.33V136.502L81.0078 131.534Z" fill="#3E3D43"/>
<path d="M88.8414 146.056L72.4022 136.502V141.33L88.8414 150.883V146.056Z" fill="#2E2E30"/>
<path d="M97.4469 141.087L81.0078 131.534L72.4022 136.502L88.8413 146.056L97.4469 141.087Z" fill="#57565C"/>
<path d="M95.8363 143.26L101.308 146.44V148.974L95.7875 152.162L90.3226 148.982L90.3154 146.447L95.8363 143.26ZM95.9785 151.837L95.9725 151.834V151.837H95.9785Z" fill="#898890"/>
<path d="M101.125 146.764L95.6525 143.585L95.6585 145.682L101.125 148.863V146.764Z" fill="#77767E"/>
<path d="M96.2131 150.59L90.741 147.41L90.7431 148.201L96.2131 151.381V150.59Z" fill="#2E2E30"/>
<path d="M100.885 147.892L95.4134 144.712L90.741 147.41L96.213 150.59L100.885 147.892Z" fill="#57565C"/>
<path d="M101.308 146.44L95.7875 149.627V152.162L101.308 148.975V146.44ZM95.9728 151.837V149.739L101.125 146.765V148.863L95.9788 151.837" fill="#ACABB1"/>
<path d="M96.213 150.59V151.381L100.885 148.683V147.892L96.213 150.59Z" fill="#3E3D43"/>
<path d="M95.7875 149.627L90.3155 146.447L90.3227 148.982L95.7875 152.162V149.627Z" fill="#898890"/>
<path d="M101.308 146.44L95.8363 143.26L90.3154 146.447L95.7875 149.627L101.308 146.44Z" fill="#C6C5CB"/>
<path d="M96.7034 146.134C96.6744 146.151 96.6741 146.178 96.7031 146.195L97.6356 146.737C97.6647 146.754 97.7118 146.754 97.7409 146.737L98.9678 146.029C98.9969 146.012 98.9972 145.985 98.9681 145.968L98.0357 145.426C98.0066 145.409 97.9592 145.409 97.9304 145.426L96.7034 146.134ZM94.2165 147.57L95.4435 146.862C95.4726 146.845 95.52 146.845 95.5488 146.862L96.4812 147.404C96.5103 147.421 96.51 147.448 96.4809 147.465L95.2539 148.173C95.2248 148.19 95.1775 148.19 95.1487 148.173L94.2162 147.632C94.1871 147.614 94.1874 147.587 94.2165 147.57Z" fill="#77767E"/>
<path d="M97.7409 146.737C97.7118 146.754 97.6644 146.754 97.6356 146.737L96.7032 146.195C96.6741 146.178 96.6744 146.151 96.7035 146.134L97.2838 145.799L98.3212 146.401L97.7409 146.737Z" fill="#57565C"/>
<path d="M95.1481 148.173L94.2156 147.631C94.1865 147.614 94.1868 147.587 94.2159 147.57L95.4429 146.861C95.472 146.845 95.5194 146.845 95.5482 146.861L96.4806 147.403C96.5097 147.42 96.5094 147.448 96.4804 147.465L95.2534 148.173C95.2246 148.19 95.1775 148.19 95.1481 148.173Z" fill="#57565C"/>
<path d="M80.6175 135.939C81.1472 135.633 82.0035 135.633 82.5295 135.939C82.9527 136.185 83.0334 136.553 82.7737 136.847L84.9241 138.097H87.9614C88.0726 138.097 88.1791 138.123 88.2574 138.168L89.0603 138.635L89.3974 138.44L90.658 139.173L89.389 139.905L88.1284 139.172L88.4655 138.978L87.7853 138.582H85.76L89.0846 140.514L89.7393 140.136L90.4078 141.599L87.8855 141.207L88.4907 140.858L83.5436 137.983L83.537 139.099L84.8989 139.89C85.2777 139.804 85.7249 139.849 86.0299 140.026C86.4402 140.264 86.4378 140.65 86.0251 140.889C85.6124 141.127 84.9454 141.127 84.5354 140.889C84.2304 140.712 84.1536 140.453 84.3042 140.233L82.8199 139.371C82.7416 139.325 82.6975 139.263 82.6981 139.199L82.7077 137.496L82.1795 137.19C81.6712 137.339 81.035 137.291 80.6118 137.045C80.0849 136.741 80.0879 136.245 80.6175 135.939Z" fill="#3E3D43"/>
</g>
<g clip-path="url(#clip1)">
<path d="M304.453 163.064C299 159.916 291.764 158.182 284.077 158.182C276.39 158.182 269.174 159.916 263.756 163.064L231.845 181.609L234.543 183.166L266.454 164.621C276.16 158.981 292.004 158.981 301.773 164.621C311.542 170.262 311.593 179.439 301.888 185.079L269.976 203.624L272.675 205.182L304.586 186.637C310.003 183.489 312.973 179.303 312.948 174.851C312.923 170.398 309.906 166.212 304.453 163.064Z" fill="#3E3D43"/>
<path d="M232.403 177.469L217.351 186.216V190.637L225.23 195.186L240.282 186.439V182.018L232.403 177.469Z" fill="#3E3D43"/>
<path d="M225.23 190.766L240.282 182.018V186.439L225.23 195.186V190.766Z" fill="#2E2E30"/>
<path d="M217.351 186.216L232.403 177.469L240.282 182.018L225.23 190.766L217.351 186.216Z" fill="#57565C"/>
<path d="M218.825 188.206L213.815 191.117V193.438L218.87 196.357L223.874 193.445L223.881 191.124L218.825 188.206ZM218.695 196.059L218.701 196.056V196.059H218.695Z" fill="#898890"/>
<path d="M213.983 191.415L218.994 188.503L218.988 190.424L213.983 193.336V191.415Z" fill="#77767E"/>
<path d="M218.481 194.917L223.491 192.005L223.489 192.73L218.481 195.641V194.917Z" fill="#2E2E30"/>
<path d="M214.202 192.447L219.213 189.535L223.491 192.005L218.481 194.917L214.202 192.447Z" fill="#57565C"/>
<path d="M213.815 191.117L218.87 194.036V196.357L213.815 193.438V191.117ZM218.701 196.059V194.138L213.983 191.415V193.335L218.695 196.059" fill="#ACABB1"/>
<path d="M218.481 194.917V195.641L214.202 193.171V192.447L218.481 194.917Z" fill="#3E3D43"/>
<path d="M218.87 194.036L223.881 191.124L223.874 193.445L218.87 196.357V194.036Z" fill="#898890"/>
<path d="M213.815 191.117L218.825 188.206L223.881 191.124L218.87 194.036L213.815 191.117Z" fill="#C6C5CB"/>
<path d="M218.032 190.837C218.058 190.853 218.059 190.878 218.032 190.893L217.179 191.389C217.152 191.405 217.109 191.405 217.082 191.389L215.959 190.741C215.932 190.725 215.932 190.7 215.959 190.685L216.812 190.189C216.839 190.173 216.882 190.173 216.908 190.189L218.032 190.837ZM220.309 192.152L219.186 191.504C219.159 191.488 219.116 191.488 219.089 191.504L218.236 192C218.209 192.015 218.209 192.04 218.236 192.055L219.359 192.704C219.386 192.719 219.429 192.719 219.456 192.704L220.309 192.208C220.336 192.193 220.335 192.168 220.309 192.152Z" fill="#77767E"/>
<path d="M217.082 191.39C217.108 191.405 217.152 191.405 217.178 191.39L218.032 190.893C218.058 190.878 218.058 190.853 218.031 190.838L217.5 190.531L216.55 191.083L217.082 191.39Z" fill="#57565C"/>
<path d="M219.456 192.704L220.309 192.208C220.336 192.193 220.335 192.168 220.309 192.153L219.186 191.504C219.159 191.489 219.116 191.489 219.089 191.504L218.236 192C218.209 192.015 218.209 192.04 218.236 192.056L219.359 192.704C219.386 192.72 219.429 192.72 219.456 192.704Z" fill="#57565C"/>
<path d="M232.76 181.503C232.275 181.223 231.491 181.223 231.009 181.503C230.622 181.728 230.548 182.066 230.786 182.335L228.817 183.479H226.036C225.934 183.479 225.837 183.503 225.765 183.544L225.03 183.971L224.722 183.793L223.568 184.464L224.729 185.134L225.884 184.464L225.575 184.285L226.198 183.924H228.052L225.008 185.693L224.409 185.347L223.797 186.686L226.107 186.327L225.553 186.007L230.082 183.374L230.088 184.396L228.841 185.121C228.494 185.042 228.085 185.083 227.806 185.246C227.43 185.464 227.432 185.818 227.81 186.036C228.188 186.254 228.799 186.254 229.174 186.036C229.453 185.873 229.524 185.636 229.386 185.436L230.745 184.646C230.817 184.604 230.857 184.548 230.857 184.489L230.848 182.93L231.331 182.649C231.796 182.786 232.379 182.742 232.766 182.517C233.248 182.237 233.245 181.783 232.76 181.503Z" fill="#3E3D43"/>
<path d="M271.945 198.859L261.332 205.026V208.143L266.888 211.35L277.501 205.183V202.066L271.945 198.859Z" fill="#3E3D43"/>
<path d="M266.888 208.234L277.501 202.066V205.183L266.888 211.35V208.234Z" fill="#2E2E30"/>
<path d="M261.332 205.026L271.945 198.859L277.501 202.066L266.888 208.234L261.332 205.026Z" fill="#57565C"/>
<path d="M262.372 206.429L258.84 208.482V210.118L262.404 212.176L265.932 210.123L265.936 208.486L262.372 206.429ZM262.28 211.966L262.284 211.964V211.966H262.28Z" fill="#898890"/>
<path d="M258.958 208.691L262.491 206.639L262.487 207.993L258.958 210.046V208.691Z" fill="#77767E"/>
<path d="M262.129 211.161L265.662 209.108L265.66 209.619L262.129 211.672V211.161Z" fill="#2E2E30"/>
<path d="M259.113 209.419L262.645 207.366L265.662 209.108L262.129 211.161L259.113 209.419Z" fill="#57565C"/>
<path d="M258.84 208.482L262.404 210.539V212.176L258.84 210.118V208.482ZM262.284 211.966V210.612L258.958 208.692V210.046L262.28 211.966" fill="#ACABB1"/>
<path d="M262.129 211.161V211.672L259.113 209.93V209.419L262.129 211.161Z" fill="#3E3D43"/>
<path d="M262.404 210.539L265.936 208.487L265.932 210.123L262.404 212.176V210.539Z" fill="#898890"/>
<path d="M258.84 208.482L262.372 206.429L265.936 208.486L262.404 210.539L258.84 208.482Z" fill="#C6C5CB"/>
<path d="M261.812 208.284C261.831 208.295 261.831 208.313 261.813 208.324L261.211 208.674C261.192 208.685 261.161 208.685 261.143 208.674L260.351 208.217C260.332 208.206 260.332 208.188 260.35 208.177L260.952 207.827C260.971 207.816 261.002 207.816 261.02 207.827L261.812 208.284ZM263.418 209.212L262.626 208.754C262.607 208.744 262.576 208.744 262.558 208.754L261.956 209.104C261.937 209.115 261.937 209.133 261.956 209.144L262.748 209.601C262.767 209.612 262.798 209.612 262.816 209.601L263.418 209.251C263.437 209.24 263.437 209.222 263.418 209.212Z" fill="#77767E"/>
<path d="M261.143 208.673C261.161 208.684 261.192 208.684 261.211 208.673L261.813 208.324C261.831 208.313 261.831 208.295 261.812 208.284L261.438 208.068L260.768 208.457L261.143 208.673Z" fill="#57565C"/>
<path d="M262.816 209.6L263.418 209.251C263.437 209.24 263.437 209.222 263.418 209.211L262.626 208.754C262.607 208.743 262.577 208.743 262.558 208.754L261.956 209.104C261.937 209.115 261.938 209.132 261.956 209.143L262.749 209.6C262.767 209.612 262.797 209.612 262.816 209.6Z" fill="#57565C"/>
<path d="M272.197 201.703C271.855 201.505 271.302 201.505 270.963 201.703C270.689 201.862 270.637 202.1 270.805 202.289L269.417 203.096H267.456C267.384 203.096 267.315 203.113 267.265 203.142L266.747 203.443L266.529 203.317L265.715 203.79L266.534 204.263L267.348 203.79L267.131 203.665L267.57 203.409H268.877L266.731 204.656L266.308 204.412L265.877 205.357L267.505 205.104L267.114 204.878L270.308 203.022L270.312 203.743L269.433 204.254C269.189 204.198 268.9 204.227 268.703 204.341C268.438 204.495 268.44 204.744 268.706 204.898C268.972 205.052 269.403 205.052 269.668 204.898C269.865 204.784 269.914 204.617 269.817 204.475L270.775 203.918C270.826 203.889 270.854 203.849 270.854 203.807L270.848 202.708L271.189 202.51C271.517 202.607 271.927 202.576 272.201 202.417C272.541 202.22 272.539 201.9 272.197 201.703Z" fill="#3E3D43"/>
</g>
<path d="M285.708 158.872L249.131 180.869L155.064 133.051L192.921 112.844L285.708 158.872Z" fill="url(#paint1_linear)"/>
<g clip-path="url(#clip2)">
<path d="M246.649 183.181L170.122 227.857C171.941 226.796 173.068 224.538 173.077 221.33L249.604 176.654C249.595 179.862 248.468 182.12 246.649 183.181Z" fill="#9857B8"/>
<path d="M88.9705 86.8165L165.498 42.1406C167.34 41.0655 169.89 41.2168 172.705 42.8493L96.178 87.5252C93.3626 85.8927 90.8123 85.7414 88.9705 86.8165Z" fill="#794494"/>
<path d="M173.296 143.966L249.823 99.2905L249.604 176.654L173.077 221.33L173.296 143.966Z" fill="#794494"/>
<path d="M96.1775 87.525L172.705 42.8491L239.725 81.7203L163.198 126.397L96.1775 87.525Z" fill="#9D5BBE"/>
<path d="M163.198 126.397L239.725 81.7209C245.32 84.9656 249.84 92.833 249.822 99.2906L173.296 143.967C173.314 137.509 168.793 129.642 163.198 126.397Z" fill="#A861CC"/>
<path d="M163.198 126.397C168.793 129.641 173.313 137.509 173.296 143.966L173.077 221.33C173.059 227.788 168.509 230.393 162.914 227.148L95.8934 188.277C90.2988 185.032 85.7785 177.167 85.7964 170.709L86.0147 93.3452C86.0329 86.8876 90.5829 84.2813 96.1775 87.5256L163.198 126.397Z" fill="#9857B8"/>
<path d="M86.0909 165.671L93.1943 169.818C93.0255 169.719 92.9208 169.51 92.92 169.212L85.8166 165.065C85.8175 165.363 85.9221 165.572 86.0909 165.671Z" fill="#888990"/>
<path d="M100.727 156.726L93.6235 152.579C93.4525 152.479 93.2158 152.493 92.9545 152.645L100.058 156.792C100.319 156.64 100.556 156.626 100.727 156.726Z" fill="#D8D8DA"/>
<path d="M92.8997 162.031L85.7963 157.884L85.8166 165.065L92.92 169.212L92.8997 162.031Z" fill="#D8D8DA"/>
<path d="M100.058 156.792L92.9546 152.645L86.7336 156.253L93.837 160.4L100.058 156.792Z" fill="#ACABB1"/>
<path d="M93.8369 160.4L86.7335 156.253C86.2143 156.554 85.7946 157.284 85.7963 157.884L92.8997 162.031C92.898 161.431 93.3176 160.701 93.8369 160.4Z" fill="#E0E0E2"/>
<path d="M93.8369 160.4C93.3176 160.701 92.898 161.431 92.8997 162.031L92.92 169.212C92.9217 169.811 93.344 170.053 93.8633 169.752L100.084 166.144C100.604 165.843 101.023 165.113 101.022 164.513L101.001 157.332C101 156.733 100.577 156.491 100.058 156.792L93.8369 160.4Z" fill="#77767E"/>
<path d="M93.6607 170.045L100.737 174.176C100.568 174.078 100.464 173.869 100.463 173.572L93.3875 169.441C93.3883 169.738 93.4926 169.947 93.6607 170.045Z" fill="#888990"/>
<path d="M108.24 161.135L101.164 157.004C100.993 156.905 100.758 156.919 100.497 157.07L107.573 161.2C107.834 161.05 108.069 161.036 108.24 161.135Z" fill="#D8D8DA"/>
<path d="M100.443 166.419L93.3673 162.288L93.3875 169.441L100.463 173.572L100.443 166.419Z" fill="#D8D8DA"/>
<path d="M107.573 161.201L100.497 157.07L94.3004 160.664L101.376 164.795L107.573 161.201Z" fill="#ACABB1"/>
<path d="M101.377 164.795L94.3009 160.664C93.7837 160.964 93.3657 161.691 93.3674 162.288L100.443 166.419C100.441 165.822 100.859 165.095 101.377 164.795Z" fill="#E0E0E2"/>
<path d="M101.377 164.795C100.859 165.095 100.441 165.822 100.443 166.419L100.463 173.572C100.465 174.169 100.886 174.41 101.403 174.11L107.6 170.516C108.117 170.216 108.535 169.489 108.533 168.892L108.513 161.739C108.512 161.142 108.091 160.901 107.574 161.201L101.377 164.795Z" fill="#77767E"/>
<path d="M101.186 174.518L108.289 178.665C108.12 178.566 108.016 178.357 108.015 178.059L100.911 173.912C100.912 174.21 101.017 174.419 101.186 174.518Z" fill="#888990"/>
<path d="M115.822 165.573L108.718 161.426C108.547 161.326 108.311 161.34 108.049 161.492L115.153 165.639C115.414 165.487 115.651 165.473 115.822 165.573Z" fill="#D8D8DA"/>
<path d="M107.994 170.878L100.891 166.731L100.911 173.912L108.015 178.059L107.994 170.878Z" fill="#D8D8DA"/>
<path d="M115.153 165.639L108.049 161.492L101.828 165.1L108.932 169.247L115.153 165.639Z" fill="#ACABB1"/>
<path d="M108.932 169.247L101.828 165.1C101.309 165.401 100.889 166.131 100.891 166.731L107.994 170.878C107.993 170.278 108.412 169.548 108.932 169.247Z" fill="#E0E0E2"/>
<path d="M108.932 169.247C108.412 169.548 107.993 170.278 107.994 170.878L108.015 178.059C108.016 178.658 108.439 178.9 108.958 178.599L115.179 174.991C115.698 174.69 116.118 173.959 116.116 173.36L116.096 166.179C116.094 165.58 115.672 165.338 115.153 165.639L108.932 169.247Z" fill="#77767E"/>
<path d="M108.755 178.892L115.831 183.023C115.663 182.925 115.559 182.716 115.558 182.419L108.482 178.289C108.483 178.585 108.587 178.794 108.755 178.892Z" fill="#888990"/>
<path d="M123.334 169.982L116.259 165.851C116.088 165.752 115.852 165.766 115.592 165.917L122.668 170.048C122.928 169.897 123.164 169.883 123.334 169.982Z" fill="#D8D8DA"/>
<path d="M115.538 175.266L108.462 171.135L108.482 178.289L115.558 182.419L115.538 175.266Z" fill="#D8D8DA"/>
<path d="M122.668 170.048L115.592 165.917L109.395 169.511L116.471 173.642L122.668 170.048Z" fill="#ACABB1"/>
<path d="M116.471 173.642L109.396 169.511C108.878 169.811 108.46 170.538 108.462 171.136L115.538 175.266C115.536 174.669 115.954 173.942 116.471 173.642Z" fill="#E0E0E2"/>
<path d="M116.471 173.642C115.954 173.942 115.536 174.669 115.538 175.266L115.558 182.419C115.56 183.017 115.98 183.257 116.498 182.957L122.695 179.363C123.212 179.063 123.63 178.336 123.628 177.739L123.608 170.586C123.606 169.989 123.186 169.748 122.668 170.048L116.471 173.642Z" fill="#77767E"/>
<path d="M116.248 183.378L123.351 187.524C123.183 187.426 123.078 187.216 123.077 186.919L115.974 182.772C115.975 183.07 116.079 183.279 116.248 183.378Z" fill="#888990"/>
<path d="M130.884 174.433L123.781 170.286C123.61 170.186 123.373 170.2 123.112 170.352L130.215 174.499C130.476 174.347 130.713 174.333 130.884 174.433Z" fill="#D8D8DA"/>
<path d="M123.057 179.737L115.953 175.591L115.974 182.772L123.077 186.919L123.057 179.737Z" fill="#D8D8DA"/>
<path d="M130.215 174.498L123.112 170.352L116.891 173.96L123.994 178.107L130.215 174.498Z" fill="#ACABB1"/>
<path d="M123.994 178.107L116.891 173.96C116.371 174.261 115.952 174.991 115.954 175.591L123.057 179.738C123.055 179.138 123.475 178.408 123.994 178.107Z" fill="#E0E0E2"/>
<path d="M123.994 178.107C123.475 178.408 123.055 179.138 123.057 179.738L123.077 186.919C123.079 187.518 123.501 187.76 124.02 187.459L130.241 183.851C130.761 183.549 131.18 182.819 131.179 182.22L131.158 175.039C131.157 174.439 130.734 174.198 130.215 174.499L123.994 178.107Z" fill="#77767E"/>
<path d="M123.818 187.752L130.894 191.882C130.725 191.784 130.621 191.576 130.62 191.279L123.545 187.148C123.545 187.445 123.65 187.654 123.818 187.752Z" fill="#888990"/>
<path d="M138.397 178.842L131.321 174.711C131.151 174.612 130.915 174.626 130.654 174.776L137.73 178.907C137.991 178.756 138.226 178.742 138.397 178.842Z" fill="#D8D8DA"/>
<path d="M130.6 184.126L123.524 179.995L123.545 187.148L130.62 191.279L130.6 184.126Z" fill="#D8D8DA"/>
<path d="M137.73 178.907L130.654 174.777L124.458 178.371L131.533 182.502L137.73 178.907Z" fill="#ACABB1"/>
<path d="M131.534 182.501L124.458 178.371C123.941 178.671 123.523 179.398 123.524 179.995L130.6 184.126C130.598 183.529 131.016 182.801 131.534 182.501Z" fill="#E0E0E2"/>
<path d="M131.534 182.501C131.016 182.801 130.599 183.529 130.6 184.126L130.62 191.279C130.622 191.876 131.043 192.117 131.56 191.817L137.757 188.223C138.274 187.923 138.692 187.196 138.69 186.599L138.67 179.445C138.669 178.848 138.248 178.607 137.731 178.907L131.534 182.501Z" fill="#77767E"/>
<path d="M131.343 192.224L138.446 196.371C138.277 196.273 138.173 196.063 138.172 195.766L131.068 191.619C131.069 191.916 131.174 192.126 131.343 192.224Z" fill="#888990"/>
<path d="M145.979 183.28L138.875 179.133C138.704 179.033 138.468 179.047 138.206 179.199L145.31 183.346C145.571 183.194 145.808 183.18 145.979 183.28Z" fill="#D8D8DA"/>
<path d="M138.152 188.584L131.048 184.438L131.068 191.619L138.172 195.765L138.152 188.584Z" fill="#D8D8DA"/>
<path d="M145.31 183.345L138.206 179.198L131.985 182.807L139.089 186.954L145.31 183.345Z" fill="#ACABB1"/>
<path d="M139.089 186.954L131.985 182.807C131.466 183.108 131.046 183.838 131.048 184.437L138.152 188.584C138.15 187.985 138.569 187.255 139.089 186.954Z" fill="#E0E0E2"/>
<path d="M139.089 186.954C138.569 187.255 138.15 187.985 138.152 188.585L138.172 195.766C138.173 196.365 138.596 196.607 139.115 196.306L145.336 192.698C145.855 192.396 146.275 191.666 146.273 191.067L146.253 183.886C146.251 183.286 145.829 183.044 145.31 183.346L139.089 186.954Z" fill="#77767E"/>
<path d="M138.912 196.599L145.988 200.729C145.82 200.631 145.716 200.423 145.715 200.126L138.639 195.995C138.64 196.292 138.744 196.5 138.912 196.599Z" fill="#888990"/>
<path d="M153.491 187.689L146.416 183.558C146.245 183.458 146.009 183.472 145.749 183.623L152.825 187.754C153.085 187.603 153.321 187.589 153.491 187.689Z" fill="#D8D8DA"/>
<path d="M145.695 192.973L138.619 188.842L138.639 195.995L145.715 200.126L145.695 192.973Z" fill="#D8D8DA"/>
<path d="M152.825 187.754L145.749 183.624L139.552 187.218L146.628 191.348L152.825 187.754Z" fill="#ACABB1"/>
<path d="M146.629 191.348L139.553 187.218C139.035 187.518 138.618 188.245 138.619 188.842L145.695 192.973C145.693 192.376 146.111 191.648 146.629 191.348Z" fill="#E0E0E2"/>
<path d="M146.629 191.348C146.111 191.648 145.693 192.376 145.695 192.973L145.715 200.126C145.717 200.723 146.137 200.964 146.655 200.664L152.852 197.07C153.369 196.77 153.787 196.043 153.785 195.445L153.765 188.292C153.763 187.695 153.343 187.454 152.825 187.754L146.629 191.348Z" fill="#77767E"/>
<path d="M89.5216 141.272L102.811 149.03C102.495 148.846 102.299 148.454 102.298 147.897L89.0084 140.139C89.01 140.696 89.2058 141.088 89.5216 141.272Z" fill="#019799"/>
<path d="M116.903 124.538L103.614 116.78C103.294 116.593 102.851 116.619 102.362 116.903L115.652 124.661C116.14 124.378 116.583 124.351 116.903 124.538Z" fill="#25C9C9"/>
<path d="M102.26 134.462L88.9706 126.704L89.0085 140.139L102.298 147.897L102.26 134.462Z" fill="#25C9C9"/>
<path d="M115.652 124.661L102.362 116.903L90.724 123.653L104.013 131.411L115.652 124.661Z" fill="#81C7CA"/>
<path d="M104.013 131.411L90.7239 123.653C89.7525 124.217 88.9674 125.583 88.9706 126.704L102.26 134.463C102.257 133.341 103.042 131.975 104.013 131.411Z" fill="#B5E8E8"/>
<path d="M104.013 131.411C103.042 131.975 102.257 133.341 102.26 134.462L102.298 147.897C102.301 149.018 103.091 149.471 104.062 148.907L115.701 142.157C116.672 141.594 117.457 140.228 117.454 139.106L117.416 125.672C117.413 124.55 116.623 124.098 115.652 124.661L104.013 131.411Z" fill="#00A7A9"/>
<path d="M125.803 161.396L139.092 169.154C138.777 168.97 138.581 168.578 138.579 168.021L125.29 160.263C125.292 160.82 125.487 161.212 125.803 161.396Z" fill="#019799"/>
<path d="M153.185 144.662L139.895 136.904C139.576 136.717 139.133 136.743 138.644 137.027L151.933 144.785C152.422 144.501 152.865 144.475 153.185 144.662Z" fill="#25C9C9"/>
<path d="M138.541 154.586L125.252 146.828L125.29 160.262L138.579 168.021L138.541 154.586Z" fill="#25C9C9"/>
<path d="M151.933 144.785L138.644 137.027L127.006 143.777L140.295 151.535L151.933 144.785Z" fill="#81C7CA"/>
<path d="M140.295 151.535L127.006 143.777C126.034 144.341 125.249 145.707 125.252 146.828L138.541 154.586C138.538 153.465 139.323 152.099 140.295 151.535Z" fill="#B5E8E8"/>
<path d="M140.295 151.535C139.323 152.099 138.538 153.465 138.541 154.586L138.579 168.021C138.582 169.142 139.373 169.594 140.344 169.031L151.982 162.281C152.954 161.717 153.739 160.352 153.736 159.23L153.698 145.796C153.695 144.674 152.905 144.222 151.933 144.785L140.295 151.535Z" fill="#00A7A9"/>
<path d="M193.83 37.7935L188.977 34.9972C190.097 35.6424 190.79 37.0322 190.791 39.0109L195.643 41.8072C195.644 39.8287 194.95 38.4384 193.83 37.7935Z" fill="#898890"/>
<path d="M180.368 50.0734L185.221 52.8695C186.327 53.5064 187.847 53.4167 189.526 52.4497C192.903 50.5034 195.643 45.7379 195.643 41.8075L190.791 39.0112C190.791 42.9416 188.051 47.707 184.673 49.6533C182.994 50.6205 181.474 50.71 180.368 50.0734Z" fill="#ACABB1"/>
<path d="M199.304 24.8334L194.451 22.0371C193.434 21.4511 192.036 21.5336 190.492 22.4231L195.345 25.2192C196.888 24.3303 198.287 24.2484 199.304 24.8334Z" fill="#898890"/>
<path d="M195.345 25.2204L190.492 22.424L178.854 29.1296L183.707 31.926L195.345 25.2204Z" fill="#ACABB1"/>
<path d="M173.226 100.368L173.226 38.9224C173.226 35.3055 175.746 30.9206 178.855 29.1294L183.707 31.9257C180.599 33.7167 178.079 38.1013 178.079 41.7187L178.079 103.164L173.226 100.368Z" fill="#E0E0E2"/>
<path d="M178.079 41.7182L173.226 38.9224L173.226 100.368L178.079 103.164L178.079 41.7182Z" fill="#D8D8DA"/>
<path d="M178.079 41.7183L178.079 103.164L200.972 89.9729L200.972 28.5275C200.972 24.9107 198.453 23.4286 195.345 25.2197L183.707 31.9253C180.599 33.7169 178.079 38.1014 178.079 41.7183ZM195.643 41.8072C195.643 45.7376 192.903 50.5031 189.526 52.4493C186.147 54.3966 183.408 52.7872 183.409 48.8569C183.409 44.9245 186.147 40.1601 189.526 38.213C192.904 36.2667 195.643 37.875 195.643 41.8072Z" fill="#77767E"/>
<path d="M153.256 16.5865L148.403 13.7902C149.523 14.4354 150.216 15.8252 150.217 17.8038L155.069 20.6002C155.069 18.6219 154.376 17.2314 153.256 16.5865Z" fill="#898890"/>
<path d="M139.794 28.8666L144.647 31.6627C145.753 32.2996 147.274 32.2099 148.952 31.2429C152.329 29.2966 155.069 24.5311 155.069 20.6007L150.217 17.8044C150.217 21.7348 147.477 26.5003 144.099 28.4465C142.42 29.4139 140.9 29.5035 139.794 28.8666Z" fill="#ACABB1"/>
<path d="M158.729 3.62738L153.877 0.831045C152.86 0.245416 151.462 0.327541 149.918 1.21704L154.771 4.01339C156.314 3.12374 157.713 3.04175 158.729 3.62738Z" fill="#898890"/>
<path d="M154.771 4.01313L149.918 1.21698L138.28 7.92261L143.133 10.7187L154.771 4.01313Z" fill="#ACABB1"/>
<path d="M132.652 79.1599L132.651 17.7145C132.652 14.0976 135.172 9.71308 138.28 7.92207L143.132 10.7184C140.024 12.5094 137.504 16.894 137.504 20.5114L137.504 81.9568L132.652 79.1599Z" fill="#E0E0E2"/>
<path d="M137.505 20.5117L132.652 17.7156L132.652 79.1603L137.505 81.9565L137.505 20.5117Z" fill="#D8D8DA"/>
<path d="M137.505 20.5117L137.505 81.9571L160.398 68.7663L160.398 7.32099C160.398 3.7041 157.879 2.22209 154.771 4.01311L143.133 10.7187C140.025 12.51 137.505 16.8945 137.505 20.5117ZM155.069 20.6001C155.069 24.5305 152.329 29.296 148.952 31.2422C145.573 33.1893 142.835 31.5801 142.835 27.6498C142.835 23.7174 145.573 18.953 148.952 17.0059C152.329 15.0598 155.069 16.6677 155.069 20.6001Z" fill="#77767E"/>
</g>
<path d="M135.983 203.489L105.473 221.838L27.009 181.951L58.5861 165.096L135.983 203.489Z" fill="url(#paint2_linear)"/>
<g clip-path="url(#clip3)">
<path d="M187.552 232.022L187.554 232.877L187.323 273.837H116.609L116.606 272.982L187.552 232.022ZM144.447 266.685H176.225L176.329 248.278L144.447 266.685Z" fill="#C6C5CB"/>
<path d="M177.524 237.189L181.13 239.284L182.004 238.78L178.398 236.684L177.524 237.189Z" fill="#77767E"/>
<path d="M174.974 238.661L177.561 240.165L178.435 239.66L175.848 238.156L174.974 238.661Z" fill="#77767E"/>
<path d="M172.424 240.133L175.011 241.637L175.885 241.132L173.298 239.629L172.424 240.133Z" fill="#77767E"/>
<path d="M169.874 241.605L172.461 243.109L173.335 242.604L170.748 241.101L169.874 241.605Z" fill="#77767E"/>
<path d="M167.324 243.078L170.93 245.173L171.804 244.669L168.198 242.573L167.324 243.078Z" fill="#77767E"/>
<path d="M164.774 244.55L167.361 246.053L168.235 245.549L165.648 244.045L164.774 244.55Z" fill="#77767E"/>
<path d="M162.224 246.022L164.811 247.526L165.685 247.021L163.098 245.518L162.224 246.022Z" fill="#77767E"/>
<path d="M159.674 247.494L162.261 248.998L163.135 248.493L160.548 246.99L159.674 247.494Z" fill="#77767E"/>
<path d="M157.124 248.967L160.73 251.062L161.604 250.558L157.998 248.462L157.124 248.967Z" fill="#77767E"/>
<path d="M154.574 250.439L157.161 251.943L158.035 251.438L155.448 249.935L154.574 250.439Z" fill="#77767E"/>
<path d="M152.024 251.911L154.611 253.415L155.485 252.91L152.898 251.407L152.024 251.911Z" fill="#77767E"/>
<path d="M149.474 253.384L152.061 254.887L152.935 254.383L150.348 252.879L149.474 253.384Z" fill="#77767E"/>
<path d="M146.924 254.856L150.53 256.951L151.404 256.447L147.798 254.351L146.924 254.856Z" fill="#77767E"/>
<path d="M144.374 256.328L146.961 257.832L147.835 257.327L145.248 255.823L144.374 256.328Z" fill="#77767E"/>
<path d="M141.824 257.8L144.411 259.304L145.285 258.799L142.698 257.296L141.824 257.8Z" fill="#77767E"/>
<path d="M139.274 259.272L141.861 260.776L142.735 260.271L140.148 258.768L139.274 259.272Z" fill="#77767E"/>
<path d="M136.724 260.745L140.33 262.84L141.204 262.336L137.598 260.24L136.724 260.745Z" fill="#77767E"/>
<path d="M134.174 262.217L136.761 263.72L137.635 263.216L135.048 261.712L134.174 262.217Z" fill="#77767E"/>
<path d="M131.624 263.689L134.211 265.193L135.085 264.688L132.498 263.185L131.624 263.689Z" fill="#77767E"/>
<path d="M142.964 266.063L142.967 266.917L176.336 247.651L176.334 246.797L142.964 266.063Z" fill="#ACABB1"/>
<path d="M129.074 265.161L131.661 266.665L132.535 266.16L129.948 264.657L129.074 265.161Z" fill="#77767E"/>
<path d="M126.523 266.634L130.13 268.729L131.004 268.225L127.398 266.129L126.523 266.634Z" fill="#77767E"/>
<path d="M116.607 272.36L116.609 273.215L187.323 273.215L187.321 272.36H116.607Z" fill="#ACABB1"/>
<path d="M126.524 266.634L116.607 272.36H187.321L187.552 231.399L178.399 236.684L182.005 238.78L181.131 239.284L177.525 237.189L175.849 238.156L178.436 239.66L177.562 240.164L174.975 238.661L173.299 239.629L175.886 241.132L175.012 241.637L172.425 240.133L170.749 241.101L173.336 242.604L172.462 243.109L169.875 241.606L168.199 242.573L171.805 244.669L170.931 245.174L167.325 243.078L165.649 244.046L168.236 245.549L167.362 246.053L164.775 244.55L163.099 245.518L165.686 247.021L164.812 247.526L162.225 246.023L160.549 246.99L163.135 248.494L162.261 248.998L159.675 247.495L157.998 248.463L161.604 250.558L160.73 251.063L157.124 248.967L155.448 249.935L158.035 251.438L157.161 251.943L154.574 250.44L152.898 251.407L155.485 252.91L154.611 253.415L152.024 251.912L150.348 252.88L152.935 254.383L152.061 254.887L149.474 253.384L147.798 254.352L151.404 256.447L150.53 256.952L146.924 254.857L145.248 255.824L147.835 257.327L146.961 257.832L144.374 256.329L142.698 257.296L145.285 258.8L144.411 259.304L141.824 257.801L140.148 258.769L142.735 260.272L141.861 260.776L139.274 259.273L137.598 260.241L141.204 262.337L140.33 262.841L136.724 260.745L135.048 261.713L137.635 263.216L136.761 263.721L134.174 262.218L132.498 263.185L135.085 264.688L134.211 265.193L131.624 263.69L129.948 264.658L132.535 266.161L131.661 266.665L129.074 265.162L127.398 266.13L131.004 268.225L130.13 268.73L126.524 266.634ZM176.226 266.063H142.965L176.335 246.797L176.226 266.063Z" fill="#C6C5CB"/>
<path d="M187.321 272.36L187.323 273.214L187.554 232.254L187.552 231.399L187.321 272.36Z" fill="#C6C5CB"/>
</g>
<g clip-path="url(#clip4)">
<path d="M212.193 223.717C212.757 224.513 213.953 225.517 214.187 225.71C214.522 225.987 215.145 226.501 216.111 227.212C217.019 227.88 217.82 228.421 218.463 228.856C219.21 229.361 221.042 230.545 223.169 231.782L226.213 233.551C226.173 233.527 226.135 233.501 226.1 233.472C226.135 233.501 226.173 233.527 226.213 233.551C227.076 234.045 228.257 234.722 229.385 235.314C230.315 235.803 231.371 236.357 233.01 237.118C234.118 237.633 236.214 238.553 237.817 238.945C237.813 238.944 237.81 238.943 237.806 238.942C238.801 239.184 239.796 239.426 240.791 239.667C240.806 239.671 240.82 239.674 240.835 239.677C240.822 239.674 240.807 239.671 240.795 239.668C240.851 239.682 240.902 239.692 240.955 239.704C241.014 239.717 241.075 239.732 241.13 239.742C241.145 239.745 241.157 239.747 241.172 239.749C241.171 239.749 241.171 239.749 241.17 239.749C241.208 239.757 241.242 239.761 241.279 239.768C241.243 239.761 241.209 239.757 241.172 239.749C241.318 239.78 241.466 239.809 241.593 239.831C241.736 239.857 241.928 239.882 242.073 239.894C242.397 239.919 242.841 239.955 243.426 239.878C244.264 239.768 245.079 239.479 245.916 238.996L250.147 236.553L254.379 234.11L258.611 231.667L262.842 229.224L267.074 226.78L271.306 224.337L275.537 221.894L279.769 219.451L284.001 217.008L288.232 214.565C288.392 214.468 288.591 214.348 288.874 214.111C289.166 213.867 289.395 213.61 289.458 213.538C289.698 213.261 289.864 213.039 290.067 212.721C290.092 212.675 290.13 212.618 290.157 212.573C290.203 212.499 290.242 212.427 290.327 212.269C290.352 212.223 290.383 212.161 290.406 212.114C290.404 212.117 290.399 212.118 290.39 212.117C290.399 212.118 290.404 212.117 290.406 212.114C290.719 211.475 291.032 210.837 291.345 210.199C291.407 210.064 291.552 209.747 291.556 209.344C291.561 208.888 291.448 208.646 291.366 208.47C291.286 208.3 291.03 207.938 290.84 207.724C290.636 207.496 290.353 207.202 290.135 206.987C289.983 206.836 289.769 206.648 289.611 206.504C289.378 206.293 288.092 205.153 285.592 203.438C283.275 201.849 281.432 200.764 280.086 199.972C280.008 199.926 279.922 199.889 279.831 199.862L276.787 198.093C272.364 195.523 268.32 193.633 265.931 192.932C265.896 192.922 265.849 192.908 265.814 192.898C265.779 192.888 265.734 192.869 265.698 192.864C265.626 192.853 265.535 192.816 265.465 192.795C265.43 192.785 265.384 192.771 265.349 192.761C265.279 192.741 265.186 192.714 265.116 192.693C265.081 192.683 265.035 192.669 265 192.659C264.93 192.638 264.837 192.611 264.767 192.591C264.698 192.57 264.604 192.543 264.535 192.522C264.5 192.512 264.453 192.498 264.418 192.488C264.349 192.468 264.255 192.44 264.186 192.42C264.116 192.399 264.023 192.372 263.953 192.352C263.918 192.341 263.872 192.328 263.837 192.317C263.769 192.297 263.679 192.271 263.61 192.251C263.609 192.251 263.609 192.251 263.609 192.251C263.609 192.251 263.609 192.25 263.608 192.25C263.607 192.25 263.605 192.25 263.604 192.249C263.605 192.249 263.605 192.25 263.606 192.25C263.246 192.151 262.77 192.008 262.408 191.921C261.782 191.772 260.948 191.569 260.313 191.464C259.564 191.34 258.559 191.203 257.804 191.122C257.314 191.07 256.656 191.044 256.164 191.021C255.384 190.984 253.911 191.019 253.399 191.061C252.979 191.095 252.417 191.125 251.999 191.178C251.188 191.28 250.111 191.44 249.305 191.576C248.881 191.648 248.322 191.775 247.903 191.871C247.482 191.969 246.92 192.102 246.505 192.222C245.667 192.466 244.556 192.812 243.728 193.086C243.298 193.228 242.734 193.444 242.312 193.608C241.884 193.774 241.313 193.999 240.893 194.186C240.036 194.568 238.901 195.095 238.056 195.504C238.044 195.509 236.807 196.117 235.189 197.051L232.622 198.533C232.256 198.754 231.763 199.043 231.401 199.271C231.031 199.504 230.54 199.818 230.184 200.072C229.824 200.328 229.335 200.658 228.984 200.927C228.627 201.201 228.147 201.559 227.795 201.839C227.439 202.122 226.97 202.509 226.623 202.803C224.215 204.846 222.258 206.951 221.041 208.358C220.744 208.701 219.955 209.612 218.969 210.885C218.36 211.672 217.552 212.727 217.011 213.563C216.737 213.984 216.352 214.533 216.077 214.953C215.802 215.377 215.447 215.949 215.177 216.376C214.906 216.805 214.565 217.389 214.312 217.829C213.611 219.05 213.38 219.495 212.693 220.816C212.457 221.27 212.164 221.886 211.942 222.347C211.924 222.384 211.907 222.437 211.896 222.476C211.813 222.767 211.873 223.264 212.193 223.717Z" fill="#3E3D43"/>
<path d="M263.61 192.25C263.25 192.151 262.772 192.007 262.409 191.92C261.783 191.771 260.949 191.568 260.315 191.463C259.565 191.339 258.561 191.202 257.805 191.121C257.315 191.069 256.658 191.043 256.165 191.02C255.385 190.983 253.912 191.018 253.401 191.059C252.98 191.093 252.418 191.124 252 191.176C251.189 191.278 250.112 191.439 249.307 191.575C248.883 191.647 248.323 191.773 247.904 191.87C247.483 191.967 246.922 192.101 246.507 192.221C245.669 192.465 244.557 192.811 243.729 193.085C243.299 193.227 242.735 193.443 242.313 193.607C241.885 193.773 241.315 193.998 240.895 194.185C240.037 194.567 238.902 195.094 238.057 195.503C238.045 195.508 236.808 196.116 235.19 197.05C235.912 196.633 241.047 198.969 247.276 202.589C257.081 196.929 266.629 195.109 274.461 197.41C270.041 194.841 266 192.952 263.61 192.25Z" fill="#3E3D43"/>
<path d="M235.19 197.049C235.912 196.633 241.047 198.969 247.276 202.589L250.32 204.358C257.045 208.266 262.5 212.192 262.503 213.125L259.937 214.607C259.934 213.674 254.479 209.748 247.754 205.84L244.71 204.071C238.481 200.451 233.345 198.115 232.624 198.531L235.19 197.049Z" fill="#9D5BBE"/>
<path d="M259.937 214.607C251.849 219.276 244.243 228.041 239.4 238.272C239.269 238.546 239.309 238.814 239.485 238.855C240.481 239.097 241.476 239.339 242.471 239.58C243.503 239.831 244.738 239.573 246.003 238.843C260.109 230.699 274.215 222.555 288.32 214.411C289.114 213.953 289.863 213.103 290.352 212.105C290.666 211.467 290.979 210.829 291.292 210.191C291.609 209.551 291.532 208.915 291.125 208.798C290.35 208.57 289.574 208.343 288.798 208.115C281.223 205.89 271.986 207.65 262.503 213.126C261.648 213.619 260.792 214.113 259.937 214.607Z" fill="#1D1D1F"/>
<path d="M212.193 223.716C212.757 224.513 213.953 225.517 214.187 225.71C214.522 225.986 215.145 226.501 216.111 227.212C217.019 227.88 217.82 228.421 218.463 228.856C219.21 229.361 221.042 230.545 223.169 231.781L226.213 233.55C226.173 233.527 226.135 233.501 226.1 233.472C226.135 233.501 226.173 233.527 226.213 233.55C227.076 234.045 228.257 234.722 229.385 235.314C230.315 235.802 231.371 236.356 233.01 237.118C234.118 237.632 236.214 238.553 237.817 238.944C237.813 238.943 237.81 238.942 237.806 238.941C238.801 239.183 239.796 239.425 240.791 239.667C240.807 239.671 240.82 239.673 240.835 239.677C240.822 239.674 240.807 239.67 240.795 239.668C240.851 239.682 240.902 239.691 240.955 239.703C241.014 239.716 241.075 239.731 241.13 239.742C241.145 239.745 241.157 239.746 241.172 239.749C241.171 239.749 241.171 239.749 241.17 239.749C241.208 239.756 241.243 239.761 241.279 239.767C241.243 239.761 241.209 239.756 241.172 239.749C241.318 239.779 241.466 239.808 241.593 239.831C241.736 239.856 241.928 239.882 242.073 239.893C242.397 239.919 242.841 239.954 243.426 239.877C244.264 239.767 245.079 239.479 245.916 238.996L250.147 236.553L254.379 234.109L258.611 231.666L262.842 229.223L267.074 226.78L271.306 224.337L275.537 221.894L279.769 219.45L284.001 217.007L288.232 214.564C288.392 214.468 288.591 214.348 288.874 214.11C289.166 213.866 289.395 213.61 289.458 213.537C289.698 213.26 289.864 213.039 290.067 212.72C290.092 212.675 290.13 212.617 290.157 212.573C290.203 212.499 290.242 212.426 290.327 212.269C290.352 212.223 290.383 212.16 290.406 212.113C290.404 212.116 290.399 212.117 290.39 212.116C290.399 212.117 290.404 212.116 290.406 212.113C290.719 211.475 291.032 210.837 291.345 210.199C291.407 210.064 291.552 209.747 291.556 209.344C291.562 208.887 291.448 208.645 291.366 208.469C291.286 208.299 291.03 207.937 290.84 207.724C290.636 207.495 290.353 207.202 290.135 206.986C289.983 206.836 289.769 206.647 289.611 206.504C289.378 206.293 288.092 205.153 285.592 203.438C283.275 201.849 281.432 200.764 280.086 199.971C280.008 199.925 279.922 199.889 279.831 199.862L276.787 198.093C272.364 195.523 268.32 193.633 265.931 192.931C265.896 192.921 265.849 192.907 265.814 192.897C265.779 192.887 265.734 192.868 265.698 192.863C265.626 192.853 265.535 192.815 265.465 192.795C265.43 192.785 265.384 192.771 265.349 192.761C265.279 192.74 265.186 192.713 265.116 192.692C265.081 192.682 265.035 192.668 265 192.658C264.93 192.638 264.837 192.611 264.767 192.59C264.698 192.569 264.604 192.542 264.535 192.522C264.5 192.511 264.453 192.498 264.418 192.488C264.349 192.467 264.256 192.44 264.186 192.419C264.116 192.399 264.023 192.372 263.953 192.351C263.918 192.341 263.872 192.327 263.837 192.317C263.767 192.296 263.674 192.269 263.604 192.249C265.994 192.95 270.037 194.84 274.46 197.41C266.628 195.109 257.08 196.929 247.275 202.59L250.319 204.359C260.124 198.698 269.672 196.878 277.504 199.179H277.504H277.504C284.229 203.087 289.286 207.089 288.797 208.116L291.124 208.798C291.531 208.916 291.608 209.551 291.291 210.192L290.351 212.106C289.862 213.103 289.112 213.954 288.319 214.411L246.003 238.844C244.737 239.575 243.503 239.832 242.471 239.582C242.453 239.62 242.429 239.653 242.398 239.682C242.429 239.653 242.453 239.62 242.471 239.582L239.485 238.856C239.309 238.816 239.269 238.548 239.4 238.273C244.243 228.043 251.849 219.278 259.936 214.609C259.934 213.675 254.478 209.75 247.754 205.841L244.71 204.072C238.48 200.452 233.345 198.116 232.623 198.533C232.257 198.754 231.764 199.043 231.401 199.271C231.032 199.504 230.541 199.818 230.185 200.072C229.825 200.328 229.336 200.658 228.985 200.927C228.628 201.201 228.148 201.56 227.796 201.839C227.439 202.122 226.971 202.509 226.624 202.803C224.216 204.846 222.259 206.951 221.042 208.358C220.745 208.701 219.956 209.612 218.97 210.885C218.361 211.672 217.553 212.727 217.011 213.563C216.738 213.984 216.352 214.533 216.078 214.954C215.803 215.377 215.448 215.949 215.178 216.376C214.907 216.805 214.566 217.389 214.313 217.829C213.612 219.05 213.381 219.495 212.694 220.816C212.458 221.27 212.165 221.886 211.943 222.347C211.925 222.384 211.908 222.437 211.896 222.476C211.813 222.766 211.873 223.264 212.193 223.716Z" fill="#2E2E30"/>
<path d="M255.406 199.355C255.567 199.487 255.74 199.615 255.926 199.738C255.988 199.779 256.05 199.82 256.114 199.86C256.182 199.902 256.248 199.944 256.319 199.985C256.591 200.143 256.878 200.286 257.176 200.418C257.176 200.418 257.176 200.419 257.176 200.419C257.458 200.543 257.749 200.657 258.05 200.758C258.051 200.758 258.051 200.759 258.051 200.759C258.157 200.632 258.265 200.509 258.374 200.388L258.375 200.388C258.265 200.509 258.157 200.632 258.051 200.759C258.068 200.764 258.084 200.769 258.101 200.775C258.212 200.643 258.342 200.493 258.493 200.333C258.601 200.218 258.748 200.069 258.861 199.96C258.976 199.851 259.134 199.712 259.251 199.605C259.298 199.563 259.353 199.517 259.409 199.47C259.462 199.427 259.516 199.383 259.569 199.342C259.605 199.315 259.64 199.288 259.673 199.264C259.9 199.102 260.21 198.896 260.447 198.749C260.547 198.695 260.664 198.631 260.783 198.571C260.901 198.51 261.021 198.452 261.126 198.41C261.224 198.372 261.353 198.319 261.453 198.287C261.489 198.276 261.528 198.264 261.569 198.252C261.691 198.215 261.828 198.177 261.939 198.157C261.971 198.151 262.006 198.145 262.042 198.139C262.151 198.122 262.273 198.107 262.371 198.1C262.4 198.098 262.435 198.097 262.469 198.097C262.504 198.096 262.538 198.096 262.568 198.097C262.588 198.097 262.612 198.098 262.635 198.1C262.646 198.1 262.655 198.101 262.666 198.102C262.679 198.103 262.692 198.104 262.703 198.104C262.704 198.104 262.739 198.107 262.79 198.114C262.816 198.118 262.845 198.122 262.877 198.128C262.909 198.134 262.942 198.141 262.975 198.15C263.002 198.158 263.026 198.165 263.048 198.172C263.056 198.175 263.063 198.178 263.071 198.181C263.079 198.184 263.086 198.186 263.093 198.189C263.093 198.19 263.094 198.19 263.095 198.19C263.13 198.218 263.165 198.25 263.199 198.287C263.316 198.41 263.395 198.538 263.398 198.543C263.468 198.657 263.518 198.739 263.59 198.906C263.604 198.938 263.618 198.973 263.632 199.009C263.66 199.082 263.687 199.161 263.711 199.235C263.723 199.272 263.734 199.308 263.743 199.341C263.756 199.388 263.769 199.439 263.782 199.493C263.819 199.653 263.853 199.834 263.871 199.979C263.884 200.085 263.898 200.226 263.904 200.333C263.911 200.459 263.919 200.628 263.916 200.755C263.913 200.877 263.91 200.984 263.906 201.091C263.902 201.163 263.898 201.234 263.892 201.31C263.892 201.316 263.891 201.324 263.89 201.331C264.067 201.311 264.242 201.287 264.417 201.261C264.481 201.251 264.545 201.241 264.608 201.231C264.983 201.169 265.351 201.092 265.711 201C265.712 201 265.713 201 265.713 200.999C266.089 200.903 266.455 200.79 266.808 200.661C266.809 200.661 266.809 200.661 266.81 200.661C266.836 200.651 266.863 200.642 266.889 200.632C266.886 200.527 266.88 200.395 266.869 200.249C266.865 200.197 266.862 200.156 266.858 200.118C266.855 200.08 266.851 200.046 266.847 200.008C266.842 199.97 266.837 199.928 266.83 199.874C266.823 199.821 266.814 199.756 266.802 199.672C266.796 199.628 266.787 199.577 266.778 199.526C266.768 199.475 266.758 199.424 266.749 199.38C266.734 199.304 266.709 199.203 266.692 199.127C266.687 199.105 266.681 199.082 266.675 199.058C266.656 198.986 266.632 198.906 266.613 198.842C266.598 198.789 266.577 198.726 266.557 198.668C266.551 198.649 266.544 198.628 266.538 198.61C266.523 198.568 266.504 198.519 266.485 198.469C266.475 198.445 266.466 198.42 266.457 198.397C266.447 198.373 266.438 198.35 266.43 198.329C266.412 198.283 266.389 198.23 266.365 198.178C266.341 198.125 266.316 198.073 266.293 198.029C266.235 197.915 266.155 197.763 266.086 197.654C266.031 197.567 265.954 197.453 265.895 197.368C265.861 197.319 265.812 197.257 265.775 197.209C265.714 197.131 265.641 197.046 265.582 196.98C265.562 196.958 265.543 196.938 265.527 196.921C265.486 196.877 265.448 196.838 265.414 196.804C265.346 196.736 265.293 196.686 265.258 196.655C265.241 196.64 265.228 196.629 265.221 196.622C265.2 196.604 265.177 196.584 265.153 196.563C265.129 196.543 265.105 196.522 265.084 196.506C265.07 196.494 265.052 196.48 265.036 196.467C264.987 196.427 264.934 196.386 264.888 196.353C264.844 196.321 264.792 196.285 264.739 196.25C264.687 196.214 264.634 196.179 264.588 196.149C264.542 196.119 264.479 196.084 264.432 196.055H264.431L264.237 195.942C264.199 195.921 264.154 195.897 264.109 195.872C264.063 195.848 264.018 195.825 263.979 195.804C263.955 195.793 263.928 195.779 263.901 195.767C263.873 195.754 263.845 195.741 263.822 195.73C263.674 195.662 263.513 195.603 263.441 195.578C263.39 195.561 263.33 195.542 263.27 195.524C263.21 195.506 263.15 195.488 263.098 195.473C263.044 195.458 262.971 195.442 262.916 195.429C262.888 195.422 262.859 195.416 262.828 195.41C262.765 195.397 262.698 195.385 262.635 195.376C262.604 195.371 262.573 195.367 262.545 195.363C262.445 195.35 262.31 195.334 262.209 195.33C262.176 195.329 262.138 195.327 262.1 195.326C262.061 195.324 262.022 195.323 261.984 195.322C261.959 195.322 261.935 195.321 261.913 195.321C261.848 195.321 261.762 195.322 261.697 195.326C261.655 195.329 261.606 195.332 261.556 195.336C261.507 195.339 261.458 195.343 261.416 195.347C261.381 195.351 261.341 195.356 261.301 195.361C261.261 195.366 261.221 195.372 261.187 195.377C261.157 195.381 261.125 195.386 261.089 195.392C260.982 195.41 260.846 195.436 260.673 195.479C260.334 195.563 259.972 195.688 259.627 195.839C259.414 195.932 259.218 196.031 259.052 196.12C258.942 196.179 258.845 196.234 258.767 196.28C258.65 196.348 258.575 196.397 258.556 196.409C258.482 196.456 258.425 196.493 258.378 196.524C258.354 196.539 258.333 196.553 258.313 196.566C258.287 196.583 258.264 196.598 258.241 196.614C258.223 196.626 258.204 196.639 258.186 196.652C258.159 196.67 258.131 196.69 258.098 196.713C258.077 196.728 258.055 196.744 258.03 196.762C257.745 196.966 257.521 197.151 257.519 197.153C257.255 197.373 257.157 197.455 257.024 197.58C256.987 197.614 256.944 197.653 256.902 197.692C256.859 197.731 256.817 197.771 256.782 197.806C256.703 197.884 256.643 197.943 256.596 197.989C256.503 198.081 256.459 198.126 256.406 198.181C256.38 198.209 256.351 198.24 256.313 198.28C255.997 198.618 255.695 198.979 255.406 199.355ZM258.422 200.338C258.514 200.237 258.608 200.139 258.703 200.043C258.608 200.139 258.514 200.238 258.421 200.338C258.421 200.338 258.422 200.338 258.422 200.338Z" fill="#C6C5CB"/>
<path d="M262.568 198.097C262.568 198.097 262.568 198.097 262.568 198.097C262.588 198.097 262.611 198.098 262.634 198.1C262.611 198.098 262.588 198.097 262.568 198.097Z" fill="#C6C5CB"/>
<path d="M263.071 198.181C263.063 198.178 263.056 198.175 263.048 198.173C263.056 198.175 263.063 198.178 263.071 198.181Z" fill="#C6C5CB"/>
<path d="M263.095 198.19C263.129 198.218 263.164 198.25 263.198 198.286C263.164 198.25 263.129 198.218 263.095 198.19Z" fill="#C6C5CB"/>
<path d="M263.272 195.523C263.211 195.505 263.151 195.488 263.099 195.473C263.151 195.488 263.211 195.505 263.272 195.523Z" fill="#C6C5CB"/>
<path d="M260.516 198.62C263.213 197.064 265.437 198.137 265.714 201C265.713 201 265.713 201 265.712 201C265.498 198.794 264.126 197.652 262.274 197.958C262.272 197.959 262.271 197.959 262.269 197.959C262.184 197.973 262.099 197.991 262.012 198.011C261.993 198.015 261.973 198.021 261.954 198.025C261.885 198.043 261.815 198.061 261.744 198.083C261.717 198.091 261.69 198.099 261.663 198.108C261.599 198.128 261.535 198.15 261.471 198.174C261.439 198.185 261.409 198.196 261.377 198.208C261.315 198.233 261.252 198.259 261.189 198.286C261.156 198.3 261.124 198.313 261.091 198.328C261.025 198.357 260.959 198.389 260.892 198.422C260.863 198.437 260.834 198.451 260.804 198.466C260.708 198.515 260.612 198.567 260.515 198.623C260.335 198.727 260.157 198.84 259.982 198.961C259.807 199.083 259.635 199.213 259.465 199.351C258.963 199.759 258.488 200.234 258.051 200.758C258.051 200.758 258.051 200.758 258.051 200.758C258.784 199.88 259.623 199.136 260.516 198.62Z" fill="#C6C5CB"/>
<path d="M262.21 195.33C262.143 195.327 262.06 195.324 261.985 195.322C262.06 195.324 262.144 195.327 262.21 195.33C262.311 195.334 262.446 195.35 262.546 195.363C262.574 195.367 262.605 195.371 262.636 195.376C262.605 195.371 262.574 195.367 262.546 195.363C262.446 195.35 262.311 195.334 262.21 195.33Z" fill="#C6C5CB"/>
<path d="M263.099 195.473C263.045 195.458 262.972 195.442 262.917 195.429C262.972 195.442 263.045 195.458 263.099 195.473Z" fill="#C6C5CB"/>
<path d="M263.093 198.189L263.093 198.189L263.095 198.19L263.093 198.189Z" fill="#ACABB1"/>
<path d="M263.893 201.31C263.899 201.234 263.904 201.163 263.907 201.091C263.912 200.984 263.914 200.877 263.917 200.755C263.92 200.628 263.913 200.459 263.905 200.333C263.899 200.226 263.885 200.085 263.872 199.979C263.854 199.834 263.821 199.653 263.783 199.493C263.77 199.439 263.757 199.388 263.744 199.341C263.735 199.308 263.724 199.272 263.712 199.235C263.689 199.161 263.661 199.082 263.633 199.009C263.619 198.973 263.605 198.938 263.591 198.906C263.519 198.739 263.469 198.657 263.399 198.543C263.396 198.538 263.317 198.41 263.2 198.287C263.166 198.25 263.131 198.218 263.096 198.19C263.095 198.19 263.095 198.19 263.095 198.189C263.102 198.192 263.111 198.195 263.117 198.198C263.921 198.731 264.415 199.778 264.419 201.24C264.419 201.247 264.418 201.254 264.418 201.261C264.244 201.287 264.068 201.311 263.892 201.33C263.892 201.324 263.893 201.316 263.893 201.31Z" fill="#ACABB1"/>
<path d="M264.417 201.24C264.413 199.778 263.92 198.731 263.116 198.198C263.15 198.212 263.174 198.226 263.195 198.237C264.043 198.73 264.576 199.765 264.609 201.23C264.545 201.241 264.481 201.251 264.417 201.26C264.417 201.254 264.417 201.247 264.417 201.24Z" fill="#ACABB1"/>
<path d="M263.071 198.181C263.077 198.183 263.085 198.186 263.091 198.188C263.091 198.188 263.092 198.189 263.092 198.189C263.085 198.186 263.078 198.184 263.071 198.181Z" fill="#D8D8DA"/>
<path d="M263.047 198.172C263.025 198.165 263.002 198.157 262.975 198.15C263.002 198.157 263.026 198.165 263.047 198.172Z" fill="#D8D8DA"/>
<path d="M261.939 198.156C261.827 198.177 261.691 198.215 261.569 198.252C261.691 198.215 261.827 198.177 261.939 198.156Z" fill="#D8D8DA"/>
<path d="M262.974 198.15C262.941 198.141 262.908 198.134 262.877 198.128C262.908 198.134 262.941 198.141 262.974 198.15Z" fill="#D8D8DA"/>
<path d="M262.876 198.128C262.845 198.122 262.816 198.117 262.79 198.114C262.816 198.117 262.845 198.122 262.876 198.128Z" fill="#D8D8DA"/>
<path d="M261.954 198.025C261.885 198.043 261.815 198.061 261.744 198.083C261.815 198.061 261.885 198.043 261.954 198.025Z" fill="#D8D8DA"/>
<path d="M262.269 197.959C262.184 197.973 262.098 197.991 262.012 198.011C262.098 197.991 262.184 197.973 262.269 197.959Z" fill="#D8D8DA"/>
<path d="M262.634 198.1C262.611 198.098 262.588 198.097 262.568 198.097C262.588 198.097 262.611 198.098 262.634 198.1Z" fill="#D8D8DA"/>
<path d="M263.195 198.237L263.001 198.124C263.031 198.142 263.061 198.164 263.091 198.188C263.085 198.185 263.077 198.183 263.071 198.181C263.063 198.178 263.056 198.175 263.047 198.172C263.026 198.165 263.002 198.158 262.974 198.15C262.942 198.141 262.908 198.134 262.877 198.128C262.845 198.122 262.816 198.117 262.79 198.114C262.739 198.107 262.704 198.104 262.703 198.104C262.692 198.104 262.678 198.103 262.665 198.102C262.676 198.102 262.686 198.103 262.695 198.104L262.807 197.91C262.634 197.912 262.456 197.928 262.273 197.958C264.126 197.652 265.498 198.793 265.712 201C265.352 201.092 264.983 201.169 264.609 201.231C264.576 199.765 264.043 198.73 263.195 198.237Z" fill="#D8D8DA"/>
<path d="M263.093 198.189L263.093 198.189L263.091 198.188L263.092 198.188L263.093 198.189Z" fill="#D8D8DA"/>
<path d="M263.093 198.189C263.093 198.189 263.093 198.189 263.092 198.188C263.092 198.188 263.091 198.188 263.091 198.188C263.061 198.164 263.031 198.142 263.001 198.125C263.04 198.147 263.078 198.173 263.116 198.198C263.11 198.195 263.101 198.192 263.093 198.189Z" fill="#D8D8DA"/>
<path d="M263.001 198.125L263.195 198.237C263.174 198.226 263.15 198.213 263.116 198.198C263.078 198.173 263.04 198.147 263.001 198.125Z" fill="#D8D8DA"/>
<path d="M262.635 198.1C262.645 198.1 262.654 198.101 262.664 198.102C262.654 198.101 262.645 198.1 262.635 198.1C262.635 198.1 262.635 198.1 262.635 198.1Z" fill="#D8D8DA"/>
<path d="M262.01 198.011C261.991 198.015 261.973 198.021 261.954 198.025C261.973 198.02 261.991 198.015 262.01 198.011Z" fill="#D8D8DA"/>
<path d="M262.37 198.1C262.273 198.107 262.151 198.122 262.042 198.139C262.151 198.122 262.273 198.107 262.37 198.1Z" fill="#D8D8DA"/>
<path d="M262.274 197.958C262.273 197.959 262.271 197.959 262.269 197.959C262.271 197.959 262.273 197.958 262.274 197.958Z" fill="#D8D8DA"/>
<path d="M262.469 198.097C262.504 198.096 262.538 198.096 262.567 198.097C262.567 198.097 262.567 198.097 262.567 198.097C262.567 198.097 262.567 198.097 262.567 198.097C262.538 198.096 262.503 198.096 262.469 198.097Z" fill="#D8D8DA"/>
<path d="M262.695 198.104C262.686 198.103 262.675 198.102 262.665 198.102C262.655 198.101 262.646 198.1 262.636 198.1C262.635 198.1 262.635 198.1 262.635 198.1C262.612 198.098 262.588 198.097 262.568 198.097C262.568 198.097 262.568 198.097 262.568 198.097C262.538 198.096 262.504 198.096 262.469 198.097C262.435 198.097 262.4 198.098 262.37 198.1C262.273 198.107 262.151 198.122 262.042 198.139C262.006 198.145 261.971 198.151 261.939 198.157C261.827 198.177 261.691 198.215 261.569 198.252C261.528 198.264 261.489 198.276 261.453 198.287C261.353 198.318 261.224 198.371 261.126 198.41C261.02 198.452 260.901 198.51 260.782 198.571C260.664 198.631 260.547 198.695 260.447 198.749C260.49 198.724 260.515 198.682 260.515 198.623C260.612 198.567 260.708 198.515 260.804 198.465C260.833 198.45 260.863 198.437 260.892 198.422C260.959 198.389 261.025 198.357 261.091 198.327C261.124 198.313 261.156 198.299 261.188 198.285C261.251 198.258 261.314 198.232 261.377 198.208C261.408 198.196 261.439 198.185 261.47 198.173C261.535 198.15 261.599 198.128 261.663 198.108C261.69 198.099 261.717 198.09 261.744 198.082C261.815 198.061 261.885 198.042 261.954 198.025C261.973 198.02 261.993 198.015 262.012 198.011C262.098 197.99 262.184 197.973 262.269 197.959C262.27 197.959 262.272 197.958 262.273 197.958C262.456 197.928 262.635 197.912 262.807 197.91L262.695 198.104Z" fill="#D8D8DA"/>
<path d="M259.673 199.265C259.64 199.289 259.605 199.315 259.569 199.343C259.516 199.383 259.462 199.427 259.409 199.471C259.353 199.517 259.298 199.564 259.251 199.606C259.134 199.712 258.976 199.851 258.861 199.96C258.748 200.069 258.601 200.219 258.493 200.333C258.342 200.493 258.211 200.643 258.101 200.775C258.084 200.77 258.068 200.764 258.051 200.759C258.488 200.235 258.963 199.759 259.465 199.351C259.634 199.213 259.807 199.083 259.982 198.962C260.157 198.841 260.335 198.727 260.515 198.624C260.515 198.683 260.49 198.725 260.447 198.75C260.21 198.897 259.9 199.102 259.673 199.265Z" fill="#D8D8DA"/>
<path d="M262.829 195.41C262.766 195.397 262.699 195.385 262.636 195.376C262.699 195.385 262.766 195.397 262.829 195.41Z" fill="#D8D8DA"/>
<path d="M256.408 198.182C256.461 198.126 256.504 198.081 256.598 197.989C256.645 197.943 256.704 197.884 256.783 197.806C256.818 197.771 256.861 197.732 256.903 197.692C256.946 197.653 256.989 197.614 257.025 197.58C257.158 197.455 257.257 197.373 257.52 197.153C257.522 197.152 257.747 196.966 258.031 196.762C258.056 196.744 258.079 196.728 258.099 196.714C258.132 196.69 258.16 196.671 258.187 196.652C258.205 196.639 258.224 196.626 258.242 196.614C258.265 196.599 258.288 196.583 258.314 196.566C258.334 196.553 258.355 196.539 258.379 196.524C258.426 196.493 258.484 196.456 258.557 196.409C258.576 196.397 258.652 196.349 258.769 196.28C258.847 196.234 258.943 196.18 259.053 196.121C259.219 196.032 259.416 195.933 259.628 195.839C259.973 195.688 260.335 195.563 260.674 195.479C260.847 195.436 260.983 195.41 261.09 195.392C261.126 195.386 261.158 195.381 261.188 195.377C261.222 195.372 261.262 195.366 261.302 195.361C261.343 195.356 261.383 195.351 261.417 195.348C261.459 195.344 261.508 195.34 261.558 195.336C261.607 195.332 261.656 195.329 261.698 195.327C261.763 195.323 261.849 195.321 261.914 195.321C261.936 195.322 261.961 195.322 261.986 195.323C262.061 195.324 262.144 195.327 262.21 195.33C262.312 195.335 262.446 195.35 262.547 195.363C262.575 195.367 262.605 195.371 262.636 195.376C262.699 195.386 262.767 195.398 262.829 195.41C262.86 195.416 262.89 195.423 262.917 195.429C262.972 195.443 263.045 195.458 263.099 195.473C263.151 195.488 263.212 195.506 263.272 195.524C263.332 195.542 263.392 195.561 263.443 195.579C263.514 195.603 263.675 195.663 263.823 195.731C263.847 195.742 263.874 195.754 263.902 195.767C263.929 195.78 263.957 195.793 263.98 195.805C264.019 195.825 264.064 195.848 264.11 195.873C264.155 195.897 264.2 195.921 264.238 195.943C263.033 195.256 261.372 195.36 259.539 196.419C258.205 197.189 256.965 198.36 255.926 199.739C255.74 199.615 255.567 199.487 255.406 199.356C255.695 198.979 255.997 198.619 256.314 198.281C256.352 198.24 256.381 198.209 256.408 198.182Z" fill="#D8D8DA"/>
<path d="M259.539 196.418C261.371 195.36 263.033 195.255 264.238 195.942L264.432 196.055C263.227 195.368 261.566 195.473 259.733 196.531C258.396 197.303 257.154 198.476 256.114 199.859C256.05 199.82 255.988 199.779 255.926 199.738C256.964 198.359 258.204 197.188 259.539 196.418Z" fill="#D8D8DA"/>
<path d="M264.963 196.934C263.822 196.283 262.249 196.382 260.513 197.384C259.285 198.094 258.141 199.16 257.175 200.418C256.878 200.286 256.591 200.143 256.319 199.984C256.248 199.944 256.181 199.901 256.114 199.859C257.154 198.476 258.396 197.303 259.733 196.531C261.566 195.473 263.227 195.368 264.432 196.055H264.432C264.479 196.083 264.543 196.119 264.589 196.149C264.635 196.179 264.687 196.214 264.74 196.249C264.792 196.285 264.845 196.321 264.889 196.353C264.934 196.385 264.987 196.427 265.037 196.466C265.053 196.48 265.07 196.493 265.085 196.505C265.106 196.522 265.13 196.542 265.154 196.563C265.177 196.584 265.201 196.604 265.221 196.622C265.229 196.628 265.242 196.639 265.259 196.655C265.294 196.686 265.347 196.736 265.415 196.804C265.449 196.838 265.487 196.877 265.528 196.92C265.544 196.938 265.563 196.957 265.582 196.98C265.642 197.046 265.715 197.131 265.776 197.209C265.813 197.256 265.862 197.319 265.896 197.368C265.955 197.452 266.031 197.567 266.086 197.654C266.155 197.763 266.235 197.915 266.294 198.029C266.317 198.073 266.342 198.125 266.366 198.177C266.39 198.23 266.413 198.283 266.431 198.329C266.439 198.35 266.448 198.373 266.457 198.396C266.466 198.42 266.476 198.444 266.486 198.469C266.505 198.518 266.523 198.567 266.538 198.61C266.545 198.627 266.552 198.648 266.558 198.668C266.578 198.726 266.599 198.789 266.614 198.842C266.632 198.906 266.656 198.985 266.675 199.058C266.682 199.082 266.687 199.105 266.692 199.127C266.71 199.202 266.734 199.303 266.75 199.38C266.758 199.424 266.769 199.474 266.778 199.526C266.788 199.577 266.796 199.628 266.803 199.672C266.814 199.756 266.823 199.82 266.83 199.874C266.837 199.927 266.843 199.969 266.847 200.008C266.852 200.046 266.855 200.08 266.859 200.118C266.862 200.155 266.866 200.196 266.869 200.248C266.881 200.394 266.886 200.527 266.889 200.632C266.863 200.642 266.837 200.651 266.81 200.66C266.734 198.835 266.043 197.549 264.963 196.934Z" fill="#D8D8DA"/>
<path d="M260.516 198.62C259.623 199.135 258.784 199.879 258.05 200.758C257.75 200.656 257.458 200.543 257.176 200.418C258.141 199.161 259.284 198.095 260.511 197.387C262.247 196.384 263.82 196.286 264.962 196.936C266.041 197.551 266.732 198.836 266.809 200.661C266.455 200.79 266.09 200.903 265.714 200.999C265.437 198.136 263.213 197.063 260.516 198.62Z" fill="#C6C5CB"/>
<path d="M260.513 197.384C262.249 196.382 263.822 196.284 264.963 196.934C266.043 197.549 266.734 198.835 266.811 200.661C266.81 200.661 266.81 200.661 266.809 200.661C266.732 198.837 266.041 197.552 264.962 196.937C263.82 196.286 262.247 196.385 260.511 197.387C259.284 198.096 258.142 199.161 257.176 200.418C257.176 200.418 257.176 200.418 257.176 200.418C258.141 199.16 259.285 198.093 260.513 197.384Z" fill="#C6C5CB"/>
<path d="M288.798 208.115C289.287 207.089 284.23 203.087 277.505 199.179C269.674 196.878 260.125 198.698 250.321 204.358C257.046 208.267 262.501 212.193 262.504 213.126C271.986 207.651 281.223 205.89 288.798 208.115Z" fill="#3E3D43"/>
<path d="M264.37 222.912C263.292 223.535 262.046 222.169 262.868 221.235C266.34 217.293 268.833 215.287 271.68 213.587C272.421 214.899 273.06 216.234 273.59 217.575L264.37 222.912Z" fill="#794494"/>
<path d="M273.466 212.586C275.857 211.339 279.131 210.006 282.621 209.856C282.634 209.855 282.647 209.856 282.66 209.856C283.827 209.858 284.229 211.417 283.218 212.001L275.379 216.539C274.839 215.208 274.2 213.885 273.466 212.586Z" fill="#794494"/>
</g>
<g clip-path="url(#clip5)">
<path d="M0 195.538L0.00751696 198.142C0.0119018 199.679 1.0221 201.215 3.0404 202.388L64.1363 237.893C68.1988 240.254 74.8081 240.254 78.8957 237.894L103.827 223.499C105.885 222.311 106.912 220.752 106.908 219.195L106.9 216.591C106.9 216.596 106.899 216.601 106.899 216.606C106.901 215.064 105.891 213.522 103.867 212.346L42.7709 176.84C38.7084 174.479 32.1007 174.479 28.0115 176.84L3.07986 191.234C0.963841 192.455 -0.0595092 194.07 0.00584652 195.672C0.00417609 195.627 0.000208804 195.582 0 195.538Z" fill="#77767E"/>
<path d="M0 195.538L0.00751695 198.142C0.0119018 199.679 1.0221 201.214 3.0404 202.387L3.03288 199.783C1.01458 198.61 0.00438489 197.075 0 195.538Z" fill="#57565C"/>
<path d="M106.908 219.195L106.9 216.591C106.905 218.148 105.877 219.707 103.82 220.895L103.827 223.499C105.885 222.311 106.912 220.752 106.908 219.195Z" fill="#3E3D43"/>
<path d="M3.03314 199.783L3.04045 202.388L64.1364 237.892L64.1291 235.288L3.03314 199.783Z" fill="#77767E"/>
<path d="M78.8885 235.289L78.8956 237.893L103.828 223.499L103.82 220.895L78.8885 235.289Z" fill="#57565C"/>
<path d="M64.129 235.288L64.1365 237.892C68.199 240.253 74.8083 240.253 78.8959 237.893L78.8884 235.289C74.8006 237.649 68.1915 237.649 64.129 235.288Z" fill="#898890"/>
<path d="M3.07989 191.234C-1.00787 193.594 -1.02959 197.422 3.03291 199.783L64.1288 235.288C68.1913 237.649 74.8006 237.649 78.8882 235.289L103.82 220.895C107.909 218.534 107.929 214.706 103.867 212.345L42.7709 176.84C38.7084 174.48 32.1008 174.479 28.0115 176.84L3.07989 191.234Z" fill="#2E2E30"/>
<path d="M8.48016 198.436L41.0743 179.673L97.6118 212.385L65.0177 231.148L8.48016 198.436Z" fill="#3E3D43"/>
<path d="M73.2515 215.764C74.7152 216.609 74.7229 217.979 73.2688 218.824C71.8147 219.669 69.4498 219.669 67.986 218.824C66.5223 217.979 66.5146 216.609 67.9687 215.764C69.4228 214.919 71.7877 214.918 73.2515 215.764Z" fill="#77767E"/>
<path d="M63.7496 215.764C65.2133 216.609 65.2211 217.979 63.767 218.824C62.3128 219.669 59.9479 219.669 58.4842 218.824C57.0205 217.979 57.0128 216.609 58.4669 215.764C59.9208 214.919 62.2859 214.919 63.7496 215.764Z" fill="#77767E"/>
<path d="M73.2813 221.267C74.745 222.112 74.7527 223.482 73.2986 224.327C71.8445 225.172 69.4796 225.172 68.0159 224.327C66.5522 223.482 66.5445 222.112 67.9986 221.267C69.4527 220.422 71.8176 220.422 73.2813 221.267Z" fill="#77767E"/>
<path d="M31.4403 195.205C34.2863 196.849 34.3013 199.512 31.4737 201.155C28.6463 202.798 24.0482 202.798 21.202 201.155C18.356 199.512 18.341 196.849 21.1684 195.205C23.9962 193.562 28.5943 193.562 31.4403 195.205Z" fill="#77767E"/>
<path d="M29.6677 196.235C31.5282 197.309 31.538 199.05 29.6897 200.125C27.8413 201.199 24.8354 201.199 22.9749 200.125C21.1145 199.051 21.1047 197.31 22.9532 196.235C24.8011 195.161 27.8071 195.161 29.6677 196.235Z" fill="#898890"/>
<path d="M91.0859 221.7C92.9463 222.775 92.9561 224.516 91.1076 225.59C89.259 226.664 86.2533 226.664 84.3928 225.59C82.5324 224.516 82.5226 222.775 84.3711 221.7C86.2197 220.626 89.2252 220.626 91.0859 221.7Z" fill="#1D1D1F"/>
<path d="M63.7818 221.267C65.2455 222.112 65.2533 223.482 63.7992 224.327C62.345 225.172 59.9801 225.172 58.5164 224.327C57.0527 223.482 57.0449 222.112 58.4991 221.267C59.9532 220.422 62.3181 220.422 63.7818 221.267Z" fill="#77767E"/>
<path d="M15.5795 189.028L25.1862 183.481C25.5864 183.25 26.2342 183.25 26.6319 183.481C27.0303 183.712 27.0282 184.087 26.6278 184.318L17.0207 189.865C16.6196 190.097 15.9723 190.097 15.5739 189.865C15.1765 189.634 15.1788 189.259 15.5795 189.028Z" fill="#1D1D1F"/>
<path d="M8.86873 203.702L17.5224 208.675C17.9085 208.898 18.2211 209.439 18.2198 209.883C18.2186 210.327 17.9041 210.506 17.518 210.283L8.86434 205.309C8.47764 205.086 8.16568 204.545 8.16693 204.101C8.16819 203.657 8.48202 203.478 8.86873 203.702Z" fill="#2E2E30"/>
<path d="M12.741 190.493C13.2104 190.222 13.9685 190.222 14.4348 190.493C14.9011 190.764 14.8983 191.203 14.4294 191.474C13.96 191.745 13.2018 191.745 12.7356 191.474C12.2693 191.203 12.2716 190.764 12.741 190.493Z" fill="#77767E"/>
<path d="M13.2739 190.802C13.447 190.702 13.7266 190.702 13.8985 190.802C14.0703 190.902 14.0695 191.064 13.8966 191.164C13.7235 191.264 13.4441 191.264 13.272 191.164C13.1 191.064 13.1008 190.902 13.2739 190.802Z" fill="#57565C"/>
</g>
<g clip-path="url(#clip6)">
<path d="M74.3938 62.1018L36.4051 40.1688C34.0057 38.7834 31.8315 38.6547 30.2616 39.567L19.539 45.7982C19.544 45.7953 19.5495 45.7931 19.5546 45.7899C17.9959 46.6868 17.0284 48.605 17.0206 51.3361L16.8968 94.9884C16.8812 100.467 20.7345 107.141 25.5026 109.894L63.4915 131.827C65.9599 133.252 68.1878 133.344 69.7666 132.345C69.7227 132.372 69.6799 132.402 69.6347 132.429L80.3569 126.198C81.9068 125.297 82.8677 123.382 82.8756 120.66L82.9993 77.0077C83.0153 71.5275 79.1619 64.8546 74.3938 62.1018Z" fill="#FFD46B"/>
<path d="M46.2579 77.6953L39.8829 74.0148C39.0327 73.5239 38.6052 73.657 38.1501 74.006C37.8869 74.2078 37.807 74.3916 38.3451 74.8215C39.4014 75.6615 39.9957 76.7936 40.1496 78.1008C40.399 80.1986 40.3751 82.1402 40.2236 84.013C40.1781 84.5559 40.0901 85.0791 39.893 85.497C39.7002 85.9076 39.4343 86.0175 39.1034 85.8265C38.9028 85.7108 38.6786 85.4845 38.4322 85.1477C37.8427 84.341 37.4278 83.4411 37.0231 82.5452C35.5012 79.1812 34.2903 75.8009 33.3021 72.4123C33.0154 71.4329 32.5224 70.6558 31.774 70.2108C30.8523 69.6608 29.9317 69.1194 29.0115 68.5879C28.0912 68.0567 27.1712 67.5353 26.2508 67.025C25.1427 66.4063 24.8108 66.8362 25.2582 68.2506C27.2487 74.5303 29.4664 80.8028 32.3652 87.02C33.8549 90.2121 35.5692 93.2633 37.7812 95.9999C40.0047 98.7509 42.3823 100.681 44.8802 102.123C45.2007 102.308 45.5235 102.485 45.8477 102.655C47.1826 103.356 47.5847 103.185 47.6501 101.694C47.6969 100.673 47.802 99.6932 48.2525 99.012C48.5259 98.5994 48.8847 98.5211 49.3001 98.761C49.5582 98.9099 49.838 99.1817 50.1328 99.5725C50.5173 100.083 50.838 100.632 51.1457 101.196C51.8941 102.574 52.614 103.965 53.3921 105.331C54.2805 106.889 55.3236 108.144 56.6064 108.884C56.7285 108.955 56.8528 109.021 56.9792 109.082L62.6214 112.342C63.5284 112.796 64.0053 111.789 63.4858 110.325C63.1196 109.293 62.6399 108.287 62.1335 107.289C60.9859 105.038 59.6337 102.899 58.3543 100.717C57.199 98.7498 57.1274 97.9533 58.0639 96.9971C59.083 95.9465 60.183 95.0079 61.2105 93.9703C62.1713 92.9986 63.1547 92.0479 63.6628 90.518C63.9864 89.5421 63.7045 88.8672 62.6706 88.068C62.4951 87.9308 62.3109 87.8212 62.128 87.7158L55.9926 84.1684C55.9756 84.1583 55.9587 84.1482 55.9419 84.1384C55.2171 83.7201 54.8109 83.8655 54.5485 84.4694C54.1856 85.302 53.81 86.1273 53.3765 86.8799C52.3965 88.5956 51.3006 90.1663 49.7681 91.1468C49.4836 91.3279 49.1742 91.5706 48.7492 91.3253C48.6684 91.2787 48.5834 91.2144 48.4936 91.1288C47.79 90.426 47.5871 88.973 47.5998 88.5301L47.6172 80.3892C47.4828 79.1496 47.2619 78.5034 46.2579 77.6953Z" fill="white"/>
<path d="M80.3572 126.198L69.6351 132.429C71.185 131.528 72.1462 129.613 72.1537 126.891L82.8759 120.66C82.8682 123.382 81.907 125.297 80.3572 126.198Z" fill="#FFD46B"/>
<path d="M19.539 45.7983L30.2612 39.5673C31.8311 38.6549 34.0053 38.7837 36.4047 40.1691L25.6826 46.4C23.2831 45.0146 21.1091 44.8857 19.539 45.7983Z" fill="#E5AF43"/>
<path d="M72.2775 83.2387L82.9997 77.0076L82.8759 120.66L72.1537 126.891L72.2775 83.2387Z" fill="#E5AF43"/>
<path d="M25.6827 46.4001L36.4051 40.1689L74.3938 62.1019L63.6716 68.3329L25.6827 46.4001Z" fill="#FFE08E"/>
<path d="M63.6716 68.3328L74.3938 62.1018C79.1621 64.8546 83.0151 71.5276 82.9997 77.0077L72.2775 83.2387C72.2931 77.7586 68.4397 71.0858 63.6716 68.3328Z" fill="#FFEBB5"/>
</g>
<path d="M73.141 145.144L71.7695 146.8L70.6337 129.249L73.141 129.722V145.144Z" fill="#FFD46B"/>
<path d="M63.8376 79.8188C64.8247 80.3761 65.622 81.7262 65.619 82.8351L65.5063 121.742C65.5031 122.85 64.7004 123.297 63.7133 122.74L23.5215 99.6967C22.5347 99.1397 21.7374 97.7897 21.7406 96.6813L21.8534 57.7744C21.8568 56.6655 22.6592 56.2183 23.6458 56.7751L63.8376 79.8188Z" fill="#77767E"/>
<mask id="mask0" mask-type="alpha" maskUnits="userSpaceOnUse" x="24" y="57" width="45" height="68">
<path d="M66.3038 80.6753C67.2877 81.2377 68.0822 82.6004 68.0792 83.7196L67.9669 122.989C67.9637 124.108 67.1638 124.559 66.18 123.996L26.1245 100.738C25.1411 100.176 24.3465 98.8135 24.3497 97.6947L24.462 58.4256C24.4654 57.3064 25.2651 56.855 26.2484 57.417L66.3038 80.6753Z" fill="white"/>
</mask>
<g mask="url(#mask0)">
<path d="M63.7164 79.813C64.7002 80.3754 65.4948 81.7381 65.4918 82.8573L65.3795 119.671C65.3763 120.79 64.5764 121.241 63.5926 120.679L26.2368 98.9834C25.2534 98.4211 24.4589 97.0586 24.4621 95.9399L24.5744 59.126C24.5778 58.0068 25.3775 57.5554 26.3607 58.1175L63.7164 79.813Z" fill="white"/>
</g>
<path d="M70.9133 124.234L71.8873 146.8L60.6043 130.52L70.9133 124.234Z" fill="#FFE08E"/>
<path d="M28.009 85.3699L56.2163 102.517V109.412L28.009 91.9516V85.3699Z" fill="black"/>
<path d="M28.009 75.3408L42.5219 83.8547V90.7498L28.009 81.9226V75.3408Z" fill="black"/>
<path d="M47.949 87.251L62.4619 95.7648V103.071L47.949 94.2439V87.251Z" fill="black"/>
<path d="M28.009 65.3115L63.1117 85.0568V91.6385L28.009 71.5941V65.3115Z" fill="black"/>
<defs>
<linearGradient id="paint0_linear" x1="260.682" y1="209.91" x2="275.915" y2="185.717" gradientUnits="userSpaceOnUse">
<stop/>
<stop offset="1" stop-opacity="0"/>
</linearGradient>
<linearGradient id="paint1_linear" x1="166.124" y1="143.934" x2="184.386" y2="114.93" gradientUnits="userSpaceOnUse">
<stop/>
<stop offset="1" stop-opacity="0"/>
</linearGradient>
<linearGradient id="paint2_linear" x1="36.234" y1="191.029" x2="51.4666" y2="166.836" gradientUnits="userSpaceOnUse">
<stop/>
<stop offset="1" stop-opacity="0"/>
</linearGradient>
<clipPath id="clip0">
<rect width="153.558" height="153.558" transform="matrix(-1 0 0 1 171.052 33.5642)" fill="white"/>
</clipPath>
<clipPath id="clip1">
<rect x="213.815" y="135.613" width="99.1325" height="99.1325" fill="white"/>
</clipPath>
<clipPath id="clip2">
<rect x="63.1727" y="0.520264" width="186.602" height="232.281" fill="white"/>
</clipPath>
<clipPath id="clip3">
<rect width="70.9478" height="70.9478" transform="matrix(-1 0 0 1 187.554 217.455)" fill="white"/>
</clipPath>
<clipPath id="clip4">
<rect x="211.863" y="175.616" width="79.6947" height="79.6947" fill="white"/>
</clipPath>
<clipPath id="clip5">
<rect y="153.913" width="106.908" height="106.908" fill="white"/>
</clipPath>
<clipPath id="clip6">
<rect x="2.93567" y="38.9844" width="94.0251" height="94.0251" fill="white"/>
</clipPath>
</defs>
</svg>
