<svg width="307" height="283" viewBox="0 0 307 283" fill="none" xmlns="http://www.w3.org/2000/svg">
<path d="M286.59 163.066C281.138 159.918 273.901 158.184 266.215 158.184C258.528 158.184 251.311 159.918 245.894 163.066L213.983 181.611L216.68 183.168L248.591 164.623C258.297 158.983 274.141 158.983 283.91 164.623C293.68 170.264 293.731 179.441 284.025 185.081L216.68 229.142L219.378 230.7L286.723 186.639C292.141 183.491 295.11 179.305 295.085 174.853C295.061 170.4 292.044 166.214 286.59 163.066Z" fill="#3E3D43"/>
<path d="M247.897 230.877L217.387 249.226L181.918 230.877L213.014 214.387L247.897 230.877Z" fill="url(#paint0_linear)"/>
<g clip-path="url(#clip0)">
<path d="M153.328 251.681C153.887 252.471 155.072 253.466 155.304 253.657C155.636 253.931 156.254 254.441 157.212 255.146C158.112 255.808 158.906 256.345 159.543 256.776C160.284 257.276 162.099 258.45 164.208 259.676L167.225 261.429C167.186 261.406 167.148 261.38 167.113 261.352C167.148 261.38 167.186 261.406 167.225 261.429C168.08 261.92 169.252 262.591 170.369 263.177C171.292 263.662 172.338 264.211 173.963 264.966C175.062 265.476 177.139 266.388 178.728 266.776C178.724 266.775 178.721 266.775 178.717 266.774C179.704 267.013 180.69 267.253 181.677 267.493C181.692 267.496 181.705 267.499 181.72 267.502C181.707 267.499 181.692 267.496 181.68 267.494C181.736 267.507 181.786 267.517 181.839 267.529C181.897 267.542 181.958 267.556 182.012 267.567C182.027 267.57 182.039 267.571 182.053 267.574C182.053 267.574 182.053 267.574 182.052 267.574C182.09 267.581 182.124 267.586 182.16 267.592C182.124 267.586 182.091 267.581 182.053 267.574C182.199 267.604 182.346 267.633 182.471 267.655C182.613 267.68 182.804 267.706 182.947 267.717C183.268 267.742 183.708 267.778 184.288 267.701C185.119 267.592 185.927 267.306 186.756 266.827L190.951 264.406L195.146 261.984L199.341 259.562L203.535 257.14L207.73 254.718L211.925 252.296L216.12 249.874L220.314 247.452L224.509 245.031L228.704 242.609C228.862 242.513 229.059 242.394 229.341 242.159C229.629 241.917 229.856 241.663 229.919 241.591C230.157 241.316 230.321 241.097 230.523 240.781C230.548 240.736 230.585 240.679 230.612 240.635C230.657 240.561 230.696 240.49 230.78 240.333C230.805 240.288 230.836 240.226 230.859 240.179C230.857 240.182 230.852 240.183 230.843 240.182C230.852 240.183 230.857 240.182 230.859 240.179C231.169 239.547 231.48 238.914 231.79 238.282C231.851 238.148 231.994 237.833 231.999 237.434C232.004 236.981 231.892 236.742 231.81 236.567C231.731 236.399 231.478 236.04 231.289 235.828C231.087 235.602 230.806 235.311 230.59 235.097C230.44 234.948 230.227 234.761 230.071 234.619C229.84 234.409 228.565 233.279 226.087 231.58C223.79 230.004 221.963 228.929 220.629 228.143C220.551 228.098 220.467 228.061 220.375 228.035L217.358 226.281C212.974 223.733 208.966 221.86 206.597 221.165C206.562 221.154 206.516 221.141 206.482 221.131C206.447 221.121 206.402 221.102 206.366 221.097C206.295 221.087 206.205 221.05 206.136 221.029C206.101 221.019 206.055 221.006 206.02 220.996C205.951 220.975 205.859 220.948 205.79 220.928C205.755 220.918 205.709 220.904 205.674 220.894C205.605 220.874 205.513 220.847 205.444 220.826C205.375 220.806 205.282 220.779 205.213 220.759C205.178 220.748 205.132 220.735 205.098 220.725C205.029 220.704 204.936 220.677 204.867 220.657C204.798 220.637 204.706 220.61 204.636 220.589C204.602 220.579 204.556 220.566 204.521 220.556C204.454 220.536 204.365 220.51 204.296 220.489C204.296 220.489 204.296 220.489 204.295 220.489C204.295 220.489 204.295 220.489 204.295 220.489C204.294 220.489 204.292 220.488 204.291 220.488C204.291 220.488 204.292 220.488 204.292 220.489C203.935 220.391 203.464 220.249 203.104 220.163C202.484 220.015 201.657 219.813 201.028 219.709C200.285 219.587 199.29 219.451 198.541 219.371C198.055 219.319 197.403 219.293 196.915 219.271C196.142 219.234 194.682 219.269 194.175 219.31C193.758 219.343 193.201 219.373 192.786 219.426C191.983 219.527 190.915 219.686 190.116 219.821C189.696 219.892 189.141 220.017 188.726 220.113C188.309 220.21 187.752 220.342 187.341 220.461C186.51 220.703 185.409 221.046 184.587 221.317C184.161 221.458 183.602 221.673 183.184 221.835C182.759 221.999 182.194 222.222 181.778 222.408C180.928 222.786 179.803 223.309 178.965 223.714C178.953 223.72 177.727 224.322 176.123 225.248L173.579 226.717C173.216 226.936 172.727 227.222 172.368 227.448C172.002 227.68 171.515 227.991 171.162 228.242C170.805 228.496 170.32 228.823 169.973 229.09C169.619 229.361 169.143 229.717 168.794 229.994C168.44 230.275 167.976 230.658 167.632 230.95C165.245 232.975 163.305 235.062 162.098 236.456C161.804 236.796 161.022 237.699 160.045 238.961C159.441 239.741 158.64 240.788 158.103 241.616C157.832 242.034 157.45 242.577 157.178 242.994C156.905 243.414 156.554 243.981 156.286 244.404C156.017 244.829 155.679 245.408 155.428 245.844C154.734 247.055 154.504 247.496 153.823 248.806C153.589 249.256 153.299 249.866 153.079 250.324C153.061 250.36 153.044 250.412 153.033 250.451C152.951 250.74 153.011 251.232 153.328 251.681Z" fill="#C6C5CB"/>
<path d="M204.297 220.488C203.939 220.39 203.466 220.248 203.106 220.162C202.486 220.014 201.659 219.812 201.03 219.708C200.287 219.586 199.291 219.45 198.542 219.37C198.056 219.318 197.405 219.292 196.917 219.269C196.143 219.233 194.683 219.267 194.176 219.308C193.759 219.342 193.202 219.372 192.787 219.424C191.984 219.526 190.916 219.685 190.118 219.82C189.697 219.891 189.142 220.016 188.727 220.112C188.31 220.209 187.754 220.341 187.342 220.46C186.511 220.702 185.41 221.045 184.588 221.316C184.162 221.457 183.604 221.672 183.185 221.834C182.761 221.998 182.195 222.221 181.779 222.407C180.929 222.785 179.804 223.308 178.966 223.713C178.955 223.718 177.728 224.321 176.124 225.247C176.84 224.834 181.93 227.149 188.105 230.738C197.824 225.127 207.289 223.323 215.053 225.603C210.672 223.057 206.666 221.184 204.297 220.488Z" fill="#C6C5CB"/>
<path d="M176.124 225.246C176.84 224.833 181.93 227.149 188.105 230.738L191.123 232.491C197.789 236.365 203.196 240.257 203.199 241.182L200.655 242.651C200.653 241.726 195.245 237.834 188.579 233.96L185.561 232.207C179.386 228.618 174.295 226.302 173.58 226.715L176.124 225.246Z" fill="#51A7FF"/>
<path d="M200.655 242.651C192.638 247.279 185.099 255.968 180.298 266.109C180.168 266.381 180.207 266.647 180.382 266.687C181.369 266.927 182.355 267.167 183.342 267.407C184.365 267.655 185.589 267.4 186.843 266.675C200.826 258.602 214.809 250.529 228.791 242.456C229.578 242.003 230.32 241.16 230.806 240.171C231.116 239.538 231.427 238.906 231.737 238.274C232.051 237.639 231.975 237.009 231.571 236.892C230.803 236.667 230.034 236.441 229.265 236.216C221.756 234.01 212.6 235.755 203.199 241.182C202.351 241.672 201.503 242.161 200.655 242.651Z" fill="#6A6A6A"/>
<path d="M153.328 251.681C153.887 252.47 155.072 253.465 155.304 253.657C155.636 253.931 156.254 254.441 157.212 255.146C158.112 255.808 158.906 256.344 159.543 256.775C160.284 257.276 162.099 258.449 164.208 259.675L167.225 261.429C167.186 261.406 167.148 261.38 167.113 261.351C167.148 261.38 167.186 261.406 167.225 261.429C168.08 261.919 169.252 262.59 170.369 263.177C171.292 263.661 172.338 264.21 173.963 264.965C175.062 265.476 177.139 266.388 178.728 266.776C178.724 266.775 178.721 266.774 178.717 266.773C179.704 267.013 180.69 267.253 181.677 267.492C181.692 267.496 181.705 267.498 181.72 267.502C181.707 267.499 181.692 267.496 181.68 267.493C181.736 267.507 181.786 267.517 181.839 267.528C181.897 267.541 181.958 267.556 182.012 267.567C182.027 267.57 182.039 267.571 182.054 267.574C182.053 267.574 182.053 267.573 182.052 267.573C182.09 267.581 182.124 267.585 182.16 267.592C182.124 267.585 182.091 267.581 182.054 267.574C182.199 267.604 182.346 267.633 182.471 267.655C182.613 267.68 182.804 267.705 182.947 267.716C183.268 267.742 183.708 267.777 184.288 267.701C185.119 267.592 185.927 267.306 186.756 266.827L190.951 264.405L195.146 261.983L199.341 259.561L203.535 257.139L207.73 254.718L211.925 252.296L216.12 249.874L220.314 247.452L224.509 245.03L228.704 242.608C228.862 242.513 229.059 242.394 229.341 242.158C229.629 241.916 229.856 241.662 229.919 241.59C230.157 241.316 230.321 241.096 230.523 240.781C230.548 240.736 230.585 240.678 230.612 240.634C230.657 240.561 230.696 240.489 230.78 240.333C230.805 240.287 230.836 240.225 230.859 240.179C230.857 240.182 230.852 240.183 230.843 240.182C230.852 240.183 230.857 240.182 230.859 240.179C231.169 239.546 231.48 238.914 231.79 238.281C231.851 238.147 231.994 237.833 231.999 237.433C232.004 236.981 231.892 236.741 231.81 236.567C231.731 236.398 231.478 236.039 231.289 235.828C231.087 235.601 230.806 235.31 230.59 235.097C230.44 234.947 230.227 234.761 230.071 234.618C229.84 234.409 228.565 233.279 226.087 231.579C223.79 230.004 221.963 228.928 220.629 228.143C220.551 228.097 220.467 228.061 220.376 228.034L217.358 226.281C212.974 223.733 208.966 221.859 206.597 221.164C206.562 221.154 206.516 221.14 206.482 221.13C206.447 221.12 206.402 221.102 206.366 221.097C206.295 221.086 206.205 221.049 206.136 221.029C206.101 221.019 206.055 221.005 206.02 220.995C205.951 220.975 205.859 220.948 205.79 220.927C205.755 220.917 205.709 220.904 205.674 220.894C205.605 220.873 205.513 220.846 205.444 220.826C205.375 220.805 205.282 220.778 205.213 220.758C205.178 220.748 205.132 220.734 205.098 220.724C205.029 220.704 204.936 220.677 204.867 220.657C204.798 220.636 204.706 220.609 204.636 220.589C204.602 220.579 204.556 220.565 204.521 220.555C204.452 220.535 204.36 220.508 204.291 220.487C206.659 221.182 210.668 223.056 215.052 225.604C207.288 223.323 197.823 225.127 188.104 230.738L191.122 232.492C200.841 226.881 210.306 225.077 218.069 227.357H218.069H218.069C224.735 231.231 229.748 235.198 229.264 236.216L231.57 236.893C231.974 237.009 232.05 237.639 231.736 238.274L230.804 240.171C230.319 241.16 229.576 242.003 228.79 242.457L186.843 266.677C185.588 267.401 184.364 267.656 183.341 267.408C183.324 267.446 183.3 267.479 183.269 267.507C183.3 267.479 183.324 267.446 183.341 267.408L180.382 266.689C180.207 266.649 180.167 266.383 180.297 266.111C185.098 255.969 192.638 247.281 200.655 242.653C200.652 241.727 195.244 237.836 188.578 233.962L185.561 232.208C179.386 228.62 174.295 226.304 173.58 226.717C173.216 226.936 172.728 227.222 172.369 227.449C172.002 227.68 171.516 227.991 171.163 228.242C170.806 228.496 170.321 228.823 169.973 229.09C169.62 229.361 169.143 229.717 168.794 229.994C168.441 230.275 167.977 230.658 167.633 230.95C165.246 232.975 163.306 235.062 162.099 236.456C161.805 236.796 161.023 237.699 160.046 238.961C159.442 239.741 158.64 240.788 158.104 241.616C157.833 242.034 157.451 242.577 157.179 242.994C156.906 243.414 156.554 243.982 156.287 244.405C156.018 244.83 155.679 245.408 155.429 245.845C154.735 247.055 154.505 247.496 153.824 248.806C153.59 249.256 153.299 249.866 153.08 250.324C153.062 250.36 153.045 250.412 153.034 250.451C152.951 250.739 153.011 251.232 153.328 251.681Z" fill="#888888"/>
<path d="M196.164 227.532C196.323 227.662 196.495 227.789 196.68 227.912C196.74 227.952 196.802 227.992 196.866 228.032C196.933 228.074 196.999 228.115 197.069 228.156C197.338 228.313 197.623 228.455 197.918 228.586C197.918 228.586 197.918 228.586 197.918 228.586C198.198 228.71 198.487 228.823 198.785 228.923C198.785 228.923 198.786 228.923 198.786 228.923C198.89 228.798 198.998 228.675 199.107 228.556L199.107 228.556C198.998 228.675 198.891 228.798 198.786 228.923C198.802 228.929 198.819 228.934 198.835 228.939C198.945 228.808 199.075 228.66 199.224 228.501C199.331 228.387 199.477 228.239 199.589 228.132C199.702 228.023 199.859 227.885 199.976 227.78C200.022 227.738 200.076 227.692 200.132 227.646C200.184 227.603 200.238 227.559 200.29 227.519C200.326 227.492 200.361 227.466 200.394 227.442C200.619 227.281 200.926 227.077 201.161 226.931C201.26 226.877 201.376 226.815 201.494 226.754C201.611 226.694 201.73 226.637 201.834 226.595C201.931 226.557 202.059 226.504 202.158 226.473C202.194 226.462 202.233 226.45 202.273 226.438C202.394 226.402 202.529 226.364 202.64 226.344C202.672 226.338 202.706 226.332 202.742 226.326C202.85 226.309 202.971 226.295 203.068 226.288C203.097 226.286 203.131 226.285 203.166 226.284C203.2 226.284 203.234 226.284 203.263 226.284C203.284 226.285 203.307 226.286 203.33 226.287C203.34 226.288 203.35 226.289 203.36 226.289C203.373 226.29 203.386 226.291 203.398 226.292C203.398 226.292 203.433 226.295 203.484 226.302C203.509 226.305 203.538 226.31 203.57 226.315C203.601 226.322 203.634 226.329 203.666 226.337C203.694 226.345 203.717 226.352 203.739 226.359C203.747 226.362 203.754 226.365 203.762 226.368C203.77 226.371 203.777 226.373 203.783 226.376C203.784 226.376 203.785 226.377 203.785 226.377C203.82 226.405 203.855 226.437 203.889 226.473C204.005 226.595 204.083 226.722 204.086 226.727C204.155 226.84 204.205 226.921 204.276 227.087C204.29 227.119 204.304 227.153 204.318 227.189C204.346 227.261 204.373 227.339 204.397 227.413C204.408 227.449 204.419 227.485 204.428 227.518C204.441 227.565 204.454 227.615 204.467 227.668C204.504 227.827 204.537 228.006 204.555 228.15C204.568 228.255 204.582 228.395 204.588 228.501C204.595 228.626 204.603 228.794 204.6 228.919C204.597 229.041 204.594 229.147 204.589 229.253C204.586 229.324 204.582 229.394 204.576 229.469C204.575 229.476 204.575 229.483 204.574 229.49C204.749 229.471 204.923 229.447 205.096 229.421C205.16 229.411 205.223 229.402 205.286 229.391C205.657 229.33 206.023 229.254 206.379 229.162C206.38 229.162 206.381 229.162 206.381 229.162C206.754 229.066 207.116 228.955 207.467 228.827C207.467 228.826 207.468 228.826 207.468 228.826C207.494 228.816 207.521 228.807 207.547 228.798C207.544 228.694 207.538 228.562 207.527 228.418C207.523 228.366 207.52 228.325 207.516 228.288C207.513 228.251 207.509 228.217 207.505 228.179C207.5 228.141 207.495 228.099 207.488 228.046C207.481 227.993 207.472 227.929 207.461 227.846C207.454 227.803 207.446 227.752 207.436 227.701C207.427 227.651 207.417 227.6 207.408 227.557C207.393 227.481 207.368 227.381 207.351 227.306C207.346 227.284 207.341 227.261 207.334 227.237C207.315 227.166 207.292 227.087 207.274 227.023C207.258 226.971 207.238 226.909 207.218 226.851C207.211 226.831 207.205 226.811 207.199 226.794C207.184 226.751 207.165 226.703 207.146 226.654C207.137 226.629 207.127 226.605 207.118 226.582C207.109 226.559 207.1 226.536 207.092 226.515C207.074 226.469 207.051 226.417 207.027 226.365C207.004 226.313 206.979 226.261 206.956 226.218C206.898 226.104 206.819 225.954 206.751 225.846C206.696 225.759 206.62 225.646 206.562 225.563C206.528 225.514 206.479 225.452 206.443 225.405C206.382 225.327 206.31 225.243 206.251 225.177C206.231 225.155 206.213 225.136 206.197 225.119C206.156 225.076 206.119 225.037 206.085 225.003C206.017 224.936 205.965 224.886 205.93 224.856C205.913 224.84 205.901 224.829 205.893 224.823C205.873 224.805 205.849 224.785 205.826 224.764C205.802 224.744 205.779 224.724 205.758 224.707C205.743 224.696 205.726 224.682 205.71 224.669C205.661 224.63 205.609 224.588 205.564 224.556C205.52 224.525 205.468 224.489 205.416 224.453C205.364 224.418 205.311 224.383 205.266 224.354C205.221 224.324 205.157 224.289 205.111 224.261H205.111L204.918 224.149C204.88 224.128 204.835 224.103 204.791 224.08C204.746 224.056 204.701 224.032 204.662 224.012C204.639 224 204.612 223.987 204.584 223.975C204.557 223.962 204.53 223.949 204.506 223.939C204.359 223.871 204.2 223.812 204.129 223.788C204.079 223.771 204.019 223.752 203.96 223.734C203.9 223.716 203.84 223.698 203.789 223.684C203.735 223.669 203.663 223.653 203.608 223.64C203.581 223.633 203.552 223.627 203.521 223.621C203.459 223.608 203.392 223.597 203.33 223.587C203.299 223.583 203.269 223.578 203.241 223.575C203.141 223.562 203.008 223.546 202.908 223.542C202.875 223.54 202.838 223.539 202.799 223.538C202.761 223.536 202.722 223.535 202.685 223.534C202.66 223.534 202.636 223.533 202.614 223.533C202.55 223.533 202.464 223.534 202.4 223.538C202.358 223.541 202.309 223.544 202.261 223.548C202.212 223.551 202.163 223.555 202.121 223.559C202.087 223.563 202.047 223.567 202.008 223.572C201.968 223.577 201.928 223.583 201.894 223.588C201.865 223.592 201.833 223.597 201.797 223.603C201.691 223.621 201.556 223.647 201.385 223.689C201.049 223.773 200.69 223.896 200.348 224.046C200.137 224.139 199.942 224.237 199.778 224.325C199.669 224.384 199.573 224.438 199.496 224.484C199.38 224.551 199.305 224.599 199.287 224.611C199.214 224.658 199.157 224.695 199.11 224.725C199.086 224.74 199.065 224.754 199.046 224.767C199.02 224.784 198.997 224.799 198.974 224.814C198.956 224.827 198.938 224.839 198.919 224.852C198.893 224.87 198.865 224.89 198.832 224.913C198.812 224.928 198.79 224.943 198.765 224.961C198.483 225.164 198.26 225.347 198.258 225.349C197.997 225.567 197.9 225.648 197.767 225.772C197.731 225.806 197.689 225.844 197.647 225.883C197.605 225.922 197.563 225.962 197.528 225.996C197.449 226.074 197.39 226.132 197.344 226.178C197.251 226.269 197.208 226.313 197.156 226.368C197.129 226.396 197.101 226.426 197.063 226.466C196.75 226.801 196.451 227.159 196.164 227.532ZM199.153 228.506C199.245 228.406 199.338 228.309 199.433 228.214C199.338 228.309 199.245 228.407 199.153 228.506C199.153 228.506 199.153 228.506 199.153 228.506Z" fill="#C6C5CB"/>
<path d="M203.263 226.284C203.263 226.284 203.263 226.284 203.264 226.284C203.283 226.285 203.306 226.286 203.328 226.287C203.306 226.286 203.283 226.285 203.263 226.284Z" fill="#C6C5CB"/>
<path d="M203.761 226.368C203.754 226.365 203.747 226.362 203.739 226.36C203.747 226.362 203.754 226.365 203.761 226.368Z" fill="#C6C5CB"/>
<path d="M203.785 226.377C203.82 226.405 203.854 226.436 203.888 226.472C203.854 226.436 203.82 226.405 203.785 226.377Z" fill="#C6C5CB"/>
<path d="M203.961 223.734C203.901 223.716 203.842 223.698 203.79 223.684C203.841 223.698 203.901 223.716 203.961 223.734Z" fill="#C6C5CB"/>
<path d="M201.23 226.803C203.903 225.26 206.107 226.324 206.382 229.162C206.381 229.162 206.381 229.162 206.38 229.162C206.168 226.975 204.808 225.844 202.972 226.147C202.97 226.148 202.969 226.148 202.967 226.148C202.883 226.162 202.798 226.179 202.712 226.199C202.693 226.204 202.674 226.209 202.655 226.214C202.586 226.231 202.517 226.249 202.447 226.27C202.42 226.278 202.393 226.287 202.366 226.295C202.303 226.316 202.24 226.337 202.176 226.36C202.145 226.372 202.114 226.383 202.083 226.395C202.021 226.419 201.959 226.445 201.896 226.472C201.864 226.485 201.832 226.499 201.8 226.513C201.734 226.543 201.668 226.574 201.602 226.607C201.573 226.622 201.544 226.635 201.515 226.65C201.42 226.699 201.324 226.75 201.228 226.806C201.05 226.909 200.874 227.021 200.7 227.141C200.527 227.262 200.356 227.391 200.188 227.527C199.69 227.932 199.219 228.403 198.786 228.923C198.786 228.923 198.786 228.923 198.785 228.923C199.512 228.052 200.344 227.315 201.23 226.803Z" fill="#C6C5CB"/>
<path d="M202.909 223.542C202.843 223.539 202.76 223.536 202.686 223.534C202.76 223.536 202.843 223.539 202.909 223.542C203.009 223.546 203.142 223.562 203.242 223.575C203.27 223.578 203.3 223.582 203.331 223.587C203.3 223.582 203.27 223.578 203.242 223.575C203.143 223.562 203.009 223.546 202.909 223.542Z" fill="#C6C5CB"/>
<path d="M203.79 223.684C203.736 223.668 203.664 223.653 203.61 223.64C203.664 223.653 203.737 223.668 203.79 223.684Z" fill="#C6C5CB"/>
<path d="M203.783 226.376L203.784 226.376L203.786 226.377L203.783 226.376Z" fill="#ACABB1"/>
<path d="M204.577 229.469C204.583 229.394 204.587 229.324 204.591 229.253C204.595 229.147 204.598 229.041 204.601 228.919C204.604 228.794 204.596 228.626 204.589 228.501C204.583 228.396 204.569 228.255 204.556 228.15C204.538 228.006 204.505 227.827 204.468 227.668C204.455 227.615 204.442 227.565 204.429 227.518C204.42 227.485 204.409 227.45 204.398 227.413C204.374 227.339 204.347 227.261 204.319 227.189C204.305 227.153 204.291 227.119 204.278 227.087C204.206 226.922 204.156 226.84 204.087 226.727C204.084 226.722 204.006 226.595 203.89 226.473C203.856 226.437 203.821 226.405 203.787 226.377C203.786 226.377 203.786 226.377 203.785 226.376C203.793 226.379 203.801 226.382 203.808 226.385C204.604 226.913 205.094 227.951 205.098 229.401C205.098 229.407 205.098 229.414 205.098 229.421C204.925 229.447 204.751 229.471 204.576 229.49C204.576 229.483 204.577 229.476 204.577 229.469Z" fill="#ACABB1"/>
<path d="M205.096 229.4C205.092 227.95 204.602 226.912 203.806 226.384C203.839 226.399 203.864 226.412 203.884 226.423C204.725 226.912 205.253 227.937 205.286 229.39C205.222 229.401 205.159 229.411 205.096 229.42C205.096 229.414 205.096 229.407 205.096 229.4Z" fill="#ACABB1"/>
<path d="M203.762 226.368C203.768 226.37 203.775 226.372 203.781 226.375C203.782 226.375 203.782 226.375 203.782 226.376C203.776 226.373 203.769 226.37 203.762 226.368Z" fill="#248BE6"/>
<path d="M203.737 226.359C203.716 226.352 203.693 226.345 203.666 226.337C203.693 226.345 203.716 226.352 203.737 226.359Z" fill="#248BE6"/>
<path d="M202.64 226.344C202.529 226.364 202.394 226.402 202.273 226.438C202.394 226.402 202.529 226.364 202.64 226.344Z" fill="#248BE6"/>
<path d="M203.666 226.337C203.633 226.328 203.601 226.321 203.57 226.315C203.6 226.321 203.633 226.329 203.666 226.337Z" fill="#248BE6"/>
<path d="M203.569 226.315C203.538 226.309 203.509 226.305 203.484 226.301C203.509 226.305 203.538 226.309 203.569 226.315Z" fill="#248BE6"/>
<path d="M202.655 226.214C202.586 226.231 202.517 226.25 202.447 226.27C202.517 226.25 202.586 226.231 202.655 226.214Z" fill="#248BE6"/>
<path d="M202.967 226.148C202.883 226.162 202.798 226.18 202.712 226.199C202.798 226.18 202.883 226.162 202.967 226.148Z" fill="#248BE6"/>
<path d="M203.329 226.287C203.306 226.286 203.283 226.285 203.264 226.284C203.283 226.285 203.306 226.286 203.329 226.287Z" fill="#248BE6"/>
<path d="M203.885 226.424L203.692 226.312C203.722 226.329 203.752 226.351 203.782 226.375C203.776 226.372 203.768 226.37 203.762 226.368C203.754 226.365 203.747 226.362 203.739 226.359C203.717 226.352 203.694 226.345 203.666 226.337C203.634 226.328 203.601 226.321 203.57 226.315C203.538 226.309 203.509 226.305 203.483 226.301C203.433 226.295 203.398 226.292 203.397 226.292C203.386 226.291 203.373 226.29 203.36 226.289C203.37 226.29 203.381 226.291 203.39 226.291L203.501 226.099C203.329 226.101 203.152 226.117 202.971 226.147C204.808 225.843 206.167 226.975 206.38 229.162C206.023 229.253 205.658 229.33 205.287 229.391C205.254 227.938 204.726 226.912 203.885 226.424Z" fill="#248BE6"/>
<path d="M203.784 226.376L203.783 226.376L203.782 226.375L203.783 226.375L203.784 226.376Z" fill="#248BE6"/>
<path d="M203.784 226.376C203.784 226.376 203.784 226.376 203.783 226.375C203.783 226.375 203.782 226.375 203.782 226.375C203.752 226.351 203.722 226.329 203.692 226.312C203.732 226.335 203.769 226.36 203.807 226.385C203.8 226.382 203.792 226.379 203.784 226.376Z" fill="#248BE6"/>
<path d="M203.692 226.312L203.885 226.424C203.865 226.413 203.841 226.399 203.807 226.385C203.769 226.36 203.731 226.335 203.692 226.312Z" fill="#248BE6"/>
<path d="M203.33 226.287C203.34 226.288 203.349 226.289 203.358 226.289C203.348 226.289 203.339 226.288 203.33 226.287C203.33 226.287 203.33 226.287 203.33 226.287Z" fill="#248BE6"/>
<path d="M202.71 226.199C202.691 226.204 202.673 226.209 202.655 226.213C202.673 226.209 202.691 226.204 202.71 226.199Z" fill="#248BE6"/>
<path d="M203.068 226.288C202.971 226.295 202.85 226.31 202.742 226.327C202.85 226.31 202.971 226.295 203.068 226.288Z" fill="#248BE6"/>
<path d="M202.971 226.147C202.97 226.148 202.968 226.148 202.967 226.148C202.968 226.148 202.97 226.147 202.971 226.147Z" fill="#248BE6"/>
<path d="M203.165 226.284C203.2 226.284 203.233 226.284 203.263 226.284C203.263 226.284 203.263 226.284 203.263 226.284C203.263 226.284 203.263 226.284 203.263 226.284C203.233 226.284 203.199 226.284 203.165 226.284Z" fill="#248BE6"/>
<path d="M203.389 226.291C203.38 226.291 203.37 226.29 203.36 226.289C203.35 226.289 203.341 226.288 203.33 226.287C203.33 226.287 203.33 226.287 203.33 226.287C203.307 226.286 203.284 226.285 203.264 226.284C203.264 226.284 203.264 226.284 203.263 226.284C203.234 226.284 203.2 226.284 203.165 226.284C203.131 226.285 203.097 226.286 203.068 226.288C202.971 226.295 202.85 226.309 202.742 226.326C202.706 226.332 202.671 226.338 202.64 226.344C202.529 226.364 202.394 226.402 202.273 226.438C202.233 226.45 202.194 226.462 202.158 226.473C202.059 226.504 201.931 226.557 201.834 226.595C201.729 226.637 201.611 226.694 201.493 226.754C201.376 226.814 201.26 226.878 201.161 226.931C201.204 226.906 201.228 226.864 201.228 226.806C201.324 226.75 201.42 226.699 201.515 226.65C201.544 226.635 201.573 226.622 201.602 226.607C201.668 226.574 201.734 226.542 201.8 226.513C201.832 226.498 201.864 226.485 201.896 226.471C201.958 226.445 202.021 226.419 202.083 226.395C202.114 226.383 202.145 226.372 202.175 226.36C202.24 226.337 202.303 226.315 202.366 226.295C202.393 226.287 202.42 226.278 202.447 226.27C202.517 226.249 202.586 226.231 202.655 226.213C202.674 226.209 202.693 226.203 202.712 226.199C202.798 226.179 202.883 226.162 202.967 226.148C202.968 226.148 202.97 226.147 202.971 226.147C203.153 226.117 203.329 226.101 203.501 226.099L203.389 226.291Z" fill="#248BE6"/>
<path d="M200.394 227.442C200.361 227.466 200.326 227.492 200.29 227.52C200.238 227.56 200.184 227.603 200.132 227.646C200.076 227.692 200.022 227.738 199.976 227.78C199.86 227.885 199.702 228.023 199.589 228.132C199.477 228.24 199.331 228.388 199.224 228.501C199.075 228.66 198.945 228.809 198.835 228.939C198.819 228.934 198.802 228.929 198.786 228.923C199.219 228.404 199.69 227.932 200.187 227.528C200.355 227.391 200.526 227.262 200.7 227.142C200.874 227.022 201.05 226.909 201.228 226.807C201.228 226.865 201.204 226.907 201.161 226.932C200.926 227.077 200.619 227.281 200.394 227.442Z" fill="#248BE6"/>
<path d="M203.522 223.621C203.46 223.609 203.393 223.597 203.331 223.587C203.393 223.597 203.46 223.608 203.522 223.621Z" fill="#248BE6"/>
<path d="M197.157 226.369C197.209 226.314 197.253 226.269 197.345 226.178C197.392 226.132 197.45 226.074 197.529 225.996C197.564 225.962 197.606 225.922 197.648 225.884C197.69 225.845 197.733 225.806 197.769 225.772C197.901 225.649 197.998 225.567 198.26 225.349C198.262 225.348 198.484 225.164 198.766 224.962C198.791 224.944 198.813 224.928 198.834 224.913C198.866 224.89 198.894 224.871 198.921 224.852C198.939 224.839 198.957 224.827 198.976 224.814C198.998 224.799 199.021 224.784 199.047 224.767C199.066 224.754 199.087 224.741 199.111 224.725C199.158 224.695 199.215 224.658 199.288 224.611C199.306 224.6 199.381 224.552 199.497 224.484C199.575 224.438 199.67 224.384 199.78 224.325C199.944 224.237 200.139 224.139 200.35 224.047C200.691 223.897 201.05 223.773 201.386 223.69C201.558 223.647 201.693 223.621 201.799 223.603C201.834 223.597 201.866 223.593 201.895 223.588C201.929 223.583 201.969 223.578 202.009 223.573C202.049 223.568 202.088 223.563 202.123 223.559C202.164 223.555 202.213 223.551 202.262 223.548C202.311 223.544 202.359 223.541 202.401 223.538C202.465 223.534 202.551 223.533 202.615 223.533C202.637 223.533 202.661 223.534 202.686 223.534C202.76 223.536 202.843 223.539 202.909 223.542C203.009 223.546 203.143 223.562 203.242 223.575C203.27 223.579 203.3 223.583 203.331 223.588C203.394 223.597 203.46 223.609 203.522 223.621C203.553 223.627 203.583 223.634 203.61 223.64C203.664 223.653 203.737 223.669 203.79 223.684C203.841 223.699 203.901 223.716 203.961 223.734C204.021 223.752 204.08 223.771 204.13 223.788C204.201 223.813 204.361 223.872 204.508 223.939C204.531 223.95 204.558 223.962 204.586 223.975C204.613 223.988 204.64 224.001 204.663 224.012C204.702 224.032 204.747 224.056 204.792 224.08C204.837 224.104 204.881 224.128 204.919 224.149C203.725 223.469 202.078 223.572 200.261 224.621C198.938 225.385 197.709 226.545 196.68 227.912C196.495 227.79 196.324 227.663 196.164 227.532C196.451 227.159 196.75 226.802 197.064 226.467C197.102 226.426 197.13 226.396 197.157 226.369Z" fill="#248BE6"/>
<path d="M200.26 224.621C202.077 223.572 203.725 223.468 204.919 224.149L205.112 224.261C203.917 223.58 202.27 223.683 200.453 224.732C199.128 225.498 197.896 226.661 196.866 228.032C196.803 227.992 196.74 227.952 196.68 227.912C197.709 226.545 198.938 225.384 200.26 224.621Z" fill="#4141B9"/>
<path d="M205.638 225.132C204.506 224.487 202.947 224.585 201.226 225.578C200.009 226.281 198.875 227.338 197.918 228.586C197.623 228.455 197.338 228.312 197.069 228.156C196.999 228.115 196.932 228.073 196.866 228.032C197.896 226.661 199.128 225.497 200.453 224.732C202.27 223.683 203.917 223.58 205.111 224.26H205.112C205.158 224.288 205.221 224.324 205.267 224.353C205.312 224.383 205.364 224.418 205.417 224.453C205.469 224.488 205.52 224.524 205.564 224.556C205.609 224.588 205.662 224.629 205.711 224.668C205.727 224.681 205.744 224.695 205.758 224.707C205.779 224.723 205.803 224.744 205.827 224.764C205.85 224.784 205.874 224.805 205.894 224.822C205.901 224.829 205.914 224.84 205.931 224.855C205.965 224.886 206.018 224.935 206.086 225.003C206.119 225.037 206.157 225.075 206.198 225.118C206.214 225.135 206.232 225.155 206.252 225.177C206.311 225.243 206.383 225.327 206.444 225.404C206.48 225.451 206.529 225.513 206.563 225.562C206.621 225.646 206.697 225.759 206.751 225.845C206.819 225.953 206.899 226.104 206.957 226.217C206.979 226.261 207.004 226.312 207.028 226.364C207.052 226.417 207.075 226.469 207.093 226.515C207.101 226.535 207.11 226.558 207.119 226.581C207.128 226.605 207.137 226.629 207.147 226.653C207.166 226.702 207.184 226.751 207.199 226.793C207.206 226.81 207.212 226.831 207.219 226.85C207.239 226.908 207.259 226.971 207.274 227.023C207.293 227.086 207.316 227.165 207.335 227.237C207.341 227.261 207.347 227.284 207.352 227.305C207.369 227.38 207.393 227.481 207.409 227.556C207.417 227.6 207.428 227.65 207.437 227.701C207.446 227.751 207.455 227.802 207.461 227.846C207.473 227.929 207.482 227.993 207.489 228.046C207.496 228.099 207.501 228.141 207.506 228.178C207.51 228.216 207.513 228.25 207.517 228.288C207.52 228.325 207.524 228.366 207.527 228.417C207.538 228.562 207.544 228.693 207.547 228.797C207.521 228.807 207.495 228.816 207.469 228.825C207.393 227.016 206.708 225.742 205.638 225.132Z" fill="#248BE6"/>
<path d="M201.23 226.803C200.344 227.314 199.512 228.051 198.785 228.923C198.487 228.822 198.198 228.709 197.918 228.586C198.876 227.339 200.008 226.283 201.225 225.581C202.945 224.587 204.505 224.489 205.636 225.134C206.706 225.744 207.391 227.018 207.467 228.826C207.117 228.955 206.754 229.066 206.382 229.161C206.107 226.324 203.903 225.26 201.23 226.803Z" fill="#C6C5CB"/>
<path d="M201.226 225.579C202.947 224.585 204.506 224.487 205.638 225.132C206.708 225.742 207.393 227.017 207.469 228.826C207.469 228.826 207.468 228.826 207.468 228.827C207.391 227.018 206.706 225.744 205.636 225.135C204.505 224.49 202.946 224.588 201.225 225.581C200.008 226.284 198.876 227.34 197.919 228.586C197.918 228.586 197.918 228.586 197.918 228.586C198.875 227.339 200.009 226.281 201.226 225.579Z" fill="#C6C5CB"/>
<path d="M229.265 236.216C229.749 235.198 224.737 231.231 218.07 227.357C210.307 225.076 200.842 226.88 191.123 232.492C197.789 236.366 203.197 240.257 203.2 241.182C212.6 235.755 221.756 234.01 229.265 236.216Z" fill="#C6C5CB"/>
</g>
<g clip-path="url(#clip1)">
<path d="M216.067 137.567L168.95 110.324L164.761 113.879L174.081 152.575L151.46 165.569L151.474 170.498L198.59 197.74L226.675 181.607L216.067 137.567Z" fill="#57565C"/>
<path d="M198.59 197.74L151.474 170.498L151.46 165.569L198.576 192.812L198.59 197.74Z" fill="#3E3D43"/>
<path d="M221.198 179.817L174.081 152.575L164.761 113.879L211.877 141.122L221.198 179.817Z" fill="#2E2E30"/>
<path d="M211.877 141.122L164.761 113.879L168.95 110.324L216.067 137.567L211.877 141.122Z" fill="#77767E"/>
<path d="M216.067 137.567L226.675 181.607L198.59 197.74L198.576 192.812L221.198 179.817L211.877 141.122L216.067 137.567Z" fill="#1D1D1F"/>
<path d="M257.031 65.9857L138.211 0.740234L126.969 3.18965L126.97 3.19042L126.969 105.328V119.03L247.801 190.134L247.802 79.6418V69.1354L153.601 17.7242L247.834 69.1504L249.675 68.5175L247.802 69.1685L247.803 190.089L256.943 185.187L256.957 66.0115L257.031 65.9857Z" fill="#C6C5CB"/>
<path d="M247.802 69.1684L247.803 190.089L256.943 185.187L256.957 65.9856L247.802 69.1684Z" fill="#ACABB1"/>
<path d="M138.211 0.740234L126.969 3.18965L247.834 69.1504L257.031 65.9857L138.211 0.740234Z" fill="#D8D8DA"/>
<path d="M138.211 0.740234L126.969 3.18965L247.834 69.1504L257.031 65.9857L138.211 0.740234Z" fill="#CCCCCD"/>
<path d="M247.801 174.653L126.969 105.328L126.97 3.1897L247.802 69.1354L247.801 174.653Z" fill="#1D1D1F"/>
<path d="M167.51 95.0893L167.654 44.5461L227.28 78.7976L227.136 129.341L167.51 95.0893ZM242.438 75.519L156.079 25.9111L155.831 112.78L242.19 162.388L242.438 75.519Z" fill="#57565C"/>
<path d="M148.64 92.9647L145.962 91.4264L145.953 94.488L143.273 92.9482L143.264 96.0128L148.622 99.091L148.64 92.9647ZM136.681 89.1617L136.711 78.5641L145.983 83.8904L145.968 89.1909L150.604 91.8539L150.574 102.452L141.302 97.1252L141.317 91.8247L136.681 89.1617ZM133.899 72.2901L133.928 62.0673L143.198 67.3917L143.169 77.6145L133.899 72.2901ZM144.188 78.2001L144.217 67.9773L153.487 73.3017L153.458 83.5245L144.188 78.2001ZM133.932 60.9049L133.961 50.6821L143.231 56.0064L143.202 66.2293L133.932 60.9049ZM144.22 66.8149L144.249 56.5921L153.519 61.9164L153.49 72.1393L144.22 66.8149ZM133.964 49.5166L133.993 39.2965L143.263 44.6208L143.234 54.841L133.964 49.5166ZM144.253 55.4266L144.282 45.2065L153.552 50.5308L153.523 60.751L144.253 55.4266ZM133.997 38.1314L134.026 27.9086L143.295 33.2329L143.266 43.4558L133.997 38.1314ZM144.285 44.0418L144.314 33.8189L153.584 39.1437L153.555 49.3665L144.285 44.0418ZM134.029 26.7462L134.058 16.5233L143.328 21.8477L143.299 32.0706L134.029 26.7462ZM144.318 32.6566L144.347 22.4337L153.616 27.7581L153.587 37.9809L144.318 32.6566ZM156.079 25.9112L131.614 11.8577L131.366 98.7266L155.831 112.78L156.079 25.9112Z" fill="#77767E"/>
<path d="M143.328 21.848L134.058 16.5232L134.029 26.746L143.299 32.0712L143.328 21.848Z" fill="#898890"/>
<path d="M153.616 27.758L144.347 22.4336L144.318 32.6564L153.587 37.9812L153.616 27.758Z" fill="#898890"/>
<path d="M143.295 33.2328L134.026 27.9084L133.997 38.1313L143.266 43.4564L143.295 33.2328Z" fill="#898890"/>
<path d="M153.584 39.1431L144.314 33.8184L144.285 44.0416L153.555 49.3664L153.584 39.1431Z" fill="#898890"/>
<path d="M143.263 44.6212L133.993 39.2964L133.964 49.5165L143.234 54.8413L143.263 44.6212Z" fill="#898890"/>
<path d="M153.552 50.5316L144.282 45.2068L144.253 55.4265L153.523 60.7517L153.552 50.5316Z" fill="#898890"/>
<path d="M143.231 56.0064L133.961 50.6816L133.932 60.9049L143.201 66.2293L143.231 56.0064Z" fill="#898890"/>
<path d="M153.519 61.9167L144.25 56.5916L144.22 66.8148L153.49 72.1395L153.519 61.9167Z" fill="#898890"/>
<path d="M143.198 67.3917L133.928 62.0669L133.899 72.2901L143.169 77.6145L143.198 67.3917Z" fill="#898890"/>
<path d="M153.487 73.302L144.217 67.9768L144.188 78.2L153.457 83.5248L153.487 73.302Z" fill="#898890"/>
<path d="M150.604 91.8534L145.968 89.1904L145.962 91.4263L148.64 92.9646L148.622 99.0908L143.264 96.0123L143.272 92.9481L141.317 91.8249L141.302 97.1247L150.574 102.451L150.604 91.8534Z" fill="#3E3D43"/>
<path d="M145.983 83.8903L136.711 78.564L136.681 89.1616L141.317 91.8249L143.272 92.9481L145.953 94.4879L145.962 91.4263L145.968 89.1904L145.983 83.8903Z" fill="white"/>
<path d="M189.67 97.4518L189.674 96.1424L192.746 97.9074L192.743 99.2167L189.67 97.4518ZM195.815 100.982L195.819 99.6727L198.894 101.439L198.891 102.748L195.815 100.982ZM201.963 104.513L201.967 103.204L205.042 104.971L205.039 106.28L201.963 104.513ZM184.319 88.2328L184.329 84.7199L185.477 85.3794L185.467 88.8923L184.319 88.2328ZM209.277 102.57L209.287 99.0566L210.433 99.7146L210.422 103.228L209.277 102.57ZM184.339 81.2043L184.349 77.6914L185.497 78.3509L185.487 81.8638L184.339 81.2043ZM209.297 95.541L209.307 92.0281L210.452 92.6861L210.442 96.199L209.297 95.541ZM184.359 74.1754L184.369 70.6625L185.517 71.322L185.507 74.8349L184.359 74.1754ZM209.317 88.5121L209.327 84.9992L210.472 85.6572L210.462 89.1701L209.317 88.5121ZM189.752 68.9214L189.755 67.6121L192.828 69.377L192.824 70.6863L189.752 68.9214ZM195.897 72.4513L195.9 71.1419L198.975 72.9084L198.972 74.2177L195.897 72.4513ZM202.045 75.9826L202.048 74.6733L205.124 76.4397L205.12 77.7491L202.045 75.9826ZM227.281 78.7976L167.654 44.5461L167.511 95.0893L227.137 129.341L227.281 78.7976Z" fill="white"/>
<path d="M192.746 97.9073L189.674 96.1423L189.67 97.4517L192.743 99.2166L192.746 97.9073ZM198.894 101.439L195.819 99.6722L195.815 100.982L198.891 102.748L198.894 101.439ZM205.043 104.97L201.967 103.204L201.963 104.513L205.039 106.28L205.043 104.97Z" fill="#1D1D1F"/>
<path d="M185.477 85.3795L184.329 84.72L184.319 88.2329L185.467 88.8924L185.477 85.3795ZM185.497 78.3506L184.349 77.6911L184.339 81.204L185.487 81.8635L185.497 78.3506ZM185.517 71.3221L184.369 70.6626L184.359 74.1755L185.507 74.835L185.517 71.3221Z" fill="#1D1D1F"/>
<path d="M192.828 69.377L189.755 67.6121L189.752 68.9214L192.824 70.6863L192.828 69.377ZM198.976 72.9084L195.9 71.1419L195.897 72.4513L198.973 74.2177L198.976 72.9084ZM205.124 76.4397L202.048 74.6733L202.045 75.9826L205.12 77.7491L205.124 76.4397Z" fill="#1D1D1F"/>
<path d="M210.433 99.7146L209.287 99.0567L209.277 102.57L210.423 103.228L210.433 99.7146ZM210.452 92.6861L209.307 92.0282L209.297 95.5411L210.442 96.199L210.452 92.6861ZM210.472 85.6572L209.327 84.9993L209.317 88.5122L210.462 89.1701L210.472 85.6572Z" fill="#1D1D1F"/>
<path d="M211.346 79.0366L208.494 77.3975L208.49 78.3736L208.487 79.6833L208.484 80.6595L209.338 81.1501L210.484 81.808L211.337 82.2986L211.346 79.0366Z" fill="#010101"/>
<path d="M211.265 107.567L210.412 107.076L209.266 106.419L208.412 105.928L208.409 106.905L208.405 108.214L208.402 109.19L210.154 110.197L209.608 107.989L211.26 109.569L211.265 107.567Z" fill="#010101"/>
<path d="M186.31 93.2322L185.456 92.7416L184.308 92.0821L183.454 91.5916L183.445 94.8536L186.301 96.4942L186.304 95.5181L186.307 94.2083L186.31 93.2322Z" fill="#010101"/>
<path d="M186.392 64.7014L183.536 63.0608L183.527 66.3232L184.381 66.8134L185.529 67.4729L186.383 67.9639L186.386 66.9873L186.389 65.678L186.392 64.7014Z" fill="#010101"/>
<path d="M210.061 108.769L211.312 113.834L212.051 112.199L213.851 112.394L210.061 108.769Z" fill="white"/>
<path d="M211.312 113.833L210.061 108.769L213.852 112.394L212.051 112.199L211.312 113.833ZM209.608 107.989L210.154 110.196L211.284 114.762L212.269 112.578L214.676 112.838L211.259 109.569L209.608 107.989Z" fill="#010101"/>
</g>
<g clip-path="url(#clip2)">
<path d="M78.1509 13.0088L87.0597 18.1344L87.1003 32.3078L38.0042 60.511L87.1003 32.3076V75.6777L23.7728 112.009L14.864 106.883V63.5131V49.3399L78.1509 13.0088Z" fill="#E0E0E2"/>
<path d="M36.3536 97.2371V104.818L23.7727 98.1495L25.1282 98.5339" fill="#C6C5CB"/>
<path d="M36.3536 104.818L23.7727 98.1497V112.009L36.3536 104.818Z" fill="#ACABB1"/>
<path d="M23.7727 68.6386L14.864 63.5132V106.883L23.7727 112.009V68.6386Z" fill="#D8D8DA"/>
<path d="M78.1509 13.0088L87.0597 18.1344L87.1003 32.3076L23.7728 68.6385L14.864 63.5131V49.3399L78.1509 13.0088Z" fill="#B74D62"/>
<path d="M23.7727 54.4654L14.864 49.3398V63.5131L23.7727 68.6384V54.4654Z" fill="#FB6172"/>
<path d="M87.0597 18.1344L78.1507 13.0088L14.864 49.3399L23.7727 54.4654L87.0597 18.1344Z" fill="#F87D95"/>
<path d="M64.9608 48.8221L71.5329 45.0657L71.5544 52.5419L64.9823 56.2985L64.9608 48.8221Z" fill="#F87D95"/>
<path d="M56.6122 53.594L63.1843 49.8376L63.2057 57.3139L56.6335 61.0705L56.6122 53.594Z" fill="#F87D95"/>
<path d="M48.2645 58.365L54.8368 54.6086L54.8583 62.0851L48.286 65.8415L48.2645 58.365Z" fill="#F87D95"/>
<path d="M39.9159 63.1371L46.488 59.3809L46.5095 66.8571L39.9374 70.6137L39.9159 63.1371Z" fill="#F87D95"/>
<path d="M31.5684 67.9085L38.1405 64.1521L38.162 71.6283L31.5899 75.3849L31.5684 67.9085Z" fill="#F87D95"/>
<path d="M73.3343 53.135L79.9065 49.3784L79.9278 56.8549L73.3557 60.6112L73.3343 53.135Z" fill="#C6C5CB"/>
<path d="M64.9868 57.906L71.5589 54.1494L71.5804 61.6261L65.0083 65.3825L64.9868 57.906Z" fill="#C6C5CB"/>
<path d="M56.638 62.678L63.2102 58.9216L63.2317 66.3981L56.6595 70.1546L56.638 62.678Z" fill="#C6C5CB"/>
<path d="M48.2905 67.4495L54.8628 63.6929L54.8843 71.1693L48.312 74.9257L48.2905 67.4495Z" fill="#C6C5CB"/>
<path d="M39.9419 72.2214L46.5139 68.4648L46.5354 75.9415L39.9634 79.6979L39.9419 72.2214Z" fill="#C6C5CB"/>
<path d="M31.5944 76.9925L38.1665 73.2361L38.188 80.7125L31.6159 84.4689L31.5944 76.9925Z" fill="#C6C5CB"/>
<path d="M73.3602 62.2207L79.9325 58.4641L79.9538 65.9405L73.3817 69.6969L73.3602 62.2207Z" fill="#C6C5CB"/>
<path d="M65.013 66.9919L71.5852 63.2354L71.6063 70.712L65.0343 74.4682L65.013 66.9919Z" fill="#C6C5CB"/>
<path d="M56.6639 71.7639L63.2362 68.0073L63.2577 75.4839L56.6854 79.2403L56.6639 71.7639Z" fill="#C6C5CB"/>
<path d="M48.3165 76.5351L54.8888 72.7786L54.9102 80.255L48.338 84.0114L48.3165 76.5351Z" fill="#C6C5CB"/>
<path d="M39.9678 81.3071L46.5399 77.5505L46.5614 85.027L39.9893 88.7834L39.9678 81.3071Z" fill="#C6C5CB"/>
<path d="M31.6204 86.0782L38.1925 82.3218L38.214 89.7982L31.6419 93.5546L31.6204 86.0782Z" fill="#C6C5CB"/>
<path d="M73.3864 71.3064L79.9587 67.5498L79.9798 75.0247L73.4079 78.7813L73.3864 71.3064Z" fill="#C6C5CB"/>
<path d="M65.039 76.0776L71.611 72.321L71.6325 79.7959L65.0604 83.5525L65.039 76.0776Z" fill="#C6C5CB"/>
<path d="M56.6903 80.8497L63.2622 77.0933L63.2837 84.568L56.7114 88.3245L56.6903 80.8497Z" fill="#C6C5CB"/>
<path d="M48.3427 85.6208L54.9149 81.8643L54.9362 89.3391L48.3642 93.0957L48.3427 85.6208Z" fill="#C6C5CB"/>
<path d="M39.9938 90.3928L46.5659 86.6362L46.5874 94.1111L40.0153 97.8677L39.9938 90.3928Z" fill="#C6C5CB"/>
</g>
<path d="M175.629 180.165L122.005 211.972L57.4939 169.833L111.846 141.606L175.629 180.165Z" fill="url(#paint1_linear)" style="mix-blend-mode:multiply"/>
<path d="M297.581 113.162V78.4448H299.813V113.162H297.581Z" fill="#FB6172"/>
<mask id="mask0" mask-type="alpha" maskUnits="userSpaceOnUse" x="297" y="78" width="3" height="36">
<path d="M297.581 113.162V78.4448H299.813V113.162H297.581Z" fill="#FB6172"/>
</mask>
<g mask="url(#mask0)">
<path d="M299.313 112.263V78.8582H300.313V112.263H299.313Z" fill="#AF495C"/>
</g>
<path d="M301.487 113.226C301.487 114.775 300.238 116.032 298.697 116.032C297.156 116.032 295.907 114.775 295.907 113.226C295.907 111.676 297.156 110.42 298.697 110.42C300.238 110.42 301.487 111.676 301.487 113.226Z" fill="#AF495C"/>
<mask id="mask1" mask-type="alpha" maskUnits="userSpaceOnUse" x="295" y="110" width="7" height="7">
<ellipse cx="298.697" cy="113.226" rx="2.79005" ry="2.80568" fill="#FB6172"/>
</mask>
<g mask="url(#mask1)">
<ellipse cx="298.587" cy="112.384" rx="2.21978" ry="2.21552" fill="#FB6172"/>
</g>
<g clip-path="url(#clip3)">
<path d="M141.422 189.873C142.602 189.194 143.192 188.305 143.195 187.415L143.198 186.379C143.198 186.405 143.196 186.431 143.195 186.457C143.233 185.53 142.635 184.594 141.397 183.886L87.1242 152.847C84.733 151.48 80.869 151.48 78.4943 152.847L37.2088 176.614L37.198 188.588L100.139 224.578V223.542V224.578L141.413 200.812C142.593 200.133 143.184 199.244 143.186 198.354L143.19 197.318C143.19 197.344 143.187 197.37 143.186 197.397C143.225 196.469 142.626 195.533 141.388 194.825L139.338 193.653L139.341 191.071L141.422 189.873Z" fill="#794494"/>
<path d="M100.139 223.542V224.578L37.198 188.588L37.2011 187.552L100.139 223.542Z" fill="#D07400"/>
<path d="M141.387 194.825C143.779 196.193 143.791 198.409 141.416 199.777L100.139 223.542L37.2008 187.552L78.4851 163.786C80.8608 162.419 84.7238 162.419 87.115 163.786L141.387 194.825Z" fill="#9857B8"/>
<path d="M137.572 190.317L99.3937 212.291V222.194L137.559 200.22C138.739 199.541 139.33 198.651 139.332 197.761L139.345 187.858C139.343 188.748 138.752 189.637 137.572 190.317Z" fill="#E0E0E2"/>
<path d="M141.397 183.886C143.788 185.253 143.799 187.47 141.425 188.838L100.139 212.604L37.2088 176.614L78.4943 152.847C80.869 151.48 84.733 151.48 87.1242 152.847L141.397 183.886Z" fill="#9D5BBE"/>
<path d="M37.2088 176.613L37.198 188.587L100.139 224.578V212.603L37.2088 176.613Z" fill="#9857B8"/>
<path d="M141.422 189.873C142.602 189.194 143.192 188.305 143.195 187.415L143.198 186.379C143.195 187.269 142.605 188.158 141.425 188.838L100.139 212.603V224.578L141.413 200.812C142.593 200.133 143.184 199.244 143.186 198.354L143.19 197.318C143.187 198.208 142.596 199.097 141.416 199.777L100.949 223.076V213.173L141.422 189.873Z" fill="#794494"/>
<path d="M109.229 211.688L104.761 214.243L104.789 223.802L107.017 220.604L109.257 221.247L109.229 211.688Z" fill="#248BE6"/>
<path d="M77.9188 187.231L75.6773 184.856L79.779 186.16L77.9188 187.231ZM87.6074 186.134L73.7521 182.282L71.1845 183.76L77.9289 191.705L80.7992 190.053L79.3869 188.55L82.1126 186.981L84.751 187.778L87.6074 186.134Z" fill="white"/>
<path d="M92.8526 179.933L90.3846 178.521L85.8715 181.119L88.3393 182.53L92.8526 179.933Z" fill="white"/>
<path d="M108.101 174.336L105.633 172.925L101.047 175.565L99.814 169.695L97.7089 168.491L89.8906 172.992L92.3586 174.403L96.9309 171.771L97.8776 177.807L99.9813 179.01L108.101 174.336Z" fill="white"/>
</g>
<path d="M241.169 77.4484C231.748 68.0276 233.614 55.7593 233.614 55.7593L242.223 47.8806C242.223 44.2909 242.286 59.9075 251.706 69.3282C260.703 78.3254 266.299 77.4484 266.299 77.4484C264.435 79.0459 256.714 83.0397 256.714 83.0397C256.714 83.0397 250.589 86.8692 241.169 77.4484Z" fill="#010101"/>
<path d="M250.416 14.6013C241.227 20.7273 222.192 33.2418 219.567 34.292L279.295 101.24L304.893 81.5495L250.416 14.6013Z" fill="#3E3D43"/>
<path d="M251.898 13.6755C242.709 19.8015 223.675 32.316 221.049 33.3662L280.778 100.314L306.376 80.6238L251.898 13.6755Z" fill="#57565C"/>
<defs>
<linearGradient id="paint0_linear" x1="198.28" y1="239.955" x2="213.513" y2="215.762" gradientUnits="userSpaceOnUse">
<stop/>
<stop offset="1" stop-opacity="0"/>
</linearGradient>
<linearGradient id="paint1_linear" x1="109.541" y1="197.499" x2="132.338" y2="161.682" gradientUnits="userSpaceOnUse">
<stop/>
<stop offset="1" stop-color="#C4C4C4" stop-opacity="0"/>
</linearGradient>
<clipPath id="clip0">
<rect x="153" y="204" width="79" height="79" fill="white"/>
</clipPath>
<clipPath id="clip1">
<rect x="93" y="0.740234" width="198" height="197" fill="white"/>
</clipPath>
<clipPath id="clip2">
<rect width="100" height="99" transform="matrix(-1 0 0 1 100.982 13.0088)" fill="white"/>
</clipPath>
<clipPath id="clip3">
<rect x="37.198" y="135.7" width="106" height="105" fill="white"/>
</clipPath>
</defs>
</svg>
