<svg width="631" height="542" viewBox="0 0 631 542" fill="none" xmlns="http://www.w3.org/2000/svg">
<g clip-path="url(#clip0)">
<path d="M586.681 367.312C586.698 366.878 586.419 366.44 585.842 366.109L543.852 342.015C542.737 341.375 540.935 341.375 539.827 342.014L511.987 358.094C511.434 358.413 511.159 358.831 511.16 359.249C511.16 359.248 511.159 359.246 511.159 359.245L511.155 360.695C511.154 361.117 511.434 361.54 511.996 361.862L553.985 385.955C555.101 386.596 556.902 386.596 558.011 385.955L585.851 369.876C586.402 369.558 586.677 369.142 586.678 368.726L586.682 367.275C586.682 367.288 586.681 367.3 586.681 367.312Z" fill="#1D1D1F"/>
<path d="M585.84 366.102L543.85 342.009C542.735 341.369 540.933 341.369 539.825 342.009L511.985 358.088C510.877 358.728 510.882 359.766 511.998 360.406L553.987 384.499C555.103 385.14 556.905 385.14 558.013 384.499L585.853 368.42C586.961 367.78 586.955 366.743 585.84 366.102Z" fill="#2E2E30"/>
<path d="M559.248 364.051L559.24 364.056C558.75 364.337 558.752 364.794 559.246 365.076L559.254 365.08C558.755 364.796 558.753 364.335 559.248 364.051Z" fill="#FECE00"/>
<path d="M566.568 360.854L566.56 360.849C566.069 360.568 565.276 360.568 564.789 360.849L564.781 360.854C565.273 360.57 566.073 360.57 566.568 360.854Z" fill="#FECE00"/>
<path d="M570.546 370.535C570.054 370.819 569.254 370.819 568.759 370.535L568.767 370.54C569.257 370.822 570.051 370.821 570.538 370.539L570.546 370.535Z" fill="#FECE00"/>
<path d="M576.083 366.314L576.075 366.309C576.574 366.593 576.576 367.054 576.081 367.338L576.089 367.334C576.58 367.052 576.577 366.596 576.083 366.314Z" fill="#FECE00"/>
<path d="M566.609 363.685L563.233 361.748L560.794 363.157L564.17 365.094C564.462 364.822 564.823 364.557 565.251 364.31C565.678 364.063 566.138 363.854 566.609 363.685Z" fill="#FEDA44"/>
<path d="M574.533 368.233L571.158 366.296C570.865 366.567 570.504 366.832 570.076 367.079C569.648 367.326 569.189 367.535 568.719 367.704L572.094 369.641L574.533 368.233Z" fill="#FEDA44"/>
<path d="M564.17 365.093L560.794 363.156L559.246 364.051C558.754 364.335 558.756 364.795 559.251 365.08L564.005 367.807C562.955 367.204 563.08 366.104 564.17 365.093Z" fill="#FED322"/>
<path d="M572.094 369.641L568.719 367.704C566.967 368.334 565.056 368.41 564.005 367.807L568.758 370.535C569.254 370.819 570.054 370.819 570.546 370.535L572.094 369.641Z" fill="#FED322"/>
<path d="M571.322 363.582L566.568 360.854C566.073 360.57 565.273 360.57 564.781 360.854L563.233 361.748L566.609 363.685C568.36 363.054 570.271 362.979 571.322 363.582Z" fill="#FED322"/>
<path d="M576.075 366.309L571.322 363.582C572.372 364.184 572.247 365.285 571.158 366.296L574.533 368.232L576.081 367.338C576.573 367.054 576.571 366.594 576.075 366.309Z" fill="#FED322"/>
<path d="M571.158 366.295L566.608 363.685C566.138 363.854 565.678 364.063 565.251 364.31C564.823 364.557 564.462 364.822 564.17 365.094L568.719 367.704C569.189 367.534 569.648 367.326 570.076 367.079C570.504 366.832 570.865 366.566 571.158 366.295Z" fill="#FED322"/>
<path d="M568.719 367.704L564.17 365.094C563.08 366.104 562.954 367.205 564.005 367.808C565.055 368.41 566.967 368.334 568.719 367.704Z" fill="#EEBF00"/>
<path d="M571.322 363.582C570.271 362.979 568.36 363.054 566.609 363.685L571.158 366.295C572.247 365.285 572.372 364.185 571.322 363.582Z" fill="#EEBF00"/>
<path d="M530.23 361.299L523.737 357.573L522.034 358.556L528.527 362.282L530.23 361.299Z" fill="#77767E"/>
<path d="M539.347 366.53L532.853 362.803L531.15 363.787L537.644 367.514L539.347 366.53Z" fill="#77767E"/>
<path d="M548.463 371.761L541.969 368.034L540.266 369.018L546.76 372.744L548.463 371.761Z" fill="#77767E"/>
<path d="M557.579 376.992L551.085 373.265L549.382 374.249L555.877 377.975L557.579 376.992Z" fill="#77767E"/>
</g>
<path d="M630.023 234.846L517.654 301.826L336.345 196.286L440.8 137.841L630.023 234.846Z" fill="url(#paint0_linear)"/>
<path d="M464.045 438.283L360.394 499.764L257.228 438.283L360.394 370.803L464.045 438.283Z" fill="url(#paint1_linear)" style="mix-blend-mode:multiply"/>
<path d="M553.481 360.572L449.83 422.053L346.664 360.572L449.83 293.092L553.481 360.572Z" fill="url(#paint2_linear)" style="mix-blend-mode:multiply"/>
<g clip-path="url(#clip1)">
<g clip-path="url(#clip2)">
<path d="M350 53.2676L336.559 61.0279L336.447 192.118L222.173 258.094L222.217 273.54L395.318 374.135L523.033 300.399L523.101 153.863L350 53.2676Z" fill="#4D4D4D"/>
<path d="M523.101 153.863L523.033 300.399L395.318 374.135L395.274 358.689L509.659 292.713V161.624L523.101 153.863Z" fill="#666666"/>
<path d="M395.318 374.135L222.217 273.54L222.173 258.094L395.274 358.689L395.318 374.135Z" fill="#4D4D4D"/>
<path d="M395.274 358.689L222.173 258.094L336.447 192.118L509.659 292.713L395.274 358.689Z" fill="#474747"/>
<path d="M329.322 315.496L281.432 287.665L313.047 269.412L360.969 297.242L329.322 315.496Z" fill="#77767E"/>
<path d="M509.659 292.713L336.447 192.118L336.559 61.0278L509.659 161.623V292.713Z" fill="#4D4D4D"/>
<path d="M496.718 269.97L349.388 184.396L349.483 87.3604L496.718 172.925V269.97Z" fill="#67D4D5"/>
<path d="M496.744 269.987V265.85L353.199 181.566V94.0774L349.386 91.4221V184.397L496.744 269.987Z" fill="#00A6A8"/>
<path d="M509.659 161.624L336.559 61.0279L350 53.2676L523.101 153.863L509.659 161.624Z" fill="#808080"/>
<path d="M472.675 275.556L470.291 276.942L470.299 274.185L458.408 267.319L456.024 268.705L456.032 265.947L444.142 259.082L441.758 260.467L441.766 257.71L429.876 250.845L427.492 252.23L427.5 249.472L415.61 242.607L413.226 243.992L413.234 241.235L401.344 234.369L398.96 235.755L398.968 232.998L387.078 226.132L384.691 227.519L384.7 224.759L372.809 217.894L370.425 219.279L370.433 216.522L358.543 209.656L356.159 211.042L356.167 208.285L344.277 201.419L333.088 207.921L333.08 210.652L330.727 209.293L319.536 215.796L319.528 218.527L317.175 217.168L305.986 223.671L305.977 226.401L303.624 225.042L292.436 231.544L292.428 234.275L290.075 232.917L278.886 239.419L278.87 244.88L290.761 251.746L293.145 250.36L293.137 253.118L305.027 259.983L307.411 258.597L307.403 261.355L319.293 268.22L321.68 266.833L321.672 269.593L333.562 276.459L335.946 275.073L335.938 277.831L347.828 284.696L350.212 283.31L350.204 286.068L362.094 292.933L364.478 291.548L364.47 294.306L376.36 301.171L378.744 299.786L378.736 302.543L390.626 309.408L393.01 308.023L393.002 310.78L404.893 317.646L407.277 316.26L407.269 319.018L419.159 325.883L430.347 319.381L430.355 316.65L432.709 318.009L443.897 311.507L443.905 308.776L446.258 310.135L457.447 303.632L457.456 300.902L459.809 302.26L470.999 295.757L471.007 293.027L473.36 294.385L484.549 287.883L484.564 282.422L472.675 275.556ZM461.456 284.776L461.479 284.763V284.789L461.456 284.776ZM447.904 292.652L447.927 292.639V292.665L447.904 292.652ZM434.355 300.526L434.378 300.513V300.539L434.355 300.526ZM420.805 308.4L420.829 308.386V308.413L420.805 308.4ZM433.637 284.414L433.661 284.401V284.427L433.637 284.414ZM420.088 292.288L420.111 292.275V292.302L420.088 292.288ZM405.82 284.051L405.844 284.038V284.064L405.82 284.051ZM391.554 275.815L391.577 275.801V275.828L391.554 275.815ZM377.286 267.577L377.31 267.564V267.59L377.286 267.577ZM363.02 259.341L363.043 259.328V259.354L363.02 259.341ZM348.751 251.102L348.776 251.088V251.117L348.751 251.102ZM334.483 242.865L334.506 242.852V242.878L334.483 242.865ZM329.792 242.892L329.769 242.905V242.879L329.792 242.892ZM428.922 284.428L428.945 284.441L428.922 284.454V284.428ZM419.371 276.177L419.394 276.164V276.191L419.371 276.177ZM414.656 276.217V276.191L414.679 276.204L414.656 276.217ZM405.104 267.94L405.127 267.927V267.954L405.104 267.94ZM400.389 267.981V267.954L400.412 267.967L400.389 267.981ZM390.836 259.704L390.859 259.69V259.717L390.836 259.704ZM386.122 259.743V259.717L386.145 259.73L386.122 259.743ZM376.57 251.466L376.593 251.453V251.479L376.57 251.466ZM371.855 251.506V251.48L371.878 251.493L371.855 251.506ZM362.3 243.228L362.325 243.213V243.242L362.3 243.228ZM357.586 243.27V243.242L357.611 243.256L357.586 243.27ZM348.033 234.991L348.056 234.978V235.004L348.033 234.991ZM343.318 235.031V235.004L343.342 235.017L343.318 235.031ZM344.061 251.13L344.036 251.145V251.116L344.061 251.13ZM358.328 259.368L358.305 259.381V259.354L358.328 259.368ZM372.595 267.604L372.572 267.617V267.591L372.595 267.604ZM386.862 275.842L386.839 275.855V275.828L386.862 275.842ZM401.128 284.078L401.105 284.091V284.065L401.128 284.078ZM415.396 292.315L415.372 292.329V292.302L415.396 292.315ZM333.789 226.767L333.766 226.754L333.789 226.741V226.767ZM320.239 234.641L320.216 234.628L320.239 234.615V234.641ZM429.64 300.54L429.664 300.553L429.64 300.566V300.54ZM443.19 292.665L443.213 292.678L443.19 292.691V292.665ZM456.741 284.79L456.764 284.803L456.741 284.816V284.79ZM447.212 276.552L447.188 276.539L447.212 276.526V276.552ZM442.474 276.579V276.553L442.497 276.566L442.474 276.579ZM432.944 268.316L432.921 268.302L432.944 268.289V268.316ZM428.207 268.343V268.316L428.23 268.329L428.207 268.343ZM418.678 260.078L418.654 260.065L418.678 260.052V260.078ZM413.941 260.105V260.078L413.964 260.091L413.941 260.105ZM404.41 251.841L404.387 251.828L404.41 251.815V251.841ZM399.673 251.868V251.842L399.696 251.855L399.673 251.868ZM390.143 243.604L390.12 243.591L390.143 243.577V243.604ZM385.407 243.631V243.604L385.43 243.618L385.407 243.631ZM375.877 235.367L375.852 235.353L375.877 235.338V235.367ZM371.137 235.395V235.366L371.162 235.38L371.137 235.395ZM361.607 227.129L361.584 227.116L361.607 227.102V227.129ZM356.87 227.156V227.129L356.893 227.142L356.87 227.156ZM347.341 218.891L347.317 218.878L347.341 218.865V218.891ZM342.603 218.918V218.892L342.626 218.905L342.603 218.918ZM329.051 226.794V226.768L329.074 226.781L329.051 226.794ZM315.501 234.668V234.642L315.525 234.655L315.501 234.668ZM301.952 242.542V242.515L301.975 242.528L301.952 242.542ZM306.689 242.489V242.516L306.666 242.503L306.689 242.489ZM316.242 250.766L316.219 250.779V250.752L316.242 250.766ZM320.957 250.726V250.753L320.934 250.739L320.957 250.726ZM330.511 259.004L330.486 259.019V258.989L330.511 259.004ZM335.226 258.962V258.99L335.201 258.976L335.226 258.962ZM344.778 267.241L344.755 267.255V267.228L344.778 267.241ZM349.493 267.201V267.228L349.47 267.214L349.493 267.201ZM359.045 275.479L359.022 275.492V275.465L359.045 275.479ZM363.76 275.438V275.465L363.737 275.452L363.76 275.438ZM373.313 283.715L373.289 283.729V283.703L373.313 283.715ZM378.027 283.675V283.702L378.004 283.689L378.027 283.675ZM387.579 291.953L387.556 291.966V291.939L387.579 291.953ZM392.294 291.912V291.939L392.271 291.926L392.294 291.912ZM401.847 300.19L401.823 300.203V300.176L401.847 300.19ZM406.561 300.15V300.177L406.538 300.164L406.561 300.15ZM416.113 308.426L416.09 308.44V308.413L416.113 308.426Z" fill="#57565C"/>
<path d="M356.16 208.287L356.144 213.749L344.956 220.251L344.972 214.789L356.16 208.287Z" fill="#57565C"/>
<path d="M344.972 214.789L344.956 220.251L333.066 213.386L333.081 207.924L344.972 214.789Z" fill="#77767E"/>
<path d="M333.081 207.924L344.27 201.422L356.16 208.287L344.972 214.789L333.081 207.924Z" fill="#898890"/>
<path d="M370.427 216.524L370.412 221.986L359.223 228.488L359.238 223.026L370.427 216.524Z" fill="#57565C"/>
<path d="M359.238 223.026L359.223 228.488L347.332 221.623L347.348 216.161L359.238 223.026Z" fill="#77767E"/>
<path d="M347.348 216.161L358.536 209.659L370.427 216.524L359.238 223.026L347.348 216.161Z" fill="#898890"/>
<path d="M384.694 224.762L384.679 230.223L373.491 236.725L373.506 231.263L384.694 224.762Z" fill="#57565C"/>
<path d="M373.506 231.263L373.491 236.725L361.6 229.86L361.615 224.398L373.506 231.263Z" fill="#77767E"/>
<path d="M361.615 224.398L372.804 217.896L384.694 224.762L373.506 231.263L361.615 224.398Z" fill="#898890"/>
<path d="M398.963 233L398.948 238.462L387.759 244.963L387.775 239.501L398.963 233Z" fill="#57565C"/>
<path d="M387.775 239.501L387.759 244.963L375.869 238.098L375.885 232.636L387.775 239.501Z" fill="#77767E"/>
<path d="M375.885 232.636L387.073 226.135L398.963 233L387.775 239.502L375.885 232.636Z" fill="#898890"/>
<path d="M413.23 241.237L413.215 246.698L402.026 253.2L402.042 247.739L413.23 241.237Z" fill="#57565C"/>
<path d="M402.042 247.739L402.026 253.2L390.136 246.335L390.151 240.873L402.042 247.739Z" fill="#77767E"/>
<path d="M390.151 240.873L401.34 234.371L413.23 241.237L402.042 247.739L390.151 240.873Z" fill="#898890"/>
<path d="M427.497 249.473L427.482 254.936L416.293 261.437L416.309 255.975L427.497 249.473Z" fill="#57565C"/>
<path d="M416.309 255.975L416.293 261.437L404.403 254.572L404.419 249.111L416.309 255.975Z" fill="#77767E"/>
<path d="M404.419 249.111L415.607 242.609L427.497 249.473L416.309 255.975L404.419 249.111Z" fill="#898890"/>
<path d="M441.764 257.711L441.749 263.172L430.56 269.674L430.576 264.213L441.764 257.711Z" fill="#57565C"/>
<path d="M430.576 264.213L430.56 269.674L418.67 262.81L418.686 257.348L430.576 264.213Z" fill="#77767E"/>
<path d="M418.686 257.348L429.874 250.845L441.764 257.711L430.576 264.213L418.686 257.348Z" fill="#898890"/>
<path d="M456.032 265.948L456.016 271.41L444.828 277.912L444.843 272.449L456.032 265.948Z" fill="#57565C"/>
<path d="M444.843 272.449L444.828 277.912L432.937 271.047L432.953 265.585L444.843 272.449Z" fill="#77767E"/>
<path d="M432.953 265.585L444.14 259.083L456.032 265.948L444.843 272.449L432.953 265.585Z" fill="#898890"/>
<path d="M470.299 274.185L470.283 279.647L459.094 286.149L459.11 280.687L470.299 274.185Z" fill="#57565C"/>
<path d="M459.11 280.687L459.094 286.149L447.204 279.284L447.22 273.822L459.11 280.687Z" fill="#77767E"/>
<path d="M447.22 273.822L458.408 267.32L470.298 274.185L459.11 280.687L447.22 273.822Z" fill="#898890"/>
<path d="M484.565 282.422L484.549 287.883L473.361 294.386L473.377 288.924L484.565 282.422Z" fill="#57565C"/>
<path d="M473.377 288.924L473.361 294.386L461.471 287.521L461.486 282.059L473.377 288.924Z" fill="#77767E"/>
<path d="M472.675 275.556L484.565 282.422L473.377 288.924L461.486 282.059L472.675 275.556Z" fill="#898890"/>
<path d="M342.61 216.161L342.595 221.623L331.404 228.126L331.42 222.664L342.61 216.161Z" fill="#57565C"/>
<path d="M331.42 222.664L331.404 228.126L319.514 221.262L319.529 215.799L331.42 222.664Z" fill="#77767E"/>
<path d="M319.529 215.799L330.72 209.296L342.61 216.161L331.42 222.664L319.529 215.799Z" fill="#898890"/>
<path d="M356.878 224.398L356.862 229.86L345.672 236.363L345.687 230.901L356.878 224.398Z" fill="#57565C"/>
<path d="M345.687 230.901L345.672 236.363L333.781 229.498L333.796 224.037L345.687 230.901Z" fill="#77767E"/>
<path d="M333.796 224.037L344.987 217.533L356.878 224.398L345.687 230.901L333.796 224.037Z" fill="#898890"/>
<path d="M371.145 232.635L371.129 238.097L359.938 244.6L359.954 239.139L371.145 232.635Z" fill="#57565C"/>
<path d="M359.954 239.139L359.938 244.6L348.048 237.735L348.063 232.273L359.954 239.139Z" fill="#77767E"/>
<path d="M348.063 232.273L359.254 225.77L371.145 232.635L359.954 239.139L348.063 232.273Z" fill="#898890"/>
<path d="M385.414 240.873L385.398 246.335L374.208 252.839L374.223 247.377L385.414 240.873Z" fill="#57565C"/>
<path d="M374.223 247.377L374.208 252.839L362.317 245.974L362.333 240.512L374.223 247.377Z" fill="#77767E"/>
<path d="M362.333 240.512L373.523 234.008L385.414 240.873L374.223 247.377L362.333 240.512Z" fill="#898890"/>
<path d="M399.681 249.111L399.665 254.572L388.475 261.076L388.491 255.614L399.681 249.111Z" fill="#57565C"/>
<path d="M388.491 255.614L388.475 261.076L376.584 254.211L376.6 248.749L388.491 255.614Z" fill="#77767E"/>
<path d="M376.6 248.749L387.79 242.246L399.681 249.111L388.491 255.614L376.6 248.749Z" fill="#898890"/>
<path d="M413.948 257.347L413.932 262.809L402.742 269.313L402.757 263.851L413.948 257.347Z" fill="#57565C"/>
<path d="M402.757 263.851L402.742 269.313L390.851 262.448L390.867 256.986L402.757 263.851Z" fill="#77767E"/>
<path d="M390.867 256.986L402.057 250.483L413.948 257.347L402.757 263.851L390.867 256.986Z" fill="#898890"/>
<path d="M428.215 265.585L428.2 271.047L417.009 277.55L417.025 272.088L428.215 265.585Z" fill="#57565C"/>
<path d="M417.025 272.088L417.009 277.55L405.119 270.685L405.134 265.223L417.025 272.088Z" fill="#77767E"/>
<path d="M405.134 265.223L416.324 258.72L428.215 265.585L417.025 272.088L405.134 265.223Z" fill="#898890"/>
<path d="M442.482 273.822L442.466 279.284L431.276 285.787L431.291 280.325L442.482 273.822Z" fill="#57565C"/>
<path d="M431.291 280.325L431.276 285.787L419.385 278.922L419.401 273.459L431.291 280.325Z" fill="#77767E"/>
<path d="M419.401 273.46L430.592 266.957L442.482 273.822L431.291 280.325L419.401 273.46Z" fill="#898890"/>
<path d="M456.749 282.059L456.734 287.521L445.543 294.024L445.558 288.562L456.749 282.059Z" fill="#57565C"/>
<path d="M445.558 288.562L445.543 294.024L433.653 287.158L433.668 281.697L445.558 288.562Z" fill="#77767E"/>
<path d="M433.668 281.697L444.858 275.194L456.749 282.059L445.558 288.562L433.668 281.697Z" fill="#898890"/>
<path d="M471.016 290.296L471.001 295.758L459.809 302.261L459.826 296.799L471.016 290.296Z" fill="#57565C"/>
<path d="M459.826 296.799L459.809 302.261L447.92 295.396L447.935 289.934L459.826 296.799Z" fill="#77767E"/>
<path d="M447.935 289.934L459.126 283.431L471.016 290.296L459.826 296.799L447.935 289.934Z" fill="#898890"/>
<path d="M329.059 224.037L329.044 229.498L317.855 236L317.871 230.539L329.059 224.037Z" fill="#57565C"/>
<path d="M317.871 230.539L317.855 236L305.965 229.135L305.98 223.674L317.871 230.539Z" fill="#77767E"/>
<path d="M305.98 223.674L317.169 217.171L329.059 224.037L317.871 230.539L305.98 223.674Z" fill="#898890"/>
<path d="M343.326 232.273L343.31 237.735L332.123 244.237L332.138 238.775L343.326 232.273Z" fill="#57565C"/>
<path d="M332.138 238.775L332.123 244.237L320.231 237.373L320.247 231.911L332.138 238.775Z" fill="#77767E"/>
<path d="M320.247 231.911L331.435 225.408L343.326 232.273L332.138 238.775L320.247 231.911Z" fill="#898890"/>
<path d="M357.593 240.51L357.578 245.972L346.389 252.475L346.404 247.013L357.593 240.51Z" fill="#57565C"/>
<path d="M346.404 247.013L346.389 252.475L334.498 245.61L334.513 240.148L346.404 247.013Z" fill="#77767E"/>
<path d="M334.513 240.148L345.702 233.646L357.593 240.511L346.404 247.013L334.513 240.148Z" fill="#898890"/>
<path d="M371.862 248.749L371.847 254.211L360.658 260.713L360.673 255.251L371.862 248.749Z" fill="#57565C"/>
<path d="M360.673 255.251L360.658 260.713L348.768 253.848L348.783 248.386L360.673 255.251Z" fill="#77767E"/>
<path d="M348.783 248.386L359.972 241.884L371.862 248.749L360.673 255.251L348.783 248.386Z" fill="#898890"/>
<path d="M386.129 256.986L386.113 262.448L374.925 268.95L374.94 263.488L386.129 256.986Z" fill="#57565C"/>
<path d="M374.94 263.488L374.925 268.95L363.034 262.085L363.05 256.623L374.94 263.488Z" fill="#77767E"/>
<path d="M363.05 256.623L374.239 250.121L386.129 256.986L374.94 263.488L363.05 256.623Z" fill="#898890"/>
<path d="M400.396 265.223L400.381 270.685L389.192 277.187L389.207 271.725L400.396 265.223Z" fill="#57565C"/>
<path d="M389.207 271.726L389.192 277.187L377.301 270.322L377.317 264.86L389.207 271.726Z" fill="#77767E"/>
<path d="M377.317 264.86L388.506 258.357L400.396 265.223L389.207 271.725L377.317 264.86Z" fill="#898890"/>
<path d="M414.663 273.459L414.648 278.922L403.459 285.424L403.475 279.962L414.663 273.459Z" fill="#57565C"/>
<path d="M403.475 279.962L403.459 285.424L391.569 278.559L391.584 273.097L403.475 279.962Z" fill="#77767E"/>
<path d="M391.584 273.097L402.773 266.595L414.663 273.46L403.475 279.962L391.584 273.097Z" fill="#898890"/>
<path d="M428.93 281.697L428.915 287.158L417.726 293.661L417.741 288.199L428.93 281.697Z" fill="#57565C"/>
<path d="M417.741 288.199L417.726 293.661L405.836 286.796L405.851 281.334L417.741 288.199Z" fill="#77767E"/>
<path d="M405.851 281.334L417.04 274.832L428.93 281.697L417.741 288.199L405.851 281.334Z" fill="#898890"/>
<path d="M443.198 289.934L443.182 295.396L431.994 301.898L432.009 296.436L443.198 289.934Z" fill="#57565C"/>
<path d="M432.009 296.436L431.994 301.898L420.103 295.033L420.118 289.571L432.009 296.436Z" fill="#77767E"/>
<path d="M420.118 289.571L431.307 283.069L443.198 289.934L432.009 296.436L420.118 289.571Z" fill="#898890"/>
<path d="M457.464 298.171L457.449 303.634L446.26 310.135L446.276 304.673L457.464 298.171Z" fill="#57565C"/>
<path d="M446.276 304.673L446.26 310.135L434.37 303.27L434.385 297.808L446.276 304.673Z" fill="#77767E"/>
<path d="M434.385 297.808L445.574 291.307L457.464 298.171L446.276 304.673L434.385 297.808Z" fill="#898890"/>
<path d="M315.51 231.911L315.494 237.373L304.306 243.874L304.321 238.412L315.51 231.911Z" fill="#57565C"/>
<path d="M304.321 238.412L304.306 243.875L292.415 237.009L292.43 231.548L304.321 238.412Z" fill="#77767E"/>
<path d="M292.43 231.548L303.619 225.046L315.51 231.911L304.321 238.412L292.43 231.548Z" fill="#898890"/>
<path d="M329.777 240.148L329.761 245.61L318.573 252.111L318.588 246.65L329.777 240.148Z" fill="#57565C"/>
<path d="M318.588 246.65L318.573 252.111L306.682 245.246L306.698 239.784L318.588 246.65Z" fill="#77767E"/>
<path d="M306.698 239.784L317.886 233.283L329.777 240.148L318.588 246.649L306.698 239.784Z" fill="#898890"/>
<path d="M344.044 248.385L344.028 253.847L332.84 260.349L332.855 254.886L344.044 248.385Z" fill="#57565C"/>
<path d="M332.855 254.886L332.84 260.349L320.949 253.483L320.964 248.021L332.855 254.886Z" fill="#77767E"/>
<path d="M320.964 248.021L332.153 241.52L344.044 248.385L332.855 254.886L320.964 248.021Z" fill="#898890"/>
<path d="M358.313 256.623L358.298 262.085L347.109 268.586L347.124 263.125L358.313 256.623Z" fill="#57565C"/>
<path d="M347.124 263.125L347.109 268.586L335.218 261.722L335.234 256.26L347.124 263.125Z" fill="#77767E"/>
<path d="M335.234 256.26L346.422 249.758L358.313 256.623L347.124 263.125L335.234 256.26Z" fill="#898890"/>
<path d="M372.58 264.86L372.564 270.322L361.376 276.824L361.392 271.362L372.58 264.86Z" fill="#57565C"/>
<path d="M361.392 271.362L361.376 276.824L349.486 269.959L349.501 264.497L361.392 271.362Z" fill="#77767E"/>
<path d="M349.501 264.497L360.689 257.995L372.58 264.86L361.392 271.362L349.501 264.497Z" fill="#898890"/>
<path d="M386.846 273.097L386.831 278.559L375.643 285.061L375.658 279.599L386.846 273.097Z" fill="#57565C"/>
<path d="M375.658 279.599L375.643 285.061L363.752 278.196L363.768 272.734L375.658 279.599Z" fill="#77767E"/>
<path d="M363.768 272.735L374.956 266.232L386.846 273.097L375.658 279.599L363.768 272.735Z" fill="#898890"/>
<path d="M401.113 281.334L401.098 286.796L389.909 293.298L389.925 287.837L401.113 281.334Z" fill="#57565C"/>
<path d="M389.925 287.837L389.909 293.298L378.019 286.433L378.035 280.971L389.925 287.837Z" fill="#77767E"/>
<path d="M378.035 280.971L389.223 274.469L401.113 281.334L389.925 287.837L378.035 280.971Z" fill="#898890"/>
<path d="M415.381 289.571L415.365 295.033L404.177 301.536L404.192 296.073L415.381 289.571Z" fill="#57565C"/>
<path d="M404.192 296.073L404.177 301.535L392.286 294.67L392.301 289.208L404.192 296.073Z" fill="#77767E"/>
<path d="M392.301 289.208L403.49 282.706L415.381 289.571L404.192 296.073L392.301 289.208Z" fill="#898890"/>
<path d="M429.648 297.808L429.632 303.27L418.444 309.772L418.46 304.31L429.648 297.808Z" fill="#57565C"/>
<path d="M418.46 304.31L418.444 309.772L406.553 302.907L406.569 297.446L418.46 304.31Z" fill="#77767E"/>
<path d="M406.569 297.446L417.757 290.943L429.648 297.808L418.46 304.31L406.569 297.446Z" fill="#898890"/>
<path d="M443.915 306.045L443.9 311.507L432.711 318.009L432.726 312.548L443.915 306.045Z" fill="#57565C"/>
<path d="M432.726 312.548L432.711 318.009L420.82 311.144L420.836 305.682L432.726 312.548Z" fill="#77767E"/>
<path d="M420.836 305.682L432.024 299.18L443.915 306.045L432.726 312.548L420.836 305.682Z" fill="#898890"/>
<path d="M301.96 239.785L301.944 245.247L290.756 251.748L290.771 246.287L301.96 239.785Z" fill="#57565C"/>
<path d="M290.771 246.287L290.756 251.748L278.866 244.884L278.881 239.421L290.771 246.287Z" fill="#77767E"/>
<path d="M278.88 239.421L290.069 232.92L301.96 239.785L290.771 246.287L278.88 239.421Z" fill="#898890"/>
<path d="M316.227 248.022L316.211 253.484L305.023 259.986L305.038 254.524L316.227 248.022Z" fill="#57565C"/>
<path d="M305.038 254.524L305.023 259.986L293.132 253.12L293.148 247.658L305.038 254.524Z" fill="#77767E"/>
<path d="M293.148 247.658L304.336 241.156L316.227 248.022L305.038 254.524L293.148 247.658Z" fill="#898890"/>
<path d="M330.494 256.259L330.479 261.721L319.29 268.223L319.305 262.761L330.494 256.259Z" fill="#57565C"/>
<path d="M319.305 262.761L319.29 268.223L307.399 261.357L307.415 255.896L319.305 262.761Z" fill="#77767E"/>
<path d="M307.415 255.896L318.604 249.394L330.494 256.259L319.305 262.761L307.415 255.896Z" fill="#898890"/>
<path d="M344.763 264.497L344.748 269.959L333.559 276.461L333.575 270.999L344.763 264.497Z" fill="#57565C"/>
<path d="M333.575 270.999L333.559 276.461L321.669 269.596L321.684 264.134L333.575 270.999Z" fill="#77767E"/>
<path d="M321.684 264.134L332.873 257.632L344.763 264.497L333.575 270.999L321.684 264.134Z" fill="#898890"/>
<path d="M359.03 272.734L359.015 278.196L347.826 284.698L347.842 279.236L359.03 272.734Z" fill="#57565C"/>
<path d="M347.842 279.236L347.826 284.698L335.936 277.832L335.951 272.371L347.842 279.236Z" fill="#77767E"/>
<path d="M335.951 272.371L347.139 265.869L359.03 272.734L347.842 279.236L335.951 272.371Z" fill="#898890"/>
<path d="M373.297 280.971L373.282 286.433L362.093 292.935L362.109 287.473L373.297 280.971Z" fill="#57565C"/>
<path d="M362.109 287.473L362.093 292.935L350.203 286.071L350.218 280.608L362.109 287.473Z" fill="#77767E"/>
<path d="M350.218 280.608L361.407 274.106L373.297 280.971L362.109 287.473L350.218 280.608Z" fill="#898890"/>
<path d="M387.564 289.208L387.549 294.67L376.36 301.172L376.376 295.71L387.564 289.208Z" fill="#57565C"/>
<path d="M376.376 295.71L376.36 301.173L364.47 294.307L364.486 288.845L376.376 295.71Z" fill="#77767E"/>
<path d="M364.486 288.846L375.674 282.343L387.564 289.208L376.376 295.71L364.486 288.846Z" fill="#898890"/>
<path d="M401.832 297.446L401.815 302.907L390.628 309.41L390.643 303.947L401.832 297.446Z" fill="#57565C"/>
<path d="M390.643 303.948L390.628 309.41L378.737 302.544L378.752 297.083L390.643 303.948Z" fill="#77767E"/>
<path d="M378.752 297.083L389.941 290.58L401.832 297.446L390.643 303.947L378.752 297.083Z" fill="#898890"/>
<path d="M416.098 305.682L416.083 311.144L404.895 317.646L404.91 312.185L416.098 305.682Z" fill="#57565C"/>
<path d="M404.91 312.185L404.895 317.646L393.003 310.782L393.02 305.319L404.91 312.185Z" fill="#77767E"/>
<path d="M393.02 305.319L404.207 298.817L416.098 305.682L404.91 312.185L393.02 305.319Z" fill="#898890"/>
<path d="M430.365 313.919L430.35 319.381L419.161 325.884L419.177 320.421L430.365 313.919Z" fill="#57565C"/>
<path d="M419.177 320.421L419.161 325.884L407.271 319.018L407.286 313.557L419.177 320.421Z" fill="#77767E"/>
<path d="M407.286 313.557L418.475 307.055L430.365 313.919L419.177 320.421L407.286 313.557Z" fill="#898890"/>
</g>
<g clip-path="url(#clip3)">
<path d="M372.637 30.2897L323.437 1.88361C320.329 0.0893312 317.513 -0.0773957 315.48 1.1042L301.593 9.1744C301.599 9.1706 301.606 9.16774 301.613 9.1637C299.594 10.3253 298.341 12.8096 298.331 16.3468L298.171 72.8822C298.15 79.9782 303.141 88.6221 309.316 92.1873L358.517 120.593C361.714 122.439 364.599 122.558 366.644 121.263C366.587 121.299 366.532 121.338 366.473 121.372L380.36 113.302C382.367 112.136 383.612 109.656 383.622 106.13L383.782 49.5949C383.803 42.4972 378.812 33.855 372.637 30.2897Z" fill="#3897F2"/>
<path d="M336.197 50.4854L327.941 45.7185C326.84 45.0828 326.286 45.2552 325.697 45.7071C325.356 45.9685 325.252 46.2066 325.949 46.7634C327.317 47.8513 328.087 49.3176 328.286 51.0105C328.609 53.7274 328.578 56.2421 328.382 58.6676C328.323 59.3706 328.209 60.0483 327.954 60.5896C327.704 61.1214 327.36 61.2636 326.931 61.0163C326.671 60.8664 326.381 60.5734 326.062 60.1372C325.298 59.0924 324.761 57.9269 324.237 56.7665C322.266 52.4097 320.698 48.0318 319.418 43.6431C319.047 42.3747 318.408 41.3682 317.439 40.7919C316.245 40.0796 315.053 39.3784 313.861 38.6901C312.669 38.002 311.477 37.3268 310.285 36.6658C308.85 35.8645 308.42 36.4213 309 38.2532C311.578 46.3862 314.45 54.5099 318.204 62.562C320.134 66.6962 322.354 70.6479 325.219 74.1922C328.099 77.7551 331.178 80.2546 334.413 82.1226C334.828 82.3621 335.246 82.5916 335.666 82.8114C337.395 83.7187 337.916 83.4978 338 81.5674C338.061 80.2443 338.197 78.9754 338.78 78.0933C339.135 77.5589 339.599 77.4575 340.137 77.7682C340.472 77.9611 340.834 78.3131 341.216 78.8192C341.714 79.4804 342.129 80.1913 342.528 80.9222C343.497 82.7067 344.429 84.5081 345.437 86.2769C346.588 88.2953 347.939 89.92 349.6 90.8792C349.758 90.9703 349.919 91.0559 350.083 91.1346L357.39 95.3577C358.565 95.9452 359.183 94.6416 358.51 92.745C358.035 91.4091 357.414 90.1059 356.758 88.8128C355.272 85.8973 353.521 83.127 351.864 80.3009C350.367 77.7537 350.275 76.7221 351.488 75.4837C352.807 74.123 354.232 72.9074 355.563 71.5636C356.807 70.3052 358.081 69.0739 358.739 67.0924C359.158 65.8285 358.793 64.9545 357.454 63.9194C357.227 63.7417 356.988 63.5997 356.751 63.4632L348.805 58.8688C348.783 58.8557 348.761 58.8426 348.739 58.83C347.801 58.2882 347.275 58.4766 346.935 59.2586C346.465 60.337 345.978 61.4059 345.417 62.3805C344.148 64.6027 342.728 66.6369 340.743 67.9068C340.375 68.1413 339.974 68.4557 339.424 68.138C339.319 68.0776 339.209 67.9943 339.093 67.8835C338.182 66.9733 337.919 65.0914 337.935 64.5178L337.958 53.9743C337.784 52.3688 337.498 51.5319 336.197 50.4854Z" fill="white"/>
<path d="M380.36 113.302L366.474 121.372C368.481 120.206 369.726 117.725 369.736 114.2L383.622 106.13C383.612 109.655 382.368 112.136 380.36 113.302Z" fill="#3897F2"/>
<path d="M301.593 9.17441L315.479 1.10445C317.513 -0.0771514 320.328 0.0895754 323.436 1.88385L309.55 9.95381C306.442 8.15954 303.626 7.99257 301.593 9.17441Z" fill="#248BE6"/>
<path d="M369.896 57.6649L383.783 49.5947L383.622 106.13L369.736 114.2L369.896 57.6649Z" fill="#248BE6"/>
<path d="M309.55 9.95374L323.437 1.88354L372.637 30.2897L358.75 38.3596L309.55 9.95374Z" fill="#409DF8"/>
<path d="M358.75 38.3598L372.637 30.2898C378.813 33.855 383.803 42.4975 383.783 49.5949L369.896 57.6649C369.916 50.5675 364.926 41.9252 358.75 38.3598Z" fill="#46A0FB"/>
</g>
<g clip-path="url(#clip4)">
<path d="M523.721 100.316L445.625 55.6781C440.692 52.8586 436.223 52.5966 432.995 54.4534L410.952 67.1351C410.962 67.1291 410.974 67.1246 410.984 67.1183C407.78 68.9437 405.791 72.8475 405.775 78.406L405.52 167.247C405.488 178.398 413.41 191.981 423.212 197.584L501.308 242.222C506.383 245.122 510.963 245.31 514.208 243.275C514.118 243.331 514.03 243.392 513.937 243.446L535.979 230.765C539.166 228.932 541.141 225.034 541.157 219.494L541.412 130.653C541.445 119.5 533.523 105.919 523.721 100.316Z" fill="#FB6172"/>
<path d="M535.98 230.765L513.938 243.446C517.124 241.613 519.1 237.715 519.116 232.175L541.158 219.494C541.142 225.033 539.166 228.931 535.98 230.765Z" fill="#973E4E"/>
<path d="M410.952 67.1352L432.994 54.4539C436.222 52.5971 440.691 52.8591 445.624 55.6786L423.582 68.36C418.649 65.5404 414.18 65.2781 410.952 67.1352Z" fill="#B74D62"/>
<path d="M519.37 143.334L541.412 130.653L541.158 219.494L519.116 232.175L519.37 143.334Z" fill="#B74D62"/>
<path d="M423.582 68.36L445.625 55.6782L523.721 100.316L501.679 112.998L423.582 68.36Z" fill="#F87D95"/>
<path d="M501.679 112.998L523.721 100.317C533.523 105.919 541.444 119.5 541.412 130.653L519.37 143.335C519.402 132.182 511.481 118.601 501.679 112.998Z" fill="#FFB0C0"/>
</g>
<path d="M371.775 136.753L369.461 138.761L367.545 117.474L371.775 118.047V136.753Z" fill="#3897F2"/>
<path d="M358.858 52.6039C360.133 53.3329 361.163 55.0992 361.159 56.5499L361.014 107.45C361.01 108.9 359.973 109.485 358.698 108.756L306.778 78.6092C305.504 77.8804 304.474 76.1144 304.478 74.6642L304.623 23.7641C304.628 22.3135 305.664 21.7284 306.939 22.4569L358.858 52.6039Z" fill="#77767E"/>
<mask id="mask0" mask-type="alpha" maskUnits="userSpaceOnUse" x="307" y="23" width="58" height="88">
<path d="M362.226 53.7545C363.501 54.4835 364.531 56.2499 364.527 57.7005L364.382 108.601C364.378 110.051 363.341 110.636 362.066 109.907L310.146 79.7599C308.872 79.0311 307.842 77.265 307.846 75.8149L307.992 24.9148C307.996 23.4641 309.032 22.879 310.307 23.6075L362.226 53.7545Z" fill="white"/>
</mask>
<g mask="url(#mask0)">
<path d="M358.872 52.6371C360.148 53.3661 361.177 55.1324 361.174 56.5831L361.028 104.301C361.024 105.751 359.987 106.336 358.712 105.607L310.292 77.4855C309.017 76.7567 307.987 74.9907 307.991 73.5405L308.137 25.823C308.141 24.3723 309.178 23.7872 310.452 24.5157L358.872 52.6371Z" fill="white"/>
</g>
<path d="M368.222 110.007L369.457 138.834L355.146 118.037L368.222 110.007Z" fill="#409DF8"/>
<path d="M502.628 148.602C503.273 148.971 503.795 149.866 503.793 150.601L503.719 152.843C503.717 153.577 503.192 153.874 502.546 153.504L476.251 138.236C475.606 137.867 475.084 136.973 475.086 136.238L475.16 133.996C475.162 133.261 475.687 132.965 476.332 133.334L502.628 148.602Z" fill="#77767E"/>
<path d="M474.115 133.841L475.42 133.312L503.798 150.347L503.348 153.599L501.869 154.233L474.115 133.841Z" fill="#77767E"/>
<path d="M501.193 149.215C501.839 149.584 502.361 150.478 502.359 151.213L502.285 153.457C502.283 154.191 501.758 154.487 501.112 154.118L474.817 138.85C474.171 138.481 473.649 137.586 473.652 136.852L473.725 134.608C473.728 133.874 474.252 133.577 474.898 133.946L501.193 149.215Z" fill="#E0E0E2"/>
<path d="M502.628 140.003C503.273 140.372 503.795 141.267 503.793 142.002L503.719 144.244C503.717 144.978 503.192 145.275 502.546 144.905L476.251 129.637C475.606 129.268 475.084 128.374 475.086 127.639L475.16 125.397C475.162 124.662 475.687 124.366 476.332 124.735L502.628 140.003Z" fill="#77767E"/>
<path d="M474.115 125.243L475.42 124.713L503.798 141.748L503.348 145L501.869 145.634L474.115 125.243Z" fill="#77767E"/>
<path d="M501.193 140.616C501.839 140.985 502.361 141.88 502.359 142.614L502.285 144.858C502.283 145.592 501.758 145.888 501.112 145.519L474.817 130.251C474.171 129.882 473.649 128.987 473.652 128.253L473.725 126.009C473.728 125.275 474.252 124.978 474.898 125.347L501.193 140.616Z" fill="#E0E0E2"/>
<path d="M502.628 131.776C503.273 132.145 503.795 133.04 503.793 133.774L503.719 136.017C503.717 136.751 503.192 137.047 502.546 136.678L476.251 121.41C475.606 121.041 475.084 120.146 475.086 119.412L475.16 117.17C475.162 116.435 475.687 116.139 476.332 116.508L502.628 131.776Z" fill="#77767E"/>
<path d="M474.115 117.015L475.42 116.486L503.798 133.521L503.348 136.773L501.869 137.407L474.115 117.015Z" fill="#77767E"/>
<path d="M501.193 132.388C501.839 132.758 502.361 133.652 502.359 134.387L502.285 136.63C502.283 137.365 501.758 137.661 501.112 137.292L474.817 122.024C474.171 121.655 473.649 120.76 473.652 120.026L473.725 117.782C473.728 117.047 474.252 116.751 474.898 117.12L501.193 132.388Z" fill="#E0E0E2"/>
<path d="M407.359 151.289C407.876 154.805 409.957 164.161 413.912 165.188C417.03 165.997 415.222 173.925 414.984 176.21C420.503 180.863 420.883 167.118 421.789 168.262C422.921 169.693 422.742 177.939 423.696 176.21C424.459 174.827 426.28 162.396 428.108 162.555C428.506 163.29 426.206 185.08 426.982 182.084C435.619 148.721 435.901 185.055 438.624 162.555" stroke="#E0E0E2"/>
<path d="M407.279 140.015C407.338 140.365 407.362 166.862 407.338 177.69L445.759 200.734" stroke="#E0E0E2"/>
<path d="M311.804 60.6116L357.946 87.3253V96.2298L311.804 69.1114V60.6116Z" fill="black"/>
<path d="M311.804 46.8787L357.946 73.5923V82.4969L311.804 55.3785V46.8787Z" fill="black"/>
<path d="M311.804 33.0818L357.946 59.7955V68.7L311.804 41.5816V33.0818Z" fill="black"/>
</g>
<g clip-path="url(#clip5)">
<path d="M491.299 172.779L475.466 158.424L457.497 150.226L440.53 134.139L425.22 133.502L410.29 118.859L404.665 122.128L404.5 180.315L503.694 237.585L509.319 234.316L509.496 171.872L491.299 172.779Z" fill="#9857B8"/>
<path d="M404.665 122.128L410.29 118.859L425.22 133.502L419.596 136.771L404.665 122.128Z" fill="#B177CE"/>
<path d="M419.596 136.771L425.22 133.502L440.53 134.139L434.906 137.408L419.596 136.771Z" fill="#A861CC"/>
<path d="M434.906 137.408L440.53 134.139L457.497 150.226L451.873 153.494L434.906 137.408Z" fill="#B177CE"/>
<path d="M451.873 153.494L457.497 150.226L475.466 158.424L469.841 161.692L451.873 153.494Z" fill="#A861CC"/>
<path d="M469.841 161.693L475.466 158.424L491.299 172.779L485.675 176.047L469.841 161.693Z" fill="#B177CE"/>
<path d="M503.872 175.14L509.496 171.872L509.319 234.316L503.694 237.585L503.872 175.14Z" fill="#794494"/>
<path d="M485.675 176.047L491.299 172.779L509.496 171.872L503.871 175.14L485.675 176.047Z" fill="#A861CC"/>
<path d="M476.979 196.411L461.154 178.819L443.17 176.283L426.202 160.269L410.906 155.01L395.978 139.255L390.354 142.523L390.223 188.616L489.417 245.886L495.042 242.617L495.151 203.912L476.979 196.411Z" fill="#FFD46B"/>
<path d="M390.354 142.523L395.978 139.255L410.906 155.01L405.281 158.279L390.354 142.523Z" fill="#FFE08E"/>
<path d="M405.281 158.278L410.906 155.01L426.202 160.269L420.578 163.538L405.281 158.278Z" fill="#E6AF42"/>
<path d="M420.578 163.538L426.202 160.269L443.17 176.283L437.545 179.551L420.578 163.538Z" fill="#FFE08E"/>
<path d="M437.545 179.551L443.17 176.283L461.154 178.819L455.53 182.088L437.545 179.551Z" fill="#E6AF42"/>
<path d="M455.53 182.088L461.154 178.819L476.979 196.411L471.355 199.679L455.53 182.088Z" fill="#FFE08E"/>
<path d="M471.355 199.679L476.979 196.411L495.151 203.912L489.527 207.18L471.355 199.679Z" fill="#E6AF42"/>
<path d="M489.527 207.181L495.151 203.912L495.042 242.617L489.417 245.886L489.527 207.181Z" fill="#E5AF43"/>
<path d="M462.622 218.5L446.788 204.092L428.804 201.624L411.852 180.164L396.53 183.916L381.622 161.344L375.997 164.613L375.906 196.895L475.1 254.165L480.724 250.896L480.811 220.293L462.622 218.5Z" fill="#3897F2"/>
<path d="M375.997 164.613L381.621 161.344L396.53 183.916L390.905 187.185L375.997 164.613Z" fill="#46A0FB"/>
<path d="M390.905 187.185L396.53 183.916L411.852 180.164L406.227 183.433L390.905 187.185Z" fill="#248BE6"/>
<path d="M406.227 183.433L411.852 180.164L428.804 201.624L423.18 204.893L406.227 183.433Z" fill="#46A0FB"/>
<path d="M423.18 204.893L428.804 201.624L446.788 204.092L441.164 207.361L423.18 204.893Z" fill="#248BE6"/>
<path d="M441.164 207.361L446.788 204.092L462.622 218.5L456.998 221.769L441.164 207.361Z" fill="#46A0FB"/>
<path d="M456.998 221.769L462.622 218.5L480.811 220.293L475.186 223.561L456.998 221.769Z" fill="#248BE6"/>
<path d="M475.186 223.561L480.811 220.293L480.724 250.896L475.1 254.165L475.186 223.561Z" fill="#3897F2"/>
</g>
<g clip-path="url(#clip6)">
<path d="M383.777 299.906L328.041 332.538L327.938 369.352L434.379 431.266L490.115 398.633L490.219 361.819L383.777 299.906Z" fill="#7BCC92"/>
<path d="M490.219 361.819L490.115 398.633L434.379 431.265L434.483 394.451L490.219 361.819Z" fill="#36C7CC"/>
<path d="M434.483 394.451L434.379 431.265L327.938 369.352L328.041 332.538L434.483 394.451Z" fill="#7BCC92"/>
<path d="M490.223 361.819L434.487 394.451L328.046 332.538L383.782 299.906L490.223 361.819Z" fill="#7BCC92"/>
<path d="M389.235 307.28C388.965 307.56 388.63 307.823 388.224 308.062C388.224 307.914 388.225 307.767 388.225 307.62C388.631 307.382 388.967 307.119 389.237 306.839C389.236 306.971 389.236 307.148 389.235 307.28Z" fill="#67D4D5"/>
<path d="M387.731 308.323C387.731 308.175 387.732 308.027 387.732 307.88C387.902 307.8 388.066 307.714 388.224 307.621C388.225 307.621 388.226 307.62 388.227 307.62C388.226 307.767 388.226 307.915 388.225 308.062C388.224 308.063 388.223 308.063 388.223 308.064C388.065 308.156 387.901 308.243 387.731 308.323Z" fill="#67D4D5"/>
<path d="M387.733 308.322C387.575 308.397 387.413 308.466 387.246 308.531C387.246 308.383 387.247 308.235 387.247 308.088C387.414 308.023 387.576 307.954 387.734 307.879C387.733 308.027 387.733 308.175 387.733 308.322Z" fill="#67D4D5"/>
<path d="M379.387 308.064C378.943 307.805 378.581 307.518 378.297 307.212L378.299 306.771C378.582 307.076 378.945 307.364 379.389 307.622C381.53 308.868 384.827 309.024 387.247 308.088C387.247 308.171 387.247 308.254 387.246 308.338C387.246 308.347 387.246 308.359 387.246 308.367C387.246 308.384 387.246 308.407 387.246 308.424C387.246 308.441 387.246 308.463 387.246 308.479C387.246 308.494 387.251 308.516 387.246 308.531C384.826 309.465 381.529 309.309 379.387 308.064Z" fill="#67D4D5"/>
<path d="M343.103 332.541L343.102 332.983C343.104 332.044 342.49 331.104 341.258 330.388C340.814 330.129 340.32 329.919 339.795 329.755L339.797 329.313C340.321 329.477 340.815 329.688 341.259 329.946C342.491 330.662 343.105 331.602 343.103 332.541Z" fill="#00A6A8"/>
<path d="M433.757 332.735L433.756 333.177L389.235 307.281L389.237 306.839L433.757 332.735Z" fill="#67D4D5"/>
<path d="M384.471 361.592L384.469 362.033L339.949 336.137L339.95 335.695L384.471 361.592Z" fill="#00A6A8"/>
<path d="M343.103 332.541L343.102 332.983C343.099 333.909 342.495 334.835 341.287 335.541C340.879 335.781 340.427 335.978 339.948 336.137L339.949 335.695C340.429 335.536 340.88 335.339 341.288 335.1C342.496 334.393 343.1 333.468 343.103 332.541Z" fill="#67D4D5"/>
<path d="M374.149 347.505L374.15 347.064C374.164 341.875 377.549 336.695 384.311 332.736L384.309 333.178C377.548 337.136 374.163 342.317 374.149 347.505Z" fill="#00A6A8"/>
<path d="M384.469 362.034C377.604 358.04 374.162 352.804 374.148 347.57L374.15 347.128C374.163 352.362 377.605 357.599 384.47 361.592C384.47 361.724 384.47 361.901 384.469 362.034Z" fill="#67D4D5"/>
<path d="M433.758 332.735L433.757 333.177C420.058 325.209 397.919 325.209 384.31 333.178L384.311 332.736C397.92 324.767 420.059 324.767 433.758 332.735Z" fill="#00A6A8"/>
<path d="M478.279 358.632L478.278 359.074L433.756 333.177L433.757 332.735L478.279 358.632Z" fill="#67D4D5"/>
<path d="M444.079 347.264L444.078 347.705C444.093 342.45 440.65 337.187 433.756 333.177L433.758 332.735C440.651 336.745 444.094 342.008 444.079 347.264Z" fill="#00A6A8"/>
<path d="M444.079 347.641C444.092 352.851 440.707 358.058 433.918 362.033C433.918 361.886 433.919 361.738 433.919 361.591C440.708 357.616 444.093 352.409 444.08 347.199C444.079 347.332 444.079 347.509 444.079 347.641Z" fill="#67D4D5"/>
<path d="M475.125 362.228L475.126 361.787C475.129 360.86 475.734 359.934 476.942 359.227C477.349 358.988 477.8 358.791 478.279 358.632L478.278 359.074C477.798 359.233 477.348 359.43 476.94 359.669C475.733 360.376 475.128 361.302 475.125 362.228Z" fill="#00A6A8"/>
<path d="M428.993 387.488L428.991 387.93L384.471 362.034L384.472 361.593L428.993 387.488Z" fill="#00A6A8"/>
<path d="M428.809 364.506C415.235 369.892 396.564 369.068 384.469 362.033L384.471 361.592C396.565 368.627 415.236 369.45 428.81 364.065C428.81 364.212 428.809 364.359 428.809 364.506Z" fill="#67D4D5"/>
<path d="M384.642 362.134C384.584 362.101 384.527 362.068 384.47 362.035L384.471 361.592C384.528 361.625 384.586 361.658 384.643 361.691C384.643 361.839 384.642 361.986 384.642 362.134Z" fill="#67D4D5"/>
<path d="M433.918 362.033C432.323 362.967 430.611 363.791 428.809 364.506C428.809 364.359 428.81 364.212 428.81 364.065C430.611 363.35 432.324 362.526 433.919 361.592C433.918 361.738 433.918 361.886 433.918 362.033Z" fill="#67D4D5"/>
<path d="M475.125 362.228L475.126 361.787C475.124 362.725 475.738 363.666 476.97 364.381C477.414 364.64 477.908 364.85 478.432 365.015L478.431 365.456C477.906 365.292 477.412 365.081 476.968 364.823C475.737 364.107 475.122 363.167 475.125 362.228Z" fill="#67D4D5"/>
<path d="M392.455 365.52C389.658 364.629 387.024 363.5 384.641 362.132C384.641 361.985 384.641 361.838 384.642 361.691C387.025 363.059 389.659 364.188 392.456 365.078C392.456 365.226 392.455 365.372 392.455 365.52Z" fill="#67D4D5"/>
<path d="M392.455 365.521C392.455 365.373 392.456 365.225 392.456 365.078C392.537 365.104 392.618 365.129 392.7 365.154C392.7 365.302 392.699 365.45 392.699 365.597C392.617 365.572 392.536 365.547 392.455 365.521Z" fill="#67D4D5"/>
<path d="M392.778 365.623C392.751 365.614 392.724 365.606 392.697 365.598C392.697 365.45 392.697 365.302 392.698 365.155C392.725 365.163 392.752 365.171 392.779 365.18C392.779 365.327 392.778 365.475 392.778 365.623Z" fill="#67D4D5"/>
<path d="M392.777 365.48C392.778 365.38 392.778 365.28 392.778 365.18C395.547 366.039 398.471 366.667 401.466 367.062C401.465 367.209 401.465 367.357 401.465 367.504C398.47 367.108 395.546 366.481 392.777 365.621C392.777 365.599 392.777 365.576 392.777 365.553C392.777 365.541 392.777 365.529 392.777 365.517C392.777 365.504 392.777 365.492 392.777 365.48Z" fill="#67D4D5"/>
<path d="M401.465 367.505C401.465 367.357 401.465 367.209 401.466 367.062C401.495 367.066 401.525 367.07 401.554 367.074C401.553 367.221 401.553 367.369 401.553 367.516C401.523 367.512 401.494 367.509 401.465 367.505Z" fill="#67D4D5"/>
<path d="M401.684 367.533C401.64 367.528 401.595 367.522 401.552 367.516C401.552 367.369 401.553 367.221 401.553 367.074C401.597 367.079 401.641 367.085 401.685 367.091C401.685 367.223 401.684 367.401 401.684 367.533Z" fill="#67D4D5"/>
<path d="M402.179 367.594C402.014 367.575 401.848 367.554 401.683 367.533L401.684 367.091C401.849 367.112 402.014 367.132 402.18 367.152C402.18 367.3 402.179 367.447 402.179 367.594Z" fill="#67D4D5"/>
<path d="M402.177 367.447C402.178 367.348 402.178 367.25 402.178 367.151C402.206 367.154 402.233 367.158 402.26 367.161C402.26 367.308 402.259 367.456 402.259 367.603C402.231 367.6 402.204 367.597 402.177 367.594C402.177 367.546 402.177 367.496 402.177 367.447Z" fill="#67D4D5"/>
<path d="M414.946 367.736C414.545 367.774 414.142 367.809 413.739 367.84C413.74 367.692 413.74 367.545 413.741 367.398C414.144 367.368 414.546 367.333 414.947 367.294C414.947 367.427 414.946 367.604 414.946 367.736Z" fill="#67D4D5"/>
<path d="M413.74 367.841C413.72 367.842 413.699 367.844 413.678 367.845C413.679 367.698 413.679 367.55 413.68 367.403C413.7 367.401 413.721 367.4 413.741 367.398C413.741 367.546 413.74 367.693 413.74 367.841Z" fill="#67D4D5"/>
<path d="M412.521 367.919C412.522 367.772 412.522 367.625 412.523 367.478C412.909 367.456 413.295 367.432 413.68 367.403C413.679 367.55 413.679 367.698 413.678 367.844C413.293 367.873 412.908 367.898 412.521 367.919Z" fill="#67D4D5"/>
<path d="M406.084 367.928C404.802 367.86 403.524 367.752 402.258 367.603C402.258 367.456 402.259 367.308 402.259 367.161C403.526 367.311 404.803 367.419 406.085 367.486C406.085 367.618 406.084 367.795 406.084 367.928Z" fill="#67D4D5"/>
<path d="M412.524 367.92C412.35 367.93 412.177 367.939 412.003 367.947L412.005 367.504C412.178 367.496 412.352 367.488 412.525 367.478C412.525 367.625 412.524 367.773 412.524 367.92Z" fill="#67D4D5"/>
<path d="M433.758 332.735C447.458 340.704 447.529 353.623 433.919 361.591C432.324 362.525 430.612 363.35 428.81 364.065C415.236 369.451 396.565 368.627 384.471 361.592C370.772 353.624 370.701 340.704 384.311 332.736C397.92 324.767 420.059 324.767 433.758 332.735Z" fill="#67D4D5"/>
<path d="M439.931 387.557L439.929 387.998C439.646 387.693 439.283 387.405 438.839 387.146C436.393 385.723 432.438 385.723 430.007 387.146C429.599 387.385 429.263 387.649 428.991 387.929L428.993 387.488C429.264 387.207 429.6 386.944 430.009 386.705C432.439 385.281 436.394 385.281 438.84 386.705C439.285 386.964 439.647 387.251 439.931 387.557Z" fill="#00A6A8"/>
<path d="M383.762 299.891L490.204 361.804L434.468 394.436L328.026 332.523L383.762 299.891ZM439.931 387.557L478.433 365.014C477.908 364.85 477.414 364.639 476.97 364.381C474.524 362.958 474.511 360.65 476.942 359.226C477.35 358.988 477.8 358.791 478.28 358.632L433.758 332.735L389.237 306.839C388.966 307.119 388.63 307.383 388.222 307.622C385.791 309.046 381.835 309.046 379.389 307.622C378.945 307.364 378.583 307.077 378.299 306.77L339.797 329.313C340.322 329.477 340.816 329.688 341.26 329.946C343.706 331.369 343.719 333.677 341.289 335.1C340.881 335.339 340.429 335.536 339.95 335.695L384.471 361.591C389.384 364.45 395.383 366.282 401.685 367.09C395.383 366.282 389.385 364.45 384.472 361.592L428.993 387.489C429.264 387.208 429.601 386.944 430.009 386.705C432.44 385.282 436.395 385.282 438.841 386.705C439.285 386.964 439.647 387.251 439.931 387.557Z" fill="#67D4D5"/>
<path d="M433.758 332.735C420.059 324.767 397.921 324.768 384.311 332.736C370.701 340.704 370.772 353.624 384.471 361.592L339.95 335.695C340.429 335.536 340.88 335.339 341.288 335.1C343.719 333.677 343.706 331.369 341.259 329.946C340.815 329.687 340.321 329.477 339.797 329.313L378.299 306.77C378.583 307.076 378.945 307.364 379.389 307.622C381.836 309.045 385.791 309.045 388.222 307.622C388.629 307.383 388.966 307.119 389.237 306.839L433.758 332.735Z" fill="#00A6A8"/>
<path d="M378.299 306.771L339.796 329.313C339.956 329.363 340.105 329.425 340.258 329.483L378.298 307.212L378.299 306.771Z" fill="#67D4D5"/>
<path d="M414.947 367.294C413.972 367.388 412.99 367.458 412.005 367.504C412.989 367.458 413.971 367.388 414.947 367.294Z" fill="#67D4D5"/>
<path d="M478.433 365.014L478.431 365.456L439.929 387.998L439.931 387.556L478.433 365.014Z" fill="#00A6A8"/>
<path d="M478.279 358.632C477.8 358.791 477.349 358.988 476.942 359.226C474.51 360.65 474.523 362.958 476.97 364.381C477.414 364.639 477.908 364.85 478.432 365.014L439.93 387.556C439.647 387.251 439.284 386.963 438.84 386.704C436.393 385.281 432.438 385.281 430.008 386.704C429.6 386.943 429.263 387.207 428.992 387.487L384.471 361.591C396.565 368.626 415.236 369.449 428.81 364.064C430.611 363.349 432.324 362.524 433.919 361.59C447.529 353.622 447.458 340.703 433.757 332.734L478.279 358.632Z" fill="#00A6A8"/>
<path d="M327.989 351.301L434.43 413.257L434.432 412.632L327.991 350.677L327.989 351.301Z" fill="#36C7CC"/>
<path d="M327.975 356.164L434.417 418.12L434.418 417.495L327.977 355.539L327.975 356.164Z" fill="#36C7CC"/>
<path d="M327.982 353.733L434.423 415.689L434.425 415.064L327.984 353.108L327.982 353.733Z" fill="#36C7CC"/>
<path d="M327.968 358.595L434.41 420.551L434.412 419.926L327.97 357.97L327.968 358.595Z" fill="#36C7CC"/>
<path d="M434.384 429.652L327.943 367.696L327.941 368.32L434.382 430.276L434.384 429.652Z" fill="#36C7CC"/>
<path d="M327.948 365.889L434.389 427.845L434.391 427.22L327.95 365.264L327.948 365.889Z" fill="#36C7CC"/>
<path d="M327.954 363.458L434.396 425.414L434.398 424.789L327.956 362.833L327.954 363.458Z" fill="#36C7CC"/>
<path d="M327.961 361.027L434.403 422.982L434.405 422.358L327.963 360.402L327.961 361.027Z" fill="#36C7CC"/>
<path d="M328.03 336.714L434.472 398.67L434.474 398.045L328.032 336.089L328.03 336.714Z" fill="#36C7CC"/>
<path d="M328.024 339.145L434.465 401.101L434.467 400.476L328.025 338.52L328.024 339.145Z" fill="#36C7CC"/>
<path d="M327.996 348.87L434.437 410.826L434.439 410.201L327.998 348.246L327.996 348.87Z" fill="#36C7CC"/>
<path d="M328.042 333.658L328.04 334.283L434.482 396.239L434.484 395.614L328.042 333.658Z" fill="#36C7CC"/>
<path d="M328.003 346.439L434.444 408.394L434.446 407.77L328.005 345.814L328.003 346.439Z" fill="#36C7CC"/>
<path d="M328.017 341.576L434.458 403.532L434.46 402.907L328.018 340.952L328.017 341.576Z" fill="#36C7CC"/>
<path d="M328.01 344.008L434.451 405.963L434.453 405.339L328.012 343.383L328.01 344.008Z" fill="#36C7CC"/>
<path d="M434.412 419.879L434.41 420.507L490.146 387.965L490.147 387.338L434.412 419.879Z" fill="#00A6A8"/>
<path d="M434.419 417.44L434.417 418.068L490.153 385.526L490.154 384.898L434.419 417.44Z" fill="#00A6A8"/>
<path d="M434.405 422.319L434.403 422.946L490.139 390.405L490.14 389.777L434.405 422.319Z" fill="#00A6A8"/>
<path d="M434.425 415.001L434.424 415.628L490.159 383.087L490.161 382.459L434.425 415.001Z" fill="#00A6A8"/>
<path d="M434.382 430.264L490.118 397.722L490.12 397.095L434.384 429.637L434.382 430.264Z" fill="#00A6A8"/>
<path d="M434.391 427.197L434.389 427.824L490.125 395.283L490.126 394.656L434.391 427.197Z" fill="#00A6A8"/>
<path d="M434.398 424.758L434.396 425.385L490.132 392.844L490.133 392.216L434.398 424.758Z" fill="#00A6A8"/>
<path d="M434.439 410.122L434.437 410.75L490.173 378.208L490.175 377.581L434.439 410.122Z" fill="#00A6A8"/>
<path d="M434.467 400.365L434.465 400.992L490.201 368.451L490.203 367.824L434.467 400.365Z" fill="#00A6A8"/>
<path d="M434.474 397.926L434.472 398.553L490.208 366.011L490.21 365.384L434.474 397.926Z" fill="#00A6A8"/>
<path d="M434.484 395.487L434.482 396.114L490.218 363.573L490.22 362.945L434.484 395.487Z" fill="#00A6A8"/>
<path d="M434.446 407.683L434.444 408.31L490.18 375.769L490.182 375.141L434.446 407.683Z" fill="#00A6A8"/>
<path d="M434.432 412.561L434.431 413.189L490.166 380.647L490.168 380.02L434.432 412.561Z" fill="#00A6A8"/>
<path d="M434.46 402.804L434.458 403.432L490.194 370.89L490.196 370.263L434.46 402.804Z" fill="#00A6A8"/>
<path d="M434.453 405.244L434.451 405.871L490.187 373.33L490.189 372.702L434.453 405.244Z" fill="#00A6A8"/>
<path d="M416.261 318.705L360.174 351.565L360.056 388.435L383.645 402.155L383.763 365.286L439.849 332.425L416.261 318.705Z" fill="#E0E0E2"/>
<path d="M383.763 365.286L360.174 351.565L360.056 388.435L383.645 402.155L383.763 365.286Z" fill="#D8D8DA"/>
</g>
<g clip-path="url(#clip7)">
<path d="M283.936 355.478C258.722 375.289 242.341 379.384 237.303 378.956C230.656 374.775 216.913 365.319 215.112 360.945C212.86 355.478 231.192 334.895 237.303 331.036C242.191 327.948 263.353 317.743 273.323 313.026L308.378 334.895C310.737 333.501 309.15 335.667 283.936 355.478Z" fill="url(#paint3_linear)" style="mix-blend-mode:multiply"/>
<path d="M258.025 296.827C253.427 299.594 248.039 303.42 253.811 301.854C242.873 305.746 260.133 300.59 260.133 300.617C260.182 298.052 251.618 304.237 249.758 301.854C249.588 297.838 255.066 298.201 249.758 295.137C238.837 288.831 237.664 270.139 226.815 276.444C221.589 279.481 215.953 278.467 215.783 282.446C213.964 284.767 213.066 292.633 213.07 295.137C213.07 295.122 210.466 299.503 210.466 299.488L214.832 300.617C227.439 297.902 225.457 299.762 215.783 301.854C215.92 303.564 211.091 304.01 212.078 305.645C212.103 305.687 206.726 307.84 206.752 307.882L213.07 366.027C213.088 369.359 215.301 372.691 219.705 375.234C228.511 380.318 242.744 380.318 251.494 375.233C255.868 372.691 258.044 369.359 258.025 366.027L264.331 307.986C264.526 307.672 264.706 307.356 264.869 307.038C264.938 306.902 265.005 306.766 265.069 306.629C265.77 305.124 254.119 305.781 254.124 304.232L258.025 296.827Z" fill="#51A7FF"/>
<mask id="mask1" mask-type="alpha" maskUnits="userSpaceOnUse" x="204" y="273" width="63" height="107">
<path d="M266.141 297.002C266.141 297.032 266.14 297.061 266.139 297.092C266.138 297.119 266.138 297.146 266.137 297.173C266.187 294.608 265.28 292.037 263.42 289.654C263.25 285.637 260.51 281.647 255.201 278.583C244.28 272.277 226.632 272.278 215.783 278.583C210.557 281.619 207.863 285.565 207.693 289.544C205.874 291.864 204.965 294.367 204.969 296.871C204.969 296.856 204.968 296.842 204.968 296.827L204.954 301.854C204.953 302.139 204.964 302.424 204.987 302.71C205.124 304.42 205.686 306.121 206.673 307.756C206.699 307.798 206.726 307.84 206.752 307.882L213.07 366.027C213.088 369.359 215.301 372.691 219.705 375.234C228.511 380.318 242.744 380.318 251.494 375.234C255.868 372.691 258.044 369.359 258.025 366.027L264.331 307.986C264.526 307.672 264.706 307.356 264.869 307.038C264.938 306.902 265.005 306.766 265.069 306.629C265.77 305.125 266.123 303.577 266.127 302.028L266.141 297.002Z" fill="#51A7FF"/>
</mask>
<g mask="url(#mask1)">
<path d="M240.724 370.35C244.659 355.648 247.972 319.617 247.972 287.106C248.938 284.207 252.693 278.326 259.982 277.995C269.094 277.581 273.028 302.223 269.922 331.42C266.816 360.618 262.881 369.108 262.467 376.148C262.053 383.189 257.083 389.608 247.972 396.028C238.861 402.447 212.562 381.118 206.971 372.835C201.38 364.552 205.936 361.446 212.562 367.244C219.189 373.042 237.335 383.018 240.724 370.35Z" fill="#1E87E3"/>
</g>
<path d="M266.137 297.173C266.227 292.553 263.218 287.912 257.113 284.387C245.129 277.468 225.762 277.468 213.856 284.387C207.922 287.836 204.962 292.352 204.969 296.871C204.969 296.856 204.968 296.842 204.968 296.827L204.954 301.854C204.941 306.417 207.952 310.988 213.983 314.47C225.966 321.388 245.333 321.388 257.238 314.469C263.153 311.032 266.114 306.534 266.127 302.029L266.141 297.002C266.141 297.059 266.138 297.116 266.137 297.173Z" fill="#57565C"/>
<path d="M266.141 297.002L266.127 302.029C266.114 306.534 263.154 311.032 257.239 314.469C245.333 321.388 225.967 321.388 213.983 314.47C207.953 310.988 204.941 306.417 204.954 301.854L204.968 296.827C204.955 301.391 207.967 305.961 213.998 309.443C225.981 316.361 245.347 316.361 257.253 309.443C263.168 306.005 266.128 301.507 266.141 297.002Z" fill="#3E3D43"/>
<path d="M252.72 286.939C262.262 292.448 262.312 301.381 252.832 306.89C243.352 312.399 227.931 312.399 218.39 306.89C208.847 301.381 208.797 292.449 218.277 286.94C227.757 281.43 243.178 281.43 252.72 286.939Z" fill="#2E2E30"/>
<path d="M257.172 290.061L257.155 296.093C257.164 292.869 255.036 289.639 250.774 287.178C242.305 282.288 228.618 282.288 220.204 287.178C216.024 289.607 213.932 292.786 213.923 295.97L213.94 289.937C213.949 286.754 216.041 283.575 220.221 281.146C228.635 276.256 242.322 276.256 250.791 281.145C255.053 283.606 257.181 286.836 257.172 290.061Z" fill="#2E2E30"/>
<path d="M219.178 297.195L219.195 291.163C219.202 288.753 220.786 286.347 223.949 284.508L223.932 290.54C220.768 292.379 219.184 294.785 219.178 297.195Z" fill="#010101"/>
<path d="M247.163 297.91L247.145 303.943L223.932 290.54L223.949 284.508L247.163 297.91Z" fill="#1D1D1F"/>
<path d="M250.425 282.569C258.69 287.34 258.735 295.078 250.522 299.85C242.31 304.623 228.952 304.622 220.687 299.85C212.421 295.078 212.377 287.341 220.589 282.568C228.802 277.796 242.159 277.796 250.425 282.569ZM224.025 297.911C230.435 301.612 240.794 301.612 247.163 297.91L223.949 284.508C217.58 288.209 217.614 294.21 224.025 297.911Z" fill="#3E3D43"/>
<path d="M263.429 290.079L263.412 296.111C263.4 300.217 260.702 304.316 255.312 307.448C244.463 313.753 226.814 313.753 215.894 307.448C210.398 304.275 207.654 300.11 207.665 295.952L207.683 289.92C207.671 294.078 210.415 298.243 215.911 301.416C226.831 307.72 244.48 307.72 255.329 301.415C260.72 298.283 263.417 294.184 263.429 290.079Z" fill="#3E3D43"/>
<path d="M255.204 278.583C266.124 284.888 266.181 295.111 255.332 301.416C244.483 307.721 226.834 307.721 215.914 301.416C204.993 295.111 204.936 284.888 215.785 278.583C226.634 272.278 244.283 272.277 255.204 278.583ZM220.323 298.853C228.793 303.743 242.479 303.743 250.893 298.853C259.307 293.963 259.263 286.035 250.793 281.146C242.325 276.256 228.637 276.256 220.224 281.146C211.81 286.035 211.855 293.963 220.323 298.853Z" fill="#57565C"/>
<path d="M222.753 301.106C222.68 301.064 222.598 301.025 222.508 300.991C221.355 300.56 220.262 300.052 219.251 299.468C218.239 298.884 217.359 298.252 216.61 297.586C216.551 297.533 216.484 297.486 216.411 297.444C215.853 297.121 214.928 297.103 214.347 297.441C213.86 297.724 213.785 298.165 214.163 298.501C215.022 299.266 216.032 299.992 217.195 300.663C218.356 301.333 219.611 301.916 220.935 302.411C221.516 302.629 222.278 302.584 222.765 302.302C223.346 301.964 223.312 301.428 222.753 301.106Z" fill="#2E2E30"/>
<path d="M219.296 282.321C219.294 282.327 219.292 282.334 219.292 282.338C219.298 282.31 219.296 282.28 219.29 282.252C219.288 282.246 219.288 282.242 219.283 282.239C219.275 282.214 219.26 282.188 219.238 282.164C219.213 282.136 219.183 282.111 219.144 282.089L217.731 281.275C217.527 281.157 217.195 281.157 216.991 281.275C216.939 281.303 216.903 281.338 216.877 281.374C216.853 281.411 216.84 281.449 216.84 281.488V281.516C216.84 281.516 216.84 281.516 216.84 281.518L216.784 300.421C216.836 300.451 216.888 300.483 216.939 300.513C217.023 300.564 217.108 300.614 217.194 300.663C217.57 300.88 217.956 301.088 218.351 301.286C218.643 301.434 218.942 301.575 219.242 301.711L219.298 282.306C219.298 282.31 219.298 282.317 219.296 282.321Z" fill="#ACABB1"/>
<path d="M216.994 281.706L216.94 300.514C216.888 300.484 216.836 300.452 216.784 300.422L216.841 281.519C216.841 281.517 216.841 281.517 216.841 281.517V281.493C216.841 281.508 216.843 281.526 216.847 281.541C216.851 281.556 216.858 281.571 216.864 281.584C216.873 281.599 216.886 281.616 216.899 281.631C216.899 281.633 216.901 281.633 216.901 281.633C216.916 281.65 216.936 281.667 216.957 281.682C216.968 281.69 216.981 281.699 216.994 281.706Z" fill="#E0E0E2"/>
<path d="M218.406 282.52L218.353 301.287C217.958 301.09 217.571 300.881 217.196 300.665C217.11 300.615 217.024 300.566 216.94 300.514L216.994 281.706L218.406 282.52Z" fill="#D8D8DA"/>
<path d="M219.298 282.306L219.242 301.711C218.942 301.576 218.643 301.434 218.351 301.286L218.405 282.518C218.609 282.636 218.942 282.636 219.146 282.518C219.197 282.488 219.234 282.456 219.26 282.42C219.279 282.392 219.29 282.364 219.296 282.334V282.321C219.298 282.317 219.298 282.31 219.298 282.306Z" fill="#C6C5CB"/>
<path d="M219.144 282.09C219.349 282.208 219.35 282.4 219.146 282.518C218.942 282.637 218.611 282.637 218.406 282.519L216.995 281.704C216.79 281.585 216.789 281.393 216.993 281.275C217.196 281.156 217.528 281.156 217.733 281.275L219.144 282.09Z" fill="#ACABB1"/>
</g>
<g clip-path="url(#clip8)">
<path d="M403.07 457.537C404.991 456.421 405.952 454.96 405.956 453.497L405.961 451.795C405.961 451.838 405.958 451.881 405.956 451.924C406.018 450.4 405.044 448.863 403.029 447.699L314.7 396.702C310.808 394.455 304.519 394.456 300.654 396.702L233.461 435.751L233.443 455.424L335.882 514.557V512.856V514.557L403.056 475.51C404.977 474.394 405.938 472.933 405.942 471.471L405.947 469.769C405.947 469.812 405.944 469.855 405.942 469.898C406.005 468.374 405.03 466.837 403.015 465.673L399.679 463.746L399.684 459.505L403.07 457.537Z" fill="#820018"/>
<path d="M335.882 512.856V514.557L233.443 455.424L233.448 453.723L335.882 512.856Z" fill="#D07400"/>
<path d="M403.016 465.673C406.908 467.92 406.928 471.562 403.062 473.809L335.883 512.856L233.449 453.723L300.641 414.676C304.507 412.428 310.794 412.428 314.686 414.676L403.016 465.673Z" fill="#FB6172"/>
<path d="M396.805 458.265L334.669 494.37V510.641L396.784 474.536C398.704 473.421 399.665 471.96 399.67 470.497L399.691 454.226C399.687 455.689 398.725 457.149 396.805 458.265Z" fill="#E0E0E2"/>
<path d="M403.029 447.699C406.921 449.946 406.94 453.589 403.075 455.835L335.882 494.883L233.461 435.751L300.654 396.702C304.519 394.456 310.808 394.455 314.7 396.702L403.029 447.699Z" fill="#F87D95"/>
<path d="M233.461 435.751L233.443 455.424L335.882 514.557V494.883L233.461 435.751Z" fill="#FB6172"/>
<path d="M403.07 457.537C404.991 456.421 405.952 454.96 405.956 453.497L405.961 451.795C405.957 453.258 404.996 454.719 403.075 455.835L335.882 494.883V514.557L403.056 475.51C404.977 474.394 405.938 472.933 405.942 471.471L405.947 469.769C405.943 471.231 404.982 472.692 403.061 473.808L337.199 512.09V495.819L403.07 457.537Z" fill="#AF495C"/>
<path d="M369.051 484.241L361.78 488.439L361.824 504.144L365.451 498.89L369.096 499.946L369.051 484.241Z" fill="#67D4D5"/>
<path d="M350.676 493.379L343.405 497.577L343.449 513.282L347.076 508.028L350.721 509.084L350.676 493.379Z" fill="#51A7FF"/>
</g>
<g clip-path="url(#clip9)">
<path d="M94.6303 524.18C92.0663 523.66 85.9126 521.753 85.9126 520.02L197.191 442.009L182.832 438.368C150.013 454.491 79.9641 486.111 70.5285 494.016C58.7341 503.897 45.914 499.217 42.8372 494.016C40.3758 489.855 142.492 440.102 188.473 412.365L251.035 435.248C230.181 445.996 199.242 466.764 182.832 476.334C162.32 488.295 99.7583 525.22 94.6303 524.18Z" fill="url(#paint4_linear)" style="mix-blend-mode:multiply"/>
<path d="M86.6435 501.472V519.992C86.6435 519.992 90.8205 525.937 98.6523 523.696C106.484 521.455 133.943 506.986 131.914 502.45C126.978 491.418 115.035 498.899 99.8587 500.1C91.5046 500.763 86.6435 501.472 86.6435 501.472Z" fill="#E5E5E5"/>
<mask id="mask2" mask-type="alpha" maskUnits="userSpaceOnUse" x="86" y="496" width="47" height="29">
<path d="M86.6435 501.472V519.992C86.6435 519.992 90.8205 525.937 98.6523 523.696C106.484 521.455 133.943 506.986 131.914 502.45C126.978 491.418 115.035 498.899 99.8587 500.1C91.5046 500.763 86.6435 501.472 86.6435 501.472Z" fill="#E5E5E5"/>
</mask>
<g mask="url(#mask2)">
<path d="M96.5487 521.49C95.2615 521.49 87.7885 517.694 84.2129 514.982C81.5313 526.371 95.476 526.913 98.1577 526.913C100.839 526.913 134.092 505.762 135.165 504.678C136.238 503.593 134.092 499.797 134.092 500.882C134.092 501.966 127.12 506.847 125.511 507.932C123.902 509.016 98.1577 521.49 96.5487 521.49Z" fill="#2E2E30"/>
</g>
<path d="M44.3504 477.66V496.18C44.3504 496.18 48.5275 502.125 56.3593 499.884C64.1911 497.643 92.347 482.782 89.621 478.638C82.7204 468.153 72.7425 475.087 57.5657 476.288C49.2116 476.952 44.3504 477.66 44.3504 477.66Z" fill="#E5E5E5"/>
<mask id="mask3" mask-type="alpha" maskUnits="userSpaceOnUse" x="44" y="472" width="46" height="29">
<path d="M44.3504 477.66V496.18C44.3504 496.18 48.5275 502.125 56.3593 499.884C64.1911 497.643 92.347 482.782 89.621 478.638C82.7204 468.153 72.7425 475.087 57.5657 476.288C49.2116 476.952 44.3504 477.66 44.3504 477.66Z" fill="#E5E5E5"/>
</mask>
<g mask="url(#mask3)">
<path d="M54.1781 497.628C51.6037 498.062 45.5967 493.832 42.9151 491.662C42.9151 501.424 50.9601 501.966 55.2508 502.509C59.5415 503.051 82.0676 490.035 87.9673 488.951C93.867 487.866 97.085 468.343 93.3307 474.308C89.5763 480.274 57.3961 497.086 54.1781 497.628Z" fill="#2E2E30"/>
</g>
<path d="M39.204 297.061L40.0421 313.159C40.0421 313.159 45.3291 316.732 45.9166 317.326C46.5041 317.922 59.5916 313.093 59.5916 311.572C59.5916 310.051 56.6852 300.658 56.6852 299.269C56.6852 297.88 55.7065 290.736 55.7065 290.736L39.204 297.061Z" fill="#FFB657"/>
<path d="M61.1391 161.903C56.256 161.239 39.6509 160.074 37.0409 193.24C35.909 207.613 34.905 230.734 35.6034 248.019C36.693 274.981 39.2378 297.692 39.2378 297.692C39.2378 297.692 43.3099 303.615 56.0705 293.486C56.0705 293.486 56.421 241.52 58.187 221.285C60.7971 191.386 71.2406 163.277 61.1391 161.903Z" fill="#FFB657"/>
<path d="M41.6955 191.386C41.6955 191.386 35.4392 238.06 40.6779 290.736C41.0504 294.481 41.4034 297.958 41.7387 301.204C41.6964 320.59 51.0198 315.719 56.361 313.382L41.6955 191.386Z" fill="#FFA834"/>
<path d="M60.7429 161.923C55.4128 161.199 37.2864 159.927 34.436 196.129C34.3767 196.885 34.259 198.469 34.259 198.469C35.3715 205.345 39.5011 208.258 48.5816 210.67C52.6148 184.667 69.9259 163.172 60.7429 161.923Z" fill="#51A7FF"/>
<mask id="mask4" mask-type="alpha" maskUnits="userSpaceOnUse" x="34" y="161" width="30" height="50">
<path d="M60.7429 161.923C55.4128 161.199 37.2864 159.927 34.436 196.129C34.3767 196.885 34.259 198.469 34.259 198.469C35.3715 205.345 39.5011 208.258 48.5817 210.67C52.6148 184.667 69.9259 163.172 60.7429 161.923Z" fill="#51A7FF"/>
</mask>
<g mask="url(#mask4)">
<path d="M38.0236 207.257C38.1903 208.424 42.1236 216.057 42.5236 217.257C44.0236 218.09 49.0236 220.257 57.0236 222.257C67.0236 224.757 66.5236 208.757 73.5236 195.257C80.5236 181.757 54.0236 198.757 51.5236 199.757C49.0236 200.757 51.5236 186.757 50.0236 188.757C48.5236 190.757 43.0236 187.757 44.0236 208.757C44.3337 215.269 38.3569 207.59 38.0236 207.257Z" fill="#1E87E3"/>
</g>
<path d="M43.7729 285.381L44.3503 477.66C44.3503 477.66 44.3503 483.874 55.2798 483.874C65.6954 483.874 65.4727 477.089 65.4727 477.089L74.4762 334.493L81.0322 338.148L86.6696 503.404C86.6696 503.404 89.8071 508.089 97.5119 508.089C105.477 508.089 106.811 501.304 106.811 501.304L114.256 298.009L43.7729 285.381Z" fill="#FFB657"/>
<mask id="mask5" mask-type="alpha" maskUnits="userSpaceOnUse" x="43" y="285" width="72" height="224">
<path d="M43.773 285.381L44.3504 477.66C44.3504 477.66 44.3504 483.874 55.2799 483.874C65.6955 483.874 65.4728 477.089 65.4728 477.089L74.4763 334.493L81.0323 338.148L86.6698 503.404C86.6698 503.404 89.8072 508.089 97.5121 508.089C105.478 508.089 106.811 501.304 106.811 501.304L114.256 298.009L43.773 285.381Z" fill="#FFB657"/>
</mask>
<g mask="url(#mask5)">
<path d="M106.203 514.44C104.415 518.236 101.161 518.344 102.448 488.408C102.864 478.735 110.367 421.057 108.028 402.722C98.3743 399.468 85.5891 404.134 86.3583 389.164C88.252 352.311 90.454 341.844 89.04 339.271C86.3583 334.39 85.2856 324.628 83.6766 330.594C82.0676 336.559 77.7769 354.998 77.2406 363.133C76.7043 371.267 74.0226 488.408 68.1229 488.408C62.2232 488.408 60.0779 481.9 62.7595 466.173C65.4412 450.446 72.9499 395.672 64.9049 394.587C56.8598 393.503 45.0604 388.079 44.5241 384.283C43.9878 380.487 39.1607 322.459 44.5241 317.578C49.8875 312.697 114.784 308.358 117.466 315.409C120.147 322.459 115.857 511.186 106.203 514.44Z" fill="#E9A54E"/>
</g>
<path d="M44.3224 468.46L44.3503 477.661C44.3503 477.661 44.3503 483.874 55.2798 483.874C65.6954 483.874 65.4727 477.089 65.4727 477.089L65.9671 469.258C59.2274 472.398 50.2586 472.328 44.3224 468.46Z" fill="#67D4D5"/>
<path d="M86.3631 492.666C86.3445 492.647 86.3208 492.631 86.3005 492.613L86.6687 503.405C86.6687 503.405 89.8062 508.09 97.511 508.09C105.477 508.09 106.81 501.305 106.81 501.305L107.134 492.454C101.034 495.746 93.1765 494.738 86.3631 492.666Z" fill="#67D4D5"/>
<path d="M109.235 486.51L116.172 298.699L41.8556 285.382V461.381C48.9745 467.879 58.5443 463.634 68.6433 464.281L74.2292 337.167L81.1424 341.02L84.1068 483.61C93.2703 488.21 98.9175 487.951 109.235 486.51Z" fill="#FB6172"/>
<mask id="mask6" mask-type="alpha" maskUnits="userSpaceOnUse" x="41" y="285" width="76" height="203">
<path d="M109.235 486.51L116.172 298.699L41.8556 285.382V461.381C48.9745 467.879 58.5443 463.634 68.6433 464.281L74.2292 337.167L81.1424 341.02L84.1068 483.61C93.2703 488.21 98.9175 487.951 109.235 486.51Z" fill="#FB6172"/>
</mask>
<g mask="url(#mask6)">
<path d="M93.7714 481.677C89.9098 481.243 89.8666 480.043 87.0062 478.778C87.3637 464.677 84.7493 347.623 84.7493 346.321C84.7493 344.694 90.649 345.236 90.649 344.152C90.649 343.61 80.9949 340.898 77.2406 339.271C73.4862 337.644 63.8322 330.594 63.8322 332.221C63.8322 333.522 68.4804 336.74 70.8046 338.186C70.2682 338.367 69.7319 340.356 69.7319 340.356L70.8046 342.525L71.3409 346.321V352.287C70.447 364.76 66.6021 461.381 65.7439 461.381C64.6712 461.381 54.0348 463.975 50.2804 462.348C47.277 461.046 44.1912 458.113 40.6157 455.582C39.543 455.221 38.2538 454.873 38.6828 461.381C39.2192 469.516 67.5865 467.18 71.3409 467.18C74.3444 467.18 76.3467 362.048 76.1679 344.152C77.7769 343.429 80.9949 343.61 80.9949 350.117C80.9949 356.625 82.7827 469.989 80.9949 482.644C80.3122 487.476 86.8946 488.739 110.493 491.342C139.992 494.596 129.802 313.24 129.802 304.02C129.802 294.801 47.2058 286.666 41.8424 286.666C36.479 286.666 32.2705 289.031 51.0252 301.492C71.0369 314.788 104.487 309.7 109.314 308.073C111.285 307.409 112.089 314.189 111.732 315.997C111.732 341.918 107.623 479.409 106.336 480.711C104.727 482.338 98.5985 482.219 93.7714 481.677Z" fill="#AF495C"/>
</g>
<path d="M41.4162 291.572C41.4162 291.572 40.2911 263.46 40.7288 236.662C41.0962 214.175 41.6956 205.806 41.6956 194.177C41.6956 168.012 52.7698 161.739 61.1392 161.903C61.1392 161.903 94.6506 172.041 120.515 195.231L115.913 301.572C106.512 314.111 59.3123 310.213 41.4162 291.572Z" fill="#51A7FF"/>
<mask id="mask7" mask-type="alpha" maskUnits="userSpaceOnUse" x="40" y="161" width="81" height="148">
<path d="M41.4162 291.572C41.4162 291.572 40.2911 263.46 40.7288 236.662C41.0962 214.175 41.6956 205.806 41.6956 194.177C41.6956 168.012 52.7698 161.739 61.1392 161.903C61.1392 161.903 94.6506 172.041 120.515 195.231L115.913 301.572C106.512 314.111 59.3123 310.213 41.4162 291.572Z" fill="#51A7FF"/>
</mask>
<g mask="url(#mask7)">
<path d="M102.448 186.337L113.175 193.929C113.175 200.003 107.812 206.584 105.13 209.114C103.164 212.007 98.6941 219.202 96.5487 224.842C94.4034 230.482 94.5822 286.847 94.9397 314.324C96.5487 315.047 102.448 316.06 113.175 314.324C126.584 312.155 134.629 206.945 136.238 190.133C137.847 173.321 60.6142 160.848 59.5416 161.39C58.4689 161.933 68.1229 166.271 69.7319 167.898C71.0191 169.2 92.0793 180.733 102.448 186.337Z" fill="#1E87E3"/>
</g>
<path d="M108.493 122.295C108.493 122.295 110.016 150.149 103.298 155.141C96.5808 160.132 64.6974 156.857 55.2511 140.022C45.8048 123.186 50.986 91.3812 71.9882 87.9271C96.519 83.8929 109.957 97.2763 108.493 122.295Z" fill="#FFB657"/>
<path d="M72.6645 147.93L67.088 176.719C67.088 176.719 76.4149 186.912 93.7701 179.613C93.7701 179.613 95.3786 157.454 96.9448 154.081C98.511 150.709 72.6645 147.93 72.6645 147.93Z" fill="#FFB657"/>
<mask id="mask8" mask-type="alpha" maskUnits="userSpaceOnUse" x="50" y="87" width="59" height="96">
<path d="M108.493 122.295C108.493 122.295 110.016 150.149 103.298 155.141C96.5808 160.132 64.6974 156.857 55.2511 140.022C45.8048 123.186 50.986 91.3812 71.9882 87.9271C96.519 83.8929 109.957 97.2763 108.493 122.295Z" fill="#FFB657"/>
<path d="M72.6645 147.93L67.088 176.719C67.088 176.719 76.4149 186.912 93.7701 179.613C93.7701 179.613 95.3786 157.454 96.9448 154.081C98.511 150.709 72.6645 147.93 72.6645 147.93Z" fill="#FFB657"/>
</mask>
<g mask="url(#mask8)">
<path d="M68.123 178.202C69.732 183.083 89.791 188.615 92.7944 189.048L121.22 136.986C118.717 125.959 112.961 103.579 109.957 102.277C106.203 100.65 104.058 111.497 104.058 114.208C104.058 116.92 105.667 122.343 105.13 125.597C104.594 128.851 106.203 133.19 105.13 135.901C104.058 138.613 102.448 139.697 100.303 140.24C98.5869 140.674 96.5488 156.509 87.4311 157.594C89.2189 157.956 92.2581 158.57 92.2581 160.306C92.2581 162.475 92.7944 177.66 90.6491 179.829C88.9328 181.564 84.7494 185.252 68.123 178.202Z" fill="#FFA834"/>
</g>
<path d="M52.9424 100.403C47.7367 108.979 45.2207 119.091 53.2954 137.367C58.231 148.538 67.5402 157.139 67.5402 157.139C67.5402 157.139 72.2751 161.605 80.6335 158.743C81.4217 158.473 88.3112 145.003 88.8996 142.33C88.8996 142.33 81.7307 129.776 88.8996 124.892C97.0938 119.31 98.9977 139.298 98.9977 139.298L100.733 118.372C100.733 118.372 110.581 112.077 109.87 104.668C108.491 90.3113 70.9536 70.7308 52.9424 100.403Z" fill="#3E3D43"/>
<mask id="mask9" mask-type="alpha" maskUnits="userSpaceOnUse" x="48" y="84" width="62" height="76">
<path d="M52.9424 100.403C47.7367 108.979 45.2207 119.091 53.2954 137.367C58.231 148.538 67.5402 157.139 67.5402 157.139C67.5402 157.139 72.2751 161.605 80.6335 158.743C81.4217 158.473 88.3112 145.003 88.8996 142.33C88.8996 142.33 81.7307 129.776 88.8996 124.892C97.0938 119.31 98.9977 139.298 98.9977 139.298L100.733 118.372C100.733 118.372 110.581 112.077 109.87 104.668C108.491 90.3113 70.9536 70.7308 52.9424 100.403Z" fill="#3E3D43"/>
</mask>
<g mask="url(#mask9)">
<path d="M35.5236 94.2569C30.5236 96.2569 22.5236 94.2569 22.0236 94.2569C15.8569 92.9235 6.72358 87.6569 19.5236 77.2569C35.5236 64.2569 53.0236 83.2569 50.5236 85.7569C48.0236 88.2569 40.5236 92.2569 35.5236 94.2569Z" fill="#1D1D1F"/>
</g>
<path d="M122.1 196.464C119.302 192.163 108.05 189.209 102.829 207.201C100.212 216.216 101.371 260.356 101.176 265.189C100.941 270.987 101.503 289.35 110.201 294.183C123.398 298.142 134.363 296.115 141.128 289.35C153.693 276.786 155.625 265.189 155.625 265.189C155.625 265.189 148.86 261.323 141.128 256.49C141.128 256.49 122.1 289.403 122.1 262.289C122.102 235.177 127.369 204.562 122.1 196.464Z" fill="#FFB657"/>
<path d="M145.776 234.232C141.992 236.522 138.524 254.268 137.263 262.854L152.398 274.303C156.182 263.49 163.939 240.72 164.695 236.14C165.641 230.416 150.506 231.37 145.776 234.232Z" fill="#FFB657"/>
<path d="M125.61 238.591C126.124 219.335 126.232 202.948 122.817 196.942C119.829 191.687 107.131 183.122 101.169 204.534C99.7228 209.729 99.2772 222.739 99.5936 237.985C108.437 241.598 115.155 242.084 125.61 238.591Z" fill="#51A7FF"/>
<mask id="mask10" mask-type="alpha" maskUnits="userSpaceOnUse" x="99" y="190" width="27" height="51">
<path d="M125.61 238.591C126.124 219.335 126.232 202.948 122.817 196.942C119.829 191.687 107.131 183.122 101.169 204.534C99.7228 209.729 99.2772 222.739 99.5936 237.985C108.437 241.598 115.155 242.084 125.61 238.591Z" fill="#51A7FF"/>
</mask>
<g mask="url(#mask10)">
<path d="M94.7484 235.688C93.4821 236.122 94.2208 242.376 94.7484 245.45C95.276 246.173 99.6027 248.053 112.688 249.788C129.045 251.957 139.112 235.036 140.125 219.418C142.236 186.879 109.522 187.422 105.301 187.964C101.08 188.506 114.271 195.014 120.075 200.979C123.595 204.597 122.713 216.707 122.713 221.588C122.713 225.492 115.15 227.734 112.688 228.095C116.909 229.18 121.394 225.926 120.075 231.349C119.051 235.558 117.965 238.399 112.688 240.026C107.412 241.653 96.3313 235.146 94.7484 235.688Z" fill="#1E87E3"/>
</g>
<path d="M83.1403 120.716C72.3543 123.32 54.5575 120.716 47.0073 119.089V106.616C52.0407 107.339 65.0199 108.677 76.6687 108.243C88.3176 107.809 102.735 97.939 108.487 93.0581L110.105 104.447C105.611 108.785 93.9263 118.113 83.1403 120.716Z" fill="#010101"/>
<path d="M22.1994 150.002V104.447H26.5138V150.002H22.1994Z" fill="#FB6172"/>
<mask id="mask11" mask-type="alpha" maskUnits="userSpaceOnUse" x="22" y="104" width="5" height="47">
<path d="M22.1996 150.002V104.447H26.514V150.002H22.1996Z" fill="#FB6172"/>
</mask>
<g mask="url(#mask11)">
<path d="M25.5474 148.821V104.989H27.4803V148.821H25.5474Z" fill="#AF495C"/>
</g>
<path d="M85.2975 113.666C62.6469 111.136 17.6693 105.857 18.9637 104.989L69.1185 76.2463L131.138 83.2965L85.2975 113.666Z" fill="#3E3D43"/>
<path d="M131.138 81.127V83.2962L18.9637 104.989V102.82L131.138 81.127Z" fill="#3E3D43"/>
<path d="M85.2975 111.497C62.6469 108.966 17.6693 103.688 18.9637 102.82L69.1185 74.0769L131.138 81.1271L85.2975 111.497Z" fill="#57565C"/>
<ellipse cx="24.3567" cy="153.255" rx="5.39299" ry="5.4232" fill="#AF495C"/>
<mask id="mask12" mask-type="alpha" maskUnits="userSpaceOnUse" x="18" y="147" width="12" height="12">
<ellipse cx="24.3567" cy="153.255" rx="5.39299" ry="5.42319" fill="#FB6172"/>
</mask>
<g mask="url(#mask12)">
<ellipse cx="24.1433" cy="151.628" rx="4.29069" ry="4.28246" fill="#FB6172"/>
</g>
<path d="M132.43 241.993L134.363 245.859L157.558 249.725L171.089 211.066L169.156 207.2L155.625 245.859L132.43 241.993Z" fill="#1D1D1F"/>
<path d="M155.625 245.859L132.43 241.993L145.961 205.268L169.156 207.201L155.625 245.859Z" fill="#2E2E30"/>
<path d="M135.33 240.06L146.927 208.167L165.29 210.1L153.692 242.96L135.33 240.06Z" fill="#67D4D5"/>
<path d="M149.096 212.197L145.42 223.446L153.025 224.114L156.58 213.018L149.096 212.197Z" fill="#AF495C"/>
<path d="M143.108 229.562L138.049 239.789L153.557 242.512L157.604 230.922L143.108 229.562Z" fill="#1E87E3"/>
<path d="M148.396 211.098L144.72 222.346L152.325 223.014L155.88 211.919L148.396 211.098Z" fill="#FB6172"/>
<path d="M141.592 228.375L137.326 238.455L152.445 241.234L156.67 229.783L141.592 228.375Z" fill="#51A7FF"/>
<path d="M147.894 209.133L136.296 240.06H135.33L146.927 208.167L165.29 210.1V211.066L147.894 209.133Z" fill="#00A6A8"/>
</g>
<defs>
<linearGradient id="paint0_linear" x1="361.694" y1="271.335" x2="482.116" y2="168.631" gradientUnits="userSpaceOnUse">
<stop/>
<stop offset="1" stop-opacity="0"/>
</linearGradient>
<linearGradient id="paint1_linear" x1="336.302" y1="471.789" x2="380.366" y2="402.557" gradientUnits="userSpaceOnUse">
<stop/>
<stop offset="0.708333" stop-opacity="0"/>
</linearGradient>
<linearGradient id="paint2_linear" x1="425.738" y1="394.078" x2="469.803" y2="324.846" gradientUnits="userSpaceOnUse">
<stop/>
<stop offset="0.71875" stop-opacity="0"/>
</linearGradient>
<linearGradient id="paint3_linear" x1="232.157" y1="361.91" x2="279.433" y2="332.644" gradientUnits="userSpaceOnUse">
<stop stop-opacity="0.87"/>
<stop offset="0.625" stop-opacity="0"/>
</linearGradient>
<linearGradient id="paint4_linear" x1="42.8372" y1="497.136" x2="180.397" y2="436.176" gradientUnits="userSpaceOnUse">
<stop/>
<stop offset="1" stop-opacity="0"/>
</linearGradient>
<clipPath id="clip0">
<rect x="511.786" y="326.451" width="73.7316" height="75.063" fill="white"/>
</clipPath>
<clipPath id="clip1">
<rect x="220.138" y="0.349609" width="342.995" height="361.867" fill="white"/>
</clipPath>
<clipPath id="clip2">
<rect x="212.203" y="53.2676" width="320.867" height="320.867" fill="white"/>
</clipPath>
<clipPath id="clip3">
<rect x="280.089" y="0.349609" width="121.775" height="121.775" fill="white"/>
</clipPath>
<clipPath id="clip4">
<rect x="376.82" y="53.2676" width="193.293" height="191.36" fill="white"/>
</clipPath>
<clipPath id="clip5">
<rect x="375.048" y="118.859" width="135.305" height="135.305" fill="white"/>
</clipPath>
<clipPath id="clip6">
<rect x="332.924" y="283.832" width="158.423" height="163.493" fill="white"/>
</clipPath>
<clipPath id="clip7">
<rect x="191.383" y="273.854" width="102.693" height="105.194" fill="white"/>
</clipPath>
<clipPath id="clip8">
<rect x="240.676" y="368.528" width="168.417" height="172.518" fill="white"/>
</clipPath>
<clipPath id="clip9">
<rect x="0.0229492" y="70.5732" width="191.36" height="454.24" fill="white"/>
</clipPath>
</defs>
</svg>
