<svg width="740" height="634" viewBox="0 0 740 634" fill="none" xmlns="http://www.w3.org/2000/svg">
<path d="M263.503 520.166C254.916 523.029 234.555 521.359 225.448 520.166L41.3106 414.793C35.672 411.503 25.0293 401.397 27.5667 387.295C30.1041 373.194 42.7206 362.383 48.7117 358.74L221.749 257.914C293.877 216.197 443.278 129.943 463.859 118.662C484.44 107.381 509.791 112.316 519.893 116.194L677.776 206.444C682.945 209.499 695.538 217.795 704.56 226.538C715.837 237.467 712.665 246.28 711.256 254.389C710.128 260.875 700.245 270.725 695.444 274.839L282.043 513.333C279.441 514.418 272.09 517.303 263.503 520.166Z" fill="#DE5E78"/>
<mask id="mask0" mask-type="alpha" maskUnits="userSpaceOnUse" x="27" y="111" width="686" height="411">
<path d="M263.503 520.166C254.916 523.029 234.555 521.359 225.448 520.166L41.3106 414.793C35.672 411.503 25.0293 401.397 27.5667 387.295C30.1041 373.194 42.7206 362.383 48.7117 358.74L221.749 257.914C293.877 216.197 443.278 129.943 463.859 118.662C484.44 107.381 509.791 112.316 519.893 116.194L677.776 206.444C682.945 209.499 695.538 217.795 704.56 226.538C715.837 237.467 712.665 246.28 711.256 254.389C710.128 260.875 700.245 270.725 695.444 274.839L282.043 513.333C279.441 514.418 272.09 517.303 263.503 520.166Z" fill="#DE5E78"/>
</mask>
<g mask="url(#mask0)">
<path d="M703.886 237.687C710.675 228.994 694.653 215.955 692.48 214.869C735.229 229.437 819.058 210.059 555.662 393.613C344.945 540.455 240.994 542.086 215.359 524.546C215.268 521.649 225.653 525.376 227.825 522.551C230.541 519.019 247.718 524.546 261.134 515.146C269.777 509.091 269.233 501.885 273.394 496.635C275.692 493.735 391.598 427.116 448.624 393.613L643.872 280.607C661.613 269.198 698.454 244.641 703.886 237.687Z" fill="#B24A5D"/>
<path d="M33.9214 386.868C32.6842 387.487 28.7971 384.924 28.3554 384.217C15.7857 391.251 -5.5014 398.479 9.90818 371.118C29.1702 336.916 455.412 102.868 462.707 97.9524C470.001 93.0365 524.288 110.549 498.796 112.393C478.402 113.868 466.761 118.455 463.491 120.565L162.035 295.39C137.826 309.561 83.453 341.209 59.6327 354.431C29.8573 370.959 33.9214 374.76 33.2148 376.35C32.5082 377.941 35.1586 386.25 33.9214 386.868Z" fill="#F26681"/>
</g>
<path d="M248.333 488.564C234.767 489.817 225.462 484.389 222.505 481.518L119.352 420.778C97.7899 409.742 54.0611 385.415 51.644 376.402C49.2268 367.39 58.1617 360.925 62.9314 358.819C193.929 282.733 459.417 128.629 473.394 120.906C487.371 113.183 498.741 115.358 502.679 117.411C510.888 121.322 528.503 129.894 533.296 132.891C539.286 136.636 534.46 136.968 529.885 142.544C526.224 147.005 529.69 150.451 531.881 151.616C560.279 168.261 618.971 202.783 626.559 207.709C635.988 213.832 643.525 210.331 650.48 207.1L650.602 207.044C657.591 203.798 665.328 208.875 682.134 220.609C695.578 229.997 687.248 239.942 681.403 243.74L274.42 479.952C271.377 482.301 261.898 487.312 248.333 488.564Z" fill="#36C7CC"/>
<path d="M607.327 178.906C607.993 179.416 608.045 180.376 607.988 180.792C606.91 181.419 605.565 181.053 605.027 180.792C597.705 176.824 582.675 168.373 581.127 166.315C579.579 164.258 581.282 164.152 582.327 164.356L602.357 176.04C603.736 176.783 606.661 178.397 607.327 178.906Z" fill="#AA475A"/>
<path d="M582.103 165.107C581.298 164.965 581.136 165.837 581.155 166.291C578.078 164.16 580.564 163.332 582.103 163.628C583.333 163.865 598.432 173.394 605.828 178.128C602.554 176.333 595.427 172.376 593.107 170.908C590.208 169.073 583.108 165.285 582.103 165.107Z" fill="#8B3848"/>
<path d="M618.369 187.152C618.02 187.927 619.03 188.767 619.579 189.09C613.284 186.91 617.062 187.152 617.255 185.36C617.449 183.568 624.808 184.343 624.712 186.62C624.615 188.896 621.564 189.719 622.484 188.411C623.404 187.104 618.805 186.184 618.369 187.152Z" fill="#AA475A"/>
<path d="M618.339 185.901C616.709 186.905 617.66 188.085 618.339 188.549C614.595 188.357 614.978 185.675 617.747 184.299C620.516 182.922 623.529 184.577 624.486 185.901C625.253 186.96 624.167 188.166 623.529 188.636C623.581 188.404 623.605 187.779 623.285 187.138C622.884 186.337 620.376 184.647 618.339 185.901Z" fill="#8B3848"/>
<path d="M149.701 471.593C150.343 474.192 153.481 473.146 154.021 473.146C154.932 473.484 156.208 474.267 154.021 474.699C151.311 475.235 150.258 474.542 148.99 473.707L148.958 473.686C147.676 472.842 146.9 469.669 147.001 467.744C147.103 465.82 149.094 465.111 149.937 465.415C150.612 465.658 152.131 467.497 152.806 468.386V469.669C151.974 468.757 150.234 466.927 149.937 466.9C149.566 466.867 149.06 468.993 149.701 471.593Z" fill="#B14B5E"/>
<path d="M101.122 443.414H103.037C102.301 443.62 100.928 444.137 101.325 444.561C101.722 444.984 103.078 445.377 103.707 445.52C104.225 445.35 105.268 445.112 105.294 445.52C105.327 446.031 104.268 447.572 103.707 447.473C103.258 447.393 100.945 445.798 99.8456 445.01V438.716H103.356L105.818 441.772L105.59 443.414L104.268 441.772L102.718 440.358H101.122V443.414Z" fill="#B14B5E"/>
<path d="M113.139 447.078C113.723 444.604 117.16 445.217 118.806 445.832L129.39 452.312C139.973 458.792 140.528 459.565 141.539 461.425C142.549 463.285 140.407 466.762 139.518 466.884C138.806 466.981 135.691 465.118 134.222 464.175L134.99 463.244C135.637 463.366 137.028 463.625 137.416 463.689C137.804 463.754 137.092 462.8 136.688 462.314C131.339 459.08 120.519 452.496 120.034 452.044C119.427 451.477 118.247 451.72 118.247 452.403C118.247 452.949 120.786 455.06 122.055 456.047L121.529 456.613L118.247 454.765C116.301 453.233 112.555 449.551 113.139 447.078Z" fill="#B14B5E"/>
<path d="M118.744 448.901C118.937 449.507 120.398 450.361 120.947 450.864C126.757 454.231 138.122 461.308 138.37 461.473C138.68 461.68 140.195 462.196 140.539 461.267C140.815 460.523 140.425 459.648 140.195 459.303C134.548 455.664 122.945 448.171 121.705 447.317C120.156 446.249 119.054 447.041 118.744 447.558C118.434 448.074 118.503 448.143 118.744 448.901Z" fill="#943D4D"/>
<path d="M101.296 440.314V443.217H99.7189V440.314H101.296Z" fill="#943D4D"/>
<path d="M149.752 466.85V471.601H148.138V466.85H149.752Z" fill="#943D4D"/>
<path d="M214.915 504.964C217.156 506.565 217.615 508.766 216.665 509.866C215.339 511.403 214.915 510.467 212.814 509.316C210.713 508.165 211.164 506.014 211.264 505.464C211.364 504.914 212.114 502.963 214.915 504.964Z" fill="#943D4D"/>
<path d="M206.534 500.077C208.775 501.678 209.233 503.879 208.284 504.98C206.958 506.516 206.534 505.58 204.433 504.429C202.332 503.279 202.783 501.128 202.883 500.577C202.983 500.027 203.733 498.076 206.534 500.077Z" fill="#943D4D"/>
<path d="M190.183 490.716C192.424 492.317 192.883 494.518 191.933 495.618C190.608 497.155 190.183 496.219 188.082 495.068C185.981 493.917 186.432 491.766 186.532 491.216C186.632 490.666 187.382 488.715 190.183 490.716Z" fill="#943D4D"/>
<path d="M182.213 485.881C184.454 487.482 184.913 489.683 183.963 490.783C182.637 492.32 182.213 491.384 180.112 490.233C178.011 489.083 178.462 486.932 178.562 486.381C178.662 485.831 179.412 483.88 182.213 485.881Z" fill="#943D4D"/>
<path d="M173.421 480.943C175.662 482.544 176.12 484.745 175.171 485.845C173.845 487.382 173.421 486.446 171.32 485.295C169.219 484.144 169.67 481.993 169.77 481.443C169.87 480.893 170.62 478.942 173.421 480.943Z" fill="#943D4D"/>
<path d="M82.2498 428.28C84.4906 429.881 84.9494 432.082 83.9998 433.183C82.6742 434.719 82.2498 433.783 80.1489 432.633C78.048 431.482 78.4987 429.331 78.5987 428.781C78.6987 428.23 79.4489 426.279 82.2498 428.28Z" fill="#943D4D"/>
<path d="M74.2414 423.489C76.4822 425.09 76.941 427.291 75.9914 428.391C74.6658 429.928 74.2414 428.992 72.1405 427.841C70.0396 426.69 70.4903 424.539 70.5903 423.989C70.6903 423.439 71.4404 421.488 74.2414 423.489Z" fill="#943D4D"/>
<path d="M66.014 419.099C68.2547 420.7 68.7135 422.901 67.764 424.002C66.4384 425.538 66.014 424.602 63.9131 423.451C61.8122 422.301 62.2628 420.15 62.3629 419.599C62.4629 419.049 63.213 417.098 66.014 419.099Z" fill="#943D4D"/>
<path d="M57.5666 414.051C59.8074 415.652 60.2662 417.853 59.3166 418.954C57.991 420.49 57.5666 419.554 55.4657 418.403C53.3648 417.253 53.8155 415.102 53.9155 414.551C54.0155 414.001 54.7656 412.05 57.5666 414.051Z" fill="#943D4D"/>
<path d="M49.7415 409.332C51.9823 410.933 52.4411 413.134 51.4916 414.235C50.1659 415.771 49.7415 414.835 47.6406 413.685C45.5397 412.534 45.9904 410.383 46.0904 409.833C46.1904 409.282 46.9406 407.331 49.7415 409.332Z" fill="#943D4D"/>
<path d="M41.4774 404.211C43.7181 405.812 44.1769 408.013 43.2274 409.114C41.9018 410.65 41.4774 409.714 39.3765 408.563C37.2756 407.413 37.7262 405.262 37.8262 404.711C37.9263 404.161 38.6764 402.21 41.4774 404.211Z" fill="#943D4D"/>
<path d="M450.616 404.432C448.218 406.351 448.702 409.586 449.243 410.963C451.074 412.8 453.431 412.103 454.38 411.525C470.114 402.34 503.105 381.672 504.082 381.141C505.303 380.478 508.336 377.695 507.074 375.042C505.813 372.388 502.242 373.392 500.615 374.225C484.948 383.495 453.015 402.514 450.616 404.432Z" fill="#9E4153"/>
<path d="M451.633 404.524C449.257 406.42 449.736 409.616 450.272 410.978C452.087 412.793 454.422 412.104 455.362 411.532C470.952 402.457 503.642 382.037 504.609 381.512C505.819 380.857 508.824 378.107 507.574 375.485C506.324 372.864 502.787 373.855 501.174 374.679C485.65 383.837 454.009 402.629 451.633 404.524Z" fill="#B34B60"/>
<path d="M454.303 405.8C455.88 404.515 456.519 405.697 456.642 406.448C456.717 406.843 456.586 407.875 455.459 408.844C454.332 409.814 453.505 409.38 453.232 409.042C452.932 408.497 452.725 407.085 454.303 405.8Z" fill="#9E4153"/>
<path d="M566.304 336.268C563.307 338.593 563.297 341.159 563.667 342.151C564.388 345.197 567.066 345.45 568.315 345.196L617.427 316.679C619.208 315.525 622.242 312.484 620.133 309.55C618.024 306.615 613.011 308.834 610.768 310.311C597.195 317.994 569.3 333.942 566.304 336.268Z" fill="#9E4153"/>
<path d="M567.315 336.412C564.374 338.7 564.365 341.225 564.728 342.201C565.436 345.198 568.064 345.447 569.289 345.197L617.491 317.138C619.238 316.003 622.216 313.011 620.146 310.124C618.076 307.236 613.156 309.42 610.955 310.873C597.634 318.433 570.256 334.124 567.315 336.412Z" fill="#B74C61"/>
<path d="M569.264 338.605C566.323 340.893 566.313 343.418 566.676 344.394C567.384 347.391 570.012 347.64 571.238 347.39L619.439 319.331C621.187 318.196 624.164 315.204 622.095 312.317C620.025 309.429 615.105 311.613 612.904 313.066C599.582 320.626 572.205 336.317 569.264 338.605Z" fill="#AF495C"/>
<path d="M432.517 321.707C414.435 332.149 412.226 333.346 404.758 337.28C397.861 340.92 393.175 342.353 389.865 343.196C385.486 344.313 381.775 344.766 377.049 344.766C372.324 344.765 368.612 344.308 364.242 343.193C360.941 342.35 356.28 340.916 349.415 337.275C341.996 333.337 339.799 332.141 321.834 321.697C303.869 311.252 301.806 309.974 295.034 305.662C288.778 301.674 286.318 298.969 284.874 297.054C282.965 294.518 282.189 292.366 282.204 289.628C282.219 286.89 283.014 284.741 284.956 282.207C286.422 280.292 288.911 277.582 295.216 273.598C302.032 269.284 304.104 268.008 322.185 257.566C340.27 247.122 342.48 245.926 349.948 241.991C356.844 238.351 361.531 236.917 364.84 236.076C369.219 234.959 372.931 234.505 377.656 234.506C382.381 234.506 386.093 234.963 390.464 236.078C393.76 236.924 398.425 238.355 405.287 241.993C412.705 245.932 414.907 247.131 432.872 257.575C450.837 268.019 452.896 269.295 459.667 273.607C465.929 277.598 468.384 280.306 469.832 282.218C471.741 284.754 472.517 286.906 472.502 289.644C472.487 292.382 471.692 294.531 469.75 297.065C468.284 298.98 465.795 301.69 459.489 305.674C452.675 309.986 450.602 311.263 432.517 321.707ZM310.065 250.518C291.673 261.139 289.445 262.515 282.548 266.876C275.664 271.229 271.882 274.735 269.234 278.188C266.504 281.758 265.029 285.279 265.005 289.627C264.981 293.975 266.421 297.494 269.112 301.065C271.718 304.522 275.464 308.025 282.3 312.379C289.144 316.744 291.357 318.12 309.63 328.744C327.904 339.367 330.273 340.654 337.781 344.635C345.273 348.609 351.307 350.792 357.264 352.313C363.418 353.885 369.485 354.73 376.991 354.731C384.497 354.732 390.577 353.889 396.749 352.319C402.718 350.795 408.777 348.614 416.317 344.643C423.865 340.661 426.248 339.376 444.64 328.754C463.036 318.13 465.265 316.754 472.161 312.393C479.037 308.04 482.827 304.535 485.47 301.084C488.206 297.511 489.68 293.99 489.704 289.641C489.729 285.294 488.289 281.775 485.598 278.203C482.992 274.747 479.246 271.244 472.41 266.889C465.561 262.528 463.352 261.148 445.079 250.525C426.805 239.901 424.432 238.617 416.928 234.634C409.436 230.659 403.403 228.477 397.445 226.955C391.291 225.384 385.224 224.539 377.718 224.538C370.213 224.537 364.132 225.38 357.956 226.953C351.991 228.473 345.924 230.655 338.393 234.626C330.844 238.609 328.461 239.895 310.065 250.518Z" fill="white"/>
<path d="M399.782 302.677C387.318 309.875 367.169 309.873 354.781 302.67C342.392 295.469 342.457 283.794 354.921 276.596C367.39 269.395 387.538 269.397 399.927 276.6C412.316 283.802 412.251 295.476 399.782 302.677ZM342.799 269.549C323.595 280.638 323.491 298.624 342.575 309.719C361.66 320.814 392.702 320.814 411.905 309.725C431.113 298.633 431.213 280.65 412.128 269.554C393.044 258.459 362.006 258.456 342.799 269.549Z" fill="white"/>
<path d="M369.514 243.181C365.024 245.773 365 249.978 369.462 252.572C373.919 255.163 381.174 255.164 385.664 252.571C390.15 249.98 390.173 245.776 385.716 243.185C381.255 240.591 373.999 240.589 369.514 243.181Z" fill="white"/>
</svg>
